<svg xmlns="http://www.w3.org/2000/svg" xmlns:xlink="http://www.w3.org/1999/xlink" width="110" height="110" viewBox="0 0 110 110">
  <defs>
    <filter id="Trazado_982547" x="0" y="0" width="110" height="110" filterUnits="userSpaceOnUse">
      <feOffset dy="3" input="SourceAlpha"/>
      <feGaussianBlur stdDeviation="3" result="blur"/>
      <feFlood flood-opacity="0.161"/>
      <feComposite operator="in" in2="blur"/>
      <feComposite in="SourceGraphic"/>
    </filter>
  </defs>
  <g id="Grupo_1167564" data-name="Grupo 1167564" transform="translate(-192 -4108)">
    <g id="Grupo_1167342" data-name="Grupo 1167342" transform="translate(0 3304)">
      <g id="Grupo_1166722" data-name="Grupo 1166722" transform="translate(-608.5 -1246.665)">
        <g id="Grupo_1164284" data-name="Grupo 1164284" transform="translate(0.5 -1745.335)">
          <g id="Grupo_1159364" data-name="Grupo 1159364" transform="translate(0 -542)">
            <g id="Grupo_1157015" data-name="Grupo 1157015" transform="translate(0 3549)">
              <g id="Grupo_1155792" data-name="Grupo 1155792" transform="translate(-1 -3894.666)">
                <g id="Grupo_1154703" data-name="Grupo 1154703" transform="translate(0 1465.666)">
                  <g id="Grupo_1150789" data-name="Grupo 1150789" transform="translate(3 2320)">
                    <g id="Grupo_1154212" data-name="Grupo 1154212" transform="translate(-236 -5809)">
                      <g id="Grupo_1152583" data-name="Grupo 1152583" transform="translate(1043 6713)">
                        <g id="Grupo_1146973" data-name="Grupo 1146973" transform="translate(0 0)">
                          <g id="Grupo_1146954" data-name="Grupo 1146954">
                            <g transform="matrix(1, 0, 0, 1, -9, -6)" filter="url(#Trazado_982547)">
                              <g id="Trazado_982547-2" data-name="Trazado 982547" transform="translate(9 6)" fill="#e9f9fd">
                                <path d="M 46 90.49987030029297 C 39.99187850952148 90.49987030029297 34.16426849365234 89.32350921630859 28.67905426025391 87.00345611572266 C 23.38019943237305 84.76224517822266 18.62104034423828 81.55341339111328 14.53374671936035 77.46613311767578 C 10.44646644592285 73.37885284423828 7.237639904022217 68.61969757080078 4.996413230895996 63.32085418701172 C 2.676359891891479 57.83565521240234 1.5 52.008056640625 1.5 45.99993515014648 C 1.5 39.99181365966797 2.676359891891479 34.16421508789062 4.996413230895996 28.67901420593262 C 7.237639904022217 23.38017463684082 10.44646644592285 18.62101554870605 14.53374671936035 14.53373527526855 C 18.62104034423828 10.44645500183105 23.38019943237305 7.23762845993042 28.67905426025391 4.996415138244629 C 34.16426849365234 2.676361799240112 39.99187850952148 1.500001788139343 46 1.500001788139343 C 52.00812149047852 1.500001788139343 57.83573150634766 2.676361799240112 63.32094573974609 4.996415138244629 C 68.61979675292969 7.23762845993042 73.37895965576172 10.44645500183105 77.46625518798828 14.53373527526855 C 81.55353546142578 18.62101554870605 84.76235961914062 23.38017463684082 87.00358581542969 28.67901420593262 C 89.32363891601562 34.16421508789062 90.5 39.99181365966797 90.5 45.99993515014648 C 90.5 52.008056640625 89.32363891601562 57.83565521240234 87.00358581542969 63.32085418701172 C 84.76235961914062 68.61969757080078 81.55353546142578 73.37885284423828 77.46625518798828 77.46613311767578 C 73.37895965576172 81.55341339111328 68.61979675292969 84.76224517822266 63.32094573974609 87.00345611572266 C 57.83573150634766 89.32350921630859 52.00812149047852 90.49987030029297 46 90.49987030029297 Z" stroke="none"/>
                                <path d="M 46 2.999992370605469 C 40.1937141418457 2.999992370605469 34.56269836425781 4.136489868164062 29.26337051391602 6.377906799316406 C 24.14332580566406 8.543502807617188 19.54441070556641 11.64437866210938 15.59439849853516 15.59437561035156 C 11.64440155029297 19.54439544677734 8.54351806640625 24.14329528808594 6.377914428710938 29.26333618164062 C 4.136497497558594 34.56264877319336 3 40.19366455078125 3 45.99993515014648 C 3 51.80620574951172 4.136497497558594 57.43720626831055 6.377914428710938 62.73651885986328 C 8.54351806640625 67.8565673828125 11.64440155029297 72.45545959472656 15.59439849853516 76.40547943115234 C 19.54441070556641 80.35547637939453 24.14332580566406 83.45635223388672 29.26337051391602 85.6219482421875 C 34.56269836425781 87.86336517333984 40.1937141418457 88.99986267089844 46 88.99986267089844 C 51.8062858581543 88.99986267089844 57.43730163574219 87.86336517333984 62.73661422729492 85.6219482421875 C 67.85667419433594 83.45635223388672 72.45557403564453 80.35547637939453 76.40558624267578 76.40547943115234 C 80.35559844970703 72.45545959472656 83.45647430419922 67.8565673828125 85.6220703125 62.73651885986328 C 87.86350250244141 57.43720626831055 89 51.80620574951172 89 45.99993515014648 C 89 40.19366455078125 87.86350250244141 34.56264877319336 85.6220703125 29.26333618164062 C 83.45647430419922 24.14329528808594 80.35559844970703 19.54439544677734 76.40558624267578 15.59437561035156 C 72.45557403564453 11.64437866210938 67.85667419433594 8.543502807617188 62.73661422729492 6.377906799316406 C 57.43730163574219 4.136489868164062 51.8062858581543 2.999992370605469 46 2.999992370605469 M 46 -7.62939453125e-06 C 71.40509033203125 -7.62939453125e-06 92 20.59486389160156 92 45.99993515014648 C 92 71.40499114990234 71.40509033203125 91.99986267089844 46 91.99986267089844 C 20.59490203857422 91.99986267089844 0 71.40499114990234 0 45.99993515014648 C 0 20.59486389160156 20.59490203857422 -7.62939453125e-06 46 -7.62939453125e-06 Z" stroke="none" fill="#1d7083"/>
                              </g>
                            </g>
                          </g>
                        </g>
                      </g>
                    </g>
                  </g>
                </g>
              </g>
            </g>
          </g>
        </g>
      </g>
    </g>
    <g id="Layer_32" data-name="Layer 32" transform="translate(211 4123)">
      <ellipse id="Elipse_11741" data-name="Elipse 11741" cx="13" cy="13.5" rx="13" ry="13.5" transform="translate(23.469 20.469)" fill="#e2e7f6"/>
      <path id="Trazado_1005219" data-name="Trazado 1005219" d="M45.042,30.52a13.634,13.634,0,0,0-6.455-11.59A13.645,13.645,0,0,0,26.458,43.249,13.635,13.635,0,0,0,45.042,30.52Z" transform="translate(2.626 2.35)" fill="#f2f2f2"/>
      <path id="Trazado_1005220" data-name="Trazado 1005220" d="M12.017,32.945a23.9,23.9,0,0,1,23.69-20.7v3.415l6.829-6.829L35.707,2V5.415A30.733,30.733,0,0,0,5.186,32.524v0l3.2-3.2Z" transform="translate(0.579 0.138)" fill="#4d8c28"/>
      <path id="Trazado_1005221" data-name="Trazado 1005221" d="M32.945,56.52l-3.628,3.628,3.2,3.2h0A30.732,30.732,0,0,1,5.415,32.829H2L8.829,26l6.829,6.829H12.244a23.9,23.9,0,0,0,20.7,23.691Z" transform="translate(0.138 3.456)" fill="#559b2d"/>
      <path id="Trazado_1005222" data-name="Trazado 1005222" d="M63.35,35.238l-3.2,3.2L56.52,34.813h0a23.9,23.9,0,0,1-23.69,20.7V52.1L26,58.929l6.829,6.829V62.344A30.733,30.733,0,0,0,63.351,35.235Z" transform="translate(3.456 4.674)" fill="#6bc13b"/>
      <path id="Trazado_1005223" data-name="Trazado 1005223" d="M35.238,5.186l3.2,3.2-3.628,3.628h0a23.9,23.9,0,0,1,20.7,23.69H52.1l6.829,6.829,6.829-6.829H62.344A30.733,30.733,0,0,0,35.235,5.186Z" transform="translate(4.674 0.579)" fill="#7bdf45"/>
      <path id="Trazado_1005224" data-name="Trazado 1005224" d="M31.008,54.687l3.2-3.2V54.9a23.852,23.852,0,0,0,18.2-8.4h0a5.663,5.663,0,0,0-6.75-5.149,5.722,5.722,0,0,0-2.774-2.076l.016-.013a13.659,13.659,0,0,1-17.362.013h0a5.722,5.722,0,0,0-2.773,2.082,5.663,5.663,0,0,0-6.75,5.149h0a23.862,23.862,0,0,0,14.994,8.188Z" transform="translate(2.075 5.289)" fill="#976947"/>
      <path id="Trazado_1005225" data-name="Trazado 1005225" d="M24,26h0a9.106,9.106,0,0,1,9.106,9.106v4.553h0A9.106,9.106,0,0,1,24,30.553Z" transform="translate(3.179 3.456)" fill="#559b2d"/>
      <path id="Trazado_1005226" data-name="Trazado 1005226" d="M9.106,0h0V4.553A9.106,9.106,0,0,1,0,13.659H0V9.106A9.106,9.106,0,0,1,9.106,0Z" transform="translate(45.391 43.115) rotate(180)" fill="#6bc13b"/>
      <path id="Trazado_1005227" data-name="Trazado 1005227" d="M71.484,35.849a1.138,1.138,0,0,0-1.052-.7h-2.3A31.852,31.852,0,0,0,40.447,4.69L37.09,1.333a1.138,1.138,0,0,0-1.943.8v2.3A31.852,31.852,0,0,0,4.69,32.124L1.333,35.481a1.138,1.138,0,0,0,.8,1.943h2.3A31.852,31.852,0,0,0,32.124,67.881l3.357,3.357a1.138,1.138,0,0,0,.8.334,1.123,1.123,0,0,0,.436-.087,1.138,1.138,0,0,0,.7-1.052v-2.3A31.854,31.854,0,0,0,67.881,40.447l3.357-3.357a1.138,1.138,0,0,0,.247-1.241Zm-5.6.436a1.138,1.138,0,0,0,1.138,1.138h.667L63.6,41.505l-4.082-4.082h.667a1.138,1.138,0,0,0,1.138-1.138,25.122,25.122,0,0,0-19.5-24.421L43.92,9.772a1.138,1.138,0,0,0,0-1.609l-.633-.633A29.585,29.585,0,0,1,65.88,36.285ZM36.721,55.722a1.138,1.138,0,0,0-1.241.247L32.7,58.751a22.651,22.651,0,0,1-13.391-7.344,4.5,4.5,0,0,1,5.32-3.651,1.152,1.152,0,0,0,1.138-.455,4.576,4.576,0,0,1,1.7-1.439,14.683,14.683,0,0,0,17.643,0A4.576,4.576,0,0,1,46.816,47.3a1.15,1.15,0,0,0,1.138.455,4.5,4.5,0,0,1,5.321,3.655,22.8,22.8,0,0,1-15.852,7.611V56.774a1.138,1.138,0,0,0-.7-1.052Zm-.436-9.192A12.521,12.521,0,1,1,48.806,34.009,12.521,12.521,0,0,1,36.285,46.53Zm18.667,2.732a6.784,6.784,0,0,0-6.743-3.844,6.864,6.864,0,0,0-1.3-1.138,14.8,14.8,0,1,0-21.26,0,6.865,6.865,0,0,0-1.3,1.138,6.778,6.778,0,0,0-6.738,3.834,22.682,22.682,0,0,1-4.067-11.827H15.8a1.138,1.138,0,0,0,.8-1.943L13.82,32.7A22.818,22.818,0,0,1,35.147,13.549V15.8a1.138,1.138,0,0,0,1.943.8l2.783-2.782A22.818,22.818,0,0,1,59.022,35.147H56.774a1.138,1.138,0,0,0-.8,1.943l2.782,2.783A22.5,22.5,0,0,1,54.953,49.261ZM36.285,6.691a1.138,1.138,0,0,0,1.138-1.138V4.886l4.082,4.082-4.082,4.082v-.667a1.138,1.138,0,0,0-1.138-1.138,25.122,25.122,0,0,0-24.421,19.5L9.772,28.651a1.138,1.138,0,0,0-1.609,0l-.633.633A29.585,29.585,0,0,1,36.285,6.691ZM6.691,36.285a1.138,1.138,0,0,0-1.138-1.138H4.886l4.082-4.082,4.082,4.082h-.667a1.138,1.138,0,0,0-1.138,1.138,25.122,25.122,0,0,0,19.5,24.421L28.651,62.8a1.138,1.138,0,0,0,0,1.609l.633.633A29.585,29.585,0,0,1,6.691,36.285ZM36.285,65.88a1.138,1.138,0,0,0-1.138,1.138v.667L31.065,63.6l4.082-4.082v.667a1.138,1.138,0,0,0,1.138,1.138,25.122,25.122,0,0,0,24.421-19.5L62.8,43.92a1.138,1.138,0,0,0,1.609,0l.633-.633A29.594,29.594,0,0,1,36.285,65.88Z" transform="translate(0 0)"/>
      <path id="Trazado_1005228" data-name="Trazado 1005228" d="M42.35,25a10.244,10.244,0,0,0-9.106,5.577A10.244,10.244,0,0,0,24.138,25,1.138,1.138,0,0,0,23,26.138v4.553a10.244,10.244,0,0,0,20.488,0V26.138A1.138,1.138,0,0,0,42.35,25ZM25.276,30.691V27.357a7.98,7.98,0,0,1,6.829,7.887v3.334a7.98,7.98,0,0,1-6.829-7.887Zm15.935,0a7.98,7.98,0,0,1-6.829,7.887V35.244a7.98,7.98,0,0,1,6.829-7.887Z" transform="translate(3.041 3.318)"/>
    </g>
  </g>
</svg>
