<svg xmlns="http://www.w3.org/2000/svg" xmlns:xlink="http://www.w3.org/1999/xlink" width="113" height="113" viewBox="0 0 113 113">
  <defs>
    <filter id="Trazado_982547" x="0" y="0" width="113" height="113" filterUnits="userSpaceOnUse">
      <feOffset dy="3" input="SourceAlpha"/>
      <feGaussianBlur stdDeviation="3" result="blur"/>
      <feFlood flood-opacity="0.161"/>
      <feComposite operator="in" in2="blur"/>
      <feComposite in="SourceGraphic"/>
    </filter>
  </defs>
  <g id="Grupo_1166124" data-name="Grupo 1166124" transform="translate(-195.645 -1472)">
    <g id="Grupo_1164308" data-name="Grupo 1164308" transform="translate(204.645 1478)">
      <g id="Grupo_1163948" data-name="Grupo 1163948" transform="translate(0)">
        <g id="Grupo_1158168" data-name="Grupo 1158168" transform="translate(0)">
          <g id="Grupo_1152576" data-name="Grupo 1152576">
            <g id="Grupo_1148633" data-name="Grupo 1148633">
              <g id="Grupo_1148525" data-name="Grupo 1148525">
                <g transform="matrix(1, 0, 0, 1, -9, -6)" filter="url(#Trazado_982547)">
                  <g id="Trazado_982547-2" data-name="Trazado 982547" transform="translate(9 6)" fill="#e9f9fd">
                    <path d="M 47.5 93.5 C 41.28937149047852 93.5 35.26533508300781 92.28397369384766 29.59518623352051 89.88570404052734 C 24.11771965026855 87.56893157958984 19.19813346862793 84.25196075439453 14.97309303283691 80.02691650390625 C 10.74804019927979 75.80186462402344 7.431066513061523 70.88229370117188 5.114293098449707 65.40481567382812 C 2.716026782989502 59.73468017578125 1.5 53.71062850952148 1.5 47.5 C 1.5 41.28937149047852 2.716026782989502 35.26533508300781 5.114293098449707 29.59518623352051 C 7.431066513061523 24.11771965026855 10.74804019927979 19.19813346862793 14.97309303283691 14.97309303283691 C 19.19813346862793 10.74804019927979 24.11771965026855 7.431066513061523 29.59518623352051 5.114293098449707 C 35.26533508300781 2.716026782989502 41.28937149047852 1.5 47.5 1.5 C 53.71062850952148 1.5 59.73468017578125 2.716026782989502 65.40481567382812 5.114293098449707 C 70.88229370117188 7.431066513061523 75.80186462402344 10.74804019927979 80.02691650390625 14.97309303283691 C 84.25196075439453 19.19813346862793 87.56893157958984 24.11771965026855 89.88570404052734 29.59518623352051 C 92.28397369384766 35.26533508300781 93.5 41.28937149047852 93.5 47.5 C 93.5 53.71062850952148 92.28397369384766 59.73468017578125 89.88570404052734 65.40481567382812 C 87.56893157958984 70.88229370117188 84.25196075439453 75.80186462402344 80.02691650390625 80.02691650390625 C 75.80186462402344 84.25196075439453 70.88229370117188 87.56893157958984 65.40481567382812 89.88570404052734 C 59.73468017578125 92.28397369384766 53.71062850952148 93.5 47.5 93.5 Z" stroke="none"/>
                    <path d="M 47.5 3 C 41.49121475219727 3 35.66376876831055 4.176155090332031 30.17950439453125 6.495796203613281 C 24.88084411621094 8.736953735351562 20.12152099609375 11.94598388671875 16.03375244140625 16.03375244140625 C 11.94598388671875 20.12152099609375 8.736953735351562 24.88084411621094 6.495796203613281 30.17950439453125 C 4.176155090332031 35.66376876831055 3 41.49121475219727 3 47.5 C 3 53.50878524780273 4.176155090332031 59.33623123168945 6.495796203613281 64.82049560546875 C 8.736953735351562 70.11915588378906 11.94598388671875 74.87847900390625 16.03375244140625 78.96624755859375 C 20.12152099609375 83.05401611328125 24.88084411621094 86.26304626464844 30.17950439453125 88.50419616699219 C 35.66376876831055 90.82384490966797 41.49121475219727 92 47.5 92 C 53.50878524780273 92 59.33623123168945 90.82384490966797 64.82049560546875 88.50419616699219 C 70.11915588378906 86.26304626464844 74.87847900390625 83.05401611328125 78.96624755859375 78.96624755859375 C 83.05401611328125 74.87847900390625 86.26304626464844 70.11915588378906 88.50419616699219 64.82049560546875 C 90.82384490966797 59.33623123168945 92 53.50878524780273 92 47.5 C 92 41.49121475219727 90.82384490966797 35.66376876831055 88.50419616699219 30.17950439453125 C 86.26304626464844 24.88084411621094 83.05401611328125 20.12152099609375 78.96624755859375 16.03375244140625 C 74.87847900390625 11.94598388671875 70.11915588378906 8.736953735351562 64.82049560546875 6.495796203613281 C 59.33623123168945 4.176155090332031 53.50878524780273 3 47.5 3 M 47.5 0 C 73.7335205078125 0 95 21.2664794921875 95 47.5 C 95 73.7335205078125 73.7335205078125 95 47.5 95 C 21.2664794921875 95 0 73.7335205078125 0 47.5 C 0 21.2664794921875 21.2664794921875 0 47.5 0 Z" stroke="none" fill="#36ceef"/>
                  </g>
                </g>
              </g>
            </g>
          </g>
        </g>
      </g>
    </g>
    <g id="expertise_9874794" transform="translate(217.782 1498.209)">
      <g id="Grupo_1166106" data-name="Grupo 1166106" transform="translate(6.586 9.76)">
        <g id="Grupo_1166100" data-name="Grupo 1166100" transform="translate(0)">
          <path id="Trazado_1001618" data-name="Trazado 1001618" d="M40.182,116.854a10.847,10.847,0,0,1,6.366-9.867,6.034,6.034,0,0,1-2.156-4.623V89.217a1.819,1.819,0,0,0-2.2.284l-1.942,1.942a1.808,1.808,0,0,1-2.006.384q-.317-.141-.643-.266a1.807,1.807,0,0,1-1.147-1.69V87.124a1.82,1.82,0,0,0-1.82-1.82H30.486a1.82,1.82,0,0,0-1.82,1.82V89.87a1.807,1.807,0,0,1-1.147,1.69q-.325.125-.643.266a1.807,1.807,0,0,1-2.006-.384L22.929,89.5a1.82,1.82,0,0,0-2.573,0l-2.931,2.931a1.82,1.82,0,0,0,0,2.573l1.942,1.942a1.808,1.808,0,0,1,.384,2.006q-.141.318-.266.643a1.807,1.807,0,0,1-1.69,1.147H15.048a1.82,1.82,0,0,0-1.82,1.82v4.145a1.82,1.82,0,0,0,1.82,1.82h2.747a1.807,1.807,0,0,1,1.69,1.147q.125.326.266.643a1.807,1.807,0,0,1-.384,2.006l-1.942,1.942a1.82,1.82,0,0,0,0,2.573l2.931,2.931a1.82,1.82,0,0,0,2.573,0l1.942-1.942a1.808,1.808,0,0,1,2.006-.384q.318.141.643.266a1.807,1.807,0,0,1,1.147,1.69v2.747a1.82,1.82,0,0,0,1.82,1.82h4.145a1.82,1.82,0,0,0,1.82-1.82V119.4a1.807,1.807,0,0,1,1.147-1.69q.325-.125.643-.266a1.806,1.806,0,0,1,1.983.363C40.2,117.492,40.182,117.175,40.182,116.854Z" transform="translate(-13.228 -85.304)" fill="#cdbfba"/>
        </g>
        <g id="Grupo_1166101" data-name="Grupo 1166101" transform="translate(15.58)">
          <path id="Trazado_1001619" data-name="Trazado 1001619" d="M160.769,116.854a10.847,10.847,0,0,1,6.366-9.867,6.034,6.034,0,0,1-2.156-4.623V89.217a1.819,1.819,0,0,0-2.2.284l-1.942,1.942a1.808,1.808,0,0,1-2.006.384q-.318-.141-.643-.266a1.807,1.807,0,0,1-1.147-1.69V87.124a1.82,1.82,0,0,0-1.82-1.82h-4.145a1.815,1.815,0,0,0-1.445.716,20.487,20.487,0,0,1-.234,36.828,1.82,1.82,0,0,0,1.679,1.117h4.145a1.82,1.82,0,0,0,1.82-1.82V119.4a1.807,1.807,0,0,1,1.147-1.69q.325-.125.643-.266a1.806,1.806,0,0,1,1.983.363C160.784,117.492,160.769,117.175,160.769,116.854Z" transform="translate(-149.395 -85.304)" fill="#b9acac"/>
        </g>
        <g id="Grupo_1166102" data-name="Grupo 1166102" transform="translate(11.178 11.178)">
          <circle id="Elipse_11729" data-name="Elipse 11729" cx="8.153" cy="8.153" r="8.153" fill="#efe2dd"/>
        </g>
        <g id="Grupo_1166103" data-name="Grupo 1166103" transform="translate(17.532 11.178)">
          <path id="Trazado_1001620" data-name="Trazado 1001620" d="M168.261,183a8.179,8.179,0,0,0-1.8.2,8.152,8.152,0,0,1,0,15.9,8.153,8.153,0,1,0,1.8-16.1Z" transform="translate(-166.462 -183)" fill="#e1d3ce"/>
        </g>
        <g id="Grupo_1166104" data-name="Grupo 1166104" transform="translate(15.353 15.353)">
          <circle id="Elipse_11730" data-name="Elipse 11730" cx="3.978" cy="3.978" r="3.978" fill="#868686"/>
        </g>
        <g id="Grupo_1166105" data-name="Grupo 1166105" transform="translate(17.534 15.353)">
          <path id="Trazado_1001621" data-name="Trazado 1001621" d="M168.273,219.487a3.96,3.96,0,0,0-1.8.429,3.978,3.978,0,0,1,0,7.1,3.978,3.978,0,1,0,1.8-7.527Z" transform="translate(-166.476 -219.487)" fill="#766e6e"/>
        </g>
      </g>
      <g id="Grupo_1166118" data-name="Grupo 1166118" transform="translate(37.636 0.858)">
        <g id="Grupo_1166117" data-name="Grupo 1166117">
          <g id="Grupo_1166107" data-name="Grupo 1166107">
            <path id="Trazado_1001622" data-name="Trazado 1001622" d="M286.758,38.138a10.812,10.812,0,0,1,11.5,1.483h2.165l-.005-.115a2.621,2.621,0,0,1-.253-5.23l-.012-.242h-.789a2.622,2.622,0,1,1,0-5.243v-.229a2.622,2.622,0,1,1,0-5.243V23.09a2.622,2.622,0,1,1,0-5.243h.005l-.005-.114h-7.816a.764.764,0,0,1-.764-.764V12.5a5,5,0,0,0-5.056-5h0A1.134,1.134,0,0,0,284.6,8.632V33.46A6.144,6.144,0,0,0,286.758,38.138Z" transform="translate(-284.604 -7.498)" fill="#ffb09e"/>
          </g>
          <g id="Grupo_1166108" data-name="Grupo 1166108" transform="translate(7.406 10.234)">
            <path id="Trazado_1001623" data-name="Trazado 1001623" d="M355.581,118.834h2.165l-.005-.115a2.621,2.621,0,0,1-.253-5.23l-.012-.242h-.789a2.622,2.622,0,1,1,0-5.243v-.229a2.622,2.622,0,1,1,0-5.243V102.3a2.622,2.622,0,1,1,0-5.243h.005l-.005-.114h-6.131v15.727a6.132,6.132,0,0,1-1.22,3.681A10.782,10.782,0,0,1,355.581,118.834Z" transform="translate(-349.336 -96.946)" fill="#f89580"/>
          </g>
          <g id="Grupo_1166109" data-name="Grupo 1166109" transform="translate(13.08 26.65)">
            <path id="Trazado_1001624" data-name="Trazado 1001624" d="M408.319,243.158h0a2.736,2.736,0,0,0-2.736-2.736h-3.924a2.736,2.736,0,0,0-2.736,2.736h0a2.736,2.736,0,0,0,2.736,2.736h3.924A2.736,2.736,0,0,0,408.319,243.158Z" transform="translate(-398.923 -240.422)" fill="#ffcebf"/>
          </g>
          <g id="Grupo_1166110" data-name="Grupo 1166110" transform="translate(13.08 28.218)">
            <path id="Trazado_1001625" data-name="Trazado 1001625" d="M405.584,255.691H401.66a2.736,2.736,0,0,1-2.474-1.568,2.725,2.725,0,0,0-.262,1.168h0a2.736,2.736,0,0,0,2.736,2.736h3.924a2.736,2.736,0,0,0,2.736-2.736h0a2.724,2.724,0,0,0-.262-1.168A2.736,2.736,0,0,1,405.584,255.691Z" transform="translate(-398.924 -254.123)" fill="#ffb09e"/>
          </g>
          <g id="Grupo_1166111" data-name="Grupo 1166111" transform="translate(12.021 21.178)">
            <path id="Trazado_1001626" data-name="Trazado 1001626" d="M399.415,192.6H392.4a2.736,2.736,0,0,0-2.736,2.736h0a2.736,2.736,0,0,0,2.736,2.736h7.011a2.736,2.736,0,0,0,2.736-2.736h0A2.736,2.736,0,0,0,399.415,192.6Z" transform="translate(-389.668 -192.597)" fill="#ffcebf"/>
          </g>
          <g id="Grupo_1166112" data-name="Grupo 1166112" transform="translate(12.021 22.736)">
            <path id="Trazado_1001627" data-name="Trazado 1001627" d="M399.415,207.768H392.4a2.736,2.736,0,0,1-2.47-1.558,2.737,2.737,0,0,0,2.47,3.914h7.011a2.737,2.737,0,0,0,2.47-3.914A2.736,2.736,0,0,1,399.415,207.768Z" transform="translate(-389.668 -206.21)" fill="#ffb09e"/>
          </g>
          <g id="Grupo_1166113" data-name="Grupo 1166113" transform="translate(12.021 10.234)">
            <path id="Trazado_1001628" data-name="Trazado 1001628" d="M399.415,96.946H392.4a2.736,2.736,0,0,0-2.736,2.736h0a2.736,2.736,0,0,0,2.736,2.736h7.011a2.736,2.736,0,0,0,2.736-2.736h0A2.736,2.736,0,0,0,399.415,96.946Z" transform="translate(-389.668 -96.946)" fill="#ffcebf"/>
          </g>
          <g id="Grupo_1166114" data-name="Grupo 1166114" transform="translate(12.021 11.772)">
            <path id="Trazado_1001629" data-name="Trazado 1001629" d="M399.416,111.923H392.4a2.736,2.736,0,0,1-2.46-1.538,2.724,2.724,0,0,0-.276,1.2h0a2.736,2.736,0,0,0,2.736,2.736h7.011a2.736,2.736,0,0,0,2.736-2.736h0a2.726,2.726,0,0,0-.276-1.2A2.736,2.736,0,0,1,399.416,111.923Z" transform="translate(-389.669 -110.385)" fill="#ffb09e"/>
          </g>
          <g id="Grupo_1166115" data-name="Grupo 1166115" transform="translate(12.021 15.706)">
            <path id="Trazado_1001630" data-name="Trazado 1001630" d="M399.415,144.771H392.4a2.736,2.736,0,0,0-2.736,2.736h0a2.736,2.736,0,0,0,2.736,2.736h7.011a2.736,2.736,0,0,0,2.736-2.736h0A2.736,2.736,0,0,0,399.415,144.771Z" transform="translate(-389.668 -144.771)" fill="#ffcebf"/>
          </g>
          <g id="Grupo_1166116" data-name="Grupo 1166116" transform="translate(12.021 17.254)">
            <path id="Trazado_1001631" data-name="Trazado 1001631" d="M399.415,159.846H392.4a2.736,2.736,0,0,1-2.465-1.548,2.725,2.725,0,0,0-.271,1.188h0a2.736,2.736,0,0,0,2.736,2.736h7.011a2.736,2.736,0,0,0,2.736-2.736h0a2.725,2.725,0,0,0-.271-1.188A2.736,2.736,0,0,1,399.415,159.846Z" transform="translate(-389.668 -158.298)" fill="#ffb09e"/>
          </g>
        </g>
      </g>
      <g id="Grupo_1166122" data-name="Grupo 1166122" transform="translate(33.426 30.364)">
        <g id="Grupo_1166121" data-name="Grupo 1166121">
          <g id="Grupo_1166119" data-name="Grupo 1166119">
            <circle id="Elipse_11731" data-name="Elipse 11731" cx="10.946" cy="10.946" r="10.946" fill="#97da7b"/>
          </g>
          <g id="Grupo_1166120" data-name="Grupo 1166120" transform="translate(7.963)">
            <path id="Trazado_1001632" data-name="Trazado 1001632" d="M320.387,265.386a10.957,10.957,0,0,0-2.983.412,10.95,10.95,0,0,1,0,21.069,10.947,10.947,0,1,0,2.983-21.48Z" transform="translate(-317.404 -265.386)" fill="#80d261"/>
          </g>
        </g>
      </g>
      <g id="Grupo_1166123" data-name="Grupo 1166123" transform="translate(5.728 0)">
        <path id="Trazado_1001633" data-name="Trazado 1001633" d="M257.107,314.539a.858.858,0,0,0-.593,1.059,15.557,15.557,0,0,1-26.639,14.52.858.858,0,0,0-1.287,1.135,17.276,17.276,0,0,0,29.578-16.122A.858.858,0,0,0,257.107,314.539Z" transform="translate(-202.9 -278.522)"/>
        <path id="Trazado_1001634" data-name="Trazado 1001634" d="M114.357,175.5a9,9,0,0,0-8.736,6.8.858.858,0,1,0,1.664.42,7.295,7.295,0,1,1,0,3.584.858.858,0,1,0-1.664.42,9.012,9.012,0,1,0,8.736-11.223Z" transform="translate(-94.168 -155.42)"/>
        <path id="Trazado_1001635" data-name="Trazado 1001635" d="M149.584,216.823a4.836,4.836,0,1,0-4.836,4.836A4.842,4.842,0,0,0,149.584,216.823Zm-7.957,0a3.12,3.12,0,1,1,3.12,3.12A3.124,3.124,0,0,1,141.627,216.823Z" transform="translate(-124.558 -187.733)"/>
        <path id="Trazado_1001636" data-name="Trazado 1001636" d="M293.682,333.489h0a.859.859,0,0,0,.643-.29l6.681-7.562a.858.858,0,0,0-1.286-1.136l-6.035,6.831-3.5-4a.858.858,0,0,0-1.292,1.13l4.14,4.733A.858.858,0,0,0,293.682,333.489Z" transform="translate(-256.312 -287.116)"/>
        <path id="Trazado_1001637" data-name="Trazado 1001637" d="M63,19.3a3.586,3.586,0,0,0-1.267-2.736,3.592,3.592,0,0,0-2.327-6.33H44.671V5.861A5.861,5.861,0,0,0,38.748,0a2,2,0,0,0-1.971,1.992V4.92a.858.858,0,0,0,1.716,0V1.992a.276.276,0,0,1,.273-.275h.045a4.145,4.145,0,0,1,4.143,4.145v4.467a1.624,1.624,0,0,0,1.623,1.623H49.33a3.586,3.586,0,0,0,.736,4.614,3.587,3.587,0,0,0,0,5.472,3.59,3.59,0,0,0,.63,5.9,3.578,3.578,0,0,0-.779,2.953,11.789,11.789,0,0,0-10.035-.5,5.309,5.309,0,0,1-1.389-3.575V8.924a.858.858,0,0,0-1.716,0v3.644a2.671,2.671,0,0,0-1.837.781L33,15.292a.953.953,0,0,1-1.052.206c-.225-.1-.454-.194-.682-.282a.952.952,0,0,1-.6-.889V11.58A2.681,2.681,0,0,0,27.99,8.9H23.845a2.681,2.681,0,0,0-2.678,2.678v2.747a.952.952,0,0,1-.6.889c-.228.088-.458.183-.683.282a.953.953,0,0,1-1.052-.206L16.894,13.35a2.681,2.681,0,0,0-3.787,0l-2.931,2.931a2.681,2.681,0,0,0,0,3.787l1.942,1.942a.953.953,0,0,1,.206,1.051c-.1.224-.194.453-.282.683a.952.952,0,0,1-.889.6H8.406a2.681,2.681,0,0,0-2.678,2.678v4.145a2.681,2.681,0,0,0,2.678,2.678h2.747a.952.952,0,0,1,.889.6c.088.229.183.459.282.683a.953.953,0,0,1-.206,1.051l-1.942,1.942a2.681,2.681,0,0,0,0,3.787l2.931,2.931a2.681,2.681,0,0,0,3.787,0l1.942-1.942a.953.953,0,0,1,1.052-.206c.225.1.455.195.682.282a.952.952,0,0,1,.6.889V46.6a2.681,2.681,0,0,0,2.678,2.678h4.145A2.681,2.681,0,0,0,30.667,46.6V43.856a.952.952,0,0,1,.6-.889c.228-.088.457-.182.683-.282a.924.924,0,0,1,.7-.017,11.691,11.691,0,0,0,2.223,5.645.858.858,0,1,0,1.381-1.019,10.077,10.077,0,1,1,2.7,2.524.858.858,0,0,0-.924,1.446A11.8,11.8,0,0,0,53.5,33.838h3.872a3.592,3.592,0,0,0,2.98-5.6,3.591,3.591,0,0,0,1.375-6.2A3.586,3.586,0,0,0,63,19.3ZM32.575,40.9a2.626,2.626,0,0,0-1.324.212c-.2.088-.4.172-.6.25a2.678,2.678,0,0,0-1.7,2.491V46.6a.963.963,0,0,1-.961.961H23.844a.963.963,0,0,1-.961-.961V43.856a2.678,2.678,0,0,0-1.7-2.491c-.2-.077-.4-.161-.6-.249a2.68,2.68,0,0,0-2.96.562L15.68,43.619a.963.963,0,0,1-1.36,0l-2.931-2.931a.963.963,0,0,1,0-1.36l1.942-1.942a2.68,2.68,0,0,0,.562-2.96c-.088-.2-.172-.4-.25-.6a2.678,2.678,0,0,0-2.491-1.7H8.406a.963.963,0,0,1-.961-.961V27.019a.963.963,0,0,1,.961-.961h2.747a2.678,2.678,0,0,0,2.491-1.7c.078-.2.162-.406.25-.6a2.68,2.68,0,0,0-.562-2.96l-1.942-1.942a.963.963,0,0,1,0-1.36l2.931-2.931a.963.963,0,0,1,1.36,0l1.942,1.942a2.679,2.679,0,0,0,2.96.562c.2-.088.4-.172.6-.25a2.678,2.678,0,0,0,1.7-2.491V11.58a.963.963,0,0,1,.961-.961h4.145a.963.963,0,0,1,.961.961v2.747a2.678,2.678,0,0,0,1.7,2.491c.2.078.4.162.6.25a2.68,2.68,0,0,0,2.96-.562l1.942-1.942a.956.956,0,0,1,.623-.277V26.819a7.022,7.022,0,0,0,1.53,4.367A11.812,11.812,0,0,0,32.575,40.9Zm24.8-8.781H53.449a1.878,1.878,0,0,1,0-3.756h3.924a1.878,1.878,0,1,1,0,3.756ZM59.4,26.65H52.393a1.878,1.878,0,1,1,0-3.756H59.4a1.878,1.878,0,1,1,0,3.756Zm0-5.472H52.393a1.878,1.878,0,1,1,0-3.756H59.4a1.878,1.878,0,1,1,0,3.756Zm0-5.472H52.393a1.878,1.878,0,1,1,0-3.756H59.4a1.878,1.878,0,1,1,0,3.756Z" transform="translate(-5.728 0)"/>
      </g>
    </g>
  </g>
</svg>
