<svg xmlns="http://www.w3.org/2000/svg" xmlns:xlink="http://www.w3.org/1999/xlink" width="113" height="113" viewBox="0 0 113 113">
  <defs>
    <filter id="Trazado_982547" x="0" y="0" width="113" height="113" filterUnits="userSpaceOnUse">
      <feOffset dy="3" input="SourceAlpha"/>
      <feGaussianBlur stdDeviation="3" result="blur"/>
      <feFlood flood-opacity="0.161"/>
      <feComposite operator="in" in2="blur"/>
      <feComposite in="SourceGraphic"/>
    </filter>
  </defs>
  <g id="Grupo_1167986" data-name="Grupo 1167986" transform="translate(-190 -756)">
    <g id="Grupo_1167464" data-name="Grupo 1167464" transform="translate(-5.645 -716)">
      <g id="Grupo_1164308" data-name="Grupo 1164308" transform="translate(204.645 1478)">
        <g id="Grupo_1163948" data-name="Grupo 1163948" transform="translate(0)">
          <g id="Grupo_1158168" data-name="Grupo 1158168" transform="translate(0)">
            <g id="Grupo_1152576" data-name="Grupo 1152576">
              <g id="Grupo_1148633" data-name="Grupo 1148633">
                <g id="Grupo_1148525" data-name="Grupo 1148525">
                  <g transform="matrix(1, 0, 0, 1, -9, -6)" filter="url(#Trazado_982547)">
                    <g id="Trazado_982547-2" data-name="Trazado 982547" transform="translate(9 6)" fill="#e9f9fd">
                      <path d="M 47.5 93.5 C 41.28937149047852 93.5 35.26533508300781 92.28397369384766 29.59518623352051 89.88570404052734 C 24.11771965026855 87.56893157958984 19.19813346862793 84.25196075439453 14.97309303283691 80.02691650390625 C 10.74804019927979 75.80186462402344 7.431066513061523 70.88229370117188 5.114293098449707 65.40481567382812 C 2.716026782989502 59.73468017578125 1.5 53.71062850952148 1.5 47.5 C 1.5 41.28937149047852 2.716026782989502 35.26533508300781 5.114293098449707 29.59518623352051 C 7.431066513061523 24.11771965026855 10.74804019927979 19.19813346862793 14.97309303283691 14.97309303283691 C 19.19813346862793 10.74804019927979 24.11771965026855 7.431066513061523 29.59518623352051 5.114293098449707 C 35.26533508300781 2.716026782989502 41.28937149047852 1.5 47.5 1.5 C 53.71062850952148 1.5 59.73468017578125 2.716026782989502 65.40481567382812 5.114293098449707 C 70.88229370117188 7.431066513061523 75.80186462402344 10.74804019927979 80.02691650390625 14.97309303283691 C 84.25196075439453 19.19813346862793 87.56893157958984 24.11771965026855 89.88570404052734 29.59518623352051 C 92.28397369384766 35.26533508300781 93.5 41.28937149047852 93.5 47.5 C 93.5 53.71062850952148 92.28397369384766 59.73468017578125 89.88570404052734 65.40481567382812 C 87.56893157958984 70.88229370117188 84.25196075439453 75.80186462402344 80.02691650390625 80.02691650390625 C 75.80186462402344 84.25196075439453 70.88229370117188 87.56893157958984 65.40481567382812 89.88570404052734 C 59.73468017578125 92.28397369384766 53.71062850952148 93.5 47.5 93.5 Z" stroke="none"/>
                      <path d="M 47.5 3 C 41.49121475219727 3 35.66376876831055 4.176155090332031 30.17950439453125 6.495796203613281 C 24.88084411621094 8.736953735351562 20.12152099609375 11.94598388671875 16.03375244140625 16.03375244140625 C 11.94598388671875 20.12152099609375 8.736953735351562 24.88084411621094 6.495796203613281 30.17950439453125 C 4.176155090332031 35.66376876831055 3 41.49121475219727 3 47.5 C 3 53.50878524780273 4.176155090332031 59.33623123168945 6.495796203613281 64.82049560546875 C 8.736953735351562 70.11915588378906 11.94598388671875 74.87847900390625 16.03375244140625 78.96624755859375 C 20.12152099609375 83.05401611328125 24.88084411621094 86.26304626464844 30.17950439453125 88.50419616699219 C 35.66376876831055 90.82384490966797 41.49121475219727 92 47.5 92 C 53.50878524780273 92 59.33623123168945 90.82384490966797 64.82049560546875 88.50419616699219 C 70.11915588378906 86.26304626464844 74.87847900390625 83.05401611328125 78.96624755859375 78.96624755859375 C 83.05401611328125 74.87847900390625 86.26304626464844 70.11915588378906 88.50419616699219 64.82049560546875 C 90.82384490966797 59.33623123168945 92 53.50878524780273 92 47.5 C 92 41.49121475219727 90.82384490966797 35.66376876831055 88.50419616699219 30.17950439453125 C 86.26304626464844 24.88084411621094 83.05401611328125 20.12152099609375 78.96624755859375 16.03375244140625 C 74.87847900390625 11.94598388671875 70.11915588378906 8.736953735351562 64.82049560546875 6.495796203613281 C 59.33623123168945 4.176155090332031 53.50878524780273 3 47.5 3 M 47.5 0 C 73.7335205078125 0 95 21.2664794921875 95 47.5 C 95 73.7335205078125 73.7335205078125 95 47.5 95 C 21.2664794921875 95 0 73.7335205078125 0 47.5 C 0 21.2664794921875 21.2664794921875 0 47.5 0 Z" stroke="none" fill="#36ceef"/>
                    </g>
                  </g>
                </g>
              </g>
            </g>
          </g>
        </g>
      </g>
    </g>
    <g id="estrategia-medioambiental" transform="translate(214 777)">
      <g id="Grupo_1167982" data-name="Grupo 1167982" transform="translate(0.95 0.95)">
        <path id="Trazado_1010534" data-name="Trazado 1010534" d="M407.7,87.727l-4.518,4.388s3.439,2.28,3.508,2.28,2.971-1.953,2.985-2.036S407.7,87.727,407.7,87.727Z" transform="translate(-353.047 -77.562)" fill="#01d0fb"/>
        <path id="Trazado_1010535" data-name="Trazado 1010535" d="M20.328,55.907A25.189,25.189,0,0,1,54.8,19.379a.526.526,0,0,1,.043.781l-.345.345a.525.525,0,0,0,.253.882l7.089,1.636A1.05,1.05,0,0,0,63.1,21.765l-1.636-7.089a.525.525,0,0,0-.882-.253l-.52.52a.526.526,0,0,1-.714.026A31.484,31.484,0,0,0,15.808,60.294Z" transform="translate(-7.5 -7.5)" fill="#9be69d"/>
        <g id="Grupo_1167981" data-name="Grupo 1167981" transform="translate(10.505 11.544)">
          <g id="Grupo_1167980" data-name="Grupo 1167980" transform="translate(2.069)">
            <path id="Trazado_1010536" data-name="Trazado 1010536" d="M163.693,137.4a18.927,18.927,0,0,0,5.791-8.273l-2.7-17.63a18.922,18.922,0,0,0-9.752-6.785l-12.267.529a18.928,18.928,0,0,0-7.174,4.995h0l-1.035,23.929a18.974,18.974,0,0,0,6.582,5.523Z" transform="translate(-132.779 -103.944)" fill="#01d0fb"/>
            <path id="Trazado_1010537" data-name="Trazado 1010537" d="M291.035,122.836a18.858,18.858,0,0,1-7.341,14.949l3.406-.379a18.927,18.927,0,0,0,5.791-8.273l-2.7-17.63a18.921,18.921,0,0,0-9.752-6.785l-2.571.111A18.9,18.9,0,0,1,291.035,122.836Z" transform="translate(-256.186 -103.945)" fill="#01c0fa"/>
            <path id="Trazado_1010538" data-name="Trazado 1010538" d="M115.558,167.205v-.595a1.924,1.924,0,0,1,1.924-1.924,5.038,5.038,0,0,0,4.506-2.785l.595-1.189a5.037,5.037,0,0,0,.532-2.253V155.1a3.007,3.007,0,0,0-3.007-3.007h-1.123a3.007,3.007,0,0,1-2.852-2.056,2.519,2.519,0,0,0-2.39-1.722h-2.188a18.891,18.891,0,0,0-1.035,23.929h0A5.037,5.037,0,0,0,115.558,167.205Z" transform="translate(-106.742 -142.017)" fill="#9be69d"/>
            <path id="Trazado_1010539" data-name="Trazado 1010539" d="M299.489,171.687l-1.067-9.834-4.358-3.6h-2.769a5.038,5.038,0,0,0-4.506,2.785l-.595,1.189a5.039,5.039,0,0,0-.532,2.253v2.292a2.519,2.519,0,0,0,1.392,2.253l2.582,1.291a5.037,5.037,0,0,0,2.253.532h1.33a1.259,1.259,0,0,1,1.259,1.259v1.259a2.518,2.518,0,0,0,2.292,2.507Z" transform="translate(-262.993 -150.699)" fill="#9be69d"/>
            <path id="Trazado_1010540" data-name="Trazado 1010540" d="M355.749,169.59a18.859,18.859,0,0,1-1.072,6.286c.075.007.15.011.227.011h2.7a18.916,18.916,0,0,0-2.7-17.632h-2.934A18.805,18.805,0,0,1,355.749,169.59Z" transform="translate(-320.9 -150.699)" fill="#6fd7a3"/>
            <path id="Trazado_1010541" data-name="Trazado 1010541" d="M211.393,99.4,208,99.046l-1.21,0a18.792,18.792,0,0,0-5.449,1.246l.475.951a5.038,5.038,0,0,0,4.506,2.785h3.095a2.519,2.519,0,0,0,2.1-1.122l1.515-2.272Z" transform="translate(-189.354 -98.991)" fill="#9be69d"/>
            <path id="Trazado_1010542" data-name="Trazado 1010542" d="M244.267,98.671a18.778,18.778,0,0,1,6.248,1.587l.58-.87h0a18.893,18.893,0,0,0-5.362-.773Q244.993,98.615,244.267,98.671Z" transform="translate(-226.843 -98.615)" fill="#6fd7a3"/>
            <path id="Trazado_1010543" data-name="Trazado 1010543" d="M196.486,335.984l3.477-.415,6.591-2.915,1.326-2.575-.525-.735a5.038,5.038,0,0,0-4.1-2.11h-3.089a5.856,5.856,0,0,0-4.873,2.608,2.628,2.628,0,0,1-2.187,1.17,5.036,5.036,0,0,0-4.607,3,18.779,18.779,0,0,0,7.089,1.977Z" transform="translate(-178.14 -298.268)" fill="#9be69d"/>
            <path id="Trazado_1010544" data-name="Trazado 1010544" d="M256.581,349.688a18.839,18.839,0,0,1-12.314,5.915q.726.056,1.467.056a18.814,18.814,0,0,0,12.014-4.312l.011-.009h0Z" transform="translate(-226.843 -317.877)" fill="#6fd7a3"/>
          </g>
          <path id="Trazado_1010545" data-name="Trazado 1010545" d="M109.369,256.242A20.963,20.963,0,0,0,92.48,247.72q-.539,0-1.071.027a1.052,1.052,0,0,0-1,1.108,20.993,20.993,0,0,0,20.964,19.855c.235,0,.469-.005.7-.013Z" transform="translate(-90.411 -228.828)" fill="#6fd7a3"/>
          <path id="Trazado_1010546" data-name="Trazado 1010546" d="M218.657,307.758a21.2,21.2,0,0,0,2.669.169c.235,0,.469-.005.7-.013l-2.709-12.455a21.119,21.119,0,0,0-2.521-2.832,23.945,23.945,0,0,0,1.86,15.131Z" transform="translate(-200.36 -268.046)" fill="#3ec3a4"/>
          <path id="Trazado_1010547" data-name="Trazado 1010547" d="M239.312,186.174a20.889,20.889,0,0,0,2.8,10.482,20.994,20.994,0,0,0,17.816-30.874,1.051,1.051,0,0,0-.992-.552A20.992,20.992,0,0,0,239.312,186.174Z" transform="translate(-220.446 -156.787)" fill="#6fd7a3"/>
          <path id="Trazado_1010548" data-name="Trazado 1010548" d="M278.191,165.782a1.051,1.051,0,0,0-.992-.552,21.014,21.014,0,0,0-2.162.253,1.045,1.045,0,0,1,.244.3,21,21,0,0,1-15.058,30.6c.051.091.1.183.152.274a20.995,20.995,0,0,0,17.816-30.874Z" transform="translate(-238.707 -156.788)" fill="#3ec3a4"/>
        </g>
        <path id="Trazado_1010549" data-name="Trazado 1010549" d="M112.707,87.727l.946,4.1a1.05,1.05,0,0,1-1.259,1.259l-4.206-.971a25.189,25.189,0,0,1-34.473,36.529.526.526,0,0,1-.043-.781l.346-.346a.525.525,0,0,0-.253-.882L66.677,125a1.05,1.05,0,0,0-1.259,1.259l1.636,7.089a.525.525,0,0,0,.882.253l.519-.519a.526.526,0,0,1,.714-.026,31.484,31.484,0,0,0,43.538-45.327Z" transform="translate(-58.056 -77.562)" fill="#01d0fb"/>
      </g>
      <g id="Grupo_1167983" data-name="Grupo 1167983" transform="translate(0 0)">
        <path id="Trazado_1010550" data-name="Trazado 1010550" d="M104.862,132.9c.216,0,.446,0,.721-.013h.012a21.946,21.946,0,0,0,18.619-32.273,2,2,0,0,0-1.891-1.052c-.384.025-.765.06-1.145.1a19.851,19.851,0,0,0-23.51-7.2.948.948,0,0,0-.137.054l-.008,0A19.851,19.851,0,0,0,87.415,101.5a.95.95,0,1,0,1.67.907,18,18,0,0,1,2.126-3.093h1.759a1.567,1.567,0,0,1,1.488,1.073,3.952,3.952,0,0,0,3.754,2.706h1.123a2.059,2.059,0,0,1,2.057,2.057v3.361a4.109,4.109,0,0,1-.432,1.828l-.595,1.189a4.068,4.068,0,0,1-2.393,2.059,21.771,21.771,0,0,0-1.963-1.149,22,22,0,0,0-9.065-2.4,17.95,17.95,0,0,1,.539-3.558A.95.95,0,1,0,85.644,106a19.873,19.873,0,0,0-.6,4.03c-.064,0-.128,0-.192.007a2,2,0,0,0-1.9,2.107A21.929,21.929,0,0,0,104.862,132.9Zm17.583-31.442h.006a.1.1,0,0,1,.088.053,20.053,20.053,0,0,1-13.734,29.1,29.358,29.358,0,0,0,3.316-3.586,36.5,36.5,0,0,0,7.33-19.122.95.95,0,1,0-1.891-.19,34.648,34.648,0,0,1-6.875,18.064,25.669,25.669,0,0,1-4.789,4.775,20.043,20.043,0,0,1,16.549-29.1ZM109.819,104.5a4.054,4.054,0,0,1,.2-.483l.595-1.189a4.066,4.066,0,0,1,3.656-2.26H117a21.822,21.822,0,0,0-7.182,3.932ZM108.69,93.425l-1.352,2.028a1.566,1.566,0,0,1-1.305.7h-3.1a4.065,4.065,0,0,1-3.65-2.249,17.979,17.979,0,0,1,9.4-.478Zm-6.624,18.95.595-1.189a6.019,6.019,0,0,0,.632-2.678v-3.361a3.962,3.962,0,0,0-3.957-3.957H98.213a2.054,2.054,0,0,1-1.951-1.406,3.462,3.462,0,0,0-3.171-2.367,17.946,17.946,0,0,1,4.416-2.824l.075.15a5.955,5.955,0,0,0,5.356,3.31h3.1a3.462,3.462,0,0,0,2.886-1.545l1.7-2.549a17.859,17.859,0,0,1,7.321,4.712h-3.666a5.956,5.956,0,0,0-5.356,3.31l-.595,1.189a6.018,6.018,0,0,0-.632,2.678v.66a21.839,21.839,0,0,0-5.467,10.707,22.224,22.224,0,0,0-2.489-2.35A5.966,5.966,0,0,0,102.066,112.374Zm-17.188-.409a.1.1,0,0,1,.069-.033c.34-.017.684-.026,1.023-.026a20.135,20.135,0,0,1,15.908,7.857q-.064.839-.065,1.688a21.989,21.989,0,0,0,1.264,7.338c-3.9-2.271-9.67-6.392-12.034-11.911a.95.95,0,1,0-1.747.748,24.389,24.389,0,0,0,7.43,9.13,44.683,44.683,0,0,0,6.221,4.148A20.028,20.028,0,0,1,84.852,112.04a.1.1,0,0,1,.026-.075Z" transform="translate(-72.441 -79.57)"/>
        <path id="Trazado_1010551" data-name="Trazado 1010551" d="M56.472,10.662l-.635-2.749a1.475,1.475,0,0,0-2.48-.711l-.244.244A32.192,32.192,0,0,0,32.512,0h-.076A32.3,32.3,0,0,0,13.944,5.787a.95.95,0,1,0,1.083,1.562A30.408,30.408,0,0,1,32.436,1.9h.072A30.5,30.5,0,0,1,52.18,9.143a1.485,1.485,0,0,0,1.978-.055l1.463,6.341a.1.1,0,0,1-.119.119l-6.368-1.47a1.477,1.477,0,0,0-.287-1.988A26.139,26.139,0,0,0,6.3,32.435a26.057,26.057,0,0,0,5,15.374l-1.509-.348a2,2,0,0,0-2.4,2.4l.015.063A30.54,30.54,0,0,1,11.23,10.464q.212-.205.428-.405a.95.95,0,1,0-1.293-1.393q-.229.213-.455.431A32.43,32.43,0,0,0,8.388,54.2l.635,2.751a1.475,1.475,0,0,0,2.48.711l.243-.243a32.192,32.192,0,0,0,20.608,7.454h.081A32.432,32.432,0,0,0,56.472,10.662ZM8.2,32.435a24.241,24.241,0,0,1,39.086-19.16l-.008.008a1.475,1.475,0,0,0,.711,2.48l2.588.6A24.237,24.237,0,0,1,32.435,56.673a23.912,23.912,0,0,1-14.86-5.087l.01-.01a1.475,1.475,0,0,0-.711-2.48l-2.587-.6A24.152,24.152,0,0,1,8.2,32.435ZM53.641,54.406A30.359,30.359,0,0,1,32.435,62.97h-.077A30.5,30.5,0,0,1,12.68,55.718a1.485,1.485,0,0,0-1.978.054L9.239,49.432a.1.1,0,0,1,.119-.119l6.368,1.469a1.477,1.477,0,0,0,.286,1.989A26.139,26.139,0,0,0,58.574,32.435a26.056,26.056,0,0,0-5-15.383l1.506.347a2,2,0,0,0,2.4-2.4l-.016-.07a30.54,30.54,0,0,1-3.817,39.475Z" transform="translate(0 0)"/>
      </g>
    </g>
  </g>
</svg>
