<svg xmlns="http://www.w3.org/2000/svg" width="31.286" height="31.286" viewBox="0 0 31.286 31.286">
  <g id="Grupo_1167018" data-name="Grupo 1167018" transform="translate(-236.658 -3369.714)">
    <path id="plant_12420207" d="M29.423,8.623a.5.5,0,0,0,.79.627A9.487,9.487,0,0,0,32.286,3.3V1.5a.5.5,0,0,0-.5-.5H24.717a8.585,8.585,0,0,0-8.074,5.708A8.585,8.585,0,0,0,8.569,1H1.5a.5.5,0,0,0-.5.5V3.3a9.6,9.6,0,0,0,9.588,9.588h5.551V15.29a14.861,14.861,0,0,0-1.924.173A15.661,15.661,0,0,0,3.659,22.185a.5.5,0,0,0,.837.564,14.657,14.657,0,0,1,9.291-6.182v4.159h-.913a.5.5,0,0,0-.5.5v5.082H9.089a.5.5,0,0,0-.5.5V28.8a.5.5,0,0,0,.091.289L10.2,31.277H2.014q-.005-.181-.005-.363c0-.273.01-.542.024-.81a14.5,14.5,0,0,1,1.3-5.293.5.5,0,1,0-.917-.421,15.512,15.512,0,0,0-1.4,5.66c-.016.287-.026.573-.026.865s.01.6.027.9a.5.5,0,0,0,.5.476H31.755a.5.5,0,0,0,.5-.476c.017-.3.027-.6.027-.9,0-.424-.019-.868-.057-1.319a15.528,15.528,0,0,0-8.467-12.608,15.339,15.339,0,0,0-6.615-1.7v-2.4H22.7a9.483,9.483,0,0,0,5.984-2.1.5.5,0,0,0-.63-.788A8.486,8.486,0,0,1,22.7,11.875H18.164l9.157-6.827a.5.5,0,1,0-.6-.809l-9.57,7.135v-1.8a7.578,7.578,0,0,1,7.569-7.569h6.56V3.3a8.488,8.488,0,0,1-1.854,5.327ZM2.009,3.3V2.009h6.56a7.578,7.578,0,0,1,7.569,7.569v1.8L6.569,4.238a.5.5,0,0,0-.6.809l9.157,6.827H10.588A8.588,8.588,0,0,1,2.009,3.3ZM9.594,28.64V27.321h3.28a.5.5,0,0,0,.5-.5V21.735h.913a.5.5,0,0,0,.5-.5V16.409a14.176,14.176,0,0,1,1.847-.129,14.388,14.388,0,0,1,6.027,1.3l-3.341,3.341a.5.5,0,0,0-.148.357V24.4a.5.5,0,0,0,.5.5h2.427v3.835a.5.5,0,0,0,.5.5h2.234l-.686,2.033H11.436L9.594,28.64Zm21.629,1.039c.036.423.054.838.054,1.234q0,.182-.005.363H25.231l.8-2.377a.5.5,0,0,0-.478-.666H23.122V24.4a.5.5,0,0,0-.5-.5H20.191V21.489L23.62,18.06a14.515,14.515,0,0,1,7.6,11.619Z" transform="translate(235.658 3368.714)"/>
    <path id="plant_12420207-2" data-name="plant_12420207" d="M29.423,8.623a.5.5,0,0,0,.79.627A9.487,9.487,0,0,0,32.286,3.3V1.5a.5.5,0,0,0-.5-.5H24.717a8.585,8.585,0,0,0-8.074,5.708A8.585,8.585,0,0,0,8.569,1H1.5a.5.5,0,0,0-.5.5V3.3a9.6,9.6,0,0,0,9.588,9.588h5.551V15.29a14.861,14.861,0,0,0-1.924.173A15.661,15.661,0,0,0,3.659,22.185a.5.5,0,0,0,.837.564,14.657,14.657,0,0,1,9.291-6.182v4.159h-.913a.5.5,0,0,0-.5.5v5.082H9.089a.5.5,0,0,0-.5.5V28.8a.5.5,0,0,0,.091.289L10.2,31.277H2.014q-.005-.181-.005-.363c0-.273.01-.542.024-.81a14.5,14.5,0,0,1,1.3-5.293.5.5,0,1,0-.917-.421,15.512,15.512,0,0,0-1.4,5.66c-.016.287-.026.573-.026.865s.01.6.027.9a.5.5,0,0,0,.5.476H31.755a.5.5,0,0,0,.5-.476c.017-.3.027-.6.027-.9,0-.424-.019-.868-.057-1.319a15.528,15.528,0,0,0-8.467-12.608,15.339,15.339,0,0,0-6.615-1.7v-2.4H22.7a9.483,9.483,0,0,0,5.984-2.1.5.5,0,0,0-.63-.788A8.486,8.486,0,0,1,22.7,11.875H18.164l9.157-6.827a.5.5,0,1,0-.6-.809l-9.57,7.135v-1.8a7.578,7.578,0,0,1,7.569-7.569h6.56V3.3a8.488,8.488,0,0,1-1.854,5.327ZM2.009,3.3V2.009h6.56a7.578,7.578,0,0,1,7.569,7.569v1.8L6.569,4.238a.5.5,0,0,0-.6.809l9.157,6.827H10.588A8.588,8.588,0,0,1,2.009,3.3ZM9.594,28.64V27.321h3.28a.5.5,0,0,0,.5-.5V21.735h.913a.5.5,0,0,0,.5-.5V16.409a14.176,14.176,0,0,1,1.847-.129,14.388,14.388,0,0,1,6.027,1.3l-3.341,3.341a.5.5,0,0,0-.148.357V24.4a.5.5,0,0,0,.5.5h2.427v3.835a.5.5,0,0,0,.5.5h2.234l-.686,2.033H11.436L9.594,28.64Zm21.629,1.039c.036.423.054.838.054,1.234q0,.182-.005.363H25.231l.8-2.377a.5.5,0,0,0-.478-.666H23.122V24.4a.5.5,0,0,0-.5-.5H20.191V21.489L23.62,18.06a14.515,14.515,0,0,1,7.6,11.619Z" transform="translate(235.658 3368.714)"/>
  </g>
</svg>
