<svg xmlns="http://www.w3.org/2000/svg" xmlns:xlink="http://www.w3.org/1999/xlink" width="108" height="108" viewBox="0 0 108 108">
  <defs>
    <filter id="Trazado_904820" x="0" y="0" width="108" height="108" filterUnits="userSpaceOnUse">
      <feOffset dy="3" input="SourceAlpha"/>
      <feGaussianBlur stdDeviation="3" result="blur"/>
      <feFlood flood-opacity="0.161"/>
      <feComposite operator="in" in2="blur"/>
      <feComposite in="SourceGraphic"/>
    </filter>
  </defs>
  <g id="Grupo_1167563" data-name="Grupo 1167563" transform="translate(-606 -3435)">
    <g id="Grupo_1167341" data-name="Grupo 1167341" transform="translate(420 1469)">
      <g id="Grupo_1166792" data-name="Grupo 1166792" transform="translate(195 1972)">
        <g transform="matrix(1, 0, 0, 1, -9, -6)" filter="url(#Trazado_904820)">
          <g id="Trazado_904820-2" data-name="Trazado 904820" transform="translate(9 6)" fill="#fff4e6">
            <path d="M 44.99999618530273 88.50003051757812 C 39.12687301635742 88.50003051757812 33.43022155761719 87.35010528564453 28.06829643249512 85.08219909667969 C 22.88852119445801 82.89134216308594 18.23629570007324 79.75461578369141 14.24084663391113 75.75916290283203 C 10.24540901184082 71.76371765136719 7.108683586120605 67.11150360107422 4.917821407318115 61.93172836303711 C 2.649921178817749 56.56978988647461 1.499996185302734 50.87313842773438 1.499996185302734 45.00001525878906 C 1.499996185302734 39.12689208984375 2.649921178817749 33.43024063110352 4.917821407318115 28.06831550598145 C 7.108683586120605 22.88854026794434 10.24540901184082 18.23631477355957 14.24084663391113 14.24086570739746 C 18.23629570007324 10.24541568756104 22.88852119445801 7.10869026184082 28.06829643249512 4.917840480804443 C 33.43022155761719 2.649927854537964 39.12687301635742 1.50000274181366 44.99999618530273 1.50000274181366 C 50.87311935424805 1.50000274181366 56.56977081298828 2.649927854537964 61.93169784545898 4.917840480804443 C 67.11147308349609 7.10869026184082 71.76369476318359 10.24541568756104 75.75914764404297 14.24086570739746 C 79.75458526611328 18.23631477355957 82.89131164550781 22.88854026794434 85.08216857910156 28.06831550598145 C 87.35007476806641 33.43024063110352 88.5 39.12689208984375 88.5 45.00001525878906 C 88.5 50.87313842773438 87.35007476806641 56.56978988647461 85.08216857910156 61.93172836303711 C 82.89131164550781 67.11150360107422 79.75458526611328 71.76371765136719 75.75914764404297 75.75916290283203 C 71.76369476318359 79.75461578369141 67.11147308349609 82.89134216308594 61.93169784545898 85.08219909667969 C 56.56977081298828 87.35010528564453 50.87311935424805 88.50003051757812 44.99999618530273 88.50003051757812 Z" stroke="none"/>
            <path d="M 44.99999618530273 3 C 39.32870864868164 3 33.82865142822266 4.110061645507812 28.65262603759766 6.299346923828125 C 23.65165710449219 8.414573669433594 19.15968322753906 11.44334411621094 15.301513671875 15.301513671875 C 11.44333648681641 19.15968322753906 8.414566040039062 23.65165710449219 6.299339294433594 28.65262985229492 C 4.110054016113281 33.82867050170898 2.999992370605469 39.32872772216797 2.999992370605469 45.00001525878906 C 2.999992370605469 50.67130279541016 4.110054016113281 56.17136001586914 6.299339294433594 61.34738922119141 C 8.414566040039062 66.34837341308594 11.44333648681641 70.84033203125 15.301513671875 74.69850158691406 C 19.15968322753906 78.55668640136719 23.65165710449219 81.58545684814453 28.65262603759766 83.70068359375 C 33.82865142822266 85.88996887207031 39.32870864868164 87.00003051757812 44.99999618530273 87.00003051757812 C 50.67128372192383 87.00003051757812 56.17134094238281 85.88996887207031 61.34736633300781 83.70068359375 C 66.34834289550781 81.58545684814453 70.84030914306641 78.55668640136719 74.69847869873047 74.69850158691406 C 78.55665588378906 70.84033203125 81.58542633056641 66.34837341308594 83.70065307617188 61.34738922119141 C 85.88993835449219 56.17136001586914 87 50.67130279541016 87 45.00001525878906 C 87 39.32872772216797 85.88993835449219 33.82867050170898 83.70065307617188 28.65262985229492 C 81.58542633056641 23.65165710449219 78.55665588378906 19.15968322753906 74.69847869873047 15.301513671875 C 70.84030914306641 11.44334411621094 66.34834289550781 8.414573669433594 61.34736633300781 6.299346923828125 C 56.17134094238281 4.110061645507812 50.67128372192383 3 44.99999618530273 3 M 44.99999618530273 0 C 69.85281372070312 0 90 20.14718627929688 90 45.00001525878906 C 90 69.85282897949219 69.85281372070312 90.00003051757812 44.99999618530273 90.00003051757812 C 20.14717864990234 90.00003051757812 -7.62939453125e-06 69.85282897949219 -7.62939453125e-06 45.00001525878906 C -7.62939453125e-06 20.14718627929688 20.14717864990234 0 44.99999618530273 0 Z" stroke="none" fill="#ff9d1c"/>
          </g>
        </g>
      </g>
    </g>
    <g id="innovacion_5_" data-name="innovacion (5)" transform="translate(629 3447.823)">
      <g id="Grupo_1167561" data-name="Grupo 1167561" transform="translate(0.907 9.085)">
        <path id="Trazado_1005193" data-name="Trazado 1005193" d="M50.082,60.055l2.3-.236,3.7-1.026,5.755-4.063,3.717-6.41.32-7.485-3.031-6.728-3.492-3.7L56.1,28.138l-4.678-.871-.984-.145-1,.038A16.488,16.488,0,0,0,39.655,31.7a.616.616,0,0,1-1.044-.447v-.017a15.555,15.555,0,1,0-20.638,14.7.836.836,0,0,1,.208,1.477A14.5,14.5,0,1,0,40.928,59.338v-.03a1.425,1.425,0,0,1,2.118-1.258,16.413,16.413,0,0,0,6.4,2.018Z" transform="translate(-7.501 -15.678)" fill="#a2dbff"/>
        <g id="Grupo_1167558" data-name="Grupo 1167558" transform="translate(41.941 11.399)">
          <path id="Trazado_1005194" data-name="Trazado 1005194" d="M372.282,125.937a16.541,16.541,0,0,0-18.195-15.975,16.537,16.537,0,0,1,0,32.906,16.54,16.54,0,0,0,18.194-16.931Z" transform="translate(-354.087 -109.879)" fill="#64caff"/>
        </g>
        <path id="Trazado_1005195" data-name="Trazado 1005195" d="M272.885,169.631l.593-.013,1.425-.155,2.354-.532,2.86-2.189,3.708-2.865,1.48-5.544s-.454-4.55-.427-4.713c-.14-.287-2.02-4.981-2.02-4.981l-4.77-3.252-2.472-.748-1.972-.163h-.758a12.649,12.649,0,0,0,0,25.154Z" transform="translate(-230.835 -128.891)" fill="#ffe270"/>
        <path id="Trazado_1005196" data-name="Trazado 1005196" d="M356.338,143.89a12.807,12.807,0,0,0-1.344.071,12.649,12.649,0,0,1,0,25.154,12.8,12.8,0,0,0,1.344.071,12.648,12.648,0,0,0,0-25.3Z" transform="translate(-312.944 -128.375)" fill="#ffd250"/>
        <path id="Trazado_1005197" data-name="Trazado 1005197" d="M303.224,196.144l.844-.015s1.749-.279,1.765-.279,2.6-1.139,2.6-1.139l2.353-3.178,1.068-3.8-.892-3.8-2.6-3.02-2.975-1.217-1.116-.232h-1.054a8.462,8.462,0,0,0,0,16.688Z" transform="translate(-261.235 -159.637)" fill="#ffab56"/>
        <path id="Trazado_1005198" data-name="Trazado 1005198" d="M355.892,178.478a8.508,8.508,0,0,0-1.405.118,8.462,8.462,0,0,1,0,16.689,8.462,8.462,0,1,0,1.405-16.807Z" transform="translate(-312.498 -158.777)" fill="#ff982a"/>
        <path id="Trazado_1005199" data-name="Trazado 1005199" d="M52.417,75.442l3.963-.773L59.8,71.925l3.4-5.782L61.82,58.762l-2.984-3.544-4.07-2.358-2.2-.387H51.138a11.683,11.683,0,0,0,0,23.045Z" transform="translate(-37.283 -48.02)" fill="#ffe270"/>
        <path id="Trazado_1005200" data-name="Trazado 1005200" d="M123.923,51.159a11.764,11.764,0,0,0-1.926.159,11.683,11.683,0,0,1,0,23.045,11.682,11.682,0,1,0,1.926-23.2Z" transform="translate(-108.142 -46.865)" fill="#ffd250"/>
        <g id="Grupo_1167560" data-name="Grupo 1167560" transform="translate(7.881 12.025)">
          <path id="Trazado_1005201" data-name="Trazado 1005201" d="M84.5,120.756c-.06-.06-2.258-2.1-2.258-2.1V116.04l.542-.99h.884a5.311,5.311,0,0,1,5.311,5.311v.83l-1.221.7S84.561,120.815,84.5,120.756Z" transform="translate(-81.08 -115.05)" fill="#6ce79a"/>
          <path id="Trazado_1005202" data-name="Trazado 1005202" d="M73.35,115.049h.985v.83a5.311,5.311,0,0,0,5.311,5.311h.884v1.039a.72.72,0,0,1-.72.72H77.941a5.311,5.311,0,0,1-5.311-5.311v-1.869A.72.72,0,0,1,73.35,115.049Z" transform="translate(-72.63 -115.049)" fill="#00d8a2"/>
          <g id="Grupo_1167559" data-name="Grupo 1167559" transform="translate(7.9 0)">
            <path id="Trazado_1005203" data-name="Trazado 1005203" d="M142.394,120.756c.06-.06,2.258-2.1,2.258-2.1V116.04l-.542-.99h-.884a5.311,5.311,0,0,0-5.311,5.311v.83l1.221.7S142.334,120.815,142.394,120.756Z" transform="translate(-137.915 -115.05)" fill="#6ce79a"/>
            <path id="Trazado_1005204" data-name="Trazado 1005204" d="M145.1,115.05h-.985v.83a5.311,5.311,0,0,1-5.311,5.311h-.884v1.039a.72.72,0,0,0,.72.72H140.5a5.311,5.311,0,0,0,5.311-5.311V115.77A.72.72,0,0,0,145.1,115.05Z" transform="translate(-137.915 -115.05)" fill="#00d8a2"/>
          </g>
        </g>
        <path id="Trazado_1005205" data-name="Trazado 1005205" d="M83.891,308.673l1.507.189,2.854.351,4.326-2.3,3.791-3.931,1.067-5.063L95.667,293.4l-2.773-3.327-1.79-1.158-1.579-.474a10.646,10.646,0,0,0-6.409,20Z" transform="translate(-68.881 -255.338)" fill="#6ce79a"/>
        <path id="Trazado_1005206" data-name="Trazado 1005206" d="M131.553,289.268a10.646,10.646,0,0,1-6.408,20,10.646,10.646,0,1,0,6.408-20Z" transform="translate(-110.909 -256.161)" fill="#00d8a2"/>
      </g>
      <g id="Grupo_1167562" data-name="Grupo 1167562" transform="translate(0 8.177)">
        <path id="Trazado_1005207" data-name="Trazado 1005207" d="M267.635,163.5a13.556,13.556,0,1,0-13.556-13.556A13.571,13.571,0,0,0,267.635,163.5Zm0-25.3a11.741,11.741,0,1,1-11.74,11.74A11.754,11.754,0,0,1,267.635,138.205Z" transform="translate(-223.333 -120.875)"/>
        <path id="Trazado_1005208" data-name="Trazado 1005208" d="M344.678,209.553a2.044,2.044,0,0,1-1.483-.387.908.908,0,0,0-.994,1.519,3.607,3.607,0,0,0,1.576.638v.235a.908.908,0,1,0,1.815,0v-.33a3.034,3.034,0,0,0,2.041-2.365,2.682,2.682,0,0,0-1.821-3.036,7.433,7.433,0,0,1-1.873-.867.522.522,0,0,1-.1-.481.745.745,0,0,1,.485-.588,3.222,3.222,0,0,1,1.831,0,.908.908,0,0,0,.638-1.7,4.444,4.444,0,0,0-1.2-.24v-.06a.908.908,0,1,0-1.815,0v.266a2.543,2.543,0,0,0-1.719,1.982,2.281,2.281,0,0,0,.762,2.245,8.683,8.683,0,0,0,2.388,1.15.863.863,0,0,1,.636,1.023A1.174,1.174,0,0,1,344.678,209.553Z" transform="translate(-300.43 -177.657)"/>
        <path id="Trazado_1005209" data-name="Trazado 1005209" d="M298.174,189.69a9.369,9.369,0,1,0-9.367-9.935.908.908,0,0,0,1.812.111,7.567,7.567,0,1,1,.481,3.147.908.908,0,0,0-1.7.649,9.357,9.357,0,0,0,8.769,6.028Z" transform="translate(-253.856 -151.252)"/>
        <path id="Trazado_1005210" data-name="Trazado 1005210" d="M59.061,56.248A12.589,12.589,0,1,0,46.472,68.837,12.6,12.6,0,0,0,59.061,56.248ZM46.472,67.022A10.774,10.774,0,1,1,57.246,56.248,10.786,10.786,0,0,1,46.472,67.022Z" transform="translate(-29.783 -39.365)"/>
        <path id="Trazado_1005211" data-name="Trazado 1005211" d="M81.119,107.549H79.25a6.247,6.247,0,0,0-1.454.172.908.908,0,1,0,.423,1.765,4.43,4.43,0,0,1,1.031-.123h1.681v1.681a4.409,4.409,0,0,1-4.4,4.4H74.846v-1.681a4.363,4.363,0,0,1,.894-2.659.908.908,0,0,0-1.446-1.1,6.3,6.3,0,0,0-.356.522,6.221,6.221,0,0,0-5.31-2.985H66.759a1.629,1.629,0,0,0-1.628,1.627v1.869a6.226,6.226,0,0,0,6.219,6.219h1.869a1.618,1.618,0,0,0,.72-.168,1.618,1.618,0,0,0,.72.168h1.869a6.226,6.226,0,0,0,6.219-6.219v-1.869a1.63,1.63,0,0,0-1.628-1.627Zm-14.173,3.5v-1.681h1.681a4.409,4.409,0,0,1,4.4,4.4v1.681H71.35A4.409,4.409,0,0,1,66.946,111.046Z" transform="translate(-57.249 -95.524)"/>
        <path id="Trazado_1005212" data-name="Trazado 1005212" d="M69.832,292.386a11.554,11.554,0,1,0,11.554-11.554,11.567,11.567,0,0,0-11.554,11.554Zm11.554-9.739a9.739,9.739,0,1,1-9.739,9.739A9.75,9.75,0,0,1,81.386,282.647Z" transform="translate(-61.382 -247.838)"/>
        <path id="Trazado_1005213" data-name="Trazado 1005213" d="M121.626,367.6l-.854.645a.908.908,0,1,0,1.094,1.449l2.761-2.085a.908.908,0,0,0,.2-1.242l-1.8-2.594a.908.908,0,1,0-1.492,1.035l.741,1.068a4.331,4.331,0,0,1-3.651-4.45.908.908,0,0,0-.871-.943h-.037a.908.908,0,0,0-.906.871,6.15,6.15,0,0,0,4.815,6.247Z" transform="translate(-102.671 -317.852)"/>
        <path id="Trazado_1005214" data-name="Trazado 1005214" d="M142.426,320.809a.908.908,0,0,0,1.319-1.248l-.893-.944a4.338,4.338,0,0,1,4.279,3.849.908.908,0,0,0,1.8-.2,6.148,6.148,0,0,0-5.7-5.45l.747-.766a.908.908,0,1,0-1.3-1.267l-2.415,2.477a.908.908,0,0,0-.01,1.257Z" transform="translate(-123.065 -277.438)"/>
        <path id="Trazado_1005215" data-name="Trazado 1005215" d="M61.95,36.517A17.435,17.435,0,0,0,32.912,24,16.482,16.482,0,0,0,16.463,8.177h-.13A16.509,16.509,0,0,0,0,24.812a16.508,16.508,0,0,0,10.953,15.34A15.428,15.428,0,0,0,4.528,50.919a.908.908,0,0,0,1.8.214A13.612,13.612,0,0,1,12.1,41.563a1.744,1.744,0,0,0-.428-3.081A14.623,14.623,0,0,1,6.027,14.389a14.536,14.536,0,0,1,10.32-4.4h.116A14.665,14.665,0,0,1,31.109,24.639v.016a1.523,1.523,0,0,0,2.581,1.1A15.626,15.626,0,1,1,36.9,50.664a2.332,2.332,0,0,0-3.469,2.05v.03A13.612,13.612,0,0,1,19.287,66.33,13.719,13.719,0,0,1,6.345,54.482a.908.908,0,0,0-1.8.232,15.457,15.457,0,0,0,14.671,13.43q.312.012.621.012a15.428,15.428,0,0,0,15.4-15.411v-.032a.522.522,0,0,1,.26-.461.492.492,0,0,1,.506,0A17.45,17.45,0,0,0,61.95,36.517Z" transform="translate(0 -8.177)"/>
        <path id="Trazado_1005216" data-name="Trazado 1005216" d="M289.539,45.193h1.431v1.43a.908.908,0,1,0,1.815,0v-1.43h1.43a.908.908,0,1,0,0-1.815h-1.43v-1.43a.908.908,0,1,0-1.815,0v1.43h-1.431a.908.908,0,0,0,0,1.815Z" transform="translate(-253.703 -37.063)"/>
        <path id="Trazado_1005217" data-name="Trazado 1005217" d="M344.469,406.138h-1.43v-1.43a.908.908,0,1,0-1.815,0v1.43h-1.43a.908.908,0,1,0,0,1.815h1.43v1.43a.908.908,0,1,0,1.815,0v-1.43h1.43a.908.908,0,1,0,0-1.815Z" transform="translate(-297.876 -355.925)"/>
        <path id="Trazado_1005218" data-name="Trazado 1005218" d="M9.8,263.593v-1.43h1.43a.908.908,0,1,0,0-1.815H9.8v-1.43a.908.908,0,1,0-1.815,0v1.43H6.551a.908.908,0,1,0,0,1.815h1.43v1.43a.908.908,0,1,0,1.815,0Z" transform="translate(-4.96 -227.777)"/>
      </g>
    </g>
  </g>
</svg>
