<svg xmlns="http://www.w3.org/2000/svg" xmlns:xlink="http://www.w3.org/1999/xlink" width="113" height="113" viewBox="0 0 113 113">
  <defs>
    <filter id="Trazado_982547" x="0" y="0" width="113" height="113" filterUnits="userSpaceOnUse">
      <feOffset dy="3" input="SourceAlpha"/>
      <feGaussianBlur stdDeviation="3" result="blur"/>
      <feFlood flood-opacity="0.161"/>
      <feComposite operator="in" in2="blur"/>
      <feComposite in="SourceGraphic"/>
    </filter>
  </defs>
  <g id="Grupo_1167569" data-name="Grupo 1167569" transform="translate(-325 -4575)">
    <g id="Grupo_1167343" data-name="Grupo 1167343" transform="translate(0 2228)">
      <g id="Grupo_1166777" data-name="Grupo 1166777" transform="translate(0.105 -910)">
        <g id="Grupo_1164305" data-name="Grupo 1164305" transform="translate(333.895 3263)">
          <g id="Grupo_1163948" data-name="Grupo 1163948" transform="translate(0)">
            <g id="Grupo_1158168" data-name="Grupo 1158168" transform="translate(0)">
              <g id="Grupo_1152576" data-name="Grupo 1152576">
                <g id="Grupo_1148633" data-name="Grupo 1148633">
                  <g id="Grupo_1148525" data-name="Grupo 1148525">
                    <g transform="matrix(1, 0, 0, 1, -9, -6)" filter="url(#Trazado_982547)">
                      <g id="Trazado_982547-2" data-name="Trazado 982547" transform="translate(9 6)" fill="#f2f7e5">
                        <path d="M 47.5 93.5 C 41.28937149047852 93.5 35.26533508300781 92.28397369384766 29.59518623352051 89.88570404052734 C 24.11771965026855 87.56893157958984 19.19813346862793 84.25196075439453 14.97309303283691 80.02691650390625 C 10.74804019927979 75.80186462402344 7.431066513061523 70.88229370117188 5.114293098449707 65.40481567382812 C 2.716026782989502 59.73468017578125 1.5 53.71062850952148 1.5 47.5 C 1.5 41.28937149047852 2.716026782989502 35.26533508300781 5.114293098449707 29.59518623352051 C 7.431066513061523 24.11771965026855 10.74804019927979 19.19813346862793 14.97309303283691 14.97309303283691 C 19.19813346862793 10.74804019927979 24.11771965026855 7.431066513061523 29.59518623352051 5.114293098449707 C 35.26533508300781 2.716026782989502 41.28937149047852 1.5 47.5 1.5 C 53.71062850952148 1.5 59.73468017578125 2.716026782989502 65.40481567382812 5.114293098449707 C 70.88229370117188 7.431066513061523 75.80186462402344 10.74804019927979 80.02691650390625 14.97309303283691 C 84.25196075439453 19.19813346862793 87.56893157958984 24.11771965026855 89.88570404052734 29.59518623352051 C 92.28397369384766 35.26533508300781 93.5 41.28937149047852 93.5 47.5 C 93.5 53.71062850952148 92.28397369384766 59.73468017578125 89.88570404052734 65.40481567382812 C 87.56893157958984 70.88229370117188 84.25196075439453 75.80186462402344 80.02691650390625 80.02691650390625 C 75.80186462402344 84.25196075439453 70.88229370117188 87.56893157958984 65.40481567382812 89.88570404052734 C 59.73468017578125 92.28397369384766 53.71062850952148 93.5 47.5 93.5 Z" stroke="none"/>
                        <path d="M 47.5 3 C 41.49121475219727 3 35.66376876831055 4.176155090332031 30.17950439453125 6.495796203613281 C 24.88084411621094 8.736953735351562 20.12152099609375 11.94598388671875 16.03375244140625 16.03375244140625 C 11.94598388671875 20.12152099609375 8.736953735351562 24.88084411621094 6.495796203613281 30.17950439453125 C 4.176155090332031 35.66376876831055 3 41.49121475219727 3 47.5 C 3 53.50878524780273 4.176155090332031 59.33623123168945 6.495796203613281 64.82049560546875 C 8.736953735351562 70.11915588378906 11.94598388671875 74.87847900390625 16.03375244140625 78.96624755859375 C 20.12152099609375 83.05401611328125 24.88084411621094 86.26304626464844 30.17950439453125 88.50419616699219 C 35.66376876831055 90.82384490966797 41.49121475219727 92 47.5 92 C 53.50878524780273 92 59.33623123168945 90.82384490966797 64.82049560546875 88.50419616699219 C 70.11915588378906 86.26304626464844 74.87847900390625 83.05401611328125 78.96624755859375 78.96624755859375 C 83.05401611328125 74.87847900390625 86.26304626464844 70.11915588378906 88.50419616699219 64.82049560546875 C 90.82384490966797 59.33623123168945 92 53.50878524780273 92 47.5 C 92 41.49121475219727 90.82384490966797 35.66376876831055 88.50419616699219 30.17950439453125 C 86.26304626464844 24.88084411621094 83.05401611328125 20.12152099609375 78.96624755859375 16.03375244140625 C 74.87847900390625 11.94598388671875 70.11915588378906 8.736953735351562 64.82049560546875 6.495796203613281 C 59.33623123168945 4.176155090332031 53.50878524780273 3 47.5 3 M 47.5 0 C 73.7335205078125 0 95 21.2664794921875 95 47.5 C 95 73.7335205078125 73.7335205078125 95 47.5 95 C 21.2664794921875 95 0 73.7335205078125 0 47.5 C 0 21.2664794921875 21.2664794921875 0 47.5 0 Z" stroke="none" fill="#86b60c"/>
                      </g>
                    </g>
                  </g>
                </g>
              </g>
            </g>
          </g>
        </g>
      </g>
    </g>
    <g id="economico_4_" data-name="economico (4)" transform="translate(319.141 4592.001)">
      <g id="Grupo_1167568" data-name="Grupo 1167568" transform="translate(34.712 16.331)">
        <g id="Grupo_1167565" data-name="Grupo 1167565" transform="translate(0 32.738)">
          <path id="Trazado_1005229" data-name="Trazado 1005229" d="M85.048,354.564l3.639,13.582a22.663,22.663,0,0,1,2.4-1.781,7.491,7.491,0,0,1,2.665-1.16,6.891,6.891,0,0,1,3.087.08h0l7.387,1.693a6.317,6.317,0,0,0,4.758-.626l18.473-10.665A3.461,3.461,0,0,0,124,349.693l-12.865,7.427c.01-.032.019-.065.028-.1a3.844,3.844,0,0,0-2.688-4.7l-12.9-3.51a6.058,6.058,0,0,0-4.637,1.238Z" transform="translate(-81.411 -348.753)" fill="#ffd6bd" fill-rule="evenodd"/>
          <path id="Trazado_1005230" data-name="Trazado 1005230" d="M189.358,402.947a3.845,3.845,0,0,0,4.377-1.881,3.791,3.791,0,0,1-.132.887,3.839,3.839,0,0,1-4.7,2.688c-2.51-.685-5.024-1.346-7.538-2.02a.881.881,0,1,1,.456-1.7C184.331,401.593,186.837,402.262,189.358,402.947Z" transform="translate(-163.852 -393.684)" fill="#f9c6aa" fill-rule="evenodd"/>
          <path id="Trazado_1005231" data-name="Trazado 1005231" d="M107.43,378.963l.545,2.035a22.668,22.668,0,0,1,2.4-1.781,7.491,7.491,0,0,1,2.665-1.16,6.891,6.891,0,0,1,3.087.08h0l7.387,1.693a6.317,6.317,0,0,0,4.758-.626l18.473-10.665a3.471,3.471,0,0,0,1.266-4.727q-.043-.074-.089-.145a3.465,3.465,0,0,1-1.723,2.837L127.729,377.17a6.317,6.317,0,0,1-4.758.626l-7.387-1.693h0a6.892,6.892,0,0,0-3.087-.08,7.488,7.488,0,0,0-2.665,1.16A22.673,22.673,0,0,0,107.43,378.963Z" transform="translate(-100.699 -361.606)" fill="#f9c6aa" fill-rule="evenodd"/>
          <path id="Trazado_1005232" data-name="Trazado 1005232" d="M63.3,366.452l4.449,16.6a.764.764,0,0,1-.539.933l-3.069.822a.764.764,0,0,1-.933-.539l-4.449-16.6a.764.764,0,0,1,.539-.934l3.069-.822A.764.764,0,0,1,63.3,366.452Z" transform="translate(-58.736 -363.518)" fill="#64b5f6" fill-rule="evenodd"/>
          <path id="Trazado_1005233" data-name="Trazado 1005233" d="M63.3,366.452l.052.193-2.874.77a.764.764,0,0,0-.539.934l4.4,16.409-.195.052a.764.764,0,0,1-.933-.539l-4.449-16.6a.764.764,0,0,1,.539-.934l3.068-.822A.764.764,0,0,1,63.3,366.452Z" transform="translate(-58.736 -363.518)" fill="#42a5f5" fill-rule="evenodd"/>
        </g>
        <g id="Grupo_1167567" data-name="Grupo 1167567" transform="translate(11.481)">
          <circle id="Elipse_11742" data-name="Elipse 11742" cx="15.787" cy="15.787" r="15.787" fill="#fdb800"/>
          <path id="Trazado_1005234" data-name="Trazado 1005234" d="M191.294,139.162a15.786,15.786,0,1,1-22.253,22.253,15.786,15.786,0,0,0,22.253-22.253Z" transform="translate(-165.275 -135.396)" fill="#f4a40e" fill-rule="evenodd"/>
          <ellipse id="Elipse_11743" data-name="Elipse 11743" cx="11.019" cy="11.019" rx="11.019" ry="11.019" transform="translate(4.434 26.44) rotate(-88.224)" fill="#ffda2d"/>
          <g id="Grupo_1167566" data-name="Grupo 1167566" transform="translate(4.768 4.768)">
            <path id="Trazado_1005235" data-name="Trazado 1005235" d="M187.307,146.408a10.988,10.988,0,0,1,8.068,3.515,11.018,11.018,0,0,0-14.6,16.38,11.019,11.019,0,0,1,6.529-19.895Z" transform="translate(-176.288 -146.408)" fill="#ffc700" fill-rule="evenodd"/>
            <path id="Trazado_1005236" data-name="Trazado 1005236" d="M225.528,178.685a1.106,1.106,0,0,1,2.212,0v.917a3.45,3.45,0,0,1,2.115,1.351,1.1,1.1,0,0,1-1.788,1.3,1.215,1.215,0,0,0-.426-.371,1.178,1.178,0,0,0-.54-.126h-.722a1.189,1.189,0,0,0,0,2.377h.513a3.4,3.4,0,0,1,.849,6.693v.962a1.106,1.106,0,1,1-2.212,0v-.917a3.45,3.45,0,0,1-2.114-1.351,1.1,1.1,0,0,1,1.788-1.3,1.215,1.215,0,0,0,.426.371,1.178,1.178,0,0,0,.54.126h.722a1.189,1.189,0,0,0,0-2.377h-.513a3.4,3.4,0,0,1-.849-6.693Z" transform="translate(-216.523 -173.27)" fill="#ffc700" fill-rule="evenodd"/>
          </g>
        </g>
      </g>
      <path id="Trazado_1005237" data-name="Trazado 1005237" d="M58.326,29.827a3.405,3.405,0,0,1,2.55-3.293v-.962a1.106,1.106,0,1,1,2.212,0v.916A3.414,3.414,0,0,1,65.2,27.84a1.106,1.106,0,1,1-1.793,1.3,1.192,1.192,0,0,0-.964-.5h-.722a1.189,1.189,0,0,0,0,2.377h.513a3.4,3.4,0,0,1,.849,6.693v.962a1.106,1.106,0,0,1-2.212,0v-.916A3.429,3.429,0,0,1,58.759,36.4a1.106,1.106,0,0,1,1.793-1.3,1.193,1.193,0,0,0,.964.5h.723a1.189,1.189,0,0,0,0-2.378h-.513a3.4,3.4,0,0,1-3.4-3.4Zm3.656-7.619a9.913,9.913,0,1,0,9.912,9.913,9.924,9.924,0,0,0-9.912-9.913Zm0,22.037A12.125,12.125,0,1,0,49.857,32.121,12.137,12.137,0,0,0,61.982,44.246Zm0-26.805A14.681,14.681,0,1,0,76.663,32.121,14.7,14.7,0,0,0,61.982,17.441Zm0,31.573A16.892,16.892,0,1,0,45.089,32.121,16.912,16.912,0,0,0,61.982,49.013ZM93.1,32.121a1.118,1.118,0,0,1-.372.832l-2.5,2.183a1.1,1.1,0,1,1-1.454-1.664l.28-.245H83.53a1.106,1.106,0,0,1,0-2.211H89.06l-.28-.245a1.1,1.1,0,1,1,1.454-1.664l2.5,2.182a1.118,1.118,0,0,1,.372.832ZM76.438,17.666a1.1,1.1,0,0,1,0-1.563L80.344,12.2l-.37.025a1.106,1.106,0,0,1-.147-2.208l3.306-.219a1.1,1.1,0,0,1,1.177,1.176l-.22,3.306a1.106,1.106,0,0,1-1.1,1.033c-.025,0-.049,0-.075,0a1.1,1.1,0,0,1-1.029-1.177l.025-.37L78,17.666a1.105,1.105,0,0,1-1.564,0ZM33.73,35.136l-2.494-2.182a1.106,1.106,0,0,1,0-1.664l2.494-2.182a1.105,1.105,0,0,1,1.456,1.664l-.28.245h5.527a1.106,1.106,0,0,1,0,2.211H34.908l.28.245a1.105,1.105,0,0,1-.73,1.938A1.1,1.1,0,0,1,33.73,35.136Zm5.923-24.167A1.107,1.107,0,0,1,40.83,9.793l3.306.219a1.106,1.106,0,0,1-.147,2.208l-.37-.025L47.527,16.1a1.106,1.106,0,0,1-1.565,1.564l-3.907-3.907.023.37a1.1,1.1,0,0,1-1.029,1.177c-.025,0-.05,0-.075,0a1.106,1.106,0,0,1-1.1-1.033Zm19.313-7.1,2.183-2.492a1.106,1.106,0,0,1,1.664,0L65,3.869a1.106,1.106,0,0,1-1.664,1.457l-.245-.279v5.525a1.106,1.106,0,0,1-2.212,0V5.047l-.244.279a1.106,1.106,0,0,1-1.664-1.457ZM79.591,55.242,61.365,65.764a5.146,5.146,0,0,1-3.893.5l-7.287-1.67a7.819,7.819,0,0,0-6.241,1.03l-3.073-11.47,3.7-2.833a4.139,4.139,0,0,1,3.612-1.033l12.723,3.463A2.671,2.671,0,1,1,59.5,58.9l-6.8-1.849a1.106,1.106,0,1,0-.581,2.134l6.8,1.85a4.874,4.874,0,0,0,5.6-2.425l12.763-7.368a2.32,2.32,0,0,1,3.154.844A2.312,2.312,0,0,1,79.591,55.242ZM40.106,69.205l2.342-.628-4.206-15.7-2.342.628ZM79.6,48.882A4.515,4.515,0,0,1,80.7,57.158L62.471,67.68a7.075,7.075,0,0,1-3.591.962,8.505,8.505,0,0,1-1.9-.224L49.69,66.747a5.793,5.793,0,0,0-5.139,1.133l.126.466a1.86,1.86,0,0,1-1.313,2.275l-3.028.811a1.856,1.856,0,0,1-2.276-1.313l-4.388-16.38a1.861,1.861,0,0,1,1.314-2.275l3.027-.811a1.857,1.857,0,0,1,2.235,1.191l2.98-2.283a6.3,6.3,0,0,1,5.538-1.41l12.723,3.463a4.891,4.891,0,0,1,3.565,4.137l11.123-6.422a4.486,4.486,0,0,1,3.429-.446Z" fill-rule="evenodd"/>
    </g>
  </g>
</svg>
