<svg xmlns="http://www.w3.org/2000/svg" xmlns:xlink="http://www.w3.org/1999/xlink" width="106.61" height="106.61" viewBox="0 0 106.61 106.61">
  <defs>
    <filter id="Trazado_982547" x="0" y="0" width="106.61" height="106.61" filterUnits="userSpaceOnUse">
      <feOffset dy="3" input="SourceAlpha"/>
      <feGaussianBlur stdDeviation="3" result="blur"/>
      <feFlood flood-opacity="0.161"/>
      <feComposite operator="in" in2="blur"/>
      <feComposite in="SourceGraphic"/>
    </filter>
  </defs>
  <g id="Grupo_1167714" data-name="Grupo 1167714" transform="translate(-197.474 -5013)">
    <g id="Grupo_1167456" data-name="Grupo 1167456" transform="translate(5.474 4209)">
      <g id="Grupo_1166722" data-name="Grupo 1166722" transform="translate(201 810)">
        <g id="Grupo_1164284" data-name="Grupo 1164284">
          <g id="Grupo_1159364" data-name="Grupo 1159364">
            <g id="Grupo_1157015" data-name="Grupo 1157015" transform="translate(0 0)">
              <g id="Grupo_1155792" data-name="Grupo 1155792" transform="translate(0 0)">
                <g id="Grupo_1154703" data-name="Grupo 1154703">
                  <g id="Grupo_1150789" data-name="Grupo 1150789" transform="translate(0)">
                    <g id="Grupo_1154212" data-name="Grupo 1154212" transform="translate(0 0)">
                      <g id="Grupo_1152583" data-name="Grupo 1152583">
                        <g id="Grupo_1146973" data-name="Grupo 1146973" transform="translate(0 0)">
                          <g id="Grupo_1146954" data-name="Grupo 1146954">
                            <g transform="matrix(1, 0, 0, 1, -9, -6)" filter="url(#Trazado_982547)">
                              <g id="Trazado_982547-2" data-name="Trazado 982547" transform="translate(9 6)" fill="#e9f9fd">
                                <path d="M 44.30517578125 87.1102294921875 C 38.52585220336914 87.1102294921875 32.92020034790039 85.97867584228516 27.6439266204834 83.74700164794922 C 22.54690170288086 81.59114074707031 17.96897506713867 78.50452423095703 14.03735065460205 74.57289886474609 C 10.105712890625 70.64126586914062 7.019088268280029 66.06336212158203 4.863225936889648 60.96633911132812 C 2.631550788879395 55.69007873535156 1.500000834465027 50.08442687988281 1.500000834465027 44.30511474609375 C 1.500000834465027 38.52580261230469 2.631550788879395 32.92015075683594 4.863225936889648 27.64389038085938 C 7.019088268280029 22.54686546325684 10.105712890625 17.96896553039551 14.03735065460205 14.03732681274414 C 17.96897506713867 10.10570240020752 22.54690170288086 7.019089698791504 27.6439266204834 4.863227367401123 C 32.92020034790039 2.631552219390869 38.52585220336914 1.500002264976501 44.30517578125 1.500002264976501 C 50.08449935913086 1.500002264976501 55.69015121459961 2.631552219390869 60.96641159057617 4.863227367401123 C 66.06345367431641 7.019089698791504 70.64136505126953 10.10570240020752 74.572998046875 14.03732681274414 C 78.504638671875 17.96896553039551 81.59126281738281 22.54687690734863 83.74712371826172 27.64389038085938 C 85.97879791259766 32.92015075683594 87.1103515625 38.52580261230469 87.1103515625 44.30511474609375 C 87.1103515625 50.08442687988281 85.97879791259766 55.69007873535156 83.74712371826172 60.96633911132812 C 81.59126281738281 66.0633544921875 78.504638671875 70.64126586914062 74.572998046875 74.57289886474609 C 70.64136505126953 78.50452423095703 66.06345367431641 81.59114074707031 60.96641159057617 83.74700164794922 C 55.69015121459961 85.97867584228516 50.08449935913086 87.1102294921875 44.30517578125 87.1102294921875 Z" stroke="none"/>
                                <path d="M 44.30517578125 3 C 38.72769165039062 3 33.31863403320312 4.091682434082031 28.2282600402832 6.244728088378906 C 23.31002044677734 8.324958801269531 18.89237213134766 11.30362701416016 15.09800720214844 15.09798431396484 C 11.30364990234375 18.89234161376953 8.324974060058594 23.30999755859375 6.244735717773438 28.22821426391602 C 4.091690063476562 33.31858444213867 3.000007629394531 38.72764205932617 3.000007629394531 44.30511474609375 C 3.000007629394531 49.88258743286133 4.091690063476562 55.29164505004883 6.244735717773438 60.38201522827148 C 8.324974060058594 65.30023193359375 11.30364990234375 69.71788787841797 15.09800720214844 73.51224517822266 C 18.89237213134766 77.30660247802734 23.31002044677734 80.28527069091797 28.2282600402832 82.36550140380859 C 33.31863403320312 84.51853942871094 38.72769165039062 85.6102294921875 44.30517578125 85.6102294921875 C 49.88265991210938 85.6102294921875 55.29171752929688 84.51853942871094 60.38208770751953 82.36550140380859 C 65.30031585693359 80.28527069091797 69.71797180175781 77.30660247802734 73.5123291015625 73.51224517822266 C 77.30670166015625 69.71788787841797 80.28537750244141 65.30023193359375 82.36561584472656 60.38201522827148 C 84.51866149902344 55.29164505004883 85.61034393310547 49.88258743286133 85.61034393310547 44.30511474609375 C 85.61034393310547 38.72764205932617 84.51866149902344 33.31858444213867 82.36561584472656 28.22821426391602 C 80.28537750244141 23.30999755859375 77.30670166015625 18.89234161376953 73.5123291015625 15.09798431396484 C 69.71797180175781 11.30362701416016 65.30031585693359 8.324958801269531 60.38208770751953 6.244728088378906 C 55.29171752929688 4.091682434082031 49.88265991210938 3 44.30517578125 3 M 44.30517578125 0 C 68.77423095703125 0 88.61034393310547 19.83607482910156 88.61034393310547 44.30511474609375 C 88.61034393310547 68.77415466308594 68.77423095703125 88.6102294921875 44.30517578125 88.6102294921875 C 19.83610534667969 88.6102294921875 7.62939453125e-06 68.77415466308594 7.62939453125e-06 44.30511474609375 C 7.62939453125e-06 19.83607482910156 19.83610534667969 0 44.30517578125 0 Z" stroke="none" fill="#1d7083"/>
                              </g>
                            </g>
                          </g>
                        </g>
                      </g>
                    </g>
                  </g>
                </g>
              </g>
            </g>
          </g>
        </g>
      </g>
    </g>
    <g id="desarrollo_1_" data-name="desarrollo (1)" transform="translate(218.474 5031.302)">
      <g id="Grupo_1167712" data-name="Grupo 1167712">
        <g id="Grupo_1167706" data-name="Grupo 1167706">
          <path id="Trazado_1010326" data-name="Trazado 1010326" d="M62,40v6l-2.45.82A16.563,16.563,0,0,1,57.4,52l1.16,2.31-4.25,4.25L52,57.4a16.563,16.563,0,0,1-5.18,2.15L46,62H40l-.82-2.45A16.563,16.563,0,0,1,34,57.4l-2.31,1.16-1.82-1.82a16.314,16.314,0,0,0,1.99-2.73,15.3,15.3,0,0,0,1.21-2.63,13,13,0,1,0-1.7-14.17,16,16,0,0,0-4.75-4.7l5.07-5.07L34,28.6a16.563,16.563,0,0,1,5.18-2.15L40,24h6l.82,2.45A16.563,16.563,0,0,1,52,28.6l2.31-1.16,4.25,4.25L57.4,34a16.563,16.563,0,0,1,2.15,5.18Z" fill="#ffc729"/>
        </g>
        <g id="Grupo_1167707" data-name="Grupo 1167707">
          <circle id="Elipse_11766" data-name="Elipse 11766" cx="16" cy="16" r="16" transform="translate(2 30)" fill="#69d6f4"/>
        </g>
        <g id="Grupo_1167708" data-name="Grupo 1167708">
          <path id="Trazado_1010327" data-name="Trazado 1010327" d="M34,46a15.952,15.952,0,0,0-2.14-8.01c-.16-.27-.32-.53-.49-.78a13,13,0,1,1,1.7,14.17A15.962,15.962,0,0,0,34,46Zm0-3a9,9,0,1,0,9-9A9,9,0,0,0,34,43Z" fill="#fcd770"/>
        </g>
        <g id="Grupo_1167709" data-name="Grupo 1167709">
          <path id="Trazado_1010328" data-name="Trazado 1010328" d="M18,2s6,5,6,9-6,7-6,7-6-3-6-7S18,2,18,2Z" fill="#a0d468"/>
        </g>
        <g id="Grupo_1167710" data-name="Grupo 1167710">
          <path id="Trazado_1010329" data-name="Trazado 1010329" d="M24,19h4a6.009,6.009,0,0,1-6,6H18a6.009,6.009,0,0,1,6-6Z" fill="#b4dd7f"/>
        </g>
        <g id="Grupo_1167711" data-name="Grupo 1167711">
          <path id="Trazado_1010330" data-name="Trazado 1010330" d="M18,26H14a6.009,6.009,0,0,1-6-6h4a6.009,6.009,0,0,1,6,6Z" fill="#b4dd7f"/>
        </g>
      </g>
      <g id="Grupo_1167713" data-name="Grupo 1167713">
        <path id="Trazado_1010331" data-name="Trazado 1010331" d="M60.394,38.411a17.818,17.818,0,0,0-1.852-4.46l1.231-2.461L54.51,26.228l-2.461,1.23a17.852,17.852,0,0,0-4.46-1.851L46.721,23H39.28l-.869,2.606a17.852,17.852,0,0,0-4.46,1.851l-2.461-1.23-5.041,5.041A16.864,16.864,0,0,0,19,29.05V26h3a7.008,7.008,0,0,0,7-7V18H24a6.973,6.973,0,0,0-5,2.111V18.594c1.578-.9,6-3.759,6-7.594,0-4.343-5.709-9.226-6.359-9.768L18,.7l-.641.534C16.709,1.774,11,6.657,11,11c0,3.834,4.422,6.694,6,7.594v2.517A6.973,6.973,0,0,0,12,19H7v1a7.008,7.008,0,0,0,7,7h3v2.051a16.989,16.989,0,1,0,12.866,29.1l1.623,1.622,2.461-1.23a17.852,17.852,0,0,0,4.46,1.851L39.279,63H46.72l.869-2.606a17.852,17.852,0,0,0,4.46-1.851l2.461,1.23,5.263-5.262L58.542,52.05a17.892,17.892,0,0,0,1.852-4.46L63,46.721V39.28ZM24,20h2.9A5.009,5.009,0,0,1,22,24H19.1A5.008,5.008,0,0,1,24,20ZM14,25a5.008,5.008,0,0,1-4.9-4H12a5.008,5.008,0,0,1,4.9,4ZM13,11c0-2.553,3.178-6,5-7.669C19.822,5,23,8.447,23,11c0,2.091-2.248,4.074-4,5.247V12.414l2.707-2.707L20.293,8.293,19,9.586V6H17v5L15.8,9.4l-1.6,1.2L17,14.333v1.916C15.248,15.08,13,13.1,13,11ZM31.256,53H26.222a30.491,30.491,0,0,0,.752-6h5.975A14.878,14.878,0,0,1,31.256,53ZM18,61c-2.232,0-4.254-2.387-5.546-6H23.546c-1.292,3.613-3.314,6-5.546,6Zm-6.159-8a28.363,28.363,0,0,1-.816-6H24.976a28.363,28.363,0,0,1-.816,6Zm-8.79-6H9.026a30.416,30.416,0,0,0,.752,6H4.744a14.878,14.878,0,0,1-1.693-6Zm20.5-10H19V31.179C20.829,31.77,22.451,33.937,23.546,37ZM17,31.179V37H12.454C13.549,33.937,15.171,31.77,17,31.179ZM24.159,39a28.363,28.363,0,0,1,.816,6H11.024a28.363,28.363,0,0,1,.816-6Zm8.79,6H26.974a30.416,30.416,0,0,0-.752-6h5.034A14.878,14.878,0,0,1,32.949,45ZM9.026,45H3.051a14.878,14.878,0,0,1,1.693-6H9.778A30.416,30.416,0,0,0,9.026,45ZM34.77,48.667a10,10,0,1,0-1.1-9.246A16.894,16.894,0,0,0,32.517,37.2,12.008,12.008,0,1,1,34.205,51.13,16.91,16.91,0,0,0,34.77,48.667ZM35,43a8,8,0,1,1,8,8A8.009,8.009,0,0,1,35,43Zm-9.336-6A16.654,16.654,0,0,0,23.1,31.911,15.047,15.047,0,0,1,29.972,37ZM12.9,31.911A16.654,16.654,0,0,0,10.336,37H6.028A15.047,15.047,0,0,1,12.9,31.911ZM6.028,55h4.308A16.654,16.654,0,0,0,12.9,60.089,15.047,15.047,0,0,1,6.028,55ZM23.1,60.089A16.654,16.654,0,0,0,25.664,55h4.308A15.047,15.047,0,0,1,23.1,60.089ZM61,45.279l-2.294.765-.126.547a15.871,15.871,0,0,1-2.026,4.881l-.3.476,1.084,2.168-3.224,3.223-2.167-1.083-.477.3a15.846,15.846,0,0,1-4.881,2.026l-.548.125L45.279,61H40.72l-.765-2.294-.548-.125a15.871,15.871,0,0,1-4.881-2.026l-.477-.3L31.882,57.34l-.669-.668a17,17,0,0,0,2.176-3.5A14.007,14.007,0,1,0,31.266,35.4a17.138,17.138,0,0,0-3.116-3l3.734-3.734,2.167,1.083.477-.3a15.846,15.846,0,0,1,4.881-2.026l.548-.125.764-2.3H45.28l.765,2.294.548.125a15.871,15.871,0,0,1,4.881,2.026l.477.3,2.167-1.083,3.224,3.223-1.084,2.168.3.476a15.87,15.87,0,0,1,2.026,4.881l.126.547L61,40.721Z"/>
        <path id="Trazado_1010332" data-name="Trazado 1010332" d="M42,5.414V21h2V5.414l2.293,2.293,1.414-1.414L43,1.586,38.293,6.293l1.414,1.414Z"/>
        <path id="Trazado_1010333" data-name="Trazado 1010333" d="M46.707,14.707,49,12.414V23h2V12.414l2.293,2.293,1.414-1.414L50,8.586l-4.707,4.707Z"/>
        <path id="Trazado_1010334" data-name="Trazado 1010334" d="M35,12.414V23h2V12.414l2.293,2.293,1.414-1.414L36,8.586l-4.707,4.707,1.414,1.414Z"/>
      </g>
    </g>
  </g>
</svg>
