<svg xmlns="http://www.w3.org/2000/svg" xmlns:xlink="http://www.w3.org/1999/xlink" width="113" height="113" viewBox="0 0 113 113">
  <defs>
    <filter id="Trazado_982547" x="0" y="0" width="113" height="113" filterUnits="userSpaceOnUse">
      <feOffset dy="3" input="SourceAlpha"/>
      <feGaussianBlur stdDeviation="3" result="blur"/>
      <feFlood flood-opacity="0.161"/>
      <feComposite operator="in" in2="blur"/>
      <feComposite in="SourceGraphic"/>
    </filter>
  </defs>
  <g id="Grupo_1167573" data-name="Grupo 1167573" transform="translate(-745 -4575)">
    <g id="Grupo_1167344" data-name="Grupo 1167344" transform="translate(0 2228)">
      <g id="Grupo_1166778" data-name="Grupo 1166778" transform="translate(0.355 -910)">
        <g id="Grupo_1164306" data-name="Grupo 1164306" transform="translate(753.645 3263)">
          <g id="Grupo_1163948" data-name="Grupo 1163948" transform="translate(0)">
            <g id="Grupo_1158168" data-name="Grupo 1158168" transform="translate(0)">
              <g id="Grupo_1152576" data-name="Grupo 1152576">
                <g id="Grupo_1148633" data-name="Grupo 1148633">
                  <g id="Grupo_1148525" data-name="Grupo 1148525">
                    <g transform="matrix(1, 0, 0, 1, -9, -6)" filter="url(#Trazado_982547)">
                      <g id="Trazado_982547-2" data-name="Trazado 982547" transform="translate(9 6)" fill="#f2f7e5">
                        <path d="M 47.5 93.5 C 41.28937149047852 93.5 35.26533508300781 92.28397369384766 29.59518623352051 89.88570404052734 C 24.11771965026855 87.56893157958984 19.19813346862793 84.25196075439453 14.97309303283691 80.02691650390625 C 10.74804019927979 75.80186462402344 7.431066513061523 70.88229370117188 5.114293098449707 65.40481567382812 C 2.716026782989502 59.73468017578125 1.5 53.71062850952148 1.5 47.5 C 1.5 41.28937149047852 2.716026782989502 35.26533508300781 5.114293098449707 29.59518623352051 C 7.431066513061523 24.11771965026855 10.74804019927979 19.19813346862793 14.97309303283691 14.97309303283691 C 19.19813346862793 10.74804019927979 24.11771965026855 7.431066513061523 29.59518623352051 5.114293098449707 C 35.26533508300781 2.716026782989502 41.28937149047852 1.5 47.5 1.5 C 53.71062850952148 1.5 59.73468017578125 2.716026782989502 65.40481567382812 5.114293098449707 C 70.88229370117188 7.431066513061523 75.80186462402344 10.74804019927979 80.02691650390625 14.97309303283691 C 84.25196075439453 19.19813346862793 87.56893157958984 24.11771965026855 89.88570404052734 29.59518623352051 C 92.28397369384766 35.26533508300781 93.5 41.28937149047852 93.5 47.5 C 93.5 53.71062850952148 92.28397369384766 59.73468017578125 89.88570404052734 65.40481567382812 C 87.56893157958984 70.88229370117188 84.25196075439453 75.80186462402344 80.02691650390625 80.02691650390625 C 75.80186462402344 84.25196075439453 70.88229370117188 87.56893157958984 65.40481567382812 89.88570404052734 C 59.73468017578125 92.28397369384766 53.71062850952148 93.5 47.5 93.5 Z" stroke="none"/>
                        <path d="M 47.5 3 C 41.49121475219727 3 35.66376876831055 4.176155090332031 30.17950439453125 6.495796203613281 C 24.88084411621094 8.736953735351562 20.12152099609375 11.94598388671875 16.03375244140625 16.03375244140625 C 11.94598388671875 20.12152099609375 8.736953735351562 24.88084411621094 6.495796203613281 30.17950439453125 C 4.176155090332031 35.66376876831055 3 41.49121475219727 3 47.5 C 3 53.50878524780273 4.176155090332031 59.33623123168945 6.495796203613281 64.82049560546875 C 8.736953735351562 70.11915588378906 11.94598388671875 74.87847900390625 16.03375244140625 78.96624755859375 C 20.12152099609375 83.05401611328125 24.88084411621094 86.26304626464844 30.17950439453125 88.50419616699219 C 35.66376876831055 90.82384490966797 41.49121475219727 92 47.5 92 C 53.50878524780273 92 59.33623123168945 90.82384490966797 64.82049560546875 88.50419616699219 C 70.11915588378906 86.26304626464844 74.87847900390625 83.05401611328125 78.96624755859375 78.96624755859375 C 83.05401611328125 74.87847900390625 86.26304626464844 70.11915588378906 88.50419616699219 64.82049560546875 C 90.82384490966797 59.33623123168945 92 53.50878524780273 92 47.5 C 92 41.49121475219727 90.82384490966797 35.66376876831055 88.50419616699219 30.17950439453125 C 86.26304626464844 24.88084411621094 83.05401611328125 20.12152099609375 78.96624755859375 16.03375244140625 C 74.87847900390625 11.94598388671875 70.11915588378906 8.736953735351562 64.82049560546875 6.495796203613281 C 59.33623123168945 4.176155090332031 53.50878524780273 3 47.5 3 M 47.5 0 C 73.7335205078125 0 95 21.2664794921875 95 47.5 C 95 73.7335205078125 73.7335205078125 95 47.5 95 C 21.2664794921875 95 0 73.7335205078125 0 47.5 C 0 21.2664794921875 21.2664794921875 0 47.5 0 Z" stroke="none" fill="#86b60c"/>
                      </g>
                    </g>
                  </g>
                </g>
              </g>
            </g>
          </g>
        </g>
      </g>
    </g>
    <g id="confianza" transform="translate(746.348 4596)">
      <g id="Grupo_1167571" data-name="Grupo 1167571" transform="translate(26.61 0.958)">
        <path id="Trazado_1005238" data-name="Trazado 1005238" d="M61.147,197.385,49.724,208.808l-2.91-2.91a3.383,3.383,0,0,0-2.007-.969l-10.092-1.156a1.762,1.762,0,0,1-1.561-1.75V187.007a1.7,1.7,0,0,1,2.087-1.652l2.7.638,15.464,3.652Z" transform="translate(-33.153 -162.601)" fill="#ffcebf"/>
        <path id="Trazado_1005239" data-name="Trazado 1005239" d="M176.277,186.3a1.7,1.7,0,0,0-2.018-1.667l-21.754,4.19h0a4.317,4.317,0,0,0-4.332,1.232l-1.706,2.093-2.718,3.335-11.519,18.8a2.947,2.947,0,1,0,5.407,2.348,2.948,2.948,0,0,0,5.408,2.349,2.947,2.947,0,0,0,5.407,2.348,2.948,2.948,0,0,0,5.2,2.746,11.5,11.5,0,0,1,.7-1.021l12-15.19,1.28-5.689h6.884a1.762,1.762,0,0,0,1.762-1.762V186.3Z" transform="translate(-119.362 -161.988)" fill="#ffdfcf"/>
        <g id="Grupo_1167570" data-name="Grupo 1167570" transform="translate(15.846 22.619)">
          <path id="Trazado_1005240" data-name="Trazado 1005240" d="M281.641,322.236h3.831l-1.28,5.69-12,15.19a11.752,11.752,0,0,0-.7,1.022,2.947,2.947,0,0,1-3.667,1.13,2.863,2.863,0,0,1-.742-.464,2.907,2.907,0,0,0,.577-.667,11.759,11.759,0,0,1,.7-1.022l12-15.19Z" transform="translate(-253.049 -304.66)" fill="#ffcebf"/>
          <path id="Trazado_1005241" data-name="Trazado 1005241" d="M440.6,186.308v14.119a1.761,1.761,0,0,1-1.761,1.761h-3.831a1.761,1.761,0,0,0,1.761-1.761V186.308a1.687,1.687,0,0,0-.515-1.217l2.328-.448A1.7,1.7,0,0,1,440.6,186.308Z" transform="translate(-399.532 -184.612)" fill="#ffcebf"/>
          <path id="Trazado_1005242" data-name="Trazado 1005242" d="M180.362,214.12l-1.005-5.822a7.037,7.037,0,0,0-4.831-5.518l-7.584-2.032a4.276,4.276,0,0,0-3.578.639l-2.654,1.874-2.125,1.924-1.354,1.226,4.535,6.77a12.287,12.287,0,0,0,9.445-3.6l4.1,5.847a3.569,3.569,0,0,0,2.264,1.462A2.4,2.4,0,0,0,180.362,214.12Z" transform="translate(-157.23 -198.559)" fill="#ffcebf"/>
        </g>
        <path id="Trazado_1005243" data-name="Trazado 1005243" d="M225.108,216.892a3.564,3.564,0,0,1-1.39-.587,2.4,2.4,0,0,0,.746-2.185l-1.005-5.821a7.038,7.038,0,0,0-4.83-5.519l-6.9-1.848a4.261,4.261,0,0,1,2.752-.183l7.584,2.032a7.038,7.038,0,0,1,4.83,5.519l1.005,5.821A2.4,2.4,0,0,1,225.108,216.892Z" transform="translate(-188.921 -175.94)" fill="#ffb09e"/>
        <path id="Trazado_1005244" data-name="Trazado 1005244" d="M352.379,361.408a2.947,2.947,0,0,0-.015,4.168l2.426,2.443a2.947,2.947,0,0,0,4.183-4.153l-2.426-2.443A2.947,2.947,0,0,0,352.379,361.408Z" transform="translate(-310.851 -315.463)" fill="#ffcebf"/>
        <path id="Trazado_1005245" data-name="Trazado 1005245" d="M368.224,365.946a2.948,2.948,0,0,1-4.665,2.395,2.872,2.872,0,0,0,.358-.3,2.944,2.944,0,0,0,.015-4.167l-2.426-2.444a2.97,2.97,0,0,0-.374-.318,2.95,2.95,0,0,1,3.81.318l2.426,2.444A2.935,2.935,0,0,1,368.224,365.946Z" transform="translate(-319.245 -315.466)" fill="#ffb09e"/>
        <path id="Trazado_1005246" data-name="Trazado 1005246" d="M371.9,315.651a2.947,2.947,0,0,0-.015,4.168l2.426,2.443a2.947,2.947,0,1,0,4.183-4.153l-2.425-2.443A2.947,2.947,0,0,0,371.9,315.651Z" transform="translate(-327.878 -275.55)" fill="#ffcebf"/>
        <path id="Trazado_1005247" data-name="Trazado 1005247" d="M387.745,320.188a2.947,2.947,0,0,1-4.665,2.395,2.879,2.879,0,0,0,.358-.3,2.946,2.946,0,0,0,.015-4.168l-2.426-2.444a2.975,2.975,0,0,0-.374-.318,2.95,2.95,0,0,1,3.81.318l2.426,2.444A2.935,2.935,0,0,1,387.745,320.188Z" transform="translate(-336.273 -275.552)" fill="#ffb09e"/>
        <path id="Trazado_1005248" data-name="Trazado 1005248" d="M319.624,393.929a2.947,2.947,0,0,0-.015,4.168l2.426,2.443a2.947,2.947,0,0,0,4.183-4.153l-2.426-2.443A2.947,2.947,0,0,0,319.624,393.929Z" transform="translate(-282.279 -343.831)" fill="#ffcebf"/>
        <path id="Trazado_1005249" data-name="Trazado 1005249" d="M335.468,398.465a2.948,2.948,0,0,1-4.665,2.394,2.871,2.871,0,0,0,.358-.3,2.946,2.946,0,0,0,.015-4.168l-2.425-2.443a2.877,2.877,0,0,0-.374-.318,2.949,2.949,0,0,1,3.81.318l2.425,2.443A2.938,2.938,0,0,1,335.468,398.465Z" transform="translate(-290.672 -343.832)" fill="#ffb09e"/>
        <path id="Trazado_1005250" data-name="Trazado 1005250" d="M286.868,426.45a2.947,2.947,0,0,0-.015,4.168l2.425,2.443a2.947,2.947,0,0,0,4.183-4.153l-2.426-2.443A2.947,2.947,0,0,0,286.868,426.45Z" transform="translate(-253.706 -372.198)" fill="#ffcebf"/>
        <path id="Trazado_1005251" data-name="Trazado 1005251" d="M302.713,430.985a2.948,2.948,0,0,1-4.665,2.395,2.872,2.872,0,0,0,.358-.3,2.946,2.946,0,0,0,.015-4.168L296,426.465a2.872,2.872,0,0,0-.374-.318,2.948,2.948,0,0,1,3.81.318l2.426,2.443A2.937,2.937,0,0,1,302.713,430.985Z" transform="translate(-262.101 -372.198)" fill="#ffb09e"/>
        <path id="Trazado_1005252" data-name="Trazado 1005252" d="M359.163,110.22h-10.4a1.657,1.657,0,0,1-1.657-1.657v-1.655a3.143,3.143,0,0,1,3.143-3.143h7.426a3.143,3.143,0,0,1,3.143,3.143v1.655A1.657,1.657,0,0,1,359.163,110.22Z" transform="translate(-307.012 -91.471)" fill="#fe646f"/>
        <path id="Trazado_1005253" data-name="Trazado 1005253" d="M406.842,106.91v1.654a1.658,1.658,0,0,1-1.658,1.658h-3.831a1.657,1.657,0,0,0,1.658-1.658V106.91a3.143,3.143,0,0,0-3.143-3.143H403.7a3.143,3.143,0,0,1,3.143,3.143Z" transform="translate(-353.034 -91.473)" fill="#fd4755"/>
        <path id="Trazado_1005254" data-name="Trazado 1005254" d="M214.354,110.22h-10.4a1.657,1.657,0,0,1-1.657-1.657v-1.655a3.143,3.143,0,0,1,3.143-3.143h7.426a3.143,3.143,0,0,1,3.143,3.143v1.655A1.657,1.657,0,0,1,214.354,110.22Z" transform="translate(-180.697 -91.471)" fill="#dcf5f8"/>
        <path id="Trazado_1005255" data-name="Trazado 1005255" d="M262.033,106.91v1.654a1.657,1.657,0,0,1-1.658,1.658h-3.831a1.657,1.657,0,0,0,1.658-1.658V106.91a3.143,3.143,0,0,0-3.143-3.143h3.831A3.143,3.143,0,0,1,262.033,106.91Z" transform="translate(-226.719 -91.473)" fill="#c2eef2"/>
        <path id="Trazado_1005256" data-name="Trazado 1005256" d="M69.533,110.22h-10.4a1.657,1.657,0,0,1-1.657-1.657v-1.655a3.143,3.143,0,0,1,3.143-3.143h7.426a3.143,3.143,0,0,1,3.143,3.143v1.655A1.657,1.657,0,0,1,69.533,110.22Z" transform="translate(-54.371 -91.471)" fill="#dcf5f8"/>
        <path id="Trazado_1005257" data-name="Trazado 1005257" d="M117.212,106.91v1.654a1.657,1.657,0,0,1-1.658,1.658h-3.831a1.657,1.657,0,0,0,1.658-1.658V106.91a3.143,3.143,0,0,0-3.143-3.143h3.831A3.143,3.143,0,0,1,117.212,106.91Z" transform="translate(-100.393 -91.473)" fill="#c2eef2"/>
        <path id="Trazado_1005258" data-name="Trazado 1005258" d="M86.619,11.1v1.579a4.211,4.211,0,0,1-6.124,3.75h0A4.2,4.2,0,0,1,78.2,12.683V11.1a3.607,3.607,0,0,1,2.859-3.527,3.675,3.675,0,0,1,.746-.077h1.209A3.6,3.6,0,0,1,86.619,11.1Z" transform="translate(-72.447 -7.5)" fill="#d77f4a"/>
        <path id="Trazado_1005259" data-name="Trazado 1005259" d="M102.294,11.1v1.579a4.211,4.211,0,0,1-6.124,3.75h0a4.206,4.206,0,0,0,2.292-3.748V9.823a2.323,2.323,0,0,0-1.728-2.246A3.675,3.675,0,0,1,97.48,7.5H98.69A3.6,3.6,0,0,1,102.294,11.1Z" transform="translate(-88.122 -7.5)" fill="#c86d36"/>
        <path id="Trazado_1005260" data-name="Trazado 1005260" d="M231.439,11.1v1.579a4.211,4.211,0,0,1-6.124,3.75h0a4.2,4.2,0,0,1-2.295-3.748V11.1a3.607,3.607,0,0,1,2.859-3.527,3.675,3.675,0,0,1,.746-.077h1.209A3.6,3.6,0,0,1,231.439,11.1Z" transform="translate(-198.772 -7.5)" fill="#ffdfcf"/>
        <path id="Trazado_1005261" data-name="Trazado 1005261" d="M247.114,11.1v1.579a4.211,4.211,0,0,1-6.124,3.75h0a4.206,4.206,0,0,0,2.292-3.748V9.823a2.323,2.323,0,0,0-1.728-2.246A3.675,3.675,0,0,1,242.3,7.5h1.209A3.6,3.6,0,0,1,247.114,11.1Z" transform="translate(-214.447 -7.5)" fill="#ffcebf"/>
        <path id="Trazado_1005262" data-name="Trazado 1005262" d="M376.249,11.105v1.579a4.211,4.211,0,0,1-6.124,3.75h0a4.2,4.2,0,0,1-2.295-3.748V11.105a3.607,3.607,0,0,1,2.859-3.527,3.675,3.675,0,0,1,.746-.077h1.209A3.6,3.6,0,0,1,376.249,11.105Z" transform="translate(-325.088 -7.501)" fill="#ffdfcf"/>
        <path id="Trazado_1005263" data-name="Trazado 1005263" d="M391.924,11.105v1.579a4.211,4.211,0,0,1-6.124,3.75h0a4.206,4.206,0,0,0,2.292-3.748V9.824a2.323,2.323,0,0,0-1.728-2.246,3.675,3.675,0,0,1,.746-.077h1.209A3.6,3.6,0,0,1,391.924,11.105Z" transform="translate(-340.763 -7.501)" fill="#ffcebf"/>
      </g>
      <g id="Grupo_1167572" data-name="Grupo 1167572" transform="translate(25.652)">
        <path id="Trazado_1005264" data-name="Trazado 1005264" d="M83.525,183.509a.958.958,0,0,0,.958-.958v-2.789a2.655,2.655,0,0,0-3.157-2.607L59.787,181.3l-7.371-1.975a5.22,5.22,0,0,0-4.379.781l-1.776,1.254-8.033-1.9a.958.958,0,0,0-.44,1.864l8.453,2a.948.948,0,0,0,.773-.15l2.129-1.5a3.308,3.308,0,0,1,2.777-.5l7.564,2.027a6.056,6.056,0,0,1,4.155,4.761l1.005,5.822a1.434,1.434,0,0,1-.413,1.282c-.751.786-2.274.265-2.913-.685l-5.436-8.008a.958.958,0,1,0-1.628,1.01l.961,1.548a11.559,11.559,0,0,1-6.573,2.774.969.969,0,0,0-.739.454l-4.884,7.972-2.07-2.07a4.357,4.357,0,0,0-2.575-1.243L28.28,195.667a.8.8,0,0,1-.713-.8V179.853a.739.739,0,0,1,.909-.72l5.013,1.184a.958.958,0,0,0,.44-1.864l-5.013-1.184a2.655,2.655,0,0,0-3.265,2.584v15.015a2.719,2.719,0,0,0,2.41,2.7l10.092,1.156a2.434,2.434,0,0,1,1.439.694l2.4,2.4-3.329,5.434a3.9,3.9,0,0,0,5.2,5.2,4,4,0,0,0,2.173,2.406,3.9,3.9,0,0,0,3.234-.057,4,4,0,0,0,2.174,2.407,4.075,4.075,0,0,0,3.234-.056,3.913,3.913,0,0,0,7.033.9c.135-.215.259-.4.383-.583a3.877,3.877,0,0,0,2.173.668,3.953,3.953,0,0,0,3.91-4.165,3.964,3.964,0,0,0,4.181-4.153,3.957,3.957,0,0,0,4.195-3.88,3.88,3.88,0,0,0-.568-2.044A3.906,3.906,0,0,0,77.9,197.33l-.725-.731h4.583a2.723,2.723,0,0,0,2.72-2.72v-6.7a.958.958,0,1,0-1.916,0v6.7a.8.8,0,0,1-.8.8h-6.5a3.9,3.9,0,0,0-5.886,4.987,3.882,3.882,0,0,0-1.91,1.04,4.032,4.032,0,0,0-1.144,3.031,3.965,3.965,0,0,0-4.181,4.153,4.056,4.056,0,0,0-3.041,1.122,3.905,3.905,0,0,0-.02,5.523l1.6,1.61c-.217.295-.413.6-.593.882a2,2,0,0,1-2.477.762,2.071,2.071,0,0,1-1.03-2.617.958.958,0,0,0-1.757-.763,2.027,2.027,0,0,1-2.618,1.032,2.071,2.071,0,0,1-1.032-2.617.958.958,0,0,0-1.757-.764,1.993,1.993,0,0,1-2.62,1.031,2.071,2.071,0,0,1-1.03-2.617A.958.958,0,0,0,44,209.716h0a1.989,1.989,0,0,1-3.673-1.529l8.956-14.619a13.394,13.394,0,0,0,7-3.024l3.461,4.939c1.189,1.767,4.04,2.715,5.827.951a3.369,3.369,0,0,0,.957-2.972l-1.005-5.822a7.965,7.965,0,0,0-2.934-4.927l19.1-3.678a.739.739,0,0,1,.879.726v2.788A.958.958,0,0,0,83.525,183.509ZM71.306,196.227a1.977,1.977,0,0,1,1.4-.578h.007a1.977,1.977,0,0,1,1.4.588l2.426,2.443a1.99,1.99,0,0,1-1.412,3.391h-.007a1.974,1.974,0,0,1-1.274-.468L71.3,199.041A1.992,1.992,0,0,1,71.306,196.227Zm-2.493,5.844a1.992,1.992,0,0,1,2.688-.1l2.551,2.557a1.99,1.99,0,0,1-1.412,3.391h-.007a1.976,1.976,0,0,1-1.4-.588L68.8,204.884a1.992,1.992,0,0,1,.01-2.814Zm-4.183,4.153a1.977,1.977,0,0,1,1.4-.578h.007a1.977,1.977,0,0,1,1.4.588l2.426,2.443a1.992,1.992,0,0,1-.01,2.814,1.949,1.949,0,0,1-1.409.578,1.977,1.977,0,0,1-1.4-.588l-2.426-2.443A1.992,1.992,0,0,1,64.63,206.224Zm-4.193,6.967a1.99,1.99,0,0,1,1.412-3.391h.007a1.976,1.976,0,0,1,1.4.588l2.426,2.443a1.99,1.99,0,0,1-1.412,3.391h-.007a1.976,1.976,0,0,1-1.4-.588Z" transform="translate(-25.652 -154.488)"/>
        <path id="Trazado_1005265" data-name="Trazado 1005265" d="M342.224,104.636h10.4a2.618,2.618,0,0,0,2.615-2.615v-1.655a4.106,4.106,0,0,0-4.1-4.1H343.71a4.106,4.106,0,0,0-4.1,4.1v1.655A2.618,2.618,0,0,0,342.224,104.636Zm-.7-4.269a2.188,2.188,0,0,1,2.185-2.185h7.426a2.188,2.188,0,0,1,2.185,2.185v1.655a.7.7,0,0,1-.7.7h-10.4a.7.7,0,0,1-.7-.7v-1.655Z" transform="translate(-299.513 -83.971)"/>
        <path id="Trazado_1005266" data-name="Trazado 1005266" d="M197.414,104.636h.989a.958.958,0,0,0,0-1.916h-.989a.7.7,0,0,1-.7-.7v-1.655a2.188,2.188,0,0,1,2.185-2.185h7.426a2.188,2.188,0,0,1,2.185,2.185v1.655a.7.7,0,0,1-.7.7h-4.991a.958.958,0,1,0,0,1.916h4.991a2.618,2.618,0,0,0,2.615-2.615v-1.655a4.106,4.106,0,0,0-4.1-4.1H198.9a4.106,4.106,0,0,0-4.1,4.1v1.655A2.618,2.618,0,0,0,197.414,104.636Z" transform="translate(-173.197 -83.971)"/>
        <path id="Trazado_1005267" data-name="Trazado 1005267" d="M52.593,104.636h10.4a2.618,2.618,0,0,0,2.615-2.615v-1.655a4.106,4.106,0,0,0-4.1-4.1H54.079a4.106,4.106,0,0,0-4.1,4.1v1.655A2.618,2.618,0,0,0,52.593,104.636Zm-.7-4.27a2.188,2.188,0,0,1,2.185-2.185h7.426a2.188,2.188,0,0,1,2.185,2.185v1.655a.7.7,0,0,1-.7.7h-10.4a.7.7,0,0,1-.7-.7Z" transform="translate(-46.871 -83.971)"/>
        <path id="Trazado_1005268" data-name="Trazado 1005268" d="M73.47,10.718l.045.025a5.168,5.168,0,0,0,7.518-4.6V4.562A4.567,4.567,0,0,0,76.472,0H75.262a4.635,4.635,0,0,0-.943.1A4.581,4.581,0,0,0,70.7,4.562V6.14a5.145,5.145,0,0,0,2.771,4.578Zm-.856-6.156a2.656,2.656,0,0,1,2.1-2.589,2.722,2.722,0,0,1,.551-.057h1.209a2.649,2.649,0,0,1,2.646,2.646V6.14a3.255,3.255,0,0,1-3.252,3.252,3.211,3.211,0,0,1-1.441-.336l-.038-.02a3.237,3.237,0,0,1-1.773-2.9Z" transform="translate(-64.946)"/>
        <path id="Trazado_1005269" data-name="Trazado 1005269" d="M218.292,10.718l.045.025a5.168,5.168,0,0,0,7.518-4.6V4.562A4.567,4.567,0,0,0,221.294,0h-1.209a4.638,4.638,0,0,0-.943.1,4.581,4.581,0,0,0-3.62,4.465V6.14a5.145,5.145,0,0,0,2.771,4.578Zm-.856-6.156a2.656,2.656,0,0,1,2.1-2.589,2.724,2.724,0,0,1,.551-.057h1.209a2.649,2.649,0,0,1,2.646,2.646V6.14a3.255,3.255,0,0,1-3.252,3.252,3.211,3.211,0,0,1-1.441-.336l-.038-.02a3.237,3.237,0,0,1-1.773-2.9V4.562Z" transform="translate(-191.272)"/>
        <path id="Trazado_1005270" data-name="Trazado 1005270" d="M363.1,10.72l.044.024a5.168,5.168,0,0,0,7.518-4.6V4.563A4.567,4.567,0,0,0,366.1,0h-1.209a4.636,4.636,0,0,0-.943.1,4.581,4.581,0,0,0-3.62,4.465V6.141A5.145,5.145,0,0,0,363.1,10.72Zm-.857-6.157a2.656,2.656,0,0,1,2.1-2.589,2.72,2.72,0,0,1,.551-.057H366.1a2.649,2.649,0,0,1,2.646,2.646V6.141A3.255,3.255,0,0,1,365.5,9.393a3.209,3.209,0,0,1-1.442-.336l-.037-.02a3.238,3.238,0,0,1-1.773-2.9Z" transform="translate(-317.586 -0.001)"/>
      </g>
    </g>
  </g>
</svg>
