<svg xmlns="http://www.w3.org/2000/svg" xmlns:xlink="http://www.w3.org/1999/xlink" width="113" height="113" viewBox="0 0 113 113">
  <defs>
    <filter id="Trazado_982547" x="0" y="0" width="113" height="113" filterUnits="userSpaceOnUse">
      <feOffset dy="3" input="SourceAlpha"/>
      <feGaussianBlur stdDeviation="3" result="blur"/>
      <feFlood flood-opacity="0.161"/>
      <feComposite operator="in" in2="blur"/>
      <feComposite in="SourceGraphic"/>
    </filter>
  </defs>
  <g id="Grupo_1167581" data-name="Grupo 1167581" transform="translate(-1165 -4575)">
    <g id="Grupo_1167345" data-name="Grupo 1167345" transform="translate(0 2228)">
      <g id="Grupo_1166779" data-name="Grupo 1166779" transform="translate(0.105 -910)">
        <g id="Grupo_1164307" data-name="Grupo 1164307" transform="translate(1173.895 3263)">
          <g id="Grupo_1163948" data-name="Grupo 1163948" transform="translate(0)">
            <g id="Grupo_1158168" data-name="Grupo 1158168" transform="translate(0)">
              <g id="Grupo_1152576" data-name="Grupo 1152576">
                <g id="Grupo_1148633" data-name="Grupo 1148633">
                  <g id="Grupo_1148525" data-name="Grupo 1148525">
                    <g transform="matrix(1, 0, 0, 1, -9, -6)" filter="url(#Trazado_982547)">
                      <g id="Trazado_982547-2" data-name="Trazado 982547" transform="translate(9 6)" fill="#f2f7e5">
                        <path d="M 47.5 93.5 C 41.28937149047852 93.5 35.26533508300781 92.28397369384766 29.59518623352051 89.88570404052734 C 24.11771965026855 87.56893157958984 19.19813346862793 84.25196075439453 14.97309303283691 80.02691650390625 C 10.74804019927979 75.80186462402344 7.431066513061523 70.88229370117188 5.114293098449707 65.40481567382812 C 2.716026782989502 59.73468017578125 1.5 53.71062850952148 1.5 47.5 C 1.5 41.28937149047852 2.716026782989502 35.26533508300781 5.114293098449707 29.59518623352051 C 7.431066513061523 24.11771965026855 10.74804019927979 19.19813346862793 14.97309303283691 14.97309303283691 C 19.19813346862793 10.74804019927979 24.11771965026855 7.431066513061523 29.59518623352051 5.114293098449707 C 35.26533508300781 2.716026782989502 41.28937149047852 1.5 47.5 1.5 C 53.71062850952148 1.5 59.73468017578125 2.716026782989502 65.40481567382812 5.114293098449707 C 70.88229370117188 7.431066513061523 75.80186462402344 10.74804019927979 80.02691650390625 14.97309303283691 C 84.25196075439453 19.19813346862793 87.56893157958984 24.11771965026855 89.88570404052734 29.59518623352051 C 92.28397369384766 35.26533508300781 93.5 41.28937149047852 93.5 47.5 C 93.5 53.71062850952148 92.28397369384766 59.73468017578125 89.88570404052734 65.40481567382812 C 87.56893157958984 70.88229370117188 84.25196075439453 75.80186462402344 80.02691650390625 80.02691650390625 C 75.80186462402344 84.25196075439453 70.88229370117188 87.56893157958984 65.40481567382812 89.88570404052734 C 59.73468017578125 92.28397369384766 53.71062850952148 93.5 47.5 93.5 Z" stroke="none"/>
                        <path d="M 47.5 3 C 41.49121475219727 3 35.66376876831055 4.176155090332031 30.17950439453125 6.495796203613281 C 24.88084411621094 8.736953735351562 20.12152099609375 11.94598388671875 16.03375244140625 16.03375244140625 C 11.94598388671875 20.12152099609375 8.736953735351562 24.88084411621094 6.495796203613281 30.17950439453125 C 4.176155090332031 35.66376876831055 3 41.49121475219727 3 47.5 C 3 53.50878524780273 4.176155090332031 59.33623123168945 6.495796203613281 64.82049560546875 C 8.736953735351562 70.11915588378906 11.94598388671875 74.87847900390625 16.03375244140625 78.96624755859375 C 20.12152099609375 83.05401611328125 24.88084411621094 86.26304626464844 30.17950439453125 88.50419616699219 C 35.66376876831055 90.82384490966797 41.49121475219727 92 47.5 92 C 53.50878524780273 92 59.33623123168945 90.82384490966797 64.82049560546875 88.50419616699219 C 70.11915588378906 86.26304626464844 74.87847900390625 83.05401611328125 78.96624755859375 78.96624755859375 C 83.05401611328125 74.87847900390625 86.26304626464844 70.11915588378906 88.50419616699219 64.82049560546875 C 90.82384490966797 59.33623123168945 92 53.50878524780273 92 47.5 C 92 41.49121475219727 90.82384490966797 35.66376876831055 88.50419616699219 30.17950439453125 C 86.26304626464844 24.88084411621094 83.05401611328125 20.12152099609375 78.96624755859375 16.03375244140625 C 74.87847900390625 11.94598388671875 70.11915588378906 8.736953735351562 64.82049560546875 6.495796203613281 C 59.33623123168945 4.176155090332031 53.50878524780273 3 47.5 3 M 47.5 0 C 73.7335205078125 0 95 21.2664794921875 95 47.5 C 95 73.7335205078125 73.7335205078125 95 47.5 95 C 21.2664794921875 95 0 73.7335205078125 0 47.5 C 0 21.2664794921875 21.2664794921875 0 47.5 0 Z" stroke="none" fill="#86b60c"/>
                      </g>
                    </g>
                  </g>
                </g>
              </g>
            </g>
          </g>
        </g>
      </g>
    </g>
    <g id="ambiental_2_" data-name="ambiental (2)" transform="translate(1176.424 4598)">
      <g id="Grupo_1167579" data-name="Grupo 1167579" transform="translate(17.465 0.89)">
        <path id="Trazado_1005271" data-name="Trazado 1005271" d="M227.716,372.664h11.81v-6.237a2.95,2.95,0,0,0-4.662-2.29l-3.483,2.49h-3.665Z" transform="translate(-203.545 -321.323)" fill="#fed2a4"/>
        <path id="Trazado_1005272" data-name="Trazado 1005272" d="M130.038,356.533a2.948,2.948,0,0,0-4.114-.686l-10.593,7.572a3.908,3.908,0,0,1-.391.243v0l-1.295,1.026-2.143-.039v-.5l.513-.231a2.939,2.939,0,0,0-1.088-5.672h-3.092a5.986,5.986,0,0,1-3.332-1.006,5.683,5.683,0,0,0-7,.533l-.627.575a3.356,3.356,0,0,1-2.268.882h-.984v11.806h17.42a11.794,11.794,0,0,0,6.858-2.2l11.457-8.189a2.953,2.953,0,0,0,.686-4.117Z" transform="translate(-85.362 -314.016)" fill="#ffe5c2"/>
        <path id="Trazado_1005273" data-name="Trazado 1005273" d="M24.067,386.633a.983.983,0,0,0,.983.984h6.289a.983.983,0,0,0,.983-.984V372.86a.984.984,0,0,0-.983-.984H25.05a.983.983,0,0,0-.983.984Z" transform="translate(-24.067 -328.628)" fill="#c8effe"/>
        <g id="Grupo_1167576" data-name="Grupo 1167576" transform="translate(37.814 41.28)">
          <g id="Grupo_1167575" data-name="Grupo 1167575" transform="translate(0)">
            <g id="Grupo_1167574" data-name="Grupo 1167574">
              <path id="Trazado_1005274" data-name="Trazado 1005274" d="M349.517,356.533a2.948,2.948,0,0,0-4.114-.686l-2.748,1.968a2.951,2.951,0,0,1,3.527,4.73l2.65-1.894A2.953,2.953,0,0,0,349.517,356.533Z" transform="translate(-342.655 -355.297)" fill="#fed2a4"/>
            </g>
          </g>
        </g>
        <path id="Trazado_1005275" data-name="Trazado 1005275" d="M69.932,371.876H67.184a.983.983,0,0,1,.983.984v13.774a.984.984,0,0,1-.983.984h2.748a.983.983,0,0,0,.983-.984V372.86A.984.984,0,0,0,69.932,371.876Z" transform="translate(-62.066 -328.628)" fill="#99e6fc"/>
        <g id="Grupo_1167578" data-name="Grupo 1167578" transform="translate(15.749)">
          <g id="Grupo_1167577" data-name="Grupo 1167577" transform="translate(1.938)">
            <path id="Trazado_1005276" data-name="Trazado 1005276" d="M228.322,44.223a17.731,17.731,0,0,0,5.425-7.75l-2.53-16.515a17.726,17.726,0,0,0-9.136-6.356l-11.492.5a17.731,17.731,0,0,0-6.721,4.679h0L202.9,41.193a17.774,17.774,0,0,0,6.166,5.174Z" transform="translate(-199.361 -12.878)" fill="#01d0fb"/>
            <path id="Trazado_1005277" data-name="Trazado 1005277" d="M356.549,30.575a17.666,17.666,0,0,1-6.877,14l3.191-.355a17.731,17.731,0,0,0,5.425-7.75l-2.53-16.515a17.726,17.726,0,0,0-9.136-6.356l-2.408.1a17.7,17.7,0,0,1,12.335,16.869Z" transform="translate(-323.903 -12.878)" fill="#01c0fa"/>
            <path id="Trazado_1005278" data-name="Trazado 1005278" d="M181.346,74.9V74.34a1.8,1.8,0,0,1,1.8-1.8,4.719,4.719,0,0,0,4.221-2.609l.557-1.114a4.719,4.719,0,0,0,.5-2.11V63.556a2.817,2.817,0,0,0-2.817-2.817h-1.052a2.817,2.817,0,0,1-2.672-1.926,2.36,2.36,0,0,0-2.239-1.613h-2.05a17.7,17.7,0,0,0-.969,22.416h0A4.719,4.719,0,0,0,181.346,74.9Z" transform="translate(-173.087 -51.301)" fill="#9be69d"/>
            <path id="Trazado_1005279" data-name="Trazado 1005279" d="M364.96,79.723l-1-9.212-4.083-3.37h-2.594a4.719,4.719,0,0,0-4.221,2.609l-.557,1.114a4.72,4.72,0,0,0-.5,2.11V75.12a2.359,2.359,0,0,0,1.3,2.11l2.418,1.209a4.719,4.719,0,0,0,2.11.5h1.246a1.18,1.18,0,0,1,1.18,1.18V81.3a2.359,2.359,0,0,0,2.147,2.349Z" transform="translate(-330.771 -60.061)" fill="#9be69d"/>
            <path id="Trazado_1005280" data-name="Trazado 1005280" d="M421.855,77.758a17.666,17.666,0,0,1-1,5.888c.07.006.141.011.212.011h2.531a17.72,17.72,0,0,0-2.53-16.517h-2.749A17.617,17.617,0,0,1,421.855,77.758Z" transform="translate(-389.21 -60.061)" fill="#6fd7a3"/>
            <path id="Trazado_1005281" data-name="Trazado 1005281" d="M277.1,8.264l-3.179-.333-1.134,0a17.6,17.6,0,0,0-5.1,1.167l.445.891a4.719,4.719,0,0,0,4.221,2.609h2.9a2.36,2.36,0,0,0,1.963-1.051l1.419-2.129Z" transform="translate(-256.457 -7.88)" fill="#9be69d"/>
            <path id="Trazado_1005282" data-name="Trazado 1005282" d="M310.612,7.553a17.591,17.591,0,0,1,5.853,1.487l.543-.815h0a17.7,17.7,0,0,0-5.023-.724Q311.292,7.5,310.612,7.553Z" transform="translate(-294.289 -7.5)" fill="#6fd7a3"/>
            <path id="Trazado_1005283" data-name="Trazado 1005283" d="M262.326,244.317l3.257-.389,6.174-2.731L273,238.785l-.492-.689a4.719,4.719,0,0,0-3.84-1.976h-2.894a5.486,5.486,0,0,0-4.565,2.443,2.462,2.462,0,0,1-2.049,1.1,4.718,4.718,0,0,0-4.316,2.815,17.592,17.592,0,0,0,6.641,1.852Z" transform="translate(-245.14 -208.985)" fill="#9be69d"/>
            <path id="Trazado_1005284" data-name="Trazado 1005284" d="M322.148,258.574a17.648,17.648,0,0,1-11.536,5.541q.68.052,1.374.053a17.625,17.625,0,0,0,11.254-4.039l.01-.009h0Z" transform="translate(-294.289 -228.774)" fill="#6fd7a3"/>
          </g>
          <path id="Trazado_1005285" data-name="Trazado 1005285" d="M174.517,164.588a19.638,19.638,0,0,0-15.822-7.983q-.5,0-1,.025a.986.986,0,0,0-.934,1.037,19.666,19.666,0,0,0,19.639,18.6c.22,0,.439,0,.658-.012Z" transform="translate(-156.757 -138.908)" fill="#6fd7a3"/>
          <path id="Trazado_1005286" data-name="Trazado 1005286" d="M284.854,215.686a19.858,19.858,0,0,0,2.5.158c.22,0,.439,0,.658-.012l-2.538-11.667a19.782,19.782,0,0,0-2.362-2.653,22.431,22.431,0,0,0,1.742,14.175Z" transform="translate(-267.714 -178.484)" fill="#3ec3a4"/>
          <path id="Trazado_1005287" data-name="Trazado 1005287" d="M305.657,93.736a19.569,19.569,0,0,0,2.625,9.819,19.667,19.667,0,0,0,16.69-28.923.984.984,0,0,0-.93-.517A19.665,19.665,0,0,0,305.657,93.736Z" transform="translate(-287.984 -66.207)" fill="#6fd7a3"/>
          <path id="Trazado_1005288" data-name="Trazado 1005288" d="M343.4,74.632a.984.984,0,0,0-.93-.517,19.691,19.691,0,0,0-2.025.237.979.979,0,0,1,.228.28A19.669,19.669,0,0,1,326.567,103.3c.048.085.094.172.143.256A19.667,19.667,0,0,0,343.4,74.632Z" transform="translate(-306.412 -66.207)" fill="#3ec3a4"/>
        </g>
      </g>
      <g id="Grupo_1167580" data-name="Grupo 1167580" transform="translate(16.576 0)">
        <path id="Trazado_1005289" data-name="Trazado 1005289" d="M60.371,347.851a3.814,3.814,0,0,0-2.863.663l-3.518,2.515a3.86,3.86,0,0,0-.366-.638,3.838,3.838,0,0,0-5.357-.893l-2.89,2.065a3.812,3.812,0,0,0-2.35-.814H39.935a5.112,5.112,0,0,1-2.846-.862,6.573,6.573,0,0,0-8.091.623l-.627.575a2.458,2.458,0,0,1-1.167.6v-.041a1.876,1.876,0,0,0-1.873-1.874H18.449a1.876,1.876,0,0,0-1.873,1.874v1.743a.89.89,0,1,0,1.78,0V351.64a.093.093,0,0,1,.093-.094h6.882a.093.093,0,0,1,.093.094v13.773a.093.093,0,0,1-.093.094H18.449a.093.093,0,0,1-.093-.094v-7.87a.89.89,0,1,0-1.78,0v7.87a1.876,1.876,0,0,0,1.873,1.874h6.882a1.876,1.876,0,0,0,1.873-1.874v-.094H43.141a12.612,12.612,0,0,0,7.375-2.365l11.456-8.189a3.842,3.842,0,0,0-1.6-6.915Zm-11.069,3.1a2.061,2.061,0,0,1,3.189,1.154l-5.576,3.985a3.051,3.051,0,0,1-.5.288,3.743,3.743,0,0,0,.451-1.856,3.79,3.79,0,0,0-.371-1.564Zm11.635,2.371L49.48,361.506a10.84,10.84,0,0,1-6.339,2.033H27.2V353.484a4.233,4.233,0,0,0,2.37-1.086l.627-.575a4.793,4.793,0,0,1,5.9-.455,6.888,6.888,0,0,0,3.834,1.162h3.092a2.07,2.07,0,0,1,2.059,2.021A2.011,2.011,0,0,1,44.5,356a2.166,2.166,0,0,1-1.536.649H37.129a.89.89,0,1,0,0,1.78h8.019a4.793,4.793,0,0,0,2.8-.9l10.593-7.571a2.058,2.058,0,0,1,2.872.479,2.065,2.065,0,0,1-.479,2.876Z" transform="translate(-16.576 -306.517)"/>
        <path id="Trazado_1005290" data-name="Trazado 1005290" d="M187.99,8.9a1.878,1.878,0,0,0-1.771-.985c-.359.023-.717.056-1.072.1a18.592,18.592,0,0,0-31.627,1.719.89.89,0,1,0,1.564.85,16.861,16.861,0,0,1,1.992-2.9h1.648a1.468,1.468,0,0,1,1.394,1,3.7,3.7,0,0,0,3.517,2.535h1.052a1.929,1.929,0,0,1,1.926,1.926v3.148a3.849,3.849,0,0,1-.4,1.712l-.557,1.114a3.811,3.811,0,0,1-2.242,1.928,20.312,20.312,0,0,0-10.33-3.328,16.826,16.826,0,0,1,.505-3.333.89.89,0,0,0-1.724-.444,18.61,18.61,0,0,0-.563,3.774l-.18.007A1.876,1.876,0,0,0,149.34,19.7,20.542,20.542,0,0,0,169.862,39.14c.2,0,.418,0,.672-.012h.015A20.558,20.558,0,0,0,187.99,8.9Zm-14.542-6.73-1.267,1.9a1.467,1.467,0,0,1-1.223.654h-2.9a3.808,3.808,0,0,1-3.419-2.106,16.843,16.843,0,0,1,8.808-.448Zm-6.2,17.751L167.8,18.8a5.637,5.637,0,0,0,.592-2.509V13.145a3.711,3.711,0,0,0-3.707-3.707h-1.052a1.924,1.924,0,0,1-1.827-1.317,3.244,3.244,0,0,0-2.97-2.218,16.813,16.813,0,0,1,4.136-2.645l.07.14a5.579,5.579,0,0,0,5.017,3.1h2.9a3.243,3.243,0,0,0,2.7-1.447l1.592-2.388a16.73,16.73,0,0,1,6.858,4.414h-3.434a5.579,5.579,0,0,0-5.017,3.1l-.557,1.114a5.638,5.638,0,0,0-.592,2.509v.618A20.458,20.458,0,0,0,167.39,24.45a20.829,20.829,0,0,0-2.331-2.2,5.587,5.587,0,0,0,2.185-2.333Zm13.99-11.057a20.439,20.439,0,0,0-6.727,3.683,3.811,3.811,0,0,1,.19-.453l.557-1.114a3.808,3.808,0,0,1,3.425-2.117ZM151.118,19.6a.094.094,0,0,1,.025-.07.09.09,0,0,1,.065-.031c.318-.016.64-.024.958-.024a18.861,18.861,0,0,1,14.9,7.36q-.06.786-.061,1.581a20.6,20.6,0,0,0,1.184,6.874c-3.65-2.128-9.058-5.988-11.273-11.157a.89.89,0,1,0-1.637.7,22.845,22.845,0,0,0,6.96,8.552,41.845,41.845,0,0,0,5.828,3.885A18.761,18.761,0,0,1,151.118,19.6ZM173.556,37a27.506,27.506,0,0,0,3.107-3.359,34.194,34.194,0,0,0,6.866-17.913.89.89,0,0,0-1.771-.178,32.456,32.456,0,0,1-6.44,16.921,24.044,24.044,0,0,1-4.486,4.473,18.775,18.775,0,0,1,15.5-27.256h.006a.094.094,0,0,1,.082.049A18.784,18.784,0,0,1,173.556,37Z" transform="translate(-133.579 0)"/>
      </g>
    </g>
  </g>
</svg>
