<svg xmlns="http://www.w3.org/2000/svg" xmlns:xlink="http://www.w3.org/1999/xlink" width="106.61" height="106.61" viewBox="0 0 106.61 106.61">
  <defs>
    <filter id="Trazado_982547" x="0" y="0" width="106.61" height="106.61" filterUnits="userSpaceOnUse">
      <feOffset dy="3" input="SourceAlpha"/>
      <feGaussianBlur stdDeviation="3" result="blur"/>
      <feFlood flood-opacity="0.161"/>
      <feComposite operator="in" in2="blur"/>
      <feComposite in="SourceGraphic"/>
    </filter>
  </defs>
  <g id="Grupo_1167603" data-name="Grupo 1167603" transform="translate(-184 -471.012)">
    <g id="Grupo_1167410" data-name="Grupo 1167410" transform="translate(-8 -332.988)">
      <g id="Grupo_1166722" data-name="Grupo 1166722" transform="translate(201 810)">
        <g id="Grupo_1164284" data-name="Grupo 1164284">
          <g id="Grupo_1159364" data-name="Grupo 1159364">
            <g id="Grupo_1157015" data-name="Grupo 1157015" transform="translate(0 0)">
              <g id="Grupo_1155792" data-name="Grupo 1155792" transform="translate(0 0)">
                <g id="Grupo_1154703" data-name="Grupo 1154703">
                  <g id="Grupo_1150789" data-name="Grupo 1150789" transform="translate(0)">
                    <g id="Grupo_1154212" data-name="Grupo 1154212" transform="translate(0 0)">
                      <g id="Grupo_1152583" data-name="Grupo 1152583">
                        <g id="Grupo_1146973" data-name="Grupo 1146973" transform="translate(0 0)">
                          <g id="Grupo_1146954" data-name="Grupo 1146954">
                            <g transform="matrix(1, 0, 0, 1, -9, -6)" filter="url(#Trazado_982547)">
                              <g id="Trazado_982547-2" data-name="Trazado 982547" transform="translate(9 6)" fill="#e9f9fd">
                                <path d="M 44.30517578125 87.1102294921875 C 38.52585220336914 87.1102294921875 32.92020034790039 85.97867584228516 27.6439266204834 83.74700164794922 C 22.54690170288086 81.59114074707031 17.96897506713867 78.50452423095703 14.03735065460205 74.57289886474609 C 10.105712890625 70.64126586914062 7.019088268280029 66.06336212158203 4.863225936889648 60.96633911132812 C 2.631550788879395 55.69007873535156 1.500000834465027 50.08442687988281 1.500000834465027 44.30511474609375 C 1.500000834465027 38.52580261230469 2.631550788879395 32.92015075683594 4.863225936889648 27.64389038085938 C 7.019088268280029 22.54686546325684 10.105712890625 17.96896553039551 14.03735065460205 14.03732681274414 C 17.96897506713867 10.10570240020752 22.54690170288086 7.019089698791504 27.6439266204834 4.863227367401123 C 32.92020034790039 2.631552219390869 38.52585220336914 1.500002264976501 44.30517578125 1.500002264976501 C 50.08449935913086 1.500002264976501 55.69015121459961 2.631552219390869 60.96641159057617 4.863227367401123 C 66.06345367431641 7.019089698791504 70.64136505126953 10.10570240020752 74.572998046875 14.03732681274414 C 78.504638671875 17.96896553039551 81.59126281738281 22.54687690734863 83.74712371826172 27.64389038085938 C 85.97879791259766 32.92015075683594 87.1103515625 38.52580261230469 87.1103515625 44.30511474609375 C 87.1103515625 50.08442687988281 85.97879791259766 55.69007873535156 83.74712371826172 60.96633911132812 C 81.59126281738281 66.0633544921875 78.504638671875 70.64126586914062 74.572998046875 74.57289886474609 C 70.64136505126953 78.50452423095703 66.06345367431641 81.59114074707031 60.96641159057617 83.74700164794922 C 55.69015121459961 85.97867584228516 50.08449935913086 87.1102294921875 44.30517578125 87.1102294921875 Z" stroke="none"/>
                                <path d="M 44.30517578125 3 C 38.72769165039062 3 33.31863403320312 4.091682434082031 28.2282600402832 6.244728088378906 C 23.31002044677734 8.324958801269531 18.89237213134766 11.30362701416016 15.09800720214844 15.09798431396484 C 11.30364990234375 18.89234161376953 8.324974060058594 23.30999755859375 6.244735717773438 28.22821426391602 C 4.091690063476562 33.31858444213867 3.000007629394531 38.72764205932617 3.000007629394531 44.30511474609375 C 3.000007629394531 49.88258743286133 4.091690063476562 55.29164505004883 6.244735717773438 60.38201522827148 C 8.324974060058594 65.30023193359375 11.30364990234375 69.71788787841797 15.09800720214844 73.51224517822266 C 18.89237213134766 77.30660247802734 23.31002044677734 80.28527069091797 28.2282600402832 82.36550140380859 C 33.31863403320312 84.51853942871094 38.72769165039062 85.6102294921875 44.30517578125 85.6102294921875 C 49.88265991210938 85.6102294921875 55.29171752929688 84.51853942871094 60.38208770751953 82.36550140380859 C 65.30031585693359 80.28527069091797 69.71797180175781 77.30660247802734 73.5123291015625 73.51224517822266 C 77.30670166015625 69.71788787841797 80.28537750244141 65.30023193359375 82.36561584472656 60.38201522827148 C 84.51866149902344 55.29164505004883 85.61034393310547 49.88258743286133 85.61034393310547 44.30511474609375 C 85.61034393310547 38.72764205932617 84.51866149902344 33.31858444213867 82.36561584472656 28.22821426391602 C 80.28537750244141 23.30999755859375 77.30670166015625 18.89234161376953 73.5123291015625 15.09798431396484 C 69.71797180175781 11.30362701416016 65.30031585693359 8.324958801269531 60.38208770751953 6.244728088378906 C 55.29171752929688 4.091682434082031 49.88265991210938 3 44.30517578125 3 M 44.30517578125 0 C 68.77423095703125 0 88.61034393310547 19.83607482910156 88.61034393310547 44.30511474609375 C 88.61034393310547 68.77415466308594 68.77423095703125 88.6102294921875 44.30517578125 88.6102294921875 C 19.83610534667969 88.6102294921875 7.62939453125e-06 68.77415466308594 7.62939453125e-06 44.30511474609375 C 7.62939453125e-06 19.83607482910156 19.83610534667969 0 44.30517578125 0 Z" stroke="none" fill="#1d7083"/>
                              </g>
                            </g>
                          </g>
                        </g>
                      </g>
                    </g>
                  </g>
                </g>
              </g>
            </g>
          </g>
        </g>
      </g>
    </g>
    <g id="salvar-la-naturaleza_2_" data-name="salvar-la-naturaleza (2)" transform="translate(200.822 444.531)">
      <g id="Grupo_1167601" data-name="Grupo 1167601" transform="translate(1.073 48.103)">
        <g id="Grupo_1167600" data-name="Grupo 1167600" transform="translate(0 0)">
          <g id="Grupo_1167583" data-name="Grupo 1167583">
            <path id="Trazado_1005292" data-name="Trazado 1005292" d="M50.115,106.5a28.058,28.058,0,1,1,6.062-4.983" transform="translate(-7.5 -54.53)" fill="#fff"/>
          </g>
          <g id="Grupo_1167584" data-name="Grupo 1167584" transform="translate(21.577 14.883)">
            <path id="Trazado_1005293" data-name="Trazado 1005293" d="M158.354,171.584c0,8.194,6.436,13,6.436,13a16.349,16.349,0,0,0,0-26S158.354,163.39,158.354,171.584Z" transform="translate(-158.354 -158.583)" fill="#8edf78"/>
          </g>
          <g id="Grupo_1167585" data-name="Grupo 1167585" transform="translate(21.577 14.883)">
            <path id="Trazado_1005294" data-name="Trazado 1005294" d="M161.358,172.443a17.109,17.109,0,0,1,5.374-12.067,14.088,14.088,0,0,0-1.941-1.792s-6.436,4.807-6.436,13,6.436,13,6.436,13a11.655,11.655,0,0,0,1.1-.941A16.809,16.809,0,0,1,161.358,172.443Z" transform="translate(-158.354 -158.583)" fill="#39c17b"/>
          </g>
          <g id="Grupo_1167586" data-name="Grupo 1167586" transform="translate(10.373 22.579)">
            <path id="Trazado_1005295" data-name="Trazado 1005295" d="M84.762,226.255c5.794,5.794,13.744,4.642,13.744,4.642A16.349,16.349,0,0,0,80.12,212.511S78.968,220.461,84.762,226.255Z" transform="translate(-80.027 -212.39)" fill="#e2fc85"/>
          </g>
          <g id="Grupo_1167587" data-name="Grupo 1167587" transform="translate(10.373 22.579)">
            <path id="Trazado_1005296" data-name="Trazado 1005296" d="M86.936,224.083a16.95,16.95,0,0,1-4.731-11.69,13.132,13.132,0,0,0-2.085.12s-1.152,7.95,4.642,13.744S98.506,230.9,98.506,230.9a13.157,13.157,0,0,0,.12-2.085A16.952,16.952,0,0,1,86.936,224.083Z" transform="translate(-80.027 -212.392)" fill="#8edf78"/>
          </g>
          <g id="Grupo_1167588" data-name="Grupo 1167588" transform="translate(27.08 22.579)">
            <path id="Trazado_1005297" data-name="Trazado 1005297" d="M201.564,217.125c-5.794,5.794-4.642,13.744-4.642,13.744a16.349,16.349,0,0,0,18.386-18.386s-7.95-1.152-13.744,4.642Z" transform="translate(-196.829 -212.39)" fill="#39c17b"/>
          </g>
          <g id="Grupo_1167589" data-name="Grupo 1167589" transform="translate(27.08 22.579)">
            <path id="Trazado_1005298" data-name="Trazado 1005298" d="M215.309,212.484a14.018,14.018,0,0,0-2.083-.089,16.255,16.255,0,0,1-16.39,16.284,14.235,14.235,0,0,0,.086,2.191,16.349,16.349,0,0,0,18.386-18.386Z" transform="translate(-196.83 -212.391)" fill="#31a469"/>
          </g>
          <g id="Grupo_1167590" data-name="Grupo 1167590" transform="translate(0 7.109)">
            <path id="Trazado_1005299" data-name="Trazado 1005299" d="M52.384,146.831a28.032,28.032,0,0,1-35.506-42.6A28.033,28.033,0,0,0,50.115,149.1l6.062-4.983q.615-.669,1.186-1.378Z" transform="translate(-7.5 -104.235)" fill="#cfdbfa"/>
          </g>
          <g id="Grupo_1167591" data-name="Grupo 1167591" transform="translate(43.042 35.351)">
            <path id="Trazado_1005300" data-name="Trazado 1005300" d="M335.542,302.338a2.212,2.212,0,0,0-3.127,0l-14.669,14.669-5.538-5.538a2.211,2.211,0,0,0-3.127,3.127l8.665,8.665,17.8-17.8A2.211,2.211,0,0,0,335.542,302.338Z" transform="translate(-308.432 -301.69)" fill="#8edf78"/>
          </g>
          <g id="Grupo_1167594" data-name="Grupo 1167594" transform="translate(43.042 35.793)">
            <g id="Grupo_1167592" data-name="Grupo 1167592" transform="translate(11.688)">
              <path id="Trazado_1005301" data-name="Trazado 1005301" d="M390.165,317.3l12.518-12.518a2.23,2.23,0,0,0-.242.206l-12.294,12.294Z" transform="translate(-390.147 -304.777)" fill="#39c17b"/>
            </g>
            <g id="Grupo_1167593" data-name="Grupo 1167593" transform="translate(0 8.691)">
              <path id="Trazado_1005302" data-name="Trazado 1005302" d="M311.473,366.957a2.2,2.2,0,0,1-.64-1.409,2.211,2.211,0,0,0-1.752,3.766l8.665,8.665,2.375-2.375Z" transform="translate(-308.432 -365.54)" fill="#39c17b"/>
            </g>
          </g>
          <g id="Grupo_1167595" data-name="Grupo 1167595" transform="translate(37.982 27.223)">
            <path id="Trazado_1005303" data-name="Trazado 1005303" d="M0,0H2.145V2.145H0Z" transform="translate(0 1.517) rotate(-45)" fill="#fff"/>
          </g>
          <g id="Grupo_1167596" data-name="Grupo 1167596" transform="translate(34.914 30.29)">
            <path id="Trazado_1005304" data-name="Trazado 1005304" d="M0,0H2.145V2.145H0Z" transform="translate(0 1.517) rotate(-45)" fill="#fff"/>
          </g>
          <g id="Grupo_1167597" data-name="Grupo 1167597" transform="translate(15.033 27.223)">
            <path id="Trazado_1005305" data-name="Trazado 1005305" d="M0,0H2.145V2.145H0Z" transform="translate(0 1.517) rotate(-45)" fill="#fff"/>
          </g>
          <g id="Grupo_1167598" data-name="Grupo 1167598" transform="translate(18.1 30.291)">
            <path id="Trazado_1005306" data-name="Trazado 1005306" d="M0,0H2.145V2.145H0Z" transform="translate(0 1.517) rotate(-45)" fill="#fff"/>
          </g>
          <g id="Grupo_1167599" data-name="Grupo 1167599" transform="translate(26.958 22.394)">
            <path id="Trazado_1005307" data-name="Trazado 1005307" d="M195.98,211.1h2.145v2.145H195.98Z" transform="translate(-195.98 -211.103)" fill="#fff"/>
          </g>
        </g>
      </g>
      <g id="Grupo_1167602" data-name="Grupo 1167602" transform="translate(0 47.03)">
        <path id="Trazado_1005308" data-name="Trazado 1005308" d="M60.059,140.126l1.788,1.186c.366-.551.8-1.06,1.21-1.577L61.379,138.4C60.928,138.964,60.459,139.522,60.059,140.126Z" transform="translate(-51.469 -125.33)"/>
        <path id="Trazado_1005309" data-name="Trazado 1005309" d="M82.737,118.322l-1.342-1.674c-.565.453-1.079.968-1.6,1.468l1.481,1.552C81.751,119.212,82.22,118.737,82.737,118.322Z" transform="translate(-68.379 -106.691)"/>
        <path id="Trazado_1005310" data-name="Trazado 1005310" d="M104.735,99.293a20.26,20.26,0,0,0-1.824,1.17l1.23,1.758a17.975,17.975,0,0,1,1.678-1.077Z" transform="translate(-88.192 -91.818)"/>
        <path id="Trazado_1005311" data-name="Trazado 1005311" d="M0,0H2.227V2.145H0Z" transform="translate(64.525 45.366) rotate(-45)"/>
        <path id="Trazado_1005312" data-name="Trazado 1005312" d="M72.208,83.592a3.333,3.333,0,0,0-4.87-.249c-.28.254-11.114,11.115-13.91,13.91l-2.206-2.206a29.053,29.053,0,1,0-6.975,5.944l-1.118-1.831A26.987,26.987,0,1,1,49.7,93.526l-.617-.617a3.874,3.874,0,0,0-2.6-1.387,3.309,3.309,0,0,0-3.425,2.96c-.181,1.889,1.355,3.047,2.546,4.238l7.823,7.823L64.362,95.608l-1.517-1.517-9.417,9.417c-1.065-1.065-7.906-7.8-8.089-8.143-.655-1.229.841-2.115,1.816-1.35a39.811,39.811,0,0,1,3.293,3.293l2.979,2.979L56.4,97.317,66.843,86.873c.616-.616,1.811-2.345,2.818-2.345a1.151,1.151,0,0,1,.805,1.943c-.186.245-2.079,2.08-2.783,2.783L69.2,90.771c1.809-1.809,5.309-4.353,3.008-7.179Z" transform="translate(0 -47.03)"/>
        <path id="Trazado_1005313" data-name="Trazado 1005313" d="M91.445,177.961c11.125.817,20.225-9.631,18.408-20.5a18.858,18.858,0,0,0-11.515,1.942,18.764,18.764,0,0,0-6.945-10.11,18.04,18.04,0,0,0-7,10.118,18.849,18.849,0,0,0-11.494-1.95A17.8,17.8,0,0,0,91.445,177.961Zm16.5-18.548a15.507,15.507,0,0,1-14.92,16.42l5.28-5.28-1.517-1.517-5.24,5.24a15.568,15.568,0,0,1,5.784-11.681A16.416,16.416,0,0,1,107.942,159.413Zm-33.129,0a15.743,15.743,0,0,1,13.546,6.222l1.747-1.245a16.242,16.242,0,0,0-3.784-3.782,16.275,16.275,0,0,1,5.045-8.586,16.86,16.86,0,0,1,5.05,8.578,17.753,17.753,0,0,0-7.005,15.273A15.526,15.526,0,0,1,74.813,159.413Z" transform="translate(-62.274 -134.67)"/>
      </g>
    </g>
  </g>
</svg>
