<svg xmlns="http://www.w3.org/2000/svg" xmlns:xlink="http://www.w3.org/1999/xlink" width="113" height="113" viewBox="0 0 113 113">
  <defs>
    <filter id="Trazado_982547" x="0" y="0" width="113" height="113" filterUnits="userSpaceOnUse">
      <feOffset dy="3" input="SourceAlpha"/>
      <feGaussianBlur stdDeviation="3" result="blur"/>
      <feFlood flood-opacity="0.161"/>
      <feComposite operator="in" in2="blur"/>
      <feComposite in="SourceGraphic"/>
    </filter>
  </defs>
  <g id="Grupo_1167505" data-name="Grupo 1167505" transform="translate(-171 -827)">
    <g id="Grupo_1166845" data-name="Grupo 1166845" transform="translate(180 833)">
      <g id="Grupo_1166720" data-name="Grupo 1166720">
        <g id="Grupo_1164305" data-name="Grupo 1164305" transform="translate(0)">
          <g id="Grupo_1163948" data-name="Grupo 1163948">
            <g id="Grupo_1158168" data-name="Grupo 1158168">
              <g id="Grupo_1152576" data-name="Grupo 1152576">
                <g id="Grupo_1148633" data-name="Grupo 1148633">
                  <g id="Grupo_1148525" data-name="Grupo 1148525">
                    <g transform="matrix(1, 0, 0, 1, -9, -6)" filter="url(#Trazado_982547)">
                      <g id="Trazado_982547-2" data-name="Trazado 982547" transform="translate(9 6)" fill="#fff4e6">
                        <path d="M 47.5 93.5 C 41.28937149047852 93.5 35.26533508300781 92.28397369384766 29.59518623352051 89.88570404052734 C 24.11771965026855 87.56893157958984 19.19813346862793 84.25196075439453 14.97309303283691 80.02691650390625 C 10.74804019927979 75.80186462402344 7.431066513061523 70.88229370117188 5.114293098449707 65.40481567382812 C 2.716026782989502 59.73468017578125 1.5 53.71062850952148 1.5 47.5 C 1.5 41.28937149047852 2.716026782989502 35.26533508300781 5.114293098449707 29.59518623352051 C 7.431066513061523 24.11771965026855 10.74804019927979 19.19813346862793 14.97309303283691 14.97309303283691 C 19.19813346862793 10.74804019927979 24.11771965026855 7.431066513061523 29.59518623352051 5.114293098449707 C 35.26533508300781 2.716026782989502 41.28937149047852 1.5 47.5 1.5 C 53.71062850952148 1.5 59.73468017578125 2.716026782989502 65.40481567382812 5.114293098449707 C 70.88229370117188 7.431066513061523 75.80186462402344 10.74804019927979 80.02691650390625 14.97309303283691 C 84.25196075439453 19.19813346862793 87.56893157958984 24.11771965026855 89.88570404052734 29.59518623352051 C 92.28397369384766 35.26533508300781 93.5 41.28937149047852 93.5 47.5 C 93.5 53.71062850952148 92.28397369384766 59.73468017578125 89.88570404052734 65.40481567382812 C 87.56893157958984 70.88229370117188 84.25196075439453 75.80186462402344 80.02691650390625 80.02691650390625 C 75.80186462402344 84.25196075439453 70.88229370117188 87.56893157958984 65.40481567382812 89.88570404052734 C 59.73468017578125 92.28397369384766 53.71062850952148 93.5 47.5 93.5 Z" stroke="none"/>
                        <path d="M 47.5 3 C 41.49121475219727 3 35.66376876831055 4.176155090332031 30.17950439453125 6.495796203613281 C 24.88084411621094 8.736953735351562 20.12152099609375 11.94598388671875 16.03375244140625 16.03375244140625 C 11.94598388671875 20.12152099609375 8.736953735351562 24.88084411621094 6.495796203613281 30.17950439453125 C 4.176155090332031 35.66376876831055 3 41.49121475219727 3 47.5 C 3 53.50878524780273 4.176155090332031 59.33623123168945 6.495796203613281 64.82049560546875 C 8.736953735351562 70.11915588378906 11.94598388671875 74.87847900390625 16.03375244140625 78.96624755859375 C 20.12152099609375 83.05401611328125 24.88084411621094 86.26304626464844 30.17950439453125 88.50419616699219 C 35.66376876831055 90.82384490966797 41.49121475219727 92 47.5 92 C 53.50878524780273 92 59.33623123168945 90.82384490966797 64.82049560546875 88.50419616699219 C 70.11915588378906 86.26304626464844 74.87847900390625 83.05401611328125 78.96624755859375 78.96624755859375 C 83.05401611328125 74.87847900390625 86.26304626464844 70.11915588378906 88.50419616699219 64.82049560546875 C 90.82384490966797 59.33623123168945 92 53.50878524780273 92 47.5 C 92 41.49121475219727 90.82384490966797 35.66376876831055 88.50419616699219 30.17950439453125 C 86.26304626464844 24.88084411621094 83.05401611328125 20.12152099609375 78.96624755859375 16.03375244140625 C 74.87847900390625 11.94598388671875 70.11915588378906 8.736953735351562 64.82049560546875 6.495796203613281 C 59.33623123168945 4.176155090332031 53.50878524780273 3 47.5 3 M 47.5 0 C 73.7335205078125 0 95 21.2664794921875 95 47.5 C 95 73.7335205078125 73.7335205078125 95 47.5 95 C 21.2664794921875 95 0 73.7335205078125 0 47.5 C 0 21.2664794921875 21.2664794921875 0 47.5 0 Z" stroke="none" fill="#ff9d1c"/>
                      </g>
                    </g>
                  </g>
                </g>
              </g>
            </g>
          </g>
        </g>
      </g>
    </g>
    <g id="cuidado_2_" data-name="cuidado (2)" transform="translate(154.796 844)">
      <g id="Grupo_1167504" data-name="Grupo 1167504" transform="translate(43.269 1.064)">
        <path id="Trazado_1005023" data-name="Trazado 1005023" d="M200.76,38.039h2.559V35.48a6.149,6.149,0,0,0-6.149-6.149h-1.992a.567.567,0,0,0-.567.567V31.89A6.149,6.149,0,0,0,200.76,38.039Z" transform="translate(-174.056 -26.234)" fill="#b3e59f"/>
        <g id="Grupo_1167501" data-name="Grupo 1167501" transform="translate(29.263)">
          <path id="Trazado_1005024" data-name="Trazado 1005024" d="M258.553,16.208h-2.559V13.649A6.149,6.149,0,0,1,262.143,7.5h1.992a.567.567,0,0,1,.567.567v1.992A6.148,6.148,0,0,1,258.553,16.208Z" transform="translate(-255.994 -7.5)" fill="#b3e59f"/>
        </g>
        <g id="Grupo_1167502" data-name="Grupo 1167502" transform="translate(0 47.737)">
          <path id="Trazado_1005025" data-name="Trazado 1005025" d="M394.439,349.359,386.857,351l-1.146-5.289,7.582-1.643a2.706,2.706,0,0,1,1.146,5.289Z" transform="translate(-338.046 -344.007)" fill="#edbb87"/>
          <path id="Trazado_1005026" data-name="Trazado 1005026" d="M51.844,349.359,59.426,351l1.146-5.289-7.582-1.643a2.706,2.706,0,0,0-1.146,5.289Z" transform="translate(-49.71 -344.007)" fill="#edbb87"/>
        </g>
        <g id="Grupo_1167503" data-name="Grupo 1167503" transform="translate(3.152 15.689)">
          <circle id="Elipse_11732" data-name="Elipse 11732" cx="26.112" cy="26.112" r="26.112" fill="#9dc6fb"/>
          <path id="Trazado_1005027" data-name="Trazado 1005027" d="M182.371,130.618a26.117,26.117,0,0,1-23.22,46.543,26.115,26.115,0,1,0,23.22-46.543Z" transform="translate(-146.777 -128.842)" fill="#80b4fb"/>
          <path id="Trazado_1005028" data-name="Trazado 1005028" d="M248.513,139.779a26.111,26.111,0,0,0-31.22-21.1c.521,2.1,1.052,4.56,1.531,7.467.783,4.753,1.111,8.783,3.375,9.512,2.206.71,4-2.435,7.058-1.841,2.567.5,2.926,3.027,5.216,4.91C237.58,141.281,243.424,141.975,248.513,139.779Z" transform="translate(-196.672 -118.097)" fill="#b3e59f"/>
          <path id="Trazado_1005029" data-name="Trazado 1005029" d="M335.214,151.667a16.105,16.105,0,0,0,3.9-1.121,26.151,26.151,0,0,0-16.242-19.9A26.1,26.1,0,0,1,335.214,151.667Z" transform="translate(-287.277 -128.864)" fill="#95d6a4"/>
          <path id="Trazado_1005030" data-name="Trazado 1005030" d="M82.77,200.258a12.888,12.888,0,0,0-5.8-6.744,26.09,26.09,0,0,0,2.108,33.351c3.276-2.177,5.623-5.683,5.845-8.827.148-2.091-.766-2.289-1.563-6.448C82.164,205.363,83.765,203.468,82.77,200.258Z" transform="translate(-71.928 -182.815)" fill="#b3e59f"/>
          <path id="Trazado_1005031" data-name="Trazado 1005031" d="M193.558,362.4a26.126,26.126,0,0,0,28.28-7.121,38.348,38.348,0,0,0-5.866-6.35c-2.063-1.883-6.982-6.37-10.015-4.917-2.372,1.137-1.213,4.766-3.278,9.469C200.53,358.371,196.483,360.8,193.558,362.4Z" transform="translate(-176.304 -311.716)" fill="#b3e59f"/>
          <path id="Trazado_1005032" data-name="Trazado 1005032" d="M221.839,403.27a27.274,27.274,0,0,0-3.011-3.617,26.206,26.206,0,0,1-23.883,9.957c-.481.283-.946.542-1.386.782A26.3,26.3,0,0,0,221.839,403.27Z" transform="translate(-176.304 -359.712)" fill="#95d6a4"/>
        </g>
        <path id="Trazado_1005033" data-name="Trazado 1005033" d="M373.2,366.283a2.483,2.483,0,0,1,3.511,0l4.213,4.213a2.483,2.483,0,0,1-3.511,3.511l-4.213-4.213A2.483,2.483,0,0,1,373.2,366.283Z" transform="translate(-326.686 -314.762)" fill="#f1d0a4"/>
        <path id="Trazado_1005034" data-name="Trazado 1005034" d="M381.34,376.64a2.483,2.483,0,0,1-3.511,0l-4.213-4.213a2.472,2.472,0,0,1-.532-.793,2.481,2.481,0,0,0,.122,3.376l4.213,4.213a2.482,2.482,0,0,0,4.043-2.718C381.423,376.55,381.383,376.6,381.34,376.64Z" transform="translate(-326.692 -319.978)" fill="#edbb87"/>
        <path id="Trazado_1005035" data-name="Trazado 1005035" d="M337.845,380.425a2.483,2.483,0,0,1,3.511,0l7.222,7.222a2.483,2.483,0,1,1-3.511,3.511l-7.222-7.222A2.483,2.483,0,0,1,337.845,380.425Z" transform="translate(-296.346 -326.898)" fill="#f1d0a4"/>
        <path id="Trazado_1005036" data-name="Trazado 1005036" d="M348.72,395.106a2.483,2.483,0,0,1-3.511,0l-7.222-7.222a2.476,2.476,0,0,1-.428-.575,2.482,2.482,0,0,0,.291,3.158l7.222,7.222a2.482,2.482,0,0,0,3.939-2.935A2.5,2.5,0,0,1,348.72,395.106Z" transform="translate(-296.352 -333.429)" fill="#edbb87"/>
        <path id="Trazado_1005037" data-name="Trazado 1005037" d="M313.1,405.174a2.483,2.483,0,0,1,3.511,0l7.222,7.222a2.483,2.483,0,1,1-3.511,3.511l-7.222-7.222A2.482,2.482,0,0,1,313.1,405.174Z" transform="translate(-275.108 -348.136)" fill="#f1d0a4"/>
        <path id="Trazado_1005038" data-name="Trazado 1005038" d="M323.838,420.528a2.483,2.483,0,0,1-3.511,0l-7.222-7.222a2.473,2.473,0,0,1-.362-.464,2.481,2.481,0,0,0,.362,3.047l7.222,7.222a2.481,2.481,0,0,0,3.873-3.047A2.475,2.475,0,0,1,323.838,420.528Z" transform="translate(-275.117 -355.341)" fill="#edbb87"/>
        <path id="Trazado_1005039" data-name="Trazado 1005039" d="M298.953,440.529a2.483,2.483,0,0,1,3.511,0l4.213,4.213a2.483,2.483,0,0,1-3.511,3.511l-4.213-4.213A2.483,2.483,0,0,1,298.953,440.529Z" transform="translate(-262.972 -378.476)" fill="#f1d0a4"/>
        <path id="Trazado_1005040" data-name="Trazado 1005040" d="M307.11,450.784a2.483,2.483,0,0,1-3.511,0l-4.213-4.213a2.472,2.472,0,0,1-.534-.8,2.481,2.481,0,0,0,.109,3.391l4.213,4.213a2.482,2.482,0,0,0,4.045-2.714C307.183,450.7,307.149,450.745,307.11,450.784Z" transform="translate(-262.98 -383.601)" fill="#edbb87"/>
        <path id="Trazado_1005041" data-name="Trazado 1005041" d="M83.268,366.283a2.483,2.483,0,0,0-3.511,0L75.544,370.5a2.483,2.483,0,0,0,3.511,3.511l4.213-4.213A2.483,2.483,0,0,0,83.268,366.283Z" transform="translate(-71.255 -314.762)" fill="#f1d0a4"/>
        <path id="Trazado_1005042" data-name="Trazado 1005042" d="M83.423,371.815a2.486,2.486,0,0,1-.359.459l-4.213,4.213a2.483,2.483,0,0,1-3.511,0c-.052-.052-.1-.106-.145-.161a2.481,2.481,0,0,0,3.87,3.052l4.213-4.213A2.481,2.481,0,0,0,83.423,371.815Z" transform="translate(-71.265 -320.134)" fill="#edbb87"/>
        <path id="Trazado_1005043" data-name="Trazado 1005043" d="M100.42,380.425a2.483,2.483,0,0,0-3.511,0l-7.222,7.222a2.483,2.483,0,0,0,3.511,3.511l7.222-7.222A2.483,2.483,0,0,0,100.42,380.425Z" transform="translate(-83.392 -326.898)" fill="#f1d0a4"/>
        <path id="Trazado_1005044" data-name="Trazado 1005044" d="M100.426,387.63,93.2,394.852a2.475,2.475,0,0,1-3.8-.349,2.482,2.482,0,0,0,3.8,3.162l7.222-7.222a2.482,2.482,0,0,0,.288-3.162A2.509,2.509,0,0,1,100.426,387.63Z" transform="translate(-83.398 -333.406)" fill="#edbb87"/>
        <path id="Trazado_1005045" data-name="Trazado 1005045" d="M125.168,405.174a2.483,2.483,0,0,0-3.511,0l-7.222,7.222a2.483,2.483,0,0,0,3.511,3.511l7.222-7.222A2.483,2.483,0,0,0,125.168,405.174Z" transform="translate(-104.629 -348.136)" fill="#f1d0a4"/>
        <path id="Trazado_1005046" data-name="Trazado 1005046" d="M125.219,409.876a2.477,2.477,0,0,1-.381.5l-7.222,7.222a2.483,2.483,0,0,1-3.511,0c-.014-.014-.026-.029-.039-.043a2.481,2.481,0,0,0,3.892,3.014l7.222-7.222A2.481,2.481,0,0,0,125.219,409.876Z" transform="translate(-104.641 -352.795)" fill="#edbb87"/>
        <path id="Trazado_1005047" data-name="Trazado 1005047" d="M157.514,440.529a2.483,2.483,0,0,0-3.511,0l-4.213,4.213a2.483,2.483,0,0,0,3.511,3.511l4.213-4.213A2.482,2.482,0,0,0,157.514,440.529Z" transform="translate(-134.969 -378.476)" fill="#f1d0a4"/>
        <path id="Trazado_1005048" data-name="Trazado 1005048" d="M157.525,447.324l-4.213,4.213a2.466,2.466,0,0,1-3.762-.3,2.481,2.481,0,0,0,3.762,3.213l4.213-4.213a2.481,2.481,0,0,0,.251-3.213A2.464,2.464,0,0,1,157.525,447.324Z" transform="translate(-134.98 -384.675)" fill="#edbb87"/>
      </g>
      <path id="Trazado_1005049" data-name="Trazado 1005049" d="M99.266,47.741A27.17,27.17,0,0,0,73.6,15.712V10.836h1.5A7.221,7.221,0,0,0,82.3,3.623V1.631A1.633,1.633,0,0,0,80.672,0H78.681a7.225,7.225,0,0,0-6.99,5.432A7.2,7.2,0,0,0,66.383,3.1H64.392A1.633,1.633,0,0,0,62.76,4.728V6.72a7.221,7.221,0,0,0,7.213,7.213h1.5v1.78A27.1,27.1,0,0,0,45.8,47.741a3.77,3.77,0,0,0-.622,7.451l2.04.442a3.648,3.648,0,0,0-.411,5.427,3.524,3.524,0,0,0,1.376.852,3.547,3.547,0,0,0,3.1,5.2,3.544,3.544,0,0,0,5.2,3.1,3.619,3.619,0,0,0,3.362,2.413,3.536,3.536,0,0,0,2.508-1.037l2.62-2.619a27.323,27.323,0,0,0,15.118,0l2.62,2.619a3.548,3.548,0,0,0,5.87-1.376,3.544,3.544,0,0,0,5.2-3.1,3.522,3.522,0,0,0,2.475-1.038,3.6,3.6,0,0,0,.631-4.162,3.531,3.531,0,0,0,1.375-.854,3.68,3.68,0,0,0-.411-5.427l2.041-.442a3.77,3.77,0,0,0-.622-7.45ZM73.6,7.213a5.09,5.09,0,0,1,5.085-5.085h1.5v1.5A5.091,5.091,0,0,1,75.346,8.7l1.543-1.366a1.064,1.064,0,1,0-1.41-1.593L73.6,7.409Zm-3.975,1.24a1.064,1.064,0,1,0-1.5,1.5L69.963,11.8A5.09,5.09,0,0,1,64.888,6.72v-1.5h1.5A5.09,5.09,0,0,1,71.468,10.3ZM45.627,53.112a1.641,1.641,0,0,1,.656-3.216,27.124,27.124,0,0,0,1.249,3.628Zm2.683,6.444a1.431,1.431,0,0,1,0-2.006l4.213-4.213a1.419,1.419,0,0,1,2.006,2.006l-4.213,4.213A1.432,1.432,0,0,1,48.31,59.556Zm2.006,5.016a1.42,1.42,0,0,1,0-2.006l7.222-7.222a1.428,1.428,0,0,1,2.006,0h0a1.43,1.43,0,0,1,0,2.006l-7.222,7.222A1.432,1.432,0,0,1,50.316,64.571Zm5.517,3.511a1.419,1.419,0,1,1-2.006-2.006l7.222-7.222a1.419,1.419,0,1,1,2.006,2.006Zm9.228-2.207-4.213,4.213a1.419,1.419,0,0,1-2.006-2.006l4.213-4.213a1.419,1.419,0,1,1,2.006,2.006Zm1.5-3.511a3.529,3.529,0,0,0-1.376-.854,3.544,3.544,0,0,0-3.1-5.2,3.548,3.548,0,0,0-5.2-3.1,3.524,3.524,0,0,0-.852-1.376h0a3.547,3.547,0,0,0-5.016,0l-1.326,1.326A25.037,25.037,0,0,1,51.745,28.9a11.4,11.4,0,0,1,4.5,5.606,9.214,9.214,0,0,1,.2,3.771,24.911,24.911,0,0,0,.355,7.446,22.247,22.247,0,0,0,.94,3.512,1.064,1.064,0,0,0,2-.72,20.215,20.215,0,0,1-.853-3.193,22.745,22.745,0,0,1-.323-6.878,11.133,11.133,0,0,0-.293-4.569,13.332,13.332,0,0,0-5.268-6.691,25.1,25.1,0,0,1,13.245-8.576c.612,2.58,1.115,5.354,1.537,8.061.68,4.365,1.217,7.812,3.829,8.654,1.5.483,2.784-.243,3.917-.883a4.713,4.713,0,0,1,3.264-.926c1.847.358,3.056,3.3,4.743,4.687,2.481,2.04,6.108,2.85,9.739,2.549a1.064,1.064,0,1,0-.176-2.121A11.7,11.7,0,0,1,84.9,36.562c-2.113-1.737-2.57-4.527-5.689-5.132a6.621,6.621,0,0,0-4.716,1.162c-1,.562-1.635.9-2.218.71-1.363-.439-1.857-3.6-2.379-6.956-.427-2.742-.941-5.563-1.558-8.176A25.054,25.054,0,0,1,95.371,53.159l-1.326-1.326a3.547,3.547,0,0,0-5.016,0h0a3.525,3.525,0,0,0-.852,1.376A3.543,3.543,0,0,0,86.4,52.8C84,50.632,79.109,46.411,75.614,48.086c-1.838.88-2.118,2.7-2.443,4.817a19.417,19.417,0,0,1-1.35,5.184,15.006,15.006,0,0,1-4.4,5.658,3.509,3.509,0,0,0-.853-1.38Zm11.932,0a3.551,3.551,0,0,0-.14,4.866,25.238,25.238,0,0,1-11.651,0,3.531,3.531,0,0,0,.461-.653,17.769,17.769,0,0,0,6.6-7.636,21.492,21.492,0,0,0,1.5-5.716c.294-1.909.47-2.843,1.26-3.221,1.955-.937,5.547,1.849,7.649,3.678a3.528,3.528,0,0,0-1.206,2.631,3.544,3.544,0,0,0-3.1,5.2A3.533,3.533,0,0,0,78.5,62.365Zm7.724,7.724a1.42,1.42,0,0,1-2.006,0L80,65.875a1.42,1.42,0,0,1,0-2.006h0a1.428,1.428,0,0,1,2.006,0l4.214,4.214A1.433,1.433,0,0,1,86.222,70.088Zm5.016-2.006a1.42,1.42,0,0,1-2.006,0L82.009,60.86a1.419,1.419,0,0,1,2.006-2.006l7.222,7.222A1.42,1.42,0,0,1,91.237,68.082Zm3.511-3.511a1.432,1.432,0,0,1-2.006,0l-7.222-7.222a1.429,1.429,0,0,1,0-2.006h0a1.428,1.428,0,0,1,2.006,0c2.269,2.292,5.052,5.052,7.222,7.222A1.42,1.42,0,0,1,94.748,64.571Zm2.006-5.015a1.42,1.42,0,0,1-2.006,0l-4.213-4.213a1.42,1.42,0,0,1,0-2.006h0a1.43,1.43,0,0,1,2.006,0c.828.828,3.336,3.344,4.213,4.213A1.433,1.433,0,0,1,96.754,59.556Zm2.683-6.444-1.906.413A27.132,27.132,0,0,0,98.781,49.9a1.641,1.641,0,0,1,.657,3.216Z"/>
    </g>
  </g>
</svg>
