<svg xmlns="http://www.w3.org/2000/svg" xmlns:xlink="http://www.w3.org/1999/xlink" width="106" height="106" viewBox="0 0 106 106">
  <defs>
    <filter id="Trazado_982547" x="0" y="0" width="106" height="106" filterUnits="userSpaceOnUse">
      <feOffset dy="3" input="SourceAlpha"/>
      <feGaussianBlur stdDeviation="3" result="blur"/>
      <feFlood flood-opacity="0.161"/>
      <feComposite operator="in" in2="blur"/>
      <feComposite in="SourceGraphic"/>
    </filter>
  </defs>
  <g id="Grupo_1167509" data-name="Grupo 1167509" transform="translate(-171 -1057)">
    <g id="Grupo_1167337" data-name="Grupo 1167337" transform="translate(180 1063)">
      <g id="Grupo_1166720" data-name="Grupo 1166720" transform="translate(0)">
        <g id="Grupo_1164305" data-name="Grupo 1164305">
          <g id="Grupo_1163948" data-name="Grupo 1163948">
            <g id="Grupo_1158168" data-name="Grupo 1158168">
              <g id="Grupo_1152576" data-name="Grupo 1152576">
                <g id="Grupo_1148633" data-name="Grupo 1148633">
                  <g id="Grupo_1148525" data-name="Grupo 1148525">
                    <g transform="matrix(1, 0, 0, 1, -9, -6)" filter="url(#Trazado_982547)">
                      <g id="Trazado_982547-2" data-name="Trazado 982547" transform="translate(9 6)" fill="#e9f9fd">
                        <path d="M 44 86.5 C 38.26187515258789 86.5 32.69618606567383 85.37651062011719 27.45755004882812 83.16075897216797 C 22.3968505859375 81.020263671875 17.85157585144043 77.95565032958984 13.94796276092529 74.05204010009766 C 10.04434967041016 70.1484375 6.979737281799316 65.6031494140625 4.839250087738037 60.54246139526367 C 2.62348747253418 55.30381393432617 1.5 49.73812484741211 1.5 44 C 1.5 38.26187515258789 2.62348747253418 32.69618606567383 4.839250087738037 27.45755004882812 C 6.979737281799316 22.3968505859375 10.04434967041016 17.85157585144043 13.94796276092529 13.94796276092529 C 17.85157585144043 10.04434967041016 22.3968505859375 6.979737281799316 27.45755004882812 4.839250087738037 C 32.69618606567383 2.62348747253418 38.26187515258789 1.5 44 1.5 C 49.73812484741211 1.5 55.30381393432617 2.62348747253418 60.54246139526367 4.839250087738037 C 65.6031494140625 6.979737281799316 70.1484375 10.04434967041016 74.05204010009766 13.94796276092529 C 77.95565032958984 17.85157585144043 81.020263671875 22.3968505859375 83.16075897216797 27.45755004882812 C 85.37651062011719 32.69618606567383 86.5 38.26187515258789 86.5 44 C 86.5 49.73812484741211 85.37651062011719 55.30381393432617 83.16075897216797 60.54246139526367 C 81.020263671875 65.6031494140625 77.95565032958984 70.1484375 74.05204010009766 74.05204010009766 C 70.1484375 77.95565032958984 65.6031494140625 81.020263671875 60.54246139526367 83.16075897216797 C 55.30381393432617 85.37651062011719 49.73812484741211 86.5 44 86.5 Z" stroke="none"/>
                        <path d="M 44 3 C 38.46371459960938 3 33.09462738037109 4.083610534667969 28.0418701171875 6.220756530761719 C 23.15997314453125 8.285614013671875 18.77495574951172 11.24228668212891 15.00862884521484 15.00862884521484 C 11.24228668212891 18.77495574951172 8.285614013671875 23.15997314453125 6.220756530761719 28.0418701171875 C 4.083610534667969 33.09462738037109 3 38.46371459960938 3 44 C 3 49.53628540039062 4.083610534667969 54.9053840637207 6.220756530761719 59.9581298828125 C 8.285614013671875 64.84002685546875 11.24228668212891 69.22504425048828 15.00862884521484 72.99138641357422 C 18.77495574951172 76.75771331787109 23.15997314453125 79.71438598632812 28.0418701171875 81.77925872802734 C 33.09462738037109 83.9163818359375 38.46371459960938 85 44 85 C 49.53628540039062 85 54.9053840637207 83.9163818359375 59.95814514160156 81.77925872802734 C 64.84002685546875 79.71438598632812 69.22504425048828 76.75771331787109 72.99138641357422 72.99138641357422 C 76.75771331787109 69.22504425048828 79.71438598632812 64.84002685546875 81.77925872802734 59.95814514160156 C 83.9163818359375 54.9053840637207 85 49.53628540039062 85 44 C 85 38.46371459960938 83.9163818359375 33.09462738037109 81.77925872802734 28.0418701171875 C 79.71438598632812 23.15997314453125 76.75771331787109 18.77495574951172 72.99138641357422 15.00862884521484 C 69.22504425048828 11.24228668212891 64.84002685546875 8.285614013671875 59.9581298828125 6.220756530761719 C 54.9053840637207 4.083610534667969 49.53628540039062 3 44 3 M 44 0 C 68.30054473876953 0 88 19.69947052001953 88 44 C 88 68.30054473876953 68.30054473876953 88 44 88 C 19.69947052001953 88 0 68.30054473876953 0 44 C 0 19.69947052001953 19.69947052001953 0 44 0 Z" stroke="none" fill="#1d7083"/>
                      </g>
                    </g>
                  </g>
                </g>
              </g>
            </g>
          </g>
        </g>
      </g>
    </g>
    <g id="energia-sostenible" transform="translate(194 1076.97)">
      <g id="Grupo_1167507" data-name="Grupo 1167507" transform="translate(0.882 0.912)">
        <path id="Trazado_1005050" data-name="Trazado 1005050" d="M19.922,19.947A22.344,22.344,0,0,1,49.95,17.832c.332.254,1.8,1.538,2.079,1.846q.462.414.906.858a23.167,23.167,0,0,1,1.941,2.2A43.083,43.083,0,0,1,59.4,18.32a29.547,29.547,0,0,0-2.015-2.232A29.22,29.22,0,0,0,12.411,52.959a59.78,59.78,0,0,0,5.519-3.087C10.8,39.526,11.239,28.63,19.922,19.947Z" transform="translate(-7.505 -7.529)" fill="#c9eb74"/>
        <path id="Trazado_1005051" data-name="Trazado 1005051" d="M85.136,52.745A22.929,22.929,0,0,0,50.67,82.836l.349-.322A22.93,22.93,0,0,1,85.993,53.651q-.415-.462-.858-.906Z" transform="translate(-41.47 -41.503)" fill="#acd980"/>
        <path id="Trazado_1005052" data-name="Trazado 1005052" d="M82.529,108.949l-5.4,3.284A22.929,22.929,0,0,1,42.76,142.455c-.193-.193-.833-.894-1.323-1.45l1.363-3.746-9.047-1.565a.882.882,0,0,0-1.032.869v9.177l0,0,3.9-.682q.4.478.829.942c12.579,12.194,30.48,11.429,41.6.314C88.757,136.6,89.868,122.894,82.529,108.949Z" transform="translate(-29.756 -97.024)" fill="#9cd169"/>
        <g id="Grupo_1167506" data-name="Grupo 1167506" transform="translate(2.965 11.925)">
          <path id="Trazado_1005053" data-name="Trazado 1005053" d="M99.3,352.56l.173.237c.086.117.3.372.565.668l2.474-2.083a.882.882,0,0,0-.418-1.544l-.693-.12-1.956,1.647A.883.883,0,0,0,99.3,352.56Z" transform="translate(-91.326 -321.409)" fill="#7fcb8f"/>
          <path id="Trazado_1005054" data-name="Trazado 1005054" d="M35.948,406.426a.882.882,0,0,0-1.265-.137l-1.958,1.648,0,0v.708a.882.882,0,0,0,1.45.675l2.451-2.063Q36.277,406.845,35.948,406.426Z" transform="translate(-32.722 -371.146)" fill="#7fcb8f"/>
          <path id="Trazado_1005055" data-name="Trazado 1005055" d="M118.021,108.949c-.119.147-.229.28-.321.39A29.222,29.222,0,0,1,72.943,146c.28.3.566.606.862.9a29.221,29.221,0,0,0,44.216-37.954Z" transform="translate(-68.214 -108.949)" fill="#7fcb8f"/>
        </g>
        <path id="Trazado_1005056" data-name="Trazado 1005056" d="M398.6,90.876a32.62,32.62,0,0,0-1.263-8.367L388.669,89.8s4.533,2.511,7.825,2.622A1.939,1.939,0,0,0,398.6,90.876Z" transform="translate(-343.852 -73.693)" fill="#c9eb74"/>
        <path id="Trazado_1005057" data-name="Trazado 1005057" d="M391.574,77.01l-.549.462v7.746a.882.882,0,0,1-1.032.869l-7.632-1.321-.538.454a.881.881,0,0,0,.429,1.533l9.74,1.685a.882.882,0,0,0,1.032-.869V77.684A.882.882,0,0,0,391.574,77.01Z" transform="translate(-337.543 -68.656)" fill="#acd980"/>
        <path id="Trazado_1005058" data-name="Trazado 1005058" d="M183.663,126.317c0-5.089-4.848-12.641-8.922-16.759a1.809,1.809,0,0,0-.857-.458c-1.505,0-10.956,11.134-10.956,18.537a9.67,9.67,0,0,0,1.36,5.289c2.292,2.311,5.872,2.838,8.42,2.838C177.981,135.764,183.663,133.72,183.663,126.317Z" transform="translate(-144.653 -97.157)" fill="#acd980"/>
        <path id="Trazado_1005059" data-name="Trazado 1005059" d="M184.944,112.993c3.281,3.786,7.747,10.639,7.747,15.728,0,7.4-5.682,9.447-10.956,9.447a13.444,13.444,0,0,1-7.244-1.806c2,3.153,5.9,4.158,9.6,4.158,5.273,0,10.956-2.044,10.956-9.447C195.043,124.559,187.728,115.158,184.944,112.993Z" transform="translate(-154.857 -100.593)" fill="#9cd169"/>
      </g>
      <g id="Grupo_1167508" data-name="Grupo 1167508" transform="translate(0 0.03)">
        <path id="Trazado_1005060" data-name="Trazado 1005060" d="M57.245,17.109V9.94a1.764,1.764,0,0,0-2.9-1.349l-1.784,1.5c-.381-.426-.775-.843-1.178-1.246A30.108,30.108,0,0,0,1.013,22.363,30.287,30.287,0,0,0,.91,37.5a.882.882,0,1,0,1.71-.43,28.322,28.322,0,0,1,7.442-26.976,28.337,28.337,0,0,1,40.074,0c.576.576,1.132,1.182,1.655,1.8A.882.882,0,0,0,53.033,12L55.481,9.94v9.885l-9.74-1.685,2.48-2.087a.882.882,0,0,0,.107-1.243c-.44-.522-.908-1.032-1.392-1.515A23.815,23.815,0,0,0,8.1,39.243l-3.065-.53A1.764,1.764,0,0,0,2.965,40.45v9.885a1.764,1.764,0,0,0,2.9,1.349l1.784-1.5c.377.421.767.834,1.166,1.232a30.118,30.118,0,0,0,39.765,2.479A.882.882,0,1,0,47.495,52.5a28.356,28.356,0,0,1-37.433-2.335C9.49,49.6,8.938,48.995,8.419,48.38a.882.882,0,0,0-1.242-.106L4.729,50.335V40.45l9.74,1.685L11.99,44.223a.882.882,0,0,0-.106,1.243c.436.516.9,1.021,1.379,1.5A23.814,23.814,0,0,0,52.108,21.032l3.072.532a1.76,1.76,0,0,0,1.712-.681,28.353,28.353,0,0,1-6.756,29.286.882.882,0,1,0,1.247,1.247,30.109,30.109,0,0,0,5.862-34.305ZM45.688,45.719a22.046,22.046,0,0,1-31.178,0q-.355-.355-.7-.727l1.791-1.507A1.764,1.764,0,0,0,14.77,40.4L10.185,39.6a22.05,22.05,0,0,1,35.5-25.063q.361.361.708.741L44.605,16.79a1.764,1.764,0,0,0,.835,3.087l4.579.792a22.019,22.019,0,0,1-4.331,25.049Z" transform="translate(0 -0.03)"/>
        <path id="Trazado_1005061" data-name="Trazado 1005061" d="M170.252,103.73c-2.017-2.131-2.7-2.131-2.987-2.131s-.97,0-2.987,2.131a40.566,40.566,0,0,0-3.782,4.744c-1.893,2.753-5.069,8.042-5.069,12.544,0,3.679,1.306,6.447,3.881,8.225a13.619,13.619,0,0,0,7.075,2.084v5.246a.882.882,0,1,0,1.764,0V126.241l6.473-6.473a.882.882,0,1,0-1.247-1.247l-5.226,5.226V116.79l3.729-3.729a.882.882,0,1,0-1.247-1.247l-2.482,2.482v-6.762a.882.882,0,1,0-1.764,0V114.3l-2.482-2.482a.882.882,0,1,0-1.247,1.247l3.729,3.729v6.956l-5.226-5.226a.882.882,0,1,0-1.247,1.247l6.473,6.473v3.321a11.818,11.818,0,0,1-6.072-1.77c-2.07-1.43-3.12-3.709-3.12-6.774,0-3.9,2.831-8.687,4.518-11.192,2.448-3.635,4.791-5.985,5.556-6.42.765.435,3.108,2.785,5.556,6.42,1.687,2.506,4.518,7.291,4.518,11.192,0,4.529-2.259,7.3-6.715,8.238a.882.882,0,0,0,.363,1.726,10.489,10.489,0,0,0,5.669-2.974,9.882,9.882,0,0,0,2.446-6.99c0-4.5-3.176-9.792-5.069-12.544A40.616,40.616,0,0,0,170.252,103.73Z" transform="translate(-137.152 -89.657)"/>
      </g>
    </g>
  </g>
</svg>
