<svg xmlns="http://www.w3.org/2000/svg" xmlns:xlink="http://www.w3.org/1999/xlink" width="505" height="350" viewBox="0 0 505 350">
  <defs>
    <clipPath id="clip-path">
      <rect id="Rectángulo_412797" data-name="Rectángulo 412797" width="505" height="350" transform="translate(180 406)" fill="#fff" stroke="#707070" stroke-width="1"/>
    </clipPath>
    <clipPath id="clip-path-2">
      <rect id="Rectángulo_412796" data-name="Rectángulo 412796" width="588.612" height="359.273" fill="none"/>
    </clipPath>
    <clipPath id="clip-path-4">
      <path id="Trazado_1000425" data-name="Trazado 1000425" d="M169.941,133.142a131.048,131.048,0,1,0,144.1-116.55,132.4,132.4,0,0,0-13.935-.736A131.07,131.07,0,0,0,169.941,133.142" transform="translate(-169.205 -15.856)" fill="none"/>
    </clipPath>
    <clipPath id="clip-path-6">
      <rect id="Rectángulo_412792" data-name="Rectángulo 412792" width="246.417" height="234.775" fill="none"/>
    </clipPath>
    <clipPath id="clip-path-7">
      <path id="Trazado_1000491" data-name="Trazado 1000491" d="M322.111,82.259c7.342,19.09,16.009,10.373,16.009,10.373-1.095-9.3-6.788-11.125-11.076-11.125a16.717,16.717,0,0,0-4.933.753m18.817,10.068s9.628,6.735,14.532-13.682a12.341,12.341,0,0,0-1.36-.064c-3.626,0-13.243,1.183-13.172,13.746m-2.914-7.773a185.545,185.545,0,0,1,.535,19.514c-4.46-14.511-23.6-9.721-23.6-9.721,9.247,19.921,20.449,15.31,23.5,13.557-.115,3.5-.315,7.219-.633,11.033-6.418-13.661-29.482-10.052-29.482-10.052,9.867,20.847,23.45,18.808,28.776,17-.37,3.036-.822,6.085-1.377,9.087,0,0,2.094-.084,2.791,0,.641-3.5,1.132-7.066,1.5-10.6,4.168,1.841,16.138,4.719,24.607-17.43,0,0-17.559-3.221-23.91,8.456.135-2.56.219-5.059.26-7.457,4.151,1.254,13.375,1.588,19.055-16.9,0,0-13.735-1.722-19.093,7.484-.183-7.4-.672-12.756-.859-14.219,1.284-1.359,3.345-4.362,3.168-9.592-.254-7.562-4.641-10.295-4.641-10.295s-3.62-3.129-2.5-6.951c0,0-10.343,19.272,1.893,27.084" transform="translate(-308.338 -57.47)" fill="none"/>
    </clipPath>
  </defs>
  <g id="Enmascarar_grupo_1098761" data-name="Enmascarar grupo 1098761" transform="translate(-180 -406)" clip-path="url(#clip-path)">
    <g id="Grupo_1165456" data-name="Grupo 1165456" transform="translate(180 405.667)">
      <g id="Grupo_1165455" data-name="Grupo 1165455" transform="translate(-10.634)" clip-path="url(#clip-path-2)">
        <g id="Grupo_1165443" data-name="Grupo 1165443">
          <g id="Grupo_1165442" data-name="Grupo 1165442" clip-path="url(#clip-path-2)">
            <path id="Trazado_1000417" data-name="Trazado 1000417" d="M467.614,192.058c3.19-35.3,1.816-74.868-19.8-112.28C431.3,51.207,391.551,17.525,353.9,5.216c-47.616-15.567-92.163,8.267-138.321,12.477-41.269,3.76-83.789-10.474-124.142-3C62.529,20.05,38.521,36.334,23.782,56S2.787,98.48.75,121.139c-3.944,43.787,7.767,88.31,32.728,127.981,12.478,19.828,30.092,35.45,45.737,53.446,15.945,18.333,272.009,9,314.143-.8,53.676-12.505,70.518-68.339,74.257-109.7" transform="translate(34.624 23.115)" fill="#ffeae6"/>
            <path id="Trazado_1000418" data-name="Trazado 1000418" d="M340.9,75.664c12.71-9.389,29.339-24.066,45.479-32.721,18.379-9.854,25.86-5.251,20.068,15.213,11.93-6.541,27.079-18.373,41.336-18.481,16.58-.125,8.211,10.093,7.805,20.55,10.7.369,21.835-17.49,32.549-6.4,4.155,4.3,1.405,10.834,4.612,15.077,3.3,4.359,11.428,5.063,14.937,8.73-19.206,9.181-44.564,6.386-65.6,5.423-16.909-.774-34.1.026-51.072-.848-9.824-.506-48.141,1.914-53.274-5.453,2.6-1.471,5.769-3.553,8.613-4.364" transform="translate(-39.027 -4.386)" fill="#fff"/>
            <path id="Trazado_1000419" data-name="Trazado 1000419" d="M426.853,157.605c8.59-6.345,19.827-16.262,30.735-22.111,12.416-6.66,17.474-3.548,13.561,10.28,8.059-4.42,18.3-12.416,27.932-12.488,11.205-.084,5.55,6.821,5.275,13.888,7.232.249,14.758-11.82,22-4.325,2.808,2.906.95,7.321,3.118,10.188,2.226,2.946,7.723,3.422,10.093,5.9-12.978,6.2-30.115,4.315-44.33,3.665-11.427-.523-23.042.018-34.515-.573-6.638-.342-32.532,1.292-36-3.685a30.144,30.144,0,0,1,5.82-2.948" transform="translate(-49.077 -15.267)" fill="#fff"/>
            <path id="Trazado_1000420" data-name="Trazado 1000420" d="M26.354,167.206c10.776-7.2,24.873-18.447,38.553-25.081,15.579-7.554,21.921-4.025,17.013,11.66,10.112-5.013,22.955-14.082,35.039-14.165,14.054-.1,6.961,7.738,6.618,15.753,9.07.282,18.508-13.406,27.589-4.906,3.524,3.3,1.193,8.3,3.911,11.557,2.794,3.341,9.687,3.881,12.663,6.694-16.282,7.038-37.777,4.894-55.611,4.156-14.333-.593-28.9.019-43.294-.65-8.327-.388-40.808,1.467-45.16-4.181,2.2-1.126,4.892-2.722,7.3-3.344" transform="translate(-2.736 -15.981)" fill="#fff"/>
            <path id="Trazado_1000421" data-name="Trazado 1000421" d="M430.568,160.687A131.026,131.026,0,1,1,314.039,16.624,131.024,131.024,0,0,1,430.568,160.687" transform="translate(-19.555 -1.836)" fill="#c5dbbb"/>
          </g>
        </g>
        <g id="Grupo_1165445" data-name="Grupo 1165445" transform="translate(149.653 14.024)">
          <g id="Grupo_1165444" data-name="Grupo 1165444" clip-path="url(#clip-path-4)">
            <path id="Trazado_1000422" data-name="Trazado 1000422" d="M349.741,14.908l-4.378-.42.724-1.2-2.538.142,1.453-.9-.922-.066a14.261,14.261,0,0,1-1.6-.241c-1.748-.332-3.708-.7-5.668,1.037l.582-2.608-3.118,1.137a1.908,1.908,0,0,0,.325-1.584c-.2-.581-.859-.891-1.891-.9a5.035,5.035,0,0,0-2.206.729c-.2.1-.411.21-.621.3a7.033,7.033,0,0,0-1.068.657c-.082.061-.164.114-.246.17l-.064-.1,2.29-2.588-.3-.2c-1.713-1.16-3.173-1.527-4.35-1.1a3.562,3.562,0,0,0-1.869,1.772l-.816-1.9-.264.3c-.2.225-.392.431-.571.624a9.585,9.585,0,0,0-1.009,1.206c-1.041,1.556-2.4,1.522-3.839,1.48-.322-.007-.644-.016-.966-.011l-.1.007-.106.006a1.673,1.673,0,0,0-.8-1.2c-.6-.288-1.289.167-1.788.5a3.153,3.153,0,0,1-.355.224,2.566,2.566,0,0,1-2.273-.073,5.97,5.97,0,0,0-1.032-.3,5.252,5.252,0,0,0-1.563.042c-.173.02-.347.042-.509.056-.079-.078-.166-.174-.253-.271-.337-.383-.716-.817-1.184-.831a2.754,2.754,0,0,0-1.466.6c-.045.031-.094.063-.141.092a1.406,1.406,0,0,0-.349-.823c-.56-.584-1.584-.424-2.3-.254a41.728,41.728,0,0,0-4.907,1.594l-.66.249a2.7,2.7,0,0,0-1.344,1.1A12.475,12.475,0,0,0,294.9,13.2c-.057.158-.121.321-.183.48l-.153-.074-.161-.555-.183-.623-.249.1-.012.005-6.785,1.777-.059.126a2.6,2.6,0,0,0-.313,1.464c-.067-.073-.146-.142-.211-.217-.127-.141-.371.064-.257.213,1.956,2.5,4.522,3.578,7.26,4.937a9.5,9.5,0,0,1,3.5,2.53,2,2,0,0,1,.161,2.19c-.535,1.106-1.818.749-2.757,1.148-.493.205-1.222,1.216-.8,1.771.383.5,1.617,1.085.926,1.966a12.429,12.429,0,0,1-1.945,1.4,2.487,2.487,0,0,0-.883,2.774c.4,1.38-.059,2.306-.337,3.594a4.818,4.818,0,0,0,.36,2.38c.992,3.062,3.6,6.92,6.828,7.827,1.292.363,2.541-.475,3.469-1.265,1.872-1.6,3.583-3.315,5.617-4.751a48.193,48.193,0,0,1,13.674-6.9,16.855,16.855,0,0,1,8.052,0,6.456,6.456,0,0,0,5.155-.785,7.687,7.687,0,0,0,3.358-4.875,3.234,3.234,0,0,0-.372-1.794c-.786-1.519.848-2.017,2.036-2.658,1.808-.981,3.8-1.966,4.506-4.056.392-1.156.784-2.277,1.246-3.405a10.387,10.387,0,0,0,.552-1.477c.685-.005,1.367-.025,2.04-.048.484-.016.97-.034,1.462-.042l.264-.008Z" transform="translate(-182.736 -14.832)" fill="#95b374"/>
            <path id="Trazado_1000423" data-name="Trazado 1000423" d="M628.561,93.593c-.409-.235-.827-.5-1.269-.779A17.347,17.347,0,0,0,624,91.053c-5.484-1.969-11.415-3.983-18.121-6.15-1.829-.593-3.713-1.046-5.531-1.487-.823-.2-1.638-.394-2.441-.6l-.342-.086.046,2.131c-.039-.006-.082-.013-.123-.023a9.358,9.358,0,0,1-.94-.211c-.7-.2-1.419-.463-2.105-.721a12.644,12.644,0,0,0-4.764-1.1,11.137,11.137,0,0,1-7.5-2.033,4.192,4.192,0,0,0-1.9-.856c-1.765-.212-3.563-.393-5.3-.565-1.5-.15-3-.3-4.49-.471a1.535,1.535,0,0,1-.624-.313,3.292,3.292,0,0,0-.545-.313c-.539-.225-1.082-.454-1.622-.68-1.8-.755-3.661-1.535-5.517-2.2a18.022,18.022,0,0,0-3.915-.832,2,2,0,0,0-1.831.674c-1.265,2.172-1.35,2.221-3.249,1.671-.238-.072-.5-.161-.758-.249-1.018-.354-2.078-.718-2.817-.256-2.615,1.637-4.308-.167-5.8-1.762-2.376-2.532-5.135-3.427-8.955-2.905a8.211,8.211,0,0,1-3.7-.318c-.234-.076-.465-.16-.693-.243-1.489-.537-3.037-1.1-4.755-.3a.834.834,0,0,1-.7-.133c-2.393-1.772-4.948-1.436-7.342-.808a1.854,1.854,0,0,1-.964-.155c-.114-.036-.229-.076-.34-.107l-.005-.169,4.605-2.691-.35-.3a9.484,9.484,0,0,1-.719-.692,3.366,3.366,0,0,0-1.527-1.087c-2.484-.486-4.944-.852-7.553-1.237-.82-.125-1.658-.246-2.494-.376l.523-1.978-3.772,1.54c-.353.146-.709.326-1.049.5a5.413,5.413,0,0,1-2.134.758c-2.178.07-4.339-.016-6.628-.107-.909-.035-1.831-.073-2.77-.1l-.391-.011.132.429a2.924,2.924,0,0,1,.067,2.219,1.079,1.079,0,0,1-1.052.348c-.944-.078-1.887-.173-2.829-.264l-1.429-.136-.387,1.035,2.609,2.494,0,.012-4.851-1.863.174.781-1.825.727,1.187.63c.389.21.739.4,1.084.577.234.119.459.233.689.345-.327-.1-.673-.185-1.008-.263-1.589-.364-2.965-.683-2.945-3.361l.008-.779L479,70.008l.262.2c.451.33.884.709,1.3,1.08a7.907,7.907,0,0,0,3.011,1.956c1.882.485,3.163.939,3.693,2.545-.023-.036-.041-.067-.063-.1a4.794,4.794,0,0,0-1.063-1.3,4.239,4.239,0,0,0-1.886-.612c-.275-.042-.551-.084-.815-.149l-.585-.143L483.5,74.8c-.09.323-.168.666-.235,1a4.78,4.78,0,0,1-.739,2.035,2.338,2.338,0,0,1-1.809.891,2.369,2.369,0,0,1-1.6-.672c.125-.091.255-.177.387-.264a4.561,4.561,0,0,0,1.535-1.423c.37-.647-.082-1.919-.385-2.615-.289-.666-.633-1.317-.969-1.941a14.813,14.813,0,0,1-1.405-3.214c-.311-1.213-.693-1.85-1.872-1.9-.708-.038-1.423-.111-2.256-.195-.4-.044-.834-.087-1.314-.134l-.305-.029.114,5.385,3.593,2.149c-1.328,1.123-2.206.466-3.214-.291a4.107,4.107,0,0,0-1.688-.9,18.132,18.132,0,0,1-3.874-1.214c-.492-.192-.961-.383-1.406-.537l-.2-.068-.108.215c-.157.3-.315.635-.461.93-.132.267-.277.557-.37.738a5.289,5.289,0,0,0-3.3-.006c-1.439.3-2.8.582-3.987-.678-.393-.424-1.319-.146-1.588-.049-.693.242-1.383.513-2.054.775a33.462,33.462,0,0,1-3.573,1.244,1.934,1.934,0,0,1-1.783-.68l-.2-.44c-.646-1.442-.793-1.532-2.24-1.355l-.345.043,1.27,4.338c-1.681-.844-2.853-.99-3.66-.463a3.347,3.347,0,0,0-1.2,2.488l-3.713-1.454-.282.807,1.346,1.267a3.615,3.615,0,0,1-2.384-.272,2.528,2.528,0,0,1-1.38-1.45,7.447,7.447,0,0,0-2.21-3.192c-.143-.143-.3-.293-.445-.445a.946.946,0,0,1-.152-.285c.272.143.532.287.784.422.979.532,1.825,1,2.713,1.384.169.074.333.149.5.225,1.338.612,2.849,1.309,4.442.058a7.054,7.054,0,0,0,.82-.789c.115-.12.22-.242.338-.358l.2-.211-.172-.229c-.1-.127-.188-.276-.277-.418a2.478,2.478,0,0,0-.792-.91c-.363-.2-.728-.41-1.092-.614a32.2,32.2,0,0,0-4.992-2.468,5.692,5.692,0,0,0-1.371-.252,2.725,2.725,0,0,1-2.45-1.224,1.641,1.641,0,0,0-1.13-.884c-.682-.073-1.324.484-1.894,1.04l-.439-1.391-3.172-.3c-.182-.078-.272.094-.464.468l-.029.06-.509-.869-1.027,1.21.135-.823-.146-.113c-.645-.507-1.16.213-1.5.693-.216.305-.463.655-.65.639-.083.006-.29-.1-.59-.657l-.139-.266L418,67.992l-1.256-.833L403.6,77.527l.59-.044a13.116,13.116,0,0,0-7.359,2.683l-.451.355,1.632.639-1.951.423.319,1.252,2.036-.608-3.173,1.7.983.105c.577.06.853.579,1.174,1.179.433.81.98,1.82,2.44,1.22a8.973,8.973,0,0,1,1.283-.372c1.172-.281,2.49-.588,3.016-2.255l.745.966a.792.792,0,0,0-.213.66c.578,2.091,1.209,4.317,1.911,6.518a1.4,1.4,0,0,0,.811.7.476.476,0,0,0,.471-.027l.538-.412a17.027,17.027,0,0,0,2.851-2.562,19.034,19.034,0,0,0,1.851-2.874c.234-.41.467-.818.7-1.2l.2-.324-1.329-.593,2.483.371-.1-.447a1.547,1.547,0,0,0-.39-.8.693.693,0,0,1-.073-.093c-.177-.281-.383-.555-.587-.834a4.616,4.616,0,0,1-1.069-2.035c.03-.207.681-.693,1.082-.98a10.256,10.256,0,0,0,1.031-.84c1.8-1.784,3.9-3.9,5.951-6.084a.713.713,0,0,0,.172-.409l1.584,2.9c-.363.333-.7.655-1.035.964-.836.784-1.561,1.466-2.335,2.1a3.175,3.175,0,0,0-1.145,2.373,2.844,2.844,0,0,0,.968,2.267c1.336,1.147,2.82,2.209,4.933,1.474a5.89,5.89,0,0,1,2.182-.167c.315.012.635.027.942.021l.632.8q-.07.459-.129.864a16.217,16.217,0,0,1-.331,1.84,1.139,1.139,0,0,1-.224.4l-.068-2.563-5.767-.549-.467,1.146,2.074,2.1-1.42,1.871L420.062,88.4l-.182.089a2.929,2.929,0,0,0-1.625,1.5,2.455,2.455,0,0,0,.07,1.623,1.919,1.919,0,0,0-.488,1.591c.145.376.523.56,1.16.572,1.211.013,1.591.668,1.719,1.738-.233-.036-.467-.074-.7-.117a8.6,8.6,0,0,0-2.365-.171,8.192,8.192,0,0,1-2.744-.316,6.092,6.092,0,0,0-4.289.08,12.983,12.983,0,0,1-1.646.616c-.2.062-.387.124-.576.19a3.734,3.734,0,0,0-.792-1.024,7.813,7.813,0,0,0-4.439-2.492,3.743,3.743,0,0,0-3.053.259,4,4,0,0,0-.8.988c-.64.887-1.563.8-2.531.741-2.518-.151-4.881,2.781-6.131,4.686a1.95,1.95,0,0,1-3.032.684,3.122,3.122,0,0,0-1.481-.632,5.666,5.666,0,0,0-3.789.854.4.4,0,0,0-.056.607c1.055,1.111-1.009.648-1.315.571a12.572,12.572,0,0,0-1.91-.319,2.543,2.543,0,0,0-2.062.652c-1.282,1.157.182,4.4,1.107,5.339,1.167,1.181,2.551,1.581,2.751,3.443.187,1.688-.65,2.067-2.066,1.548-1.787-.657-3.153-1.722-5.14-1.581-1.772.128-4.749,1.292-4.939,3.364-.064.716.57,1.321.98,1.821,1.093,1.358.1,3.348.271,4.966.184,1.751-.884,3.227-1.658,4.7a2.321,2.321,0,0,0-.011,2.568c1.218,1.734,2.9.111,4.129-.719.18.6.393,1.327.952,1.567a11.6,11.6,0,0,0,4.123.639,8.551,8.551,0,0,0,4.083-1.083,15.573,15.573,0,0,0,4.03-2.519c1.227-1.261,1.3-3.193,2.767-4.248,1.051-.759,2.325-.907,3.127-2.042.963-1.362-1.423-1.75-1.987-2.67.01-.018.032-.03.042-.052,1.059-1.853,2.165-1.514,3.729-.8a3.657,3.657,0,0,0,2.683-.062c.362-.142.387-.765.432-1.627,0-.13.007-.259.02-.387.1.05.211.109.314.162a2.36,2.36,0,0,0,1.577.427,2.231,2.231,0,0,1,.594-.068,40.16,40.16,0,0,1,.962,5.345,3.78,3.78,0,0,0,2.537,2.967c2.234.921,3.971,2.2,4.286,4.818.132,1.08.058,2.176.136,3.257.119,1.714,1.055,2.327,2.327,1a5.513,5.513,0,0,0,1.347-2.837c.274-1.215.451-4.175,2.254-3.886a.355.355,0,0,0,.411-.274c.49-2.208-1.73-4.359-3.089-5.8-.84-.881-1.742-1.691-2.588-2.558-1.08-1.093-2.38-1.847-2.851-3.173l1.461-.294.441.373-.762.773.336.208a7.409,7.409,0,0,0,.849.435c.478.224,1.065.5,1.121.769a2.758,2.758,0,0,0,2.438,2.306c.151.041.305.088.432.121l2.706,1.176.436.609.02.03c-.025.226-.054.455-.08.689-.255,2.07-.522,4.214,1.117,5.888l1.887,2.795-1.18.216,3.315,4.194.362-3.8,1.119.62.662-1.055-1.8-1.645-.417-3.091.085-.041,2.072,2.392-.217-2.952,3.624.7,0,.3-.05.159c-.291.884-.647,1.979.509,2.8a3.733,3.733,0,0,1,.023.9c-.012.35-.026.75-.011,1.2l0,.093.052.073c.163.256.326.584.505.93.617,1.207,1.388,2.716,3.028,3.248.217.065,1.271.379,1.627-.109.8-1.1,1.394-.717,2.229-.195.174.108.353.224.531.319.13.065.255.138.379.21a3.77,3.77,0,0,0,2.044.693,10.858,10.858,0,0,0,2.613-.7c.263-.092.529-.189.8-.279l.06,4.384c0,.186.012.372.015.557a10.787,10.787,0,0,1,0,1.121c-.05.666-.134,1.347-.214,2-.033.277-.066.547-.1.819l-.664,2c.027-.674.047-1.351.075-2.025l.027-.61-.683-.264-1.77,3.616c-.418-.1-.842-.244-1.259-.384a6.274,6.274,0,0,0-3.312-.489c-2.24.529-4.2-.045-6.262-.658l-.272-.078a7.323,7.323,0,0,0-2.215-.179c-.272.005-.542.007-.818,0-.828-2.262-2.707-3-4.371-3.652l-.344-.135a1.873,1.873,0,0,0-1.826-.025c-.608.414-.866,1.327-1.087,2.655a3.945,3.945,0,0,1-1.72,2.225l-.438-.132c-1.7-.507-3.822-1.146-4.474-2.5a7.089,7.089,0,0,0-4.433-3.656c-.4-.159-.808-.321-1.2-.512l-.171-.081-.938,1.175-1.08-3.962,1.155-1.51-1.18-1.823,1.465-1.538-.269-.222c-1.294-1.065-2.947-2.012-4.476-.088-.121-.18-.253-.347-.463-.362-.6-.035-1.208-.019-1.8,0a11.908,11.908,0,0,1-3.313-.236c-3.3-.882-6.431-.1-10.042,2.533-.219-.109-.43-.206-.592-.273-.87-.378-1.8-.627-2.693-.954-1.118-.415-1.461-.915-2.4-.665l-.01-.013-.022.019a3.911,3.911,0,0,0-.514.187c-1.167.525-2.054,1.631-3.186,2.257a19.635,19.635,0,0,0-3.327,1.988c-1.779,1.52-2.05,3.183-2.083,5.156a4.268,4.268,0,0,1-2.973,2.807,12.781,12.781,0,0,0-3.3,1.795c-.97.724-2.12.907-2.99,1.765-.8.776-.568,2.206-.688,3.172-.193,1.542-1.965,2.771-2.968,3.816a16.869,16.869,0,0,0-2.522,3.619c-1.213,2.288-.431,4.359.417,6.612a4.8,4.8,0,0,1-.3,4.51c-.6.993-1.7,2.145-1.624,3.414a2.785,2.785,0,0,0,1.137,2.1c1.438,1.265-.809,2.286-1.114,3.452-.545,2.091,1.239,3.306,2.913,4.109a18.2,18.2,0,0,1,2.7,1.466l.885,1.828c-.611,2.522.667,3.954,2.031,5.026,1.234,2.476,2.829,5.107,6.1,5.3.18.016.368.053.547.079a4.18,4.18,0,0,0,1.282.073c1.415-.2,2.809-.445,4.289-.7.509-.091,1.03-.184,1.563-.273a.179.179,0,0,0,.087.03.223.223,0,0,0,.188-.032l.632,1.261.189-.049c.386-.1.77-.195,1.159-.28a15.606,15.606,0,0,0,2.825-.843,2.8,2.8,0,0,0,1.068-1.289c.065-.113.124-.222.187-.327l1,1.262.2-.284c.051-.071.1-.134.149-.2a2.6,2.6,0,0,0,.359-.558,3.571,3.571,0,0,0,.131-.409c.331.338.689.57,1.031.433.37-.146.6-.651.729-1.646a8.995,8.995,0,0,1,.278-1.275l-.218,2.332.617.257c2,.829,3.878,1.612,3.77,4.654l-.012.312,4.169.054a7.581,7.581,0,0,1,2.408,5.243,2.149,2.149,0,0,0-.979,1.374,1.971,1.971,0,0,0,.408,1.432A4.289,4.289,0,0,1,389.672,208l-.122.091-.032.134a1.487,1.487,0,0,0,.141.841c.844,1.472,1.7,2.93,2.553,4.4l.817,1.392a8.738,8.738,0,0,1,.27.907c.246.946.517,2.01,1.62,2.282a1.05,1.05,0,0,0-.088.124c-.308.426-.658.9-.516,1.4a1.1,1.1,0,0,0,.677.686,1.815,1.815,0,0,0-.53.955,1.96,1.96,0,0,0,.349,1.407,2.83,2.83,0,0,1,.292,3.218,2.506,2.506,0,0,0-.007,1.845c1.123,2.9-.087,5.057-1.484,7.547l-.164.287a27.846,27.846,0,0,0-1.937,4.852c-.253.768-.519,1.572-.816,2.369l-.134.37,1.53.229a2.1,2.1,0,0,0-.728,1.021,3.239,3.239,0,0,0,.413,2.436,24.349,24.349,0,0,1,1.253,3.264l.064.184c1.476,4.455,1.489,9.268,1.5,13.918,0,1.317.21,2.866,1.673,3.425a.807.807,0,0,0-.183.7c.232.668.5,1.323.757,1.966.41,1.018.835,2.078,1.15,3.15a7.432,7.432,0,0,1,.227,3.15,4.062,4.062,0,0,0,.713,3.224,2.669,2.669,0,0,0,1.848,1,3.328,3.328,0,0,0,.774-.029c.357-.057.721-.126,1.075-.189,1.848-.344,3.591-.677,5.28.408a1.144,1.144,0,0,0,1.137.011c.684-.47,1.377-.918,2.069-1.366a40.615,40.615,0,0,0,5.408-3.934,44.725,44.725,0,0,0,4.437-4.912c.649-.791,1.327-1.617,2.032-2.438l.23-.264-2.12-1.651c.042-.01.083-.021.119-.028.657-.156,1.277-.3,1.43-.786a4.29,4.29,0,0,1,2.883-2.767c2.943-1.282,3.691-3.136,2.655-6.619-.57-1.91-.4-2.313-.338-2.392a62.767,62.767,0,0,1,5.729-6.112,15.328,15.328,0,0,1,2.055-1.559A12.836,12.836,0,0,0,438.274,244c1.554-1.8,1.359-3.918,1.168-5.977a11.872,11.872,0,0,1,.025-3.538l.019-.095-.025-.093c-.127-.379-.29-.757-.439-1.12a6.663,6.663,0,0,1-.668-2.322c-.043-2.261.059-4.572.161-6.806.04-.868.081-1.736.111-2.6.229-.308.458-.621.68-.929.527-.723,1.067-1.461,1.622-2.166.643-.837,1.322-1.659,1.979-2.456.27-.323.539-.645.8-.973.087-.042.182-.089.271-.131a2.331,2.331,0,0,0,.738-.468c.639-.647,1.267-1.318,1.9-1.98.96-1.013,1.956-2.07,2.973-3.042a21.358,21.358,0,0,1,1.85-1.535,13.348,13.348,0,0,0,3-2.867,101.137,101.137,0,0,0,6.1-10.605,16.983,16.983,0,0,0,1.2-3.5c.15-.57.31-1.159.493-1.751l.157-.511-.454.107c-.735.177-1.413.35-2.06.518a34.6,34.6,0,0,1-3.725.818c-.538.074-1.093.206-1.629.325-2.239.507-4.348,1-5.852-1.9-.157-.3-.534-.257-.965-.212-.056.009-.114.014-.173.022l-.117-1.045.846-.807-.1-.219c-.189-.405-.354-.831-.522-1.252a12.614,12.614,0,0,0-1.348-2.73,20.11,20.11,0,0,0-1.305-1.547c-1.279-1.386-2.476-2.7-2.376-5.071.023-.415-.335-.71-.716-1.021a4.152,4.152,0,0,1-.333-.292L440.9,172.3c-.124-.379-.285-.753-.432-1.113a7.12,7.12,0,0,1-.678-2.3l-.017-.3c-.161-3.1-.261-3.61-2.392-3.861l1.377-.6L433.394,149l2.682,4.275.5-2.747.081.184c.236.525.47,1.059.7,1.6.536,1.222,1.083,2.486,1.68,3.714.443.908.981,1.8,1.51,2.658a14.1,14.1,0,0,1,2.371,5.382,19.446,19.446,0,0,0,2.607,6.976,27.043,27.043,0,0,1,1.913,4.092,2.555,2.555,0,0,0,1.216,1.21c.143.091.288.185.424.284a11.84,11.84,0,0,0,.33,7.683c.346,1.083.719,1.874,2.147,1.387.923-.317,1.883-.6,2.806-.884,3.95-1.189,8.03-2.421,11.1-6.312,1.478.338,2.645-.46,3.776-1.227a9.841,9.841,0,0,1,1.582-.939,4.388,4.388,0,0,0,1.648-1.875c.17-.281.34-.563.518-.814a9,9,0,0,0,.5-.838,4.079,4.079,0,0,1,.766-1.122,5.115,5.115,0,0,0,2.063-3.481,3.4,3.4,0,0,0-1.172-2.58,22.851,22.851,0,0,0-2.718-2.164c-.372-.271-.743-.534-1.11-.81l.136-1.821-.371.122a3.765,3.765,0,0,1-.47.122,1.869,1.869,0,0,0-1.106.5c-1.542,1.759-3.076,2.24-4.809,1.527-.193-.08-.3.05-.429.309l-.6-1.056c-.7-1.242-1.4-2.481-2.088-3.735a7.457,7.457,0,0,1-.359-.838,6.063,6.063,0,0,0-.558-1.172c-.889-1.308-1.828-2.607-2.74-3.864-.3-.415-.592-.825-.9-1.239l.114-.113c.252-.259.509-.517.752-.78.177-.195.35-.4.523-.611l.149-.183c.224.012.451.024.671.027a6.724,6.724,0,0,1,1.669.188c1.231.374,1.582,1.578,1.942,2.849.078.275.153.546.242.81.741,2.251,4.694,5.086,6.638,4.267,1.712-.723,2.549.087,3.475,1.841.773,1.462,4.489,3.182,5.994,2.469a2.275,2.275,0,0,0,.819-.909c.036-.053.068-.109.105-.159a4.528,4.528,0,0,0,5.133,1.505c1.392-.535,2.262-.061,3.294.944a5.013,5.013,0,0,1,.816,1.251,5.886,5.886,0,0,0,.881,1.351,20.212,20.212,0,0,0,2.329,1.974c.211.165.427.327.636.5l-1.22.729.045.234c.434,2.155,1.464,3.259,2.9,3.106a4.316,4.316,0,0,0,2.063-1.172c.193-.157.4-.319.587-.47.021.057.048.121.07.18a3.054,3.054,0,0,1,.349,1.7c-.93,3.356-.065,6.342.771,9.231l.246.848c.677,2.4,1.322,4.853,1.946,7.237.582,2.221,1.187,4.516,1.822,6.768a13.79,13.79,0,0,0,1.019,2.415c.2.4.4.813.6,1.263l.18.4,4.113-5.457c.308-.31.29-.858.268-1.487a4.817,4.817,0,0,1,.106-1.544c.669-2.168,1.136-4,.544-6.085a1.446,1.446,0,0,1,.385-.837l.494-.482c1.658-1.626,3.371-3.31,5.145-4.847,1.027-.9,2.135-1.724,3.2-2.522.594-.445,1.186-.891,1.773-1.346a1.116,1.116,0,0,0,.387-.868,1.791,1.791,0,0,1,2.027-2.308c.239-.034.479-.068.71-.119.248-.051.512-.077.784-.111a2.871,2.871,0,0,0,1.982-.71c.433-.523.8-.772,1-.749.274.034.511.525.781,1.1l.109.238c.5,1.032,1.051,2.062,1.575,3.055.691,1.3,1.405,2.645,2.024,4.017a33.564,33.564,0,0,1,1.392,3.953c.156.511.309,1.023.479,1.531.122.387.219.8.283,1.1.022.107.046.2.064.277l.072.3,3.463-1.335a23.718,23.718,0,0,0,.926,3.678c.809,2.609,1.718,5.561.991,8.893l-.016.111.036.1a.288.288,0,0,0,.094.124c-.105.372-.242.762-.377,1.144a5.424,5.424,0,0,0-.49,3.237,12.265,12.265,0,0,0,2.339,3.61c.348.417.707.853,1.033,1.286A13.023,13.023,0,0,0,544.527,217a4.355,4.355,0,0,0,2.96,1.8,3.179,3.179,0,0,0,.622.005l.357-.032-.111-.386c-.138-.464-.329-.936-.519-1.4a4.905,4.905,0,0,1-.584-2.584c.652-2.561-.165-4.027-1.707-5.555a4.2,4.2,0,0,0-1.589-1.9,3.28,3.28,0,0,1-1.614-2.483,12.06,12.06,0,0,0-.617-2.671,10.3,10.3,0,0,1-.589-2.688,11.419,11.419,0,0,1,.752-3.678c.112-.349.219-.694.319-1.043a3.4,3.4,0,0,1,.5-.916l.006.2,3.973,2.7,1.75,4.015,1.9-.571-.391,4.129.455-.32c.608-.43,1.206-.839,1.786-1.246,1.485-1.025,2.893-1.989,4.232-3.091a3.816,3.816,0,0,0,1.161-2.653c-.144-4.593-1.216-7.918-3.386-10.488-2.007-2.377-2.746-3.808-2.637-5.085.1-1.156.96-2.33,2.853-3.906a2.7,2.7,0,0,1,2.515.056c.776.5,1.311,1.56,1.637,3.247l.082.423-2.406,1.195,1.132,3.188,2.322-3.514-.47-1.16-.187.093.044-.247c.48-2.678,1.889-3.312,4.161-3.514a11.27,11.27,0,0,0,7.42-3.027c1.812-1.783,2.577-4.1,3.316-6.339.281-.845.567-1.72.909-2.545.492-1.191.9-2.333.528-3.265a2.344,2.344,0,0,0-1.667-1.305.4.4,0,0,0-.011-.061,1.749,1.749,0,0,0,.935-1.206,2.539,2.539,0,0,0-.97-1.9,11.468,11.468,0,0,1-1.478-2.144c-.189-.321-.376-.64-.572-.949-.16-.252-.328-.5-.486-.745a19.416,19.416,0,0,1-1.32-2.226,2.686,2.686,0,0,1-.285-1.6,28.945,28.945,0,0,1,2.3-2.734c.305-.335.61-.673.909-1.018l.309-.348-.391-.161a6.87,6.87,0,0,1-.7-.368c-.958-.554-2.133-1.234-3.417.373l-3.93-3.648c.3-.22.585-.428.846-.619.731-.531,1.309-.95,1.881-1.405.552-.433,1.1-.9,1.619-1.355.155-.132.308-.26.451-.391.079.171.166.342.244.513.3.624.6,1.274.862,1.927a7.687,7.687,0,0,1,.347,1.309c.026.121.049.223.065.295l.086.339,3.57-1.9a3.257,3.257,0,0,0,.927.977c.725.579,1.248.992.621,2.236l-.065.145.045.134a1.958,1.958,0,0,0,.822.819c.481.2.984.355,1.466.5.154.046.311.1.463.144.149.405.306.806.459,1.208.371.962.752,1.954,1.058,2.953.49,1.566.856,2.4,1.48,2.644.639.253,1.425-.183,2.659-1.062a2.076,2.076,0,0,0,.767-1.75c-.771-2.2-1.9-4.559-4.363-5.363l-1.63-2.6c.123-.068.241-.132.36-.195a6.677,6.677,0,0,0,1.246-.8,4.293,4.293,0,0,0,.99-1.542l.008-.154-.093-.1c-.643-.679-.39-1.189-.034-1.9a4.289,4.289,0,0,0,.4-1.029c.747-1.343,1.522-1.573,2.769-.828.626.379,2.079-.267,2.484-.955a19.312,19.312,0,0,0,2.575-11.3,8.007,8.007,0,0,0-.587-2.7,17.122,17.122,0,0,0-.986-1.785,14.519,14.519,0,0,1-1.043-1.928c-1.241-2.994-3.813-4.7-6.325-4.235l-.41-1.678-1.1,1.16-.782-1.8-2.014-.194c.164-.421.322-.824.474-1.219.425-1.059.816-2.066,1.156-3.078.983-2.934,3.307-4.3,5.922-3.482a6.76,6.76,0,0,0,1.881.218,9.743,9.743,0,0,1,1.188.072,39.639,39.639,0,0,1,3.969.752c.026.126.056.373.078.566.028.242.058.52.111.8l.066.362,4.283-2.192-.951-.507c.047-.277.095-.556.134-.842a6.169,6.169,0,0,1,.6-2.248c.183-.3,1.283-.4,2-.187a5.66,5.66,0,0,1,1.4.775,7.007,7.007,0,0,0,1.321.758,1.761,1.761,0,0,0,1.682-.693,6.377,6.377,0,0,0,.787-1.578c.057-.153.113-.305.176-.454l.542.1c.118.372.261.747.4,1.109a6.358,6.358,0,0,1,.633,2.653,11.06,11.06,0,0,1-1.613,4.428,3.93,3.93,0,0,0,.025,4.492c1.007,1.544,2.076,3.067,3.109,4.543l.518.747q.341.487.678.985a30.848,30.848,0,0,0,2.342,3.141,2.647,2.647,0,0,0,1.464.671,5.954,5.954,0,0,1,.646.172l.378.135-.027-.461c-.045-.761-.12-1.445-.189-2.105a12.723,12.723,0,0,1-.075-3.44c.29-1.653.141-4.721-1.1-6.054-.944-1.007-1.88-2.073-2.781-3.1-.36-.409-.721-.815-1.073-1.221l.156-.472c.412-.148.829-.3,1.241-.454,1.123-.41,2.283-.838,3.442-1.16a2.122,2.122,0,0,1,1.732.158,1.962,1.962,0,0,0,1.665.561,2.524,2.524,0,0,0,1.495-1.331,3.6,3.6,0,0,1,3.9-1.891,7.47,7.47,0,0,0,1.03.043c.191,0,.41,0,.648,0l.938.02-5.912-4.5.5-.349.45-2.212c.543.856,1.174,1.665,2.023,1.8a2.335,2.335,0,0,0,1.885-.706,2.83,2.83,0,0,1,.473.246c.325.2.658.408.984.616a18.617,18.617,0,0,0,2.045,1.2,2.037,2.037,0,0,0,1.659-.135,3.019,3.019,0,0,0,.885-.848c.139-.168.287-.353.472-.547l.279-.309ZM436.613,150.345l.188-1.081.57-1.179c-.035.4-.072.818-.119,1.266l-.024.309,1.016.1Z" transform="translate(-189.945 -21.086)" fill="#95b374"/>
            <path id="Trazado_1000424" data-name="Trazado 1000424" d="M323.049,197.65a9.409,9.409,0,0,1-3.8-3c-1.052-1.712-2.122-2.53-3.366-2.573a6.315,6.315,0,0,1-2.2-.647c-.172-.066-.343-.142-.515-.211a4.207,4.207,0,0,0-.923-2.093c-1.023-1.273-2.7-1.681-4.125-2.317-1.7-.755-1.792-2.674-3.471-3.386-1.074-.451-2.117-.18-2.608-1.56a7.03,7.03,0,0,1,.033-2.823,7.038,7.038,0,0,0-.913-4.356,10.474,10.474,0,0,0-3.7-3.664,9.009,9.009,0,0,0-2.357-.975c-1.123-.319-1.708-.357-1.979-1.557a4.945,4.945,0,0,0-2.665-3.035,7.271,7.271,0,0,1-2.621-1.827,5.967,5.967,0,0,1-.719-2.29c-.6-3.1-3.07-2.588-5.511-1.8-1.74.569-3.2-1.673-4.954-1.924a4.749,4.749,0,0,1-2.989-1.274c-.682-.587-2.388-1.042-2.614-1.954-.251-1-.66-1.641-1.772-1.331a2.931,2.931,0,0,0-1.187,1.028c-.853,1.028-1.4,1.771-2.909,1.82-4.06.132-4.039,4.338-6.581,6.406a5.344,5.344,0,0,1-1.03-.631,3.8,3.8,0,0,0-3.15-.889,4.283,4.283,0,0,1-4.512-.573c-.119-.475-.262-.959-.405-1.427a9.949,9.949,0,0,1-.6-3.29,12.867,12.867,0,0,1,.863-3.444c.214-.618.44-1.262.607-1.91a4.244,4.244,0,0,0,.026-3,2.03,2.03,0,0,0-1.643-.97c-1.121-.15-2.264-.2-3.379-.255-.478-.019-.969-.044-1.459-.073-.649-.042-1.036-.194-1.148-.457s0-.761.354-1.429c1.06-2.034,2.1-4.138,3.1-6.165.422-.861.846-1.714,1.268-2.568l.134-.264-.219-.152a3.913,3.913,0,0,0-3.537-.78,4.441,4.441,0,0,0-2.429,2.545,5.858,5.858,0,0,1-3.491,2.839,4.938,4.938,0,0,1-4.261-.2c-2.015-1.406-3.526-7.166-2.565-9.789.465-1.252.978-2.5,1.468-3.7.224-.545.445-1.08.655-1.616l.085-.2-.918-.99c.085-.04.177-.076.264-.116.575-.246,1.127-.482,1.268-.987a4.724,4.724,0,0,1,2.951-3.328,15.942,15.942,0,0,0,1.76-.915,16.234,16.234,0,0,1,1.889-.96,5.613,5.613,0,0,1,3.012-.624,11.986,11.986,0,0,1,2.958,1.284c.072.039.14.073.218.113.544,1.046,1.144,2.3,2.29,2.775a.355.355,0,0,0,.5-.241,4.659,4.659,0,0,0-.433-3.224,7.527,7.527,0,0,1,5.523,1.648c1.985,1.5,2.118,3.524,1.965,5.812-.153,2.246.455,6.074,3.5,6.119,3.923.061,2.16-8.86,3.139-11.109,1.832-4.146,6.83-4.955,10.031-7.485,1.452-1.142,1.828-2.893,2.265-4.583.788-2.986,2.867-1.569,4.7-2.837a4.05,4.05,0,0,0,1.175-1.561c.673-1.309,1.058-2.2,2.539-2.82,1.732-.729,3.594-.88,4.664-2.584.57-.921.367-2.026,1.067-2.943.536-.7,1.818-1.03,2.593-1.436a3.281,3.281,0,0,0,1.99-2.854,1.418,1.418,0,0,0-.114-.528,7.385,7.385,0,0,0,.536-.7c.082-.126.18-.25.263-.371a3.482,3.482,0,0,0,4.435-.709l.059.057c.171.4.293.846-.034,1.079a2.507,2.507,0,0,1-.515.267l0,0a11.688,11.688,0,0,1-1.792.4,4.309,4.309,0,0,0-2.6,1.053c-.737.837-1.214,3.426.371,3.751a2.837,2.837,0,0,0,2.384-.785,8.317,8.317,0,0,1,4.049-1.933c1.965-.325,4.684-.461,5.684-2.534.515-1.063-1.062-1.675-1.773-1.907-.945-.313-1.916-.54-2.831-.927a5.988,5.988,0,0,1-1.181-1.233,6.888,6.888,0,0,1,1.7.113c1.125.113,2.353-.036,1.956-1.447a3.635,3.635,0,0,0-2.238-1.721,3.464,3.464,0,0,0-3.411-.618,17.628,17.628,0,0,0-2.586.966c-.57.249-1.157.5-1.744.706-.118.043-.346-.076-.547-.178l-.117-.057c.016-.043.024-.083.041-.126a1.842,1.842,0,0,1,.209-.5c.626-.285,1.257-.6,1.888-.907,2.775-1.364,5.633-2.773,8.7-1.964,4.47,1.181,8.478-.639,11.82-2.576a3.5,3.5,0,0,0,1.276-2.915,2.246,2.246,0,0,0-1.134-1.477,2.042,2.042,0,0,0-1.9.212,4.347,4.347,0,0,1-1.473.427c-.17.022-.331.053-.49.081l-.021-.1,3.508-1.211-.41-.37c-.217-.2-.436-.363-.636-.514a2.7,2.7,0,0,1-.82-.824,7.658,7.658,0,0,1-.959-3,32.221,32.221,0,0,1,.3-4.1c.079-.654.158-1.334.225-2.052l.052-.551-6.525,3.809c-.135-.186-.279-.364-.418-.538-.846-1.042-1.405-1.734-.374-3.1.368-.483-.054-1.856-.425-2.35a7.72,7.72,0,0,0-2.086-1.785c-3.467-2.188-5.3-1.642-7.546,2.243-.055.093-.11.194-.164.295a1.74,1.74,0,0,1-.469.67c-1.529.9-2.851,2.087-2.156,4.631a1.732,1.732,0,0,1-.562.945c-1.61,1.234-3.261,2.435-5.006,3.711l-1.918,1.4-.034.088c-.078.205-.155.471-.246.778a8.187,8.187,0,0,1-1.145,2.653,3.69,3.69,0,0,1-2.858,1.28,4.015,4.015,0,0,1-.83-2.653,8.283,8.283,0,0,1,1.26-2.638c.258-.422.531-.853.779-1.314l.18-.329-.312-.124c-.181-.072-.375-.138-.57-.208a7.448,7.448,0,0,1-1.26-.531c-2.222-1.275-4.8-2.773-7.31-4.359a3.135,3.135,0,0,1-.832-1.221l-.1-.2c-.246-.491-.454-1.026-.7-1.637-.095-.24-.193-.491-.3-.759.141-.2.283-.424.432-.658a6.007,6.007,0,0,1,1.487-1.77,33.964,33.964,0,0,1,3.378-1.822c.893-.441,1.819-.889,2.706-1.406a2.987,2.987,0,0,1,.847-.284c.83-.2,1.851-.446,1.955-2.09a4.514,4.514,0,0,1,.9-.175c1.366-.1,2.73-.17,4.242-.25l2.257-.126-1.6-2.663c.933-.571,1.294.049,1.67.7a2.793,2.793,0,0,0,.372.538l.1.1.127-.034c.661-.181,1.287-.4,1.9-.61a9.329,9.329,0,0,1,3.547-.772c3.015.22,4.61-1.787,6.3-3.912l.471-.584-.259-.2c-1.852-1.435-3.378-1.346-4.943.281A8.914,8.914,0,0,1,295.786,45c-.222.111-.449.219-.665.336a1.124,1.124,0,0,1-.646-.039,1.491,1.491,0,0,1-.159-.032c0-.05,0-.1.006-.151a4.325,4.325,0,0,1,.116-.888,4.626,4.626,0,0,1,.375-.844c.063-.13.132-.25.183-.371l.1-.21-.139-.16c-.063-.067-.109-.134-.156-.19a.605.605,0,0,0-.364-.3c-1.013-.16-1.557-.3-1.716-.607s0-1.024.377-2.292c.066-.226.2-1.09-.145-1.305a1.494,1.494,0,0,0-1.251-.188c-.856.346-1.673.736-2.542,1.147-.317.156-.632.309-.958.456l-.343.16.222.329a2.624,2.624,0,0,1,.694,2.139c-.162.511-.731.887-1.695,1.119l-.109.02a5.421,5.421,0,0,0-2.19.882c-1.125.9-1.894.828-2.83-.278a3.023,3.023,0,0,0-1.84-.754l-.062-.011a10.131,10.131,0,0,0-1.327-.113,5.861,5.861,0,0,1-1.989-.311c-1.63-.69-3.4-1.209-5.186-.375a13.274,13.274,0,0,0-2.333,1.527c-.267.2-.54.409-.824.616a3.316,3.316,0,0,0-1.007-2.109,3.188,3.188,0,0,0-2.917-.38,4.377,4.377,0,0,1-2.023-.26c-.262-.068-.538-.146-.836-.218L263,39.87l-.436-.157c-.57-.205-1.149-.4-1.713-.581a30.121,30.121,0,0,1-3.658-1.382,7.817,7.817,0,0,0-3.112-.579,6.633,6.633,0,0,1-3.763-.955c-1-.691-2.484-.325-3.927.028a14,14,0,0,1-2.123.409l-.245.018a55.822,55.822,0,0,1-6.762.228,10.656,10.656,0,0,1-2.772-.673c-.421-.144-.839-.284-1.255-.4-.224-.13-.447-.278-.663-.419a6.734,6.734,0,0,0-1.641-.872c-.755-.234-1.536-.406-2.289-.57a20.053,20.053,0,0,1-2.822-.755,26.515,26.515,0,0,0-13.409-1.1c-2.91.427-5.852,1.01-8.7,1.573l-.762.149a8.588,8.588,0,0,0-1.618.559c-.25.108-.513.215-.792.319l-.357.133,1.7,2.759c-.387.1-.759.213-1.125.324a4.032,4.032,0,0,1-2.482.308c-2.212-.9-3.993-.117-5.875.7l-.427.185-.074,1.259,5.928.56.03.483c-.415.161-.828.33-1.235.505a21.727,21.727,0,0,1-3.226,1.153,18.723,18.723,0,0,1-2.484.357,14.353,14.353,0,0,0-3.336.6,7.881,7.881,0,0,0-2.57,1.875c-.346.325-.7.662-1.053.953l-.215.171.548,1.012,1.72.165-2.262,1.583.074,1.024,4.214.4-.005.25A29.132,29.132,0,0,1,174.647,56.2l.032.616c5.879-.507,11.592-2.425,17.121-4.279,3.151-1.057,6.388-2.144,9.652-2.966l-3.544,1.694.312,1.128.239-.091c.664-.235,1.327-.476,1.991-.716,1.8-.652,3.658-1.328,5.5-1.929a3.007,3.007,0,0,1,1.713.093,24.645,24.645,0,0,1,3.809,1.488,16.7,16.7,0,0,1,2.233,1.474c.266.2.534.4.806.59.177.126.341.273.512.419a3.593,3.593,0,0,0,1.022.715,2.861,2.861,0,0,1,1.814,1.928,2.8,2.8,0,0,1-.425,2.216,2.365,2.365,0,0,0-.5,1.682,1.85,1.85,0,0,0,.942,1.185c-.154.187-.326.379-.5.566-.72.81-1.29,1.453-1.129,1.993a4.274,4.274,0,0,1-.532,3.281,5.9,5.9,0,0,0-.513,1.3l-.033.149.083.119c.26.364.486.7.7,1.012.438.631.818,1.176,1.216,1.7a5.567,5.567,0,0,0,3.479,2.535c-1.236-.129-2.493-.2-3.264,1.787a2.183,2.183,0,0,1-.9.809c-.122.076-.245.154-.363.233l.945-1.316-.17-.2c-.4-.465-.876-.93-1.422-.866-.435.056-.833.413-1.286,1.167l-.366.6c-2.48,4.1-5.046,8.353-7.872,12.224-1.486,2.039-2.728,4.12-1.577,7.119a1.3,1.3,0,0,1-.086.259,1.623,1.623,0,0,0-.155.637c.035.608.01,1.332-.014,2.025-.058,1.817-.113,3.533.666,4.26a9.634,9.634,0,0,1,1.307,1.7,6.092,6.092,0,0,0,2.642,2.643l-.84-.079-.074.217c-1.044,2.945-1,3.083-.02,6.648l.11.416a4.511,4.511,0,0,1-.093,1.868c-.048.25-.095.517-.127.77l-.84.226.3.393c.175.23.363.455.55.68a16.128,16.128,0,0,1,1.178,1.589l.041.063c.277.457.854,1.412.738,1.778a3.862,3.862,0,0,0,1.044,4.116,6.008,6.008,0,0,1,.844,1.189l.786,1.583-.292-1.807a11.836,11.836,0,0,0-.356-1.4,7.026,7.026,0,0,1-.359-1.582,30.669,30.669,0,0,0-1.714-9.579,3.794,3.794,0,0,1-.187-1.074,5.274,5.274,0,0,0-.165-1.11,2.376,2.376,0,0,1,.065-1.77,1.323,1.323,0,0,1,.932-.723,1.157,1.157,0,0,1,1.071.245,2.665,2.665,0,0,1,.64,1.806,33.481,33.481,0,0,0,4,13.072l.185.368c1.312,2.6,2.538,5.049,1.282,8.222a2.963,2.963,0,0,0,.285,2.216c1.8,3.017,4.488,4.694,7.088,6.318.678.423,1.382.861,2.056,1.32a7.79,7.79,0,0,1,.648.491c.838.67,1.788,1.43,3.238.9,2.793-1,3.464-.667,5.1,2.577,1.243,2.445,4.795,4.155,7.084,3.511a5.855,5.855,0,0,0,1.072,3.207,4.773,4.773,0,0,1,.948,3.446c-.08.413.277.82.73,1.285a7.709,7.709,0,0,0,.809.707A3.157,3.157,0,0,1,247.7,160.6c.217.666.426.992.718,1.114a1.061,1.061,0,0,0,.914-.147l3.74,3.279.049-.578a3.013,3.013,0,0,1,.661-1.977,1.978,1.978,0,0,1,1.657-.486,1.3,1.3,0,0,1,1.068.455,2.824,2.824,0,0,1,.212,1.852,3.175,3.175,0,0,0,.17,1.174,3.515,3.515,0,0,1,.155.834c0,.5.022,1.014.045,1.525a12.054,12.054,0,0,1-.272,4.03,18.377,18.377,0,0,1-2.134,4.024c-.357.563-.731,1.145-1.063,1.715l-3.936,6.189,1.635,2.127-.643,1.639a4.255,4.255,0,0,0-1.612,2.849,4.318,4.318,0,0,0,1.009,3.226,10.048,10.048,0,0,1,1.7,3.05c.386,1.14.709,2.338,1.018,3.5.333,1.238.682,2.519,1.106,3.746a49.254,49.254,0,0,0,2.731,6.426,19.8,19.8,0,0,0,2.881,4.1,31.782,31.782,0,0,0,3.27,2.984l.559.465c.689.577,1.424,1.109,2.127,1.623.256.188.506.368.759.555-.026.057-.053.112-.081.162a2.078,2.078,0,0,0-.314,1.107c.086.747.236,1.5.374,2.224a12.813,12.813,0,0,1,.4,3.873c-.088.778-.188,1.552-.283,2.318a48.344,48.344,0,0,0-.536,7.28,41.105,41.105,0,0,1-.227,4.6c-.122,1.372-.245,2.792-.241,4.2.007.915.023,1.843.043,2.761A44.284,44.284,0,0,1,264.71,259a17.188,17.188,0,0,0,.118,5.847c.109.831.219,1.693.279,2.512a1.186,1.186,0,0,0,.432.77c1.644,1.407,1.9,3.473,2.166,5.654.062.527.132,1.06.219,1.589l-.062.567-.106.035.005-.156-.218.147-.21-.409-.486.762-.084,1.066.407.152a.469.469,0,0,0,.051.129l.006.005a.574.574,0,0,0,.01.242l-.624,1.047.084.164c.281.555.578,1.067.869,1.55a8.621,8.621,0,0,1,1.292,2.909,17.265,17.265,0,0,0,4.245,9.081,3.907,3.907,0,0,0,2.6.873l.273.025h0c.384.039.73-.318,1.012-.6a2.32,2.32,0,0,1,.226-.207l.382-.289-1.633-1.013,1.91.184-.068-.477c-.309-2.154-.309-2.154,1.485-5.434.907-1.651.781-2.872-.421-4.09a7.652,7.652,0,0,1-1.167-1.833c-.141-.263-.287-.544-.446-.835,2.788-.565,2.661-2.568,2.549-4.346-.026-.425-.057-.852-.048-1.261l3.7.728-2.182-1.052c-1.377-.661-2.521-1.365-2.5-3.077l4.5.429-.2-.486c-.757-1.9-.957-3.021-.646-3.62.288-.555,1.085-.845,2.66-.963a6.172,6.172,0,0,0,3.647-1.794,3.172,3.172,0,0,0,.806-2.382,5.625,5.625,0,0,0-1.958-4.05c-.722-.588-.9-1.022-.644-1.722.279.143.567.289.851.433.786.4,1.6.82,2.387,1.271a2.642,2.642,0,0,0,2.642.231,3.8,3.8,0,0,0,1.642-2.581l2.281-3.119c1.547-1.27,2.2-3.15,2.821-4.967a15.664,15.664,0,0,1,1.476-3.366,2.719,2.719,0,0,0,.483-1.993,3.558,3.558,0,0,1-.284-2.393c.289-.945,1.159-1.6,2.359-2.285l.176-.091c1.44-.822,2.93-1.67,4.424-2.448a.851.851,0,0,1,.722.041,2.421,2.421,0,0,0,2.159.393,4.359,4.359,0,0,0,2.184-2.486c2.561-5.419,4.216-10.137,4-15.54a5.341,5.341,0,0,1,.7-2.823,41.717,41.717,0,0,1,2.583-3.555c.356-.456.714-.918,1.067-1.382.021-.027.057-.052.091-.089a.853.853,0,0,0,.233-.249c.31-.547.632-1.075.951-1.607a27.988,27.988,0,0,0,2.1-3.956,3.813,3.813,0,0,0-1.946-5.163" transform="translate(-169.833 -17.69)" fill="#95b374"/>
          </g>
        </g>
        <g id="Grupo_1165450" data-name="Grupo 1165450">
          <g id="Grupo_1165449" data-name="Grupo 1165449" clip-path="url(#clip-path-2)">
            <g id="Grupo_1165448" data-name="Grupo 1165448" transform="translate(149.676 41.344)" opacity="0.2" style="mix-blend-mode: multiply;isolation: isolate">
              <g id="Grupo_1165447" data-name="Grupo 1165447">
                <g id="Grupo_1165446" data-name="Grupo 1165446" clip-path="url(#clip-path-6)">
                  <path id="Trazado_1000426" data-name="Trazado 1000426" d="M288.841,226.3c-16.594-55.434-103.584-10.961-83.52-131.193,2.891-17.341,7.059-33.791,14.914-48.364A131.032,131.032,0,1,0,415.648,212.619c-25.753,19.875-116.744,47.3-126.807,13.683" transform="translate(-169.231 -46.745)" fill="#95b374"/>
                </g>
              </g>
            </g>
            <path id="Trazado_1000427" data-name="Trazado 1000427" d="M153.7,79.069V75.937a1.311,1.311,0,0,0-1.31-1.313h-.977a1.459,1.459,0,0,1-1.377-.974,9.762,9.762,0,0,0-.541-1.3,1.483,1.483,0,0,1,.284-1.669l.693-.691a1.312,1.312,0,0,0,0-1.855l-2.215-2.213a1.316,1.316,0,0,0-1.858,0l-.689.687a1.452,1.452,0,0,1-1.663.279,12.242,12.242,0,0,0-1.3-.535,1.455,1.455,0,0,1-.977-1.375V64.01a1.314,1.314,0,0,0-1.318-1.312h-3.127a1.315,1.315,0,0,0-1.316,1.312v.975a1.452,1.452,0,0,1-.973,1.375,11.55,11.55,0,0,0-1.3.535,1.45,1.45,0,0,1-1.662-.279l-.694-.687a1.308,1.308,0,0,0-1.852,0l-2.217,2.213a1.313,1.313,0,0,0,0,1.855l.684.691a1.446,1.446,0,0,1,.283,1.669,11.715,11.715,0,0,0-.534,1.3,1.457,1.457,0,0,1-1.376.974H125.4a1.312,1.312,0,0,0-1.317,1.313v3.132a1.314,1.314,0,0,0,1.317,1.312h.972a1.454,1.454,0,0,1,1.376.979,12.545,12.545,0,0,0,.534,1.3A1.438,1.438,0,0,1,128,84.319l-.684.689a1.32,1.32,0,0,0,0,1.86l2.217,2.213a1.312,1.312,0,0,0,1.852,0l.694-.693a1.456,1.456,0,0,1,1.662-.277,11.239,11.239,0,0,0,1.3.538,1.449,1.449,0,0,1,.973,1.374V91a1.313,1.313,0,0,0,1.316,1.309h3.127A1.312,1.312,0,0,0,141.775,91v-.977a1.452,1.452,0,0,1,.977-1.374,11.9,11.9,0,0,0,1.3-.538,1.457,1.457,0,0,1,1.663.277l.689.693a1.319,1.319,0,0,0,1.858,0l2.215-2.213a1.318,1.318,0,0,0,0-1.86l-.693-.689a1.474,1.474,0,0,1-.284-1.664,10.335,10.335,0,0,0,.541-1.3,1.457,1.457,0,0,1,1.377-.979h.977a1.312,1.312,0,0,0,1.31-1.312M139.477,84.61A7.13,7.13,0,1,1,146,78.081a7.131,7.131,0,0,1-6.526,6.529" transform="translate(-14.339 -7.245)" fill="#bac9e7"/>
            <path id="Trazado_1000428" data-name="Trazado 1000428" d="M75.594,276.234c.448-19.092-20.719-34.728-31.369-49.374C33.4,211.973,27.119,191.317,31.489,172.845c3.739-15.81,15.842-25.735,31.4-27.093,13.209-1.152,27.245,7.264,38.973-.846,17.627-12.187,4.9-36.167,6.824-40.146" transform="translate(-3.477 -12.105)" fill="none" stroke="#598e5f" stroke-miterlimit="10" stroke-width="0.5" stroke-dasharray="2 2"/>
            <path id="Trazado_1000429" data-name="Trazado 1000429" d="M141.147,76.837v-5.69a2.391,2.391,0,0,0-2.387-2.39h-1.771a2.627,2.627,0,0,1-2.5-1.773,22.428,22.428,0,0,0-.977-2.355,2.643,2.643,0,0,1,.508-3.027l1.251-1.25a2.388,2.388,0,0,0,0-3.375l-4.021-4.024a2.388,2.388,0,0,0-3.378,0L126.626,54.2a2.643,2.643,0,0,1-3.027.512,21.956,21.956,0,0,0-2.361-.979,2.642,2.642,0,0,1-1.768-2.5v-1.77a2.386,2.386,0,0,0-2.384-2.385H111.4a2.387,2.387,0,0,0-2.391,2.385v1.77a2.639,2.639,0,0,1-1.778,2.5,22.469,22.469,0,0,0-2.354.979,2.636,2.636,0,0,1-3.021-.512L100.6,52.952a2.385,2.385,0,0,0-3.375,0L93.2,56.976a2.389,2.389,0,0,0,0,3.375l1.245,1.25a2.638,2.638,0,0,1,.517,3.027,20.835,20.835,0,0,0-.976,2.355,2.643,2.643,0,0,1-2.5,1.773H89.723a2.391,2.391,0,0,0-2.39,2.39v5.69a2.385,2.385,0,0,0,2.39,2.384H91.49a2.647,2.647,0,0,1,2.5,1.773,21.013,21.013,0,0,0,.976,2.358,2.632,2.632,0,0,1-.517,3.025L93.2,87.624A2.393,2.393,0,0,0,93.2,91l4.022,4.022a2.386,2.386,0,0,0,3.375,0l1.254-1.25a2.646,2.646,0,0,1,3.021-.51,22.47,22.47,0,0,0,2.354.98,2.635,2.635,0,0,1,1.778,2.494V98.51a2.388,2.388,0,0,0,2.391,2.384h5.689a2.387,2.387,0,0,0,2.384-2.384V96.739a2.638,2.638,0,0,1,1.768-2.494,21.957,21.957,0,0,0,2.361-.98,2.652,2.652,0,0,1,3.027.51l1.251,1.25a2.389,2.389,0,0,0,3.378,0L135.275,91a2.391,2.391,0,0,0,0-3.378l-1.251-1.248a2.637,2.637,0,0,1-.508-3.025,22.631,22.631,0,0,0,.977-2.358,2.631,2.631,0,0,1,2.5-1.773h1.771a2.385,2.385,0,0,0,2.387-2.384M115.292,86.9a12.957,12.957,0,1,1,11.86-11.86,12.957,12.957,0,0,1-11.86,11.86" transform="translate(-10.092 -5.441)" fill="#32436b"/>
            <path id="Trazado_1000430" data-name="Trazado 1000430" d="M448.936,63.255c12.189-28.568,36.776-38.313,56.431-36.133,12.342,1.368,28.723,12.136,35.029,31.455,5.19,15.907,4.353,36.168,1.7,53.1-2.272,14.539-4.708,26.35-3.407,41.428,1.318,15.26,7.67,25.916,12.823,38,7.854,18.423,12.051,35.1,7.214,57.535-4.042,18.74-10.9,32.074-21.989,38.879-9.864,6.058-20.575,8.349-30.925,10.736-3.387.783-11.61,4.191-13.076,3.147" transform="translate(-51.876 -3.1)" fill="none" stroke="#598e5f" stroke-miterlimit="10" stroke-width="0.5" stroke-dasharray="2 2"/>
            <path id="Trazado_1000431" data-name="Trazado 1000431" d="M458.585,58.206a25.851,25.851,0,1,1-25.852-25.851,25.851,25.851,0,0,1,25.852,25.851" transform="translate(-47.016 -3.739)" fill="#bac9e7"/>
            <path id="Trazado_1000432" data-name="Trazado 1000432" d="M417.682,56.974l10.874,20.318H439.43l12.325-27.266H443.57l-8.855,21.881L425.653,56.6Z" transform="translate(-48.264 -5.781)" fill="#32436b"/>
            <path id="Trazado_1000433" data-name="Trazado 1000433" d="M347.5,182.155a134.818,134.818,0,0,0-15.366-8.687c-3.424-1.651-6.989-3.205-9.777-5.714a25.558,25.558,0,0,1-4.792-6.557c3.259-1.165,6.193,1.224,8.375,3.858a28.64,28.64,0,0,1-8.549-12.984c1.27-.954,3.025.239,4.106,1.359q3.479,3.616,6.957,7.233-2.03-3.465-4.067-6.93c-.578-.983-.876-2.634.286-2.893.662-.149,1.257.37,1.711.844q3.7,3.875,7.414,7.753c2.771,2.9,11.639,5.216,18.362.376.462-.333.737-.92,1.288-1.1,1.144-.38,2.285.789,2.348,1.935a7.462,7.462,0,0,1-1.052,3.27,14.235,14.235,0,0,0,2.942,15.736c-3.023,1.91-7.253,4.422-10.186,2.5" transform="translate(-36.675 -17.427)" fill="#bb535d"/>
            <path id="Trazado_1000434" data-name="Trazado 1000434" d="M342.014,181.678c4.107,15.575.663,42.978,18.413,61.187,7.549,7.741,25.246,19.6,36.766,20.938,22.982,2.667,35.193-9.049,39.141-12.272,10.877-8.878,6.976-35.546-1.111-46.23-8.286-10.943-33.018,16.786-42.6,15.534-8.987-1.171-14.2-9.336-18.131-16.622-4.332-8.019-13-26.721-16.854-27.877-1.3-.389-8.458,3.326-15.629,5.341" transform="translate(-39.52 -20.373)" fill="#fff"/>
            <path id="Trazado_1000435" data-name="Trazado 1000435" d="M435.223,205.781c-4.548-6.006-14.045-.363-23.277,5.744a96.444,96.444,0,0,0-4.451,9.926c-2.276,5.816-4.2,11.768-6.385,17.622a18.7,18.7,0,0,1-3.839,6.588c-1.683,1.758-4,3.125-6.45,2.61-3.846-.81-5.793-4.479-8.232-7.243a8.308,8.308,0,0,0-4.681-2.918,11.98,11.98,0,0,0-4.1.112,24.628,24.628,0,0,1-3.746.3,14.216,14.216,0,0,1-7.093-2.149,26.1,26.1,0,0,1-10.1-11.78c-.565-1.273-.992-2.6-1.528-3.879q-.853-2.034-1.55-4.125a62.961,62.961,0,0,1-1.923-7.221c-.07-.244-.135-.491-.2-.73a28.8,28.8,0,0,1-.637-3.272c-.3-2.111-.462-4.258-.621-6.386-.168-2.231-.225-4.467-.2-6.7s.142-4.47.319-6.7a23.354,23.354,0,0,1,.644-5.128c-1.671.612-3.407,1.212-5.165,1.705,4.107,15.575.663,42.978,18.414,61.187,7.548,7.741,25.246,19.6,36.765,20.938,22.982,2.667,35.193-9.051,39.141-12.272,10.878-8.878,6.977-35.546-1.111-46.23" transform="translate(-39.52 -20.852)" fill="#bac9e7"/>
            <path id="Trazado_1000436" data-name="Trazado 1000436" d="M344.81,187.336c4.939-.159,12.276-2.267,16.162-5.173" transform="translate(-39.843 -21.049)" fill="none" stroke="#2e4369" stroke-miterlimit="10" stroke-width="1"/>
            <path id="Trazado_1000437" data-name="Trazado 1000437" d="M392.676,227.629a15.646,15.646,0,0,0-3.109,7.06" transform="translate(-45.015 -26.303)" fill="none" stroke="#2e4369" stroke-miterlimit="10" stroke-width="0.5"/>
            <path id="Trazado_1000438" data-name="Trazado 1000438" d="M395.383,228.4a15.266,15.266,0,0,0,.17,10.144" transform="translate(-45.597 -26.392)" fill="none" stroke="#2e4369" stroke-miterlimit="10" stroke-width="0.5"/>
            <path id="Trazado_1000439" data-name="Trazado 1000439" d="M398.365,229.021a7.955,7.955,0,0,0,1.352,6.048" transform="translate(-46.017 -26.464)" fill="none" stroke="#2e4369" stroke-miterlimit="10" stroke-width="0.5"/>
            <path id="Trazado_1000440" data-name="Trazado 1000440" d="M467.033,146.483c.654-3.371,1.67-7.229,4.742-8.654,3.463-1.607,7.381.883,10.027,3.632a40.184,40.184,0,0,1,9.791,17.422c1.29,4.841,1.732,10.06,4.34,14.305,4.037,6.57,12.043,9.065,19.272,11.5s15.118,6.1,17.6,13.432c2.073,6.119-.306,13.136,1.762,19.254,3.7,10.953,18.656,12.838,25.467,22.1a18.638,18.638,0,0,1,1.732,18.563c-2.952,6.234-9.061,10.187-14.914,13.7-5.3,3.178-13.548,6.891-19.564,8.148-16.865,3.532-60.62-5.726-64.254-54.592-2.338-31.407,2.374-70.432,4-78.811" transform="translate(-53.43 -15.868)" fill="#232743"/>
            <path id="Trazado_1000441" data-name="Trazado 1000441" d="M497.891,325.632a108.612,108.612,0,0,1-1.26-23.269,104.68,104.68,0,0,1,4.241-23c4.33-15.064,10.6-30.87,7.91-46.868a41.068,41.068,0,0,0-11.88-22.4,62.226,62.226,0,0,0-7.942-3.551c-9.139-3.351-18.95-4.89-26.094-6.831-12.741-1.107-25.577,3.211-34.27,10.9a39.218,39.218,0,0,0-6.939,8.05c-5.025,11.007-4.987,23.916-2.679,35.663.68,3.463,1.511,6.91,2.394,10.327a51.583,51.583,0,0,1,2.023,11c.275,7.751-1.294,15.461-2.557,23.055a278.725,278.725,0,0,0-4.215,47.168,201.527,201.527,0,0,0,1.558,23.712,247.328,247.328,0,0,0,85.626,2.377c3.28-.493,4.373.515,6.82-1.221-7.261-13.54-10.3-29.8-12.735-45.11" transform="translate(-48.141 -23.057)" fill="#fff"/>
            <path id="Trazado_1000442" data-name="Trazado 1000442" d="M500.657,325.632a108.608,108.608,0,0,1-1.26-23.269,104.676,104.676,0,0,1,4.241-23c4.33-15.064,10.6-30.87,7.91-46.868a41.068,41.068,0,0,0-11.88-22.4,62.223,62.223,0,0,0-7.942-3.551c-9.139-3.351-18.95-4.89-26.094-6.831a47.674,47.674,0,0,0-25.072,4.761,1.438,1.438,0,0,0,.275.022c25.666-1.769,36.185,3.155,37.035,14.625.162,2.145.586,4.256.746,6.393a47.412,47.412,0,0,0,1.267,7.722c1.352,5.574,3.354,10.993,4.185,16.692a33.013,33.013,0,0,1-1.533,15.857,39.547,39.547,0,0,1-7.7,13.343,3.809,3.809,0,0,0-1.025,1.427c-.1.522.269.88.638,1.2a9.155,9.155,0,0,0,2.807,1.465c.986.366,2.013.536,2.986.966a12.342,12.342,0,0,1,2.6,1.566,16.981,16.981,0,0,1,6.055,10.914c1.468,10.4-5.237,20.2-11.728,27.446-6.73,7.505-14.786,13.615-21.389,21.245-6.815,7.873-11.246,17.457-13.862,27.589a245.83,245.83,0,0,0,64.658-.971c3.28-.493,4.373.515,6.82-1.221-7.261-13.54-10.3-29.8-12.735-45.11" transform="translate(-50.907 -23.056)" fill="#bac9e7"/>
            <path id="Trazado_1000443" data-name="Trazado 1000443" d="M428.263,270.77a20.4,20.4,0,0,0,5.07,15.3c1.3,1.437,2.808,2.665,4.064,4.145a32.683,32.683,0,0,1,4.717,8.588" transform="translate(-49.478 -31.288)" fill="none" stroke="#2e4369" stroke-miterlimit="10" stroke-width="0.5"/>
            <path id="Trazado_1000444" data-name="Trazado 1000444" d="M431.592,298.508c3.688,2.894,7.38,5.793,11.215,8.481" transform="translate(-49.871 -34.493)" fill="none" stroke="#2e4369" stroke-miterlimit="10" stroke-width="0.5"/>
            <path id="Trazado_1000445" data-name="Trazado 1000445" d="M472.679,243.285a16.2,16.2,0,0,0,3.727,10.561c2.959,3.517,7.448,5.732,9.4,9.926" transform="translate(-54.619 -28.112)" fill="none" stroke="#2e4369" stroke-miterlimit="10" stroke-width="0.5"/>
            <path id="Trazado_1000446" data-name="Trazado 1000446" d="M514.5,346.383c-2.576,1.99-5.315,3.928-7.092,6.687-4.672,7.259-1.913,13.793-.995,13.916,1.766.24,1.395-6.637,3.148-6.922.3,6.937,1.122,13.82,3.818,20.19.574,1.361,2.342,4.08,3.821,3,1.184-.858-1.757-10.487-2.983-15.4a78.281,78.281,0,0,0,2.137,8.344c.853,2.721,3.089,8.739,4.852,6.53.417-.52-.625-8.966-2.775-13.345,1.335,3.27,1.43,3.924,2.436,6.386s4.123,7.762,5.289,5.378c.868-1.774-2.945-9.114-4.926-13.457q2.142,3.448,4.28,6.9c.443.71,1.181,1.526,1.935,1.182.781-.361.626-1.544.3-2.366-1.518-3.853-3.9-7.351-4.94-11.37s-.267-9.019,3.219-11.125a33.22,33.22,0,0,1-7.014-8.316c-1.809,1.193-3.315,2.857-4.512,3.781" transform="translate(-58.327 -39.588)" fill="#bb535d"/>
            <path id="Trazado_1000447" data-name="Trazado 1000447" d="M501.621,264.367c9.282,17.134,20.473,25.542,32.267,36.843q-7.352,8.764-14.7,17.532c-4.332,5.17-8.6,11.13-8.6,11.13l10.9,15.937s16.606-7.594,34.827-28.672c4.667-5.4,9.353-11.48,9.888-18.688.424-5.735-1.872-11.284-4.347-16.44-10.643-22.17-25.633-40.776-42.318-63.654-13.6-18.642-45.413-4.763-17.909,46.012" transform="translate(-56.709 -24.317)" fill="#fff"/>
            <path id="Trazado_1000448" data-name="Trazado 1000448" d="M563.578,282.009c-10.642-22.17-25.632-40.776-42.318-63.655-4.2-5.754-10.133-8.4-15.521-7.834.547.337,1.086.68,1.621,1.037,9.933,6.683,17.063,16.865,22.156,27.746,1.3,2.766,2.469,5.591,3.542,8.455q.808,2.149,1.538,4.331c.521,1.555.9,3.118,1.333,4.7a27.9,27.9,0,0,0,4.322,9.382,41.153,41.153,0,0,0,6.471,6.436c4.405,3.785,8.486,7.886,10.744,13.422a29.851,29.851,0,0,1,1.585,16.888c-1.228,6.237-4.628,11.453-8.969,15.882-2.411,2.456-5.053,4.642-7.583,6.965-2.714,2.492-5.561,4.825-8.406,7.155a55.626,55.626,0,0,0-7.413,6.681,9.4,9.4,0,0,0-2.067,3.73,5.761,5.761,0,0,0-.155,1.857c4.173-2.191,18.31-10.379,33.579-28.05,4.668-5.4,9.354-11.481,9.888-18.686.425-5.736-1.871-11.286-4.347-16.442" transform="translate(-58.439 -24.317)" fill="#bac9e7"/>
            <path id="Trazado_1000449" data-name="Trazado 1000449" d="M542.183,310.224a11.544,11.544,0,0,0,9.9-3.9" transform="translate(-62.65 -35.396)" fill="none" stroke="#2e4369" stroke-miterlimit="10" stroke-width="0.5"/>
            <path id="Trazado_1000450" data-name="Trazado 1000450" d="M541.359,313.619a10.1,10.1,0,0,0,8.634,5.193" transform="translate(-62.555 -36.239)" fill="none" stroke="#2e4369" stroke-miterlimit="10" stroke-width="0.5"/>
            <path id="Trazado_1000451" data-name="Trazado 1000451" d="M543.046,312.481a7.771,7.771,0,0,0,5.487,1.059,15.55,15.55,0,0,0,5.313-2.045c.06-.033.133-.092.119-.159s-.157-.019-.1.026" transform="translate(-62.75 -35.971)" fill="none" stroke="#2e4369" stroke-miterlimit="10" stroke-width="0.5"/>
            <path id="Trazado_1000452" data-name="Trazado 1000452" d="M518.9,342.621a44.5,44.5,0,0,0,11.08,14.246" transform="translate(-59.959 -39.59)" fill="none" stroke="#2e4369" stroke-miterlimit="10" stroke-width="1"/>
            <path id="Trazado_1000453" data-name="Trazado 1000453" d="M441.692,203.556c-1.526,8.917.9,16.991,4.884,25.058,10.957-10.075,4.489-10.965,19.149,3.021,6.578-9.024,13.785-15.533,20.364-24.558-6.575,6.769-25.546-13.724-45.53-2.083" transform="translate(-50.907 -23.265)" fill="#bac9e7"/>
            <path id="Trazado_1000454" data-name="Trazado 1000454" d="M445.513,150.033a40.216,40.216,0,0,0-6.472,16.58c-.8,5.341-.471,11.021,1.984,15.81s7.3,8.506,12.6,8.563c7.247.08,12.993-6.249,16.511-12.706a21.124,21.124,0,0,0,2.833-9.374c.652-6.971-2.217-15.516-8.232-18.9s-15.85-4.931-19.221.027" transform="translate(-50.687 -16.971)" fill="#bb535d"/>
            <path id="Trazado_1000455" data-name="Trazado 1000455" d="M451.364,178.239a288.764,288.764,0,0,1,.449,31.034,2.6,2.6,0,0,0,.365,1.859,2.358,2.358,0,0,0,1.112.613,25.679,25.679,0,0,0,18.248-.991,1.914,1.914,0,0,0,.93-.691,2.012,2.012,0,0,0,.118-1.248c-1.273-10.764.282-22.949-.992-33.715-5.6,1.059-14.106,3.027-20.23,3.139" transform="translate(-52.156 -20.233)" fill="#bb535d"/>
            <path id="Trazado_1000456" data-name="Trazado 1000456" d="M471.652,174.341a4.7,4.7,0,0,0-.157,3.44c1.019,2.252,4.935,2.671,7.253,1.264s3.268-3.933,3.6-6.326a3.164,3.164,0,0,0-.885-3.166,4.1,4.1,0,0,0-1.846-.624c-1.845-.264-7.233,3.264-7.965,5.413" transform="translate(-54.451 -19.518)" fill="#bb535d"/>
            <path id="Trazado_1000457" data-name="Trazado 1000457" d="M459.261,148.8a12.69,12.69,0,0,0-8.651,3.834c-2.523,2.6-3.841,6.157-5.962,9.1s-5.75,5.408-9.15,4.235c-3.025-1.046-4.328-4.659-4.328-7.916,0-18.152,15.1-22.146,20.6-23.019,6.443-1.025,16.527.009,23.924,7.775,4.52,4.746-1.584,14.973-2.937,21.473-1.261-3.58-2.56-7.231-4.906-10.187s-5.974-5.138-8.592-5.3" transform="translate(-49.822 -15.565)" fill="#232743"/>
            <path id="Trazado_1000458" data-name="Trazado 1000458" d="M462.944,164.875a11.065,11.065,0,0,0-3.434.119,1.431,1.431,0,0,0-.814.359.514.514,0,0,0,.061.772.873.873,0,0,0,.641-.005,8.687,8.687,0,0,1,5.729.524,1.751,1.751,0,0,0,.823.242c.289-.021.577-.278.495-.547a.707.707,0,0,0-.348-.349,8.656,8.656,0,0,0-3.153-1.115" transform="translate(-52.987 -19.042)" fill="#232743"/>
            <path id="Trazado_1000459" data-name="Trazado 1000459" d="M461.931,168.737a1.287,1.287,0,1,1,1.286,1.351,1.319,1.319,0,0,1-1.286-1.351" transform="translate(-53.377 -19.342)" fill="#232743"/>
            <path id="Trazado_1000460" data-name="Trazado 1000460" d="M446.417,164.072a11.6,11.6,0,0,0-3.324.866,1.471,1.471,0,0,0-.715.516.484.484,0,0,0,.225.712.913.913,0,0,0,.626-.148,8.987,8.987,0,0,1,5.7-.763,1.832,1.832,0,0,0,.857.044c.277-.082.5-.386.361-.62a.7.7,0,0,0-.415-.252,8.881,8.881,0,0,0-3.313-.355" transform="translate(-51.109 -18.955)" fill="#232743"/>
            <path id="Trazado_1000461" data-name="Trazado 1000461" d="M446.188,167.864a1.281,1.281,0,0,1,.96-1.548,1.3,1.3,0,0,1,1.547.984,1.284,1.284,0,0,1-.961,1.549,1.3,1.3,0,0,1-1.546-.984" transform="translate(-51.554 -19.215)" fill="#232743"/>
            <path id="Trazado_1000462" data-name="Trazado 1000462" d="M452.632,167.144a20.358,20.358,0,0,1-4.805,8.208,1.539,1.539,0,0,0-.6,1.137,1.237,1.237,0,0,0,.271.577,3.245,3.245,0,0,0,3.387,1.159" transform="translate(-51.677 -19.314)" fill="none" stroke="#232743" stroke-miterlimit="10" stroke-width="0.5"/>
            <path id="Trazado_1000463" data-name="Trazado 1000463" d="M445.2,181.707a11.516,11.516,0,0,0,11.659.377,6.657,6.657,0,0,1-6.141,4.719,5.9,5.9,0,0,1-5.518-5.1" transform="translate(-51.443 -20.997)" fill="#fff"/>
            <path id="Trazado_1000464" data-name="Trazado 1000464" d="M473.679,180.07a2.84,2.84,0,1,1,2.838,2.922,2.881,2.881,0,0,1-2.838-2.922" transform="translate(-54.735 -20.47)" fill="#fff"/>
            <path id="Trazado_1000465" data-name="Trazado 1000465" d="M453.847,217.946c-1.983,1.55-1.565,2.128-1.968,4.533a6.556,6.556,0,0,0,2.614,6.476,5.6,5.6,0,0,0,7-.618,6.035,6.035,0,0,0,1.228-2.439,7.845,7.845,0,0,0-1.151-6.811c-1.479-1.917-5.645-2.76-6.826-1.838Z" transform="translate(-52.205 -25.06)" fill="#32436b"/>
            <path id="Trazado_1000466" data-name="Trazado 1000466" d="M454.763,224.491a174,174,0,0,1-5.714,31.561,34.461,34.461,0,0,0-1.686,8.49c-.132,6.838,5.39,33.411,9.5,39.042,2.772-4.288,9.195-36.608,9.529-38.488a14.134,14.134,0,0,0-.488-5.552q-3.549-15.944-7.1-31.889a4.683,4.683,0,0,0-1.6-3.085c-1.017-.676-2.865-.142-2.436-.08" transform="translate(-51.694 -25.91)" fill="#32436b"/>
            <path id="Trazado_1000467" data-name="Trazado 1000467" d="M441.837,203.348c-.261,3.647,1.852,7.425,2.255,11.059a21.989,21.989,0,0,0,3.524,10.222A27.386,27.386,0,0,1,456.611,215a7.847,7.847,0,0,1-5.377-5.811c-.376-1.818-.314-6.33-.306-9.655,0,1.108-2.706.976-4.641,1.6a17.551,17.551,0,0,0-4.45,2.215" transform="translate(-51.053 -23.057)" fill="#fff"/>
            <path id="Trazado_1000468" data-name="Trazado 1000468" d="M467.266,209.829c-3.349,1.767-6.476,3.852-10.01,5.124,4.9,1.537,6.564,8.3,11.256,10.42a15.1,15.1,0,0,1,4.053-6.688c1.268-1.206,2.742-2.177,3.945-3.454,3.166-3.366,4-8.321,4.66-12.959-2.9-.323-5.819-2.613-8.439-3.479,0,0-.51,8.418-5.465,11.037" transform="translate(-52.837 -22.971)" fill="#fff"/>
            <path id="Trazado_1000469" data-name="Trazado 1000469" d="M451.788,195.013c5.829,1.454,12.389-3.12,14.155-8.687-1.6,5.057-2.211,5.84-4.782,8.675-2.212,2.438-5.894,4.687-9.088,4.784-.106-1.237-.285-4.772-.285-4.772" transform="translate(-52.205 -21.53)" fill="#9e4350"/>
            <path id="Trazado_1000470" data-name="Trazado 1000470" d="M425.927,237.564a23.066,23.066,0,0,0,1.409,15.144c1,2.171,2.484,4.284,4.67,5.127,3.281,1.267,7.06-.852,8.942-3.893s2.329-6.765,2.722-10.348q.352-3.173.7-6.344c-6.25.452-12.538.314-18.444.314" transform="translate(-49.138 -27.415)" fill="#bac9e7"/>
            <path id="Trazado_1000471" data-name="Trazado 1000471" d="M418.086,323.042s-10.073,36.7-11.4,47.318,0,13.267,0,13.267,33.931,11.154,62.608,9.287c27.163-1.769,42.563-7.076,42.563-7.076l-16.6-62.8s-25.963,4.865-41.721,4.865a142.435,142.435,0,0,1-35.452-4.865" transform="translate(-46.925 -37.328)" fill="#232743"/>
            <path id="Trazado_1000472" data-name="Trazado 1000472" d="M469.263,319.828c1.682-2.322,2.7-4.289,4.919-6.357,2.591-2.415,3.686-5.485,5.031-8.678" transform="translate(-54.224 -35.219)" fill="none" stroke="#2e4369" stroke-miterlimit="10" stroke-width="0.5"/>
            <path id="Trazado_1000473" data-name="Trazado 1000473" d="M340.927,92.327c-.087-15.479,14.532-13.683,14.532-13.683-4.905,20.418-14.532,13.683-14.532,13.683m-2.808.3c-1.8-15.286-16.009-10.372-16.009-10.372,7.342,19.089,16.009,10.372,16.009,10.372m2.607,22.773c.135-2.56.219-5.06.26-7.458,4.151,1.255,13.375,1.588,19.055-16.9,0,0-13.734-1.722-19.093,7.484-.183-7.4-.672-12.756-.859-14.22,1.284-1.358,3.345-4.36,3.168-9.591-.254-7.562-4.642-10.295-4.642-10.295s-3.619-3.129-2.5-6.951c0,0-10.342,19.272,1.894,27.084a185.916,185.916,0,0,1,.534,19.514c-4.46-14.511-23.6-9.721-23.6-9.721,9.246,19.922,20.449,15.31,23.5,13.557-.114,3.5-.315,7.219-.632,11.033-6.419-13.661-29.483-10.052-29.483-10.052,9.867,20.847,23.451,18.808,28.776,17-.37,3.036-.822,6.084-1.377,9.087,0,0,2.094-.084,2.791,0,.641-3.5,1.132-7.066,1.5-10.6,4.168,1.841,16.139,4.719,24.607-17.43,0,0-17.558-3.221-23.91,8.456" transform="translate(-35.629 -6.641)" fill="#546f5b"/>
          </g>
        </g>
        <g id="Grupo_1165452" data-name="Grupo 1165452" transform="translate(272.709 50.829)">
          <g id="Grupo_1165451" data-name="Grupo 1165451" clip-path="url(#clip-path-7)">
            <path id="Trazado_1000474" data-name="Trazado 1000474" d="M350.882,134.086c.5-.644.527-2.259.759-3.181a22.858,22.858,0,0,1,1.18-3.854,22.441,22.441,0,0,1,5.069-6.929c3.6-3.428,7.466-5.859,12.4-6.558" transform="translate(-313.254 -63.952)" fill="none" stroke="#598e5f" stroke-miterlimit="10" stroke-width="0.5"/>
            <path id="Trazado_1000475" data-name="Trazado 1000475" d="M355.557,134.287c.753-4.543,4.1-8.5,7.168-11.772a44.243,44.243,0,0,1,5.717-5.374c1.21-.9,3.609-2.08,4.3-3.217" transform="translate(-313.794 -63.993)" fill="none" stroke="#598e5f" stroke-miterlimit="10" stroke-width="0.5"/>
            <path id="Trazado_1000476" data-name="Trazado 1000476" d="M314.814,112.744c2,3.278,2.414,12.814,1.674,15.838" transform="translate(-309.086 -63.857)" fill="none" stroke="#598e5f" stroke-miterlimit="10" stroke-width="0.5"/>
            <path id="Trazado_1000477" data-name="Trazado 1000477" d="M316.564,112.077c2.065,2.138,6.84,10.24,7.125,13.087.467,4.675-.277,5.421-.954,7.955" transform="translate(-309.289 -63.78)" fill="none" stroke="#598e5f" stroke-miterlimit="10" stroke-width="0.5"/>
            <path id="Trazado_1000478" data-name="Trazado 1000478" d="M320.4,113.161c1.5,1.368,10.8,7.524,12.288,8.987A14.129,14.129,0,0,1,335.864,127c.823,1.991,2.315,6,1.472,7.994" transform="translate(-309.732 -63.905)" fill="none" stroke="#598e5f" stroke-miterlimit="10" stroke-width="0.5"/>
            <path id="Trazado_1000479" data-name="Trazado 1000479" d="M350.342,113.238c0-4.4.807-8.637,4.162-11.776a16.842,16.842,0,0,1,6.981-3.854c1.417-.335,4.168-.958,5.241-.439" transform="translate(-313.192 -62.034)" fill="none" stroke="#598e5f" stroke-miterlimit="10" stroke-width="0.5"/>
            <path id="Trazado_1000480" data-name="Trazado 1000480" d="M351.981,113.969c.02-6.487,6.225-9.758,12.23-9.758" transform="translate(-313.381 -62.871)" fill="none" stroke="#598e5f" stroke-miterlimit="10" stroke-width="0.5"/>
            <path id="Trazado_1000481" data-name="Trazado 1000481" d="M315.447,98.456c.936.8,8.113,3.275,8.113,12.567" transform="translate(-309.159 -62.206)" fill="none" stroke="#598e5f" stroke-miterlimit="10" stroke-width="0.5"/>
            <path id="Trazado_1000482" data-name="Trazado 1000482" d="M323.541,97.736c7.359,2.36,8.85,16.863,8.751,16.7" transform="translate(-310.095 -62.123)" fill="none" stroke="#598e5f" stroke-miterlimit="10" stroke-width="0.5"/>
            <path id="Trazado_1000483" data-name="Trazado 1000483" d="M320.843,97.916c1,1.711,2.963,3.111,4.181,4.737a22.876,22.876,0,0,1,2.7,4.843c.7,1.642,2.207,4.465,1.551,6.169" transform="translate(-309.783 -62.144)" fill="none" stroke="#598e5f" stroke-miterlimit="10" stroke-width="0.5"/>
            <path id="Trazado_1000484" data-name="Trazado 1000484" d="M347.384,97.376a12.97,12.97,0,0,1,4.275-11.129c3.243-3.022,8.178-2.907,11.2-3.17" transform="translate(-312.837 -60.429)" fill="none" stroke="#598e5f" stroke-miterlimit="10" stroke-width="0.5"/>
            <path id="Trazado_1000485" data-name="Trazado 1000485" d="M353.334,95.791c-2.306-4.78,3.908-8.829,7.8-9.386" transform="translate(-313.48 -60.813)" fill="none" stroke="#598e5f" stroke-miterlimit="10" stroke-width="0.5"/>
            <path id="Trazado_1000486" data-name="Trazado 1000486" d="M340.455,58.346c-3.76,3.347-3.111,10.612-.91,14.636,1.524,2.786,4.953,5.364,8.228,5.09" transform="translate(-311.738 -57.571)" fill="none" stroke="#598e5f" stroke-miterlimit="10" stroke-width="0.5"/>
            <path id="Trazado_1000487" data-name="Trazado 1000487" d="M341.771,60.324c-1.567,3.248-.918,8.01.752,11.136.984,1.843,4.136,3.567,6.089,2.545" transform="translate(-312.098 -57.8)" fill="none" stroke="#598e5f" stroke-miterlimit="10" stroke-width="0.5"/>
            <path id="Trazado_1000488" data-name="Trazado 1000488" d="M328.758,83.527c8.512,4.55,7.864,12.574,8.748,14.564" transform="translate(-310.698 -60.481)" fill="none" stroke="#598e5f" stroke-miterlimit="10" stroke-width="0.5"/>
            <path id="Trazado_1000489" data-name="Trazado 1000489" d="M326.059,83.706c1.593-.232,3.661,4.555,4.172,5.921.766,2.05,3.2,6.444,3.571,8.485" transform="translate(-310.386 -60.501)" fill="none" stroke="#598e5f" stroke-miterlimit="10" stroke-width="0.5"/>
            <path id="Trazado_1000490" data-name="Trazado 1000490" d="M333.254,83.347c6.686,5.216,6.548,13.812,5.36,14.945" transform="translate(-311.217 -60.46)" fill="none" stroke="#598e5f" stroke-miterlimit="10" stroke-width="0.5"/>
          </g>
        </g>
        <g id="Grupo_1165454" data-name="Grupo 1165454">
          <g id="Grupo_1165453" data-name="Grupo 1165453" clip-path="url(#clip-path-2)">
            <path id="Trazado_1000492" data-name="Trazado 1000492" d="M324.981,139.828,331.214,164h17.647l5.011-24.175Z" transform="translate(-37.552 -16.157)" fill="#32436b"/>
            <path id="Trazado_1000493" data-name="Trazado 1000493" d="M346.51,139.828a37.388,37.388,0,0,1-.2,6.173c-.461,3.817-1.914,7.9-5.011,10.377a10.518,10.518,0,0,1-5.087,2.242c-1.634.283-3.908.376-5.331,1.437L331.9,164h17.647l5.011-24.175Z" transform="translate(-38.234 -16.157)" fill="#232743"/>
            <path id="Trazado_1000494" data-name="Trazado 1000494" d="M430.693,373.23c2.367-8.842,11.433-10.74,18.866-13.715,7.506-3,15.531-5.2,22.438-9.5a38.922,38.922,0,0,0,12.856-12.833q-.015-.348-.43-.211" transform="translate(-49.767 -38.933)" fill="none" stroke="#2e4369" stroke-miterlimit="10" stroke-width="0.5"/>
            <path id="Trazado_1000495" data-name="Trazado 1000495" d="M457.443,382.17c.627-2.483,1-4.722,2.7-6.909,2.6-3.338,6.862-5.21,10.564-7.021,11.719-5.73,17.39-12.588,16.362-13.267" transform="translate(-52.858 -41.018)" fill="none" stroke="#2e4369" stroke-miterlimit="10" stroke-width="0.5"/>
            <path id="Trazado_1000496" data-name="Trazado 1000496" d="M202.435,237.17c27.684,33.816,30.674,84.337,62.672,114.1L251.588,364.3c-.995.961-2.157,1.985-3.538,1.923a5.068,5.068,0,0,1-2.718-1.323c-18.563-14.367-34.42-32.739-43.507-54.381S190.832,263.818,199,241.81c.7-1.883,2.22-4.132,3.434-4.64" transform="translate(-22.396 -27.405)" fill="#232743"/>
            <path id="Trazado_1000497" data-name="Trazado 1000497" d="M144.713,224.92c-16.079,1.581-49.21,13.291-44.719,54.044,1.22,11.035,7.178,52.838-2.8,82.377-.909,2.679-1.913,5.658-.9,8.271a8.936,8.936,0,0,0,4.019,4.132c6.316,3.812,13.679,5.061,20.869,6.175,26.916,4.168,54.927,7.248,81.007-1.57a6.161,6.161,0,0,0,3.642-2.392,7.293,7.293,0,0,0,.519-4.179q-4.179-56.9-8.356-113.8c-.448-6.1-.955-12.419-3.749-17.716-3.285-6.222-9.386-10.236-15.786-12.22s-13.161-2.171-19.838-2.346c-6.376-.166-12.75-.332-13.9-.776" transform="translate(-11.077 -25.99)" fill="#32436b"/>
            <path id="Trazado_1000498" data-name="Trazado 1000498" d="M194.363,376.219c-5.2,1.152-10.521,2.619-15.885,2.619-4.328,0-8.959-1.069-12.429-3.792a13.109,13.109,0,0,1-2.193-2.178,27.984,27.984,0,0,1-2.135-2.728c-1.19-1.959-1.94-4.152-3.427-5.921-5.273-6.278-14.053-8.3-19.025-14.9a9.638,9.638,0,0,1-1.557-2.679,16.347,16.347,0,0,1-.746-3.539,20.034,20.034,0,0,1,.66-7.124c1.339-4.994,4.243-9.361,7.529-13.258,3.191-3.782,6.7-7.3,9.579-11.345,1.428-2.012,3.056-4.316,3.647-6.745.552-2.254.612-5.2-1.036-7.019a7.485,7.485,0,0,0-5.2-1.992,18.461,18.461,0,0,0-6.179.649c-3.843,1.094-9.1,1.588-12.21-1.5s-2.062-8.382-.542-11.944c.909-2.133,1.872-4.27,2.887-6.355a60.812,60.812,0,0,1,3.643-6.506,38.685,38.685,0,0,1,9.81-10.6c4.265-3.034,9-5,13.793-7a64.816,64.816,0,0,0,6.929-3.251,27.828,27.828,0,0,0,5.944-4.663c2.733-2.755,4.994-6.25,5.377-10.1l0,0c-.027-.339-.031-.677-.04-1.016-.005-.072-.014-.141-.026-.214-.065-.463-.134-.93-.194-1.4-.089-.7-.158-1.4-.23-2.1-.063-.257-.136-.518-.2-.774-.782-.28-1.595-.551-2.451-.817-6.4-1.983-13.162-2.171-19.839-2.346-6.376-.166-12.75-.332-13.9-.776C128.634,226.5,95.5,238.211,100,278.964c1.216,11.033,7.171,52.837-2.811,82.377-.907,2.679-1.912,5.657-.9,8.27a8.947,8.947,0,0,0,4.019,4.134c6.318,3.811,13.679,5.06,20.869,6.174,26.916,4.168,54.928,7.248,81.008-1.571a6.146,6.146,0,0,0,3.641-2.392,4.21,4.21,0,0,0,.452-1.238c-1.315-.007-2.632.038-3.942.145a58.21,58.21,0,0,0-7.972,1.356" transform="translate(-11.077 -25.99)" fill="#232743"/>
            <path id="Trazado_1000499" data-name="Trazado 1000499" d="M156.075,289.783c1.03-4.153,4.675-7.139,8.5-8.973s8.02-2.831,11.8-4.762a27.032,27.032,0,0,0,13.492-16.509" transform="translate(-18.035 -29.99)" fill="none" stroke="#232743" stroke-miterlimit="10" stroke-width="0.5"/>
            <path id="Trazado_1000500" data-name="Trazado 1000500" d="M152.053,352.482c-.142-4.341,2.433-8.352,5.624-11.266s7.016-5.006,10.458-7.613c7.87-5.958,13.481-14.387,18.935-22.653" transform="translate(-17.569 -35.931)" fill="none" stroke="#232743" stroke-miterlimit="10" stroke-width="0.5"/>
            <path id="Trazado_1000501" data-name="Trazado 1000501" d="M175.36,294.68a119.112,119.112,0,0,0,15.695-18.371" transform="translate(-20.263 -31.928)" fill="none" stroke="#232743" stroke-miterlimit="10" stroke-width="0.5"/>
            <path id="Trazado_1000502" data-name="Trazado 1000502" d="M166.562,157.875c-5.415-1.336-10.574-2.551-16.121,2.48-7.792,7.068-9.005,15.519-7.04,25.326a8.212,8.212,0,0,1-1.345,5.894c-1.129,1.743-3.124,2.673-4.733,3.98-2.028,1.65-3.538,4.36-2.737,6.86.342,1.073,1.089,2.033,1.167,3.156.082,1.236-.66,2.374-.8,3.6a5.619,5.619,0,0,0,.716,3.142,10.741,10.741,0,0,0,7.168,5.538c1.513.33,3.074.321,4.607.532,4.153.573,8.341,2.752,12.339,1.5,3.373-1.056,5.609-4.367,6.576-7.775s.933-7.01,1.311-10.537,1.27-7.186,3.693-9.762c.849-.906,1.862-1.647,2.651-2.606a9.367,9.367,0,0,0,1.817-6.965,18.243,18.243,0,0,0-2.5-6.918c-2.2-3.842-2.271-16.34-6.764-17.448" transform="translate(-15.526 -18.107)" fill="#bb535d"/>
            <path id="Trazado_1000503" data-name="Trazado 1000503" d="M151.235,225.893a24.386,24.386,0,0,0,4.212,2.809,25.105,25.105,0,0,0,11.895,2.811,24.1,24.1,0,0,0,8.264-1.669,309.321,309.321,0,0,1,1.875-36.974,168.6,168.6,0,0,1-21.637-8.575c1.329,14.163,2.438,29.223-4.609,41.6" transform="translate(-17.476 -21.296)" fill="#ffb299"/>
            <path id="Trazado_1000504" data-name="Trazado 1000504" d="M162.812,204.07c1.129,8.119,13.87,14.96,14.5,9.936.744-5.985-10.437-5.162-14.5-9.936" transform="translate(-18.813 -23.581)" fill="#ff7478"/>
            <path id="Trazado_1000505" data-name="Trazado 1000505" d="M167.015,169.557c-3.9,2-7.956,9.431-8.764,13.608-1.891,9.808-.14,13.985,7.071,21.133a17.665,17.665,0,0,0,8.059,4.93c5.5,1.327,11.494-1.444,14.848-5.861s4.378-10.161,4.007-15.625c-.4-5.88-2.412-11.8-6.514-16.168s-10.467-6.941-16.452-5.785c-2.137.412-1.424,3.344-2.256,3.768" transform="translate(-18.204 -19.125)" fill="#ffb299"/>
            <path id="Trazado_1000506" data-name="Trazado 1000506" d="M160.293,187.5c-2.412-1.189-3.509-4.125-6.293-4.39-2.64-.253-4.47,2.19-4.814,4.354a10.584,10.584,0,0,0,4.235,9.835,3.6,3.6,0,0,0,1.525.786,3.675,3.675,0,0,0,2.794-.9c3.264-2.491,4.047-6.909,2.553-9.687" transform="translate(-17.226 -21.157)" fill="#ffb299"/>
            <path id="Trazado_1000507" data-name="Trazado 1000507" d="M168.645,186.555c1.042-.866,1.694-1.736,3.511-2.088a7.733,7.733,0,0,1,4.392.318,1.163,1.163,0,0,0-.992-1.439c-2.848-.383-6.025.968-6.911,3.21" transform="translate(-19.487 -21.178)" fill="#232743"/>
            <path id="Trazado_1000508" data-name="Trazado 1000508" d="M171.835,187.02a1.153,1.153,0,1,1,.994,1.3,1.158,1.158,0,0,1-.994-1.3" transform="translate(-19.855 -21.495)" fill="#232743"/>
            <path id="Trazado_1000509" data-name="Trazado 1000509" d="M186.066,187.02a1.152,1.152,0,1,1,.992,1.3,1.145,1.145,0,0,1-.992-1.3" transform="translate(-21.499 -21.495)" fill="#232743"/>
            <path id="Trazado_1000510" data-name="Trazado 1000510" d="M185.043,183.825a1.318,1.318,0,0,0,.226,1.05,5.373,5.373,0,0,1,3.02-.463,16.063,16.063,0,0,1,3.01.714,15.342,15.342,0,0,0-3.576-1.527,2.867,2.867,0,0,0-2.68.226" transform="translate(-21.379 -21.19)" fill="#232743"/>
            <path id="Trazado_1000511" data-name="Trazado 1000511" d="M182.363,186.186a6.943,6.943,0,0,0,1.871,4.269,7.851,7.851,0,0,1,1.673,1.948,2.549,2.549,0,0,1-1.427,3.318c-1.063.368-2.224-.027-3.351-.033" transform="translate(-20.93 -21.514)" fill="none" stroke="#bb535d" stroke-miterlimit="10" stroke-width="0.5"/>
            <path id="Trazado_1000512" data-name="Trazado 1000512" d="M176.647,200.236a9.215,9.215,0,0,0,4.914,2.484,5.763,5.763,0,0,0,5.067-1.741" transform="translate(-20.412 -23.138)" fill="none" stroke="#bb535d" stroke-miterlimit="10" stroke-width="1"/>
            <path id="Trazado_1000513" data-name="Trazado 1000513" d="M167.719,193.773a2.894,2.894,0,1,1,2.509,3.127,2.844,2.844,0,0,1-2.509-3.127" transform="translate(-19.378 -22.116)" fill="#ff7478"/>
            <path id="Trazado_1000514" data-name="Trazado 1000514" d="M189.926,193.678a2.308,2.308,0,1,1,2,2.476,2.238,2.238,0,0,1-2-2.476" transform="translate(-21.944 -22.162)" fill="#ff7478"/>
            <path id="Trazado_1000515" data-name="Trazado 1000515" d="M158.764,169.588a6.551,6.551,0,0,0,5.744,1.2c1.984-.57,3.716-1.738,5.639-2.481s4.268-.991,5.957.2c1.824,1.28,2.325,3.819,4.152,5.094,2.032,1.42,5.093.846,6.974,2.453,2.4,2.048,1.264,6.137,3.294,8.528,1.42,1.67,4,1.969,6.134,1.409a10.643,10.643,0,0,0,7.535-8.42,13.514,13.514,0,0,0-3.446-11,20.044,20.044,0,0,0-10.421-5.919,25.677,25.677,0,0,1-3.326-.863c-2.622-1.007-4.561-3.235-7.08-4.469-4.035-1.976-9.048-1.067-12.8,1.282s-12.051,10.161-8.352,12.993" transform="translate(-18.238 -17.822)" fill="#bb535d"/>
            <path id="Trazado_1000516" data-name="Trazado 1000516" d="M159.037,169.631a15.727,15.727,0,0,0-3.4,7.171A11.206,11.206,0,0,0,157,184.538c.668,1.076,1.575,2.09,1.706,3.353.163,1.62-1.013,3.13-.93,4.757a3.177,3.177,0,0,0,2.529,2.889c-1.388-1.386-.79-3.789.25-5.461s2.472-3.275,2.54-5.246c.077-2.374-1.893-4.594-1.343-6.9.237-.984.915-1.826,1.107-2.82a4.111,4.111,0,0,0-1.01-3.306,9.814,9.814,0,0,0-2.809-2.173" transform="translate(-17.964 -19.601)" fill="#bb535d"/>
            <path id="Trazado_1000517" data-name="Trazado 1000517" d="M153.507,221.9c-4.7.855-6.674,2.491-13.278,4.355,3.5,1.691,6.859,10.392,9.344,13.4s6.057,5.8,9.868,5.075c1.031-4.128,3.634-6.7,7.3-8.789a23.612,23.612,0,0,1-12.245-8.025c-.867-1.031-1.48-3.531-.992-6.015" transform="translate(-16.204 -25.641)" fill="#fff"/>
            <path id="Trazado_1000518" data-name="Trazado 1000518" d="M177.923,225.223c-.313,6.4-1.185,7.936-4.192,9.722-.959.572-2.721.741-3.548,1.377-.235.18-.287-.067,0,0,3.471.819,7.608,2.84,10.829,4.4a24.745,24.745,0,0,1,5.151-12.848,43.017,43.017,0,0,0-8.24-2.653" transform="translate(-19.642 -26.025)" fill="#fff"/>
            <path id="Trazado_1000519" data-name="Trazado 1000519" d="M84.545,350.315l39.286-42.466a5.272,5.272,0,0,1,7.5-.263l28.32,26.7a5.391,5.391,0,0,1,.253,7.569l-39.291,42.468a5.27,5.27,0,0,1-7.5.264L84.8,357.887a5.393,5.393,0,0,1-.25-7.572" transform="translate(-9.604 -35.376)" fill="#448e61"/>
            <path id="Trazado_1000520" data-name="Trazado 1000520" d="M84.9,354.962l42.687-46.14,31.623,29.817-42.69,46.142Z" transform="translate(-9.811 -35.685)" fill="#fff"/>
            <path id="Trazado_1000521" data-name="Trazado 1000521" d="M137.256,320.649l4.973-5.377,16.811,15.849-4.977,5.376Z" transform="translate(-15.86 -36.43)" fill="#bddbbb"/>
            <path id="Trazado_1000522" data-name="Trazado 1000522" d="M126.961,319.858l.452-.489,28.2,26.6-.451.488Z" transform="translate(-14.671 -36.904)" fill="#bac9e7"/>
            <path id="Trazado_1000523" data-name="Trazado 1000523" d="M125.043,321.932l.453-.489,28.2,26.6-.452.486Z" transform="translate(-14.449 -37.143)" fill="#bac9e7"/>
            <path id="Trazado_1000524" data-name="Trazado 1000524" d="M123.224,323.9l.455-.487L151.881,350l-.452.492Z" transform="translate(-14.239 -37.371)" fill="#bac9e7"/>
            <path id="Trazado_1000525" data-name="Trazado 1000525" d="M116.544,331.121l.451-.489,28.2,26.595-.454.486Z" transform="translate(-13.467 -38.205)" fill="#bac9e7"/>
            <path id="Trazado_1000526" data-name="Trazado 1000526" d="M114.623,333.2l.454-.491,28.2,26.595-.451.488Z" transform="translate(-13.245 -38.445)" fill="#bac9e7"/>
            <path id="Trazado_1000527" data-name="Trazado 1000527" d="M112.807,335.16l.455-.491,28.2,26.6-.45.486Z" transform="translate(-13.035 -38.672)" fill="#bac9e7"/>
            <path id="Trazado_1000528" data-name="Trazado 1000528" d="M110.456,337.215l.45-.487,28.205,26.593-.453.49Z" transform="translate(-12.763 -38.91)" fill="#bac9e7"/>
            <path id="Trazado_1000529" data-name="Trazado 1000529" d="M108.536,339.29l.455-.487,28.2,26.594-.45.488Z" transform="translate(-12.542 -39.149)" fill="#bac9e7"/>
            <path id="Trazado_1000530" data-name="Trazado 1000530" d="M106.72,341.256l.452-.487,28.2,26.593-.451.486Z" transform="translate(-12.332 -39.377)" fill="#bac9e7"/>
            <path id="Trazado_1000531" data-name="Trazado 1000531" d="M96.8,352.256l1.924-2.078,26.929,25.392-1.921,2.078Z" transform="translate(-11.185 -40.464)" fill="#bac9e7"/>
            <path id="Trazado_1000532" data-name="Trazado 1000532" d="M103.69,344.854l1.586-1.712,6.6,6.223-1.583,1.71Z" transform="translate(-11.982 -39.651)" fill="#bac9e7"/>
            <path id="Trazado_1000533" data-name="Trazado 1000533" d="M116.514,379.64l1.832-1.978L124,382.993l-1.831,1.978Z" transform="translate(-13.463 -43.64)" fill="#bac9e7"/>
            <path id="Trazado_1000534" data-name="Trazado 1000534" d="M102.949,383.806a28.659,28.659,0,0,1,5.338,6.725c.84,1.47,8.044,9.41,14.147,7.948.892-.214.892-.214,1.482-1.121.736-1.126-.527-1.24-1.5-2.625,1.217,1.727,3.424,1.722,5.19.513,1.437-.98,1.057-2.958-.585-3.761a4.026,4.026,0,0,0,4.247-1.322c.912-.955.294-4.868-.473-5.937s-1.492,1.548-2,.879c-.165-.215-3.423-1.658.056-1.818a14.32,14.32,0,0,0,1.708-.3c2.545-.421,7.693-4.623,6-6.065-2.864-2.438-14.641.194-19.306-2.781a4.383,4.383,0,0,0-1.879-.849,3.972,3.972,0,0,0-2.852,1.411c-3.3,3.04-6.6,6.083-9.562,9.105" transform="translate(-11.896 -43.133)" fill="#ffb299"/>
            <path id="Trazado_1000535" data-name="Trazado 1000535" d="M113.432,236.069c-7.567-.241-12.9,6.941-18.1,12.489a472.725,472.725,0,0,0-33.922,40.487c-5.261,7.041-10.534,14.832-10.713,23.644-.138,6.749,2.772,13.177,6.089,19.045a125.219,125.219,0,0,0,39.633,42.573A79.912,79.912,0,0,1,116.4,356.14a135.659,135.659,0,0,0-29.421-42.754,78.022,78.022,0,0,0,33.844-49.068c1.075-5.086,1.625-10.421.308-15.442a26.125,26.125,0,0,0-6.774-11.443Z" transform="translate(-5.857 -27.278)" fill="#32436b"/>
            <path id="Trazado_1000536" data-name="Trazado 1000536" d="M83.979,324.156a10.6,10.6,0,0,0,5.324-.014" transform="translate(-9.704 -37.455)" fill="none" stroke="#232743" stroke-miterlimit="10" stroke-width="0.5"/>
            <path id="Trazado_1000537" data-name="Trazado 1000537" d="M85.335,319.541a8.542,8.542,0,0,0,4.125,2.9" transform="translate(-9.861 -36.924)" fill="none" stroke="#232743" stroke-miterlimit="10" stroke-width="0.5"/>
            <path id="Trazado_1000538" data-name="Trazado 1000538" d="M86.18,314.181c.665,2.677,2.417,4.931,4.126,7.091" transform="translate(-9.958 -36.304)" fill="none" stroke="#232743" stroke-miterlimit="10" stroke-width="0.5"/>
            <path id="Trazado_1000539" data-name="Trazado 1000539" d="M98.526,386.515c4.4-8.342,12.633-13.823,20.74-18.557" transform="translate(-11.385 -42.518)" fill="none" stroke="#232743" stroke-miterlimit="10" stroke-width="0.5"/>
            <line id="Línea_1126" data-name="Línea 1126" x2="2.438" y2="2.432" transform="translate(89.579 341.716)" fill="none" stroke="#232743" stroke-miterlimit="10" stroke-width="0.5"/>
            <path id="Trazado_1000540" data-name="Trazado 1000540" d="M102.832,384.019c.983.928,1.94,1.894,2.853,2.89" transform="translate(-11.882 -44.374)" fill="none" stroke="#232743" stroke-miterlimit="10" stroke-width="0.5"/>
            <path id="Trazado_1000541" data-name="Trazado 1000541" d="M105.345,381.7q1.479,1.3,2.849,2.715" transform="translate(-12.173 -44.106)" fill="none" stroke="#232743" stroke-miterlimit="10" stroke-width="0.5"/>
            <path id="Trazado_1000542" data-name="Trazado 1000542" d="M108.01,378.9c1.05.848,1.686,2.227,2.919,2.767" transform="translate(-12.481 -43.782)" fill="none" stroke="#232743" stroke-miterlimit="10" stroke-width="0.5"/>
            <path id="Trazado_1000543" data-name="Trazado 1000543" d="M111.455,375.761a26.956,26.956,0,0,1,2.259,2.886" transform="translate(-12.879 -43.42)" fill="none" stroke="#232743" stroke-miterlimit="10" stroke-width="0.5"/>
            <line id="Línea_1127" data-name="Línea 1127" x2="2.017" y2="3.092" transform="translate(101.412 330.36)" fill="none" stroke="#232743" stroke-miterlimit="10" stroke-width="0.5"/>
            <path id="Trazado_1000544" data-name="Trazado 1000544" d="M117.79,371.636q.856,1.339,1.709,2.674" transform="translate(-13.611 -42.943)" fill="none" stroke="#232743" stroke-miterlimit="10" stroke-width="0.5"/>
            <path id="Trazado_1000545" data-name="Trazado 1000545" d="M120.434,369.734q.824,1.34,1.778,2.6" transform="translate(-13.916 -42.723)" fill="none" stroke="#232743" stroke-miterlimit="10" stroke-width="0.5"/>
            <path id="Trazado_1000546" data-name="Trazado 1000546" d="M93.584,360.531c-6.207-2.561-11.116-6.311-14.357-12.272-1.476-2.715-2.733-5.588-4.457-8.161a29.373,29.373,0,0,0-7.061-7,18.1,18.1,0,0,1-7.078-13.973c-.431-10.348,4.4-18.869,11.013-26.435,3.327-3.806,6.889-7.42,10.023-11.394A49.94,49.94,0,0,0,89.9,265.429c2.119-6.359,6.225-10.881,10.559-15.853,4.085-4.69,8.246-9.363,13.862-12.2l-.888-1.3c-7.566-.241-12.9,6.941-18.1,12.489a472.6,472.6,0,0,0-33.923,40.488c-5.261,7.041-10.534,14.831-10.712,23.643-.138,6.749,2.772,13.177,6.089,19.045a125.216,125.216,0,0,0,39.632,42.573,79.955,79.955,0,0,1,8.64-9.383c-3.761-1.6-7.7-2.836-11.47-4.393" transform="translate(-5.857 -27.278)" fill="#232743"/>
            <path id="Trazado_1000547" data-name="Trazado 1000547" d="M245.827,271.006a124.9,124.9,0,0,0-30.046,9.426c-4.73,2.17-9.472,4.763-12.634,8.895-3.448,4.508-4.623,10.313-5.5,15.918a242.393,242.393,0,0,0-.355,72.4c.32,2.193.818,4.625,2.641,5.877a8.252,8.252,0,0,0,4.241,1.059c40.345,2.637,80.912,5.274,121.144,1.285-10.563-26.14-3.689-55.626-4.271-83.814-.079-3.717-.321-7.549-1.983-10.875-3.2-6.4-10.649-9.225-17.433-11.5-18.945-6.345-39.055-11.686-55.806-8.679" transform="translate(-22.504 -31.216)" fill="#fff"/>
            <path id="Trazado_1000548" data-name="Trazado 1000548" d="M319.983,363.043c-1.043-.575-2.133-1.051-3.228-1.528a26.361,26.361,0,0,0-4.631-1.5,51.314,51.314,0,0,0-9.683-1.083c-6.567-.236-13.147-.138-19.535-1.928-17.81-4.987-20.245-11.755-34.068-36.391-1.374-2.446-3.888-4.6-4.13-7.483A6.666,6.666,0,0,1,246,308.74a6.24,6.24,0,0,1,1.481-1.368c.591-.447,1.137-.951,1.734-1.394A23.574,23.574,0,0,1,266.41,301.3c3.379.487,6.946,1.574,10.367.845,3.157-.67,5.747-3.337,7.7-5.753a43.964,43.964,0,0,0,5.331-8.962,49.5,49.5,0,0,0,3.348-9.679s.006-.006.006-.012c.022-.25.054-.5.1-.739-16.383-5.034-33.131-8.556-47.433-5.993a124.927,124.927,0,0,0-30.046,9.427c-4.729,2.17-9.471,4.762-12.633,8.894-3.448,4.509-4.623,10.313-5.5,15.918a242.334,242.334,0,0,0-.358,72.4c.322,2.192.819,4.62,2.641,5.876a8.261,8.261,0,0,0,4.244,1.059c40.344,2.638,80.91,5.274,121.142,1.286a81.566,81.566,0,0,1-5.336-22.828" transform="translate(-22.504 -31.216)" fill="#bac9e7"/>
            <path id="Trazado_1000549" data-name="Trazado 1000549" d="M270.076,293.771q5.488,32.428,10.979,64.851" transform="translate(-31.208 -33.946)" fill="none" stroke="#2e4369" stroke-miterlimit="10" stroke-width="1"/>
            <path id="Trazado_1000550" data-name="Trazado 1000550" d="M240.373,320.816c.818,3.623,3.464,6.6,6.357,9.015s6.127,4.464,8.741,7.162c3.446,3.556,5.643,8.06,7.787,12.479" transform="translate(-27.776 -37.071)" fill="none" stroke="#2e4369" stroke-miterlimit="10" stroke-width="0.5"/>
            <path id="Trazado_1000551" data-name="Trazado 1000551" d="M242.983,343.617a87.821,87.821,0,0,0,12.816,12.45" transform="translate(-28.077 -39.706)" fill="none" stroke="#2e4369" stroke-miterlimit="10" stroke-width="0.5"/>
            <path id="Trazado_1000552" data-name="Trazado 1000552" d="M289.444,337.287c2.749,7.639,9.658,13.054,16.5,17.665" transform="translate(-33.446 -38.974)" fill="none" stroke="#2e4369" stroke-miterlimit="10" stroke-width="0.5"/>
            <path id="Trazado_1000553" data-name="Trazado 1000553" d="M299.394,303.642a58.128,58.128,0,0,1,9.727,17.394,7.932,7.932,0,0,0,1.76,3.324" transform="translate(-34.596 -35.086)" fill="none" stroke="#2e4369" stroke-miterlimit="10" stroke-width="0.5"/>
            <path id="Trazado_1000554" data-name="Trazado 1000554" d="M331.358,288.929a154.367,154.367,0,0,0-4.227,43.6,35.34,35.34,0,0,0,1.4,9.446c1.419,4.317,4.266,8.014,7.141,11.554a301.621,301.621,0,0,0,23.87,26.085,16.652,16.652,0,0,0,4.966,3.716,13.581,13.581,0,0,0,5.44.835c11.508-.172,23.183-6.725,34-2.831-5.3-11.216-10.644-22.5-17.837-32.626-5.235-7.378-11.4-14.06-17.538-20.717q-13.353-14.473-26.7-28.947a80.187,80.187,0,0,0-10.519-10.117" transform="translate(-37.782 -33.386)" fill="#fff"/>
            <path id="Trazado_1000555" data-name="Trazado 1000555" d="M380.891,382.085c-3.354-2.862-5.5-6.818-7.561-10.624-1.048-1.934-2.091-3.879-3.3-5.721a18.487,18.487,0,0,0-4.04-4.679,26.832,26.832,0,0,0-6.4-3.087,53.818,53.818,0,0,1-6.437-2.788,16.378,16.378,0,0,1-8.208-10.757c-1.134-4.718-.685-9.62-.615-14.416.042-2.862.185-5.713.087-8.577a88.308,88.308,0,0,0-.731-8.987,86.064,86.064,0,0,0-3.6-15.334,67.719,67.719,0,0,0-8.732-8.188,154.259,154.259,0,0,0-4.223,43.6,35.268,35.268,0,0,0,1.4,9.447c1.419,4.317,4.266,8.014,7.141,11.554a301.5,301.5,0,0,0,23.871,26.084,16.652,16.652,0,0,0,4.965,3.717,13.53,13.53,0,0,0,5.44.834,57.286,57.286,0,0,0,11.5-1.668c-.182-.143-.382-.264-.556-.415" transform="translate(-37.782 -33.386)" fill="#bac9e7"/>
            <path id="Trazado_1000556" data-name="Trazado 1000556" d="M251.522,255.811q.633,12.743,1.265,25.484a2.519,2.519,0,0,0,.267,1.221,3.793,3.793,0,0,0,1.41,1.137c3.453,1.994,7.8,2.078,11.454,4.383,2.945,1.855,5.727-.371,8.366-1.232a9.654,9.654,0,0,0,3.9-2.057c1.616-1.651,1.374-3.922,1.06-5.963q-1.856-12.037-3.712-24.069a135.668,135.668,0,0,0-24.01,1.095" transform="translate(-29.064 -29.415)" fill="#ff9c6e"/>
            <path id="Trazado_1000557" data-name="Trazado 1000557" d="M255.354,215.021c-3.921.562-7.064,3.7-8.588,7.284s-1.684,7.563-1.638,11.441c.089,7.407.991,15.168,5.28,21.274s12.87,9.849,19.7,6.67a15.551,15.551,0,0,0,6.342-5.781c3.461-5.369,4.158-11.952,4.767-18.269.51-5.276.926-10.972-1.89-15.495-2.427-3.9-6.934-6.209-11.524-7a42.147,42.147,0,0,0-12.451-.119" transform="translate(-28.324 -24.799)" fill="#ff9c6e"/>
            <path id="Trazado_1000558" data-name="Trazado 1000558" d="M254.7,233.754a4.693,4.693,0,0,0-4.165,2.813,11.519,11.519,0,0,1,8.348-.652,1.032,1.032,0,0,0-.2-1.3,2.422,2.422,0,0,0-1.237-.484,18.549,18.549,0,0,0-2.745-.375" transform="translate(-28.95 -27.011)" fill="#232743"/>
            <path id="Trazado_1000559" data-name="Trazado 1000559" d="M269.3,232.913a9.118,9.118,0,0,0-1.521.734.745.745,0,0,0-.448.556c-.025.479.616.565,1.045.479l2.646-.553a7.179,7.179,0,0,1,3.914-.074,2.751,2.751,0,0,0,1.669.373,1.961,1.961,0,0,0-1.13-1.5,4.948,4.948,0,0,0-1.82-.371,10.99,10.99,0,0,0-4.353.352" transform="translate(-30.89 -26.866)" fill="#232743"/>
            <path id="Trazado_1000560" data-name="Trazado 1000560" d="M255.1,238.17a1.318,1.318,0,1,1,1.315,1.289,1.3,1.3,0,0,1-1.315-1.289" transform="translate(-29.478 -27.372)" fill="#232743"/>
            <path id="Trazado_1000561" data-name="Trazado 1000561" d="M270.746,238.145a1.4,1.4,0,1,1,1.391,1.268,1.333,1.333,0,0,1-1.391-1.268" transform="translate(-31.285 -27.372)" fill="#232743"/>
            <path id="Trazado_1000562" data-name="Trazado 1000562" d="M263.259,235.605a11.428,11.428,0,0,1-2.043,6.818,7.794,7.794,0,0,0-1.623,2.883c-.187,1.088.616,2.427,1.744,2.291" transform="translate(-29.993 -27.225)" fill="none" stroke="#bb535d" stroke-miterlimit="10" stroke-width="0.5"/>
            <path id="Trazado_1000563" data-name="Trazado 1000563" d="M256.084,252.349a11.336,11.336,0,0,0,12.588-.167,8.235,8.235,0,0,1-2.022,3.969,5.5,5.5,0,0,1-4.082,1.734,6.2,6.2,0,0,1-4.028-2,16.856,16.856,0,0,1-2.457-3.538" transform="translate(-29.591 -29.14)" fill="#fff"/>
            <path id="Trazado_1000564" data-name="Trazado 1000564" d="M245.114,207.543c-12.681-.5-16.345,7.59-13.263,16.58,2.64,7.71,11.734,7.77,15,4.5,1.77-1.769,4.393-5.374,6.156-7.137,3.973-3.972,8.944-6.155,13.306-3.461a22.689,22.689,0,0,0,3.546,2.245c2.086.8,4.534.183,6.51,1.244,2.942,1.575,3.372,8.767,3.329,12.247,6.558,0,6.331-7.816,6.331-13.292,0-4.192.821-6.953-3-11.676-.8-.993-1.926-6.093-7.588-6.093-7.374,0-6.757-4.182-15.5-3.7-11,.6-6.276,8.884-14.829,8.546" transform="translate(-26.672 -22.99)" fill="#232743"/>
            <path id="Trazado_1000565" data-name="Trazado 1000565" d="M283.506,240.409a16.469,16.469,0,0,1,2.322-5.253,4.2,4.2,0,0,1,2.315-1.94,3.537,3.537,0,0,1,3.388,1.094,4.8,4.8,0,0,1,1.058,3.064,10.71,10.71,0,0,1-3.53,8.141c-.987.921-2.461,1.766-3.854,1.353-1.787-.534-1.942-2.56-1.774-4.137.148-1.408.3-2.813.076-2.322" transform="translate(-32.745 -26.938)" fill="#ff9c6e"/>
            <path id="Trazado_1000566" data-name="Trazado 1000566" d="M252.693,261.639a16.143,16.143,0,0,0,11.665,4.991,16.822,16.822,0,0,0,11.72-4.941,14.126,14.126,0,0,1-11.83,6.516,13.593,13.593,0,0,1-11.554-6.566" transform="translate(-29.199 -30.233)" fill="#bb535d"/>
            <path id="Trazado_1000567" data-name="Trazado 1000567" d="M250.4,270.148c-2.975,1.216-8.766,1.3-11.737,2.517a1.888,1.888,0,0,0-.9.587,1.909,1.909,0,0,0-.095,1.465,85.253,85.253,0,0,0,4.214,15.467c2.043,4.944,5.117,9.6,9.491,12.686A33.935,33.935,0,0,1,266.838,290.7c-8.525-4.742-15.924-10.653-16.443-20.556" transform="translate(-27.452 -31.216)" fill="#fff"/>
            <path id="Trazado_1000568" data-name="Trazado 1000568" d="M270.911,290.469c7.35-4.575,9.875-13.471,8.575-22.031,6.931,1.118,9.824,2.873,16.412,5.74-4.085,8.831-5.125,16.1-10.993,23.865-.418.556-.983,1.168-1.668,1.064a2.076,2.076,0,0,1-1.168-.9,26.581,26.581,0,0,0-11.157-7.742" transform="translate(-31.304 -31.019)" fill="#fff"/>
            <path id="Trazado_1000569" data-name="Trazado 1000569" d="M293.347,373.03c18.962,3.027,38.557-9.459,56.937-4.347a5.775,5.775,0,0,1,3.353,1.906c-4.328,5.333-12.144,2.086-17.239,3.139,3.549-.263,4.882,3.992,3.574,5.883-.818,1.183-2.4,1.928-2.889,3.248a7.212,7.212,0,0,0-.231,2.013c-.327,4.4-5.331,7.558-10.271,8.207s-9.916-.517-14.855-1.171a72.566,72.566,0,0,0-16.1-.328,2.739,2.739,0,0,1-2.129-.38,1.952,1.952,0,0,1-.469-1.089,41.043,41.043,0,0,1,.315-17.08" transform="translate(-33.774 -42.458)" fill="#ff9c6e"/>
            <path id="Trazado_1000570" data-name="Trazado 1000570" d="M301.661,373.863q.6,1.031,1.194,2.071" transform="translate(-34.858 -43.201)" fill="none" stroke="#2e4369" stroke-miterlimit="10" stroke-width="1"/>
            <path id="Trazado_1000571" data-name="Trazado 1000571" d="M300.231,374.3c-2.265,5.678-1.879,17.734,1.419,18.068,0,0,3.762.1,3.73-.282-.524-6.137-1.517-11.14.938-18.229-1.749.164-4.679.212-6.087.444" transform="translate(-34.527 -43.2)" fill="#32436b"/>
            <path id="Trazado_1000572" data-name="Trazado 1000572" d="M298.434,375.788a4.221,4.221,0,1,1,4.211,3.933,4.077,4.077,0,0,1-4.211-3.933" transform="translate(-34.485 -42.969)" fill="#232743"/>
            <path id="Trazado_1000573" data-name="Trazado 1000573" d="M299.388,375.72a3.371,3.371,0,1,1,3.367,3.228,3.3,3.3,0,0,1-3.367-3.228" transform="translate(-34.595 -43.042)" fill="#fff"/>
            <path id="Trazado_1000574" data-name="Trazado 1000574" d="M303.888,373.761a15.581,15.581,0,0,1-.943,2.593c.011,0-.078-.056-.067-.056l-1.618-1.695" transform="translate(-34.811 -43.189)" fill="none" stroke="#2e4369" stroke-linecap="round" stroke-miterlimit="10" stroke-width="0.5"/>
            <path id="Trazado_1000575" data-name="Trazado 1000575" d="M300.984,374.383a12.657,12.657,0,0,1,1.78,1.709l.149.1" transform="translate(-34.779 -43.261)" fill="none" stroke="#2e4369" stroke-miterlimit="10" stroke-width="0.5"/>
            <path id="Trazado_1000576" data-name="Trazado 1000576" d="M195.277,293.41c-30.744,27.72-16.778,75.249-8,86.621,3.048,3.94,8.848,5.99,13.74,6.938,36.277,7.017,51.578,3.751,75.249-1a8.606,8.606,0,0,0,2.615-.62c2.805-1.577,1.838-5.729,1.129-8.87a23.278,23.278,0,0,1,2.163-15.955C264.755,355.9,246,358.277,228.7,353.221a7.821,7.821,0,0,1-2.809-1.271c-2.1-1.714-2.031-4.886-1.806-7.588.907-10.844,1.269-21.957-1.77-32.408s-4.388-22.419-14.5-26.437c0,0-8.278,4.053-12.539,7.893" transform="translate(-20.381 -32.992)" fill="#fff"/>
            <path id="Trazado_1000577" data-name="Trazado 1000577" d="M277.111,368.883a43.736,43.736,0,0,0-6.96,15.621c-.16.712,6.269,3,10.312,2.912,2.87-.065,5.883-1.282,7.341-3.755" transform="translate(-31.216 -42.625)" fill="none" stroke="#2e4369" stroke-miterlimit="10" stroke-width="1"/>
            <path id="Trazado_1000578" data-name="Trazado 1000578" d="M271.377,391.24a12.335,12.335,0,0,0,.348,7.946" transform="translate(-31.301 -45.209)" fill="none" stroke="#2e4369" stroke-miterlimit="10" stroke-width="1"/>
            <path id="Trazado_1000579" data-name="Trazado 1000579" d="M280.372,381.117a1.615,1.615,0,1,1,1.617,1.615,1.616,1.616,0,0,1-1.617-1.615" transform="translate(-32.398 -43.852)" fill="#32436b"/>
            <path id="Trazado_1000580" data-name="Trazado 1000580" d="M225.855,360.613a26.765,26.765,0,0,0-14.543,5" transform="translate(-24.418 -41.67)" fill="none" stroke="#2e4369" stroke-miterlimit="10" stroke-width="0.7"/>
            <path id="Trazado_1000581" data-name="Trazado 1000581" d="M229.592,362.552a23.7,23.7,0,0,0-10.5,8.393" transform="translate(-25.317 -41.894)" fill="none" stroke="#2e4369" stroke-miterlimit="10" stroke-width="0.7"/>
            <path id="Trazado_1000582" data-name="Trazado 1000582" d="M232.172,364.474a17.678,17.678,0,0,0-5.58,5.716" transform="translate(-26.183 -42.116)" fill="none" stroke="#2e4369" stroke-miterlimit="10" stroke-width="0.7"/>
            <path id="Trazado_1000583" data-name="Trazado 1000583" d="M360.257,324.992l-17.4,69.041,91.852-.524,17.455-65.969a9.862,9.862,0,0,0-8.992-12.37l-64.734-3.564a17.749,17.749,0,0,0-18.185,13.386" transform="translate(-39.618 -36.004)" fill="#32436b"/>
            <path id="Trazado_1000584" data-name="Trazado 1000584" d="M428.669,389.2c-2.595-1.7-5.321-3.206-7.746-5.153a12.992,12.992,0,0,1-3-3.272c-.776-1.244-1.416-2.566-2.07-3.875-1.267-2.519-2.6-4.915-4.99-6.535a16.771,16.771,0,0,0-7.293-2.557c-1.406-.185-2.807-.18-4.219-.245-1.711-.083-3.412-.256-5.125-.3a58.294,58.294,0,0,1-10.191-.78,16.2,16.2,0,0,1-6.63-3.347,11.313,11.313,0,0,1-3.851-5.637,18.606,18.606,0,0,1-.528-3.883,13.279,13.279,0,0,1,.909-4.649,22.29,22.29,0,0,1,.768-2.274c.27-.627.547-1.247.833-1.869q.927-2.023,1.965-3.992a74.341,74.341,0,0,1,4.48-7.443,58.844,58.844,0,0,1,11.6-12.686,47.289,47.289,0,0,1,13.185-7.537l-28.324-1.559a17.748,17.748,0,0,0-18.185,13.385l-17.4,69.041,89.973-.509a14.838,14.838,0,0,0-4.166-4.322" transform="translate(-39.618 -36.004)" fill="#232743"/>
            <rect id="Rectángulo_412794" data-name="Rectángulo 412794" width="53.349" height="6.165" transform="translate(252.1 351.863)" fill="#32436b"/>
            <path id="Trazado_1000585" data-name="Trazado 1000585" d="M419.1,338.138s-5.584,1.781-7.113,5.362,1,8.293,2.976,7.655a7.32,7.32,0,0,0,4.461-4.75c.819-2.388-.325-8.266-.325-8.266" transform="translate(-47.552 -39.073)" fill="#8ab375"/>
            <path id="Trazado_1000586" data-name="Trazado 1000586" d="M431.3,352.741s-3.643-3.235-7.75-2.753-8.022,4.386-6.72,5.524,3.585,1.581,6.259,1.116,8.211-3.887,8.211-3.887" transform="translate(-48.136 -40.436)" fill="#8ab375"/>
            <path id="Trazado_1000587" data-name="Trazado 1000587" d="M401.21,347.808s.823,4.56,3.676,6.38,7.185.786,6.884-.831a6.519,6.519,0,0,0-3.486-4.258c-1.931-1.064-7.073-1.29-7.073-1.29" transform="translate(-46.361 -40.19)" fill="#8ab375"/>
            <path id="Trazado_1000588" data-name="Trazado 1000588" d="M436.162,321.043q7.167.316,14.313.986a5.628,5.628,0,0,1,3.6,1.218,4.694,4.694,0,0,1,1.033,3.572,25.891,25.891,0,0,1-1.21,5.953q-3.063,10.67-6.124,21.336" transform="translate(-50.399 -37.097)" fill="none" stroke="#232743" stroke-miterlimit="10" stroke-width="1"/>
          </g>
        </g>
      </g>
    </g>
  </g>
</svg>
