<svg xmlns="http://www.w3.org/2000/svg" xmlns:xlink="http://www.w3.org/1999/xlink" width="505" height="349" viewBox="0 0 505 349">
  <defs>
    <clipPath id="clip-path">
      <rect id="Rectángulo_413544" data-name="Rectángulo 413544" width="505" height="349" transform="translate(180 1309)" fill="#fff" stroke="#707070" stroke-width="1"/>
    </clipPath>
  </defs>
  <g id="Enmascarar_grupo_1098779" data-name="Enmascarar grupo 1098779" transform="translate(-180 -1309)" clip-path="url(#clip-path)">
    <g id="Grupo_1167537" data-name="Grupo 1167537" transform="translate(215.874 1309.492)">
      <g id="OBJECT" transform="translate(0 0)">
        <g id="Grupo_1167515" data-name="Grupo 1167515" transform="translate(15.697 10.087)">
          <g id="Grupo_1167511" data-name="Grupo 1167511" transform="translate(0)">
            <ellipse id="Elipse_11733" data-name="Elipse 11733" cx="194.723" cy="192.464" rx="194.723" ry="192.464" fill="#f9f68a"/>
            <ellipse id="Elipse_11734" data-name="Elipse 11734" cx="136.101" cy="132.007" rx="136.101" ry="132.007" transform="translate(61.684 45.443)" fill="#dcdb22"/>
            <path id="Trazado_1005062" data-name="Trazado 1005062" d="M143.363,165.8s-3.872-1.367-2.278-5.125,7.4-2.05,7.4-2.05-.2-6.326,6.974-7.123,7.831,6.326,7.831,6.326a14.951,14.951,0,0,1,3.172-.175c5.22.266,4.9,8.147-.326,8.147Z" transform="translate(139.507 -73.286)" fill="#a2c037"/>
            <path id="Trazado_1005063" data-name="Trazado 1005063" d="M360.715,205.279s-3.872-1.367-2.278-5.125,7.4-2.05,7.4-2.05-.2-6.326,6.974-7.123,7.831,6.326,7.831,6.326a14.951,14.951,0,0,1,3.172-.175c5.22.266,4.9,8.147-.326,8.147Z" transform="translate(-295.197 -73.286)" fill="#a2c037"/>
            <path id="Trazado_1005064" data-name="Trazado 1005064" d="M222.15,209.926s-3.189-1.125-1.876-4.221,6.1-1.688,6.1-1.688-.165-5.21,5.743-5.867,6.449,5.21,6.449,5.21a12.329,12.329,0,0,1,2.613-.144c4.3.219,4.036,6.709-.269,6.709H222.15Z" transform="translate(-13.798 -73.286)" fill="#a2c037"/>
            <g id="Grupo_1167510" data-name="Grupo 1167510" transform="translate(52.249 68.384)">
              <path id="Trazado_1005065" data-name="Trazado 1005065" d="M385.5,166.215l4.613-.788s-.721,3.691-1.124,7.247h-7.348c-.4-3.556-.755-7.247-.755-7.247Z" transform="translate(-372.811 -141.67)" fill="#4d8c3f"/>
              <path id="Trazado_1005066" data-name="Trazado 1005066" d="M372.81,154.36a12.684,12.684,0,0,0,10.23,12.44,12.338,12.338,0,0,0,2.45.24,12.48,12.48,0,0,0,2.04-.17,12.684,12.684,0,0,0,1.14-24.8,12.828,12.828,0,0,0-3.18-.4,12.5,12.5,0,0,0-3.48.49A12.685,12.685,0,0,0,372.81,154.36Z" transform="translate(-372.81 -141.67)" fill="#a2c037"/>
              <path id="Trazado_1005067" data-name="Trazado 1005067" d="M385.267,172.674h4.1l-1.532,1.359h-4.3l-1.532-1.359Z" transform="translate(-373.192 -141.67)" fill="#a2c037"/>
              <path id="Trazado_1005068" data-name="Trazado 1005068" d="M383.052,166.8a12.338,12.338,0,0,0,2.45.24,12.48,12.48,0,0,0,2.04-.17c1.14-2.65,3.44-8.86,3.17-15.23a25.775,25.775,0,0,0-2.03-9.57,12.828,12.828,0,0,0-3.18-.4,12.5,12.5,0,0,0-3.48.49,34.011,34.011,0,0,0-1.73,10.13A34.357,34.357,0,0,0,383.052,166.8Z" transform="translate(-372.822 -141.67)" fill="#dcdb22"/>
            </g>
            <circle id="Elipse_11735" data-name="Elipse 11735" cx="16.16" cy="16.16" r="16.16" transform="translate(227.083 64.048)" fill="#f9f68a"/>
          </g>
          <g id="Grupo_1167514" data-name="Grupo 1167514" transform="translate(13.676 132.769)">
            <path id="Trazado_1005069" data-name="Trazado 1005069" d="M84.9,222.254v-16.2H99.663v16.2h13.688v32.358h48.425v27.426H268.722v-35.6h3.258v-7.247h15.1v7.247h14.658v38.483h26.726V301.1h79.886V284.924h3.445v-8.086h12.234v8.086h12.726v77.9l-357.758.31V222.254Z" transform="translate(-78.995 -206.055)" fill="#a2c037"/>
            <rect id="Rectángulo_413521" data-name="Rectángulo 413521" width="4.429" height="4.429" transform="translate(349.593 83.738)" fill="#f9f68a"/>
            <rect id="Rectángulo_413522" data-name="Rectángulo 413522" width="4.429" height="4.429" transform="translate(345.879 91.166)" fill="#f9f68a"/>
            <rect id="Rectángulo_413523" data-name="Rectángulo 413523" width="4.429" height="4.429" transform="translate(337.676 91.166)" fill="#f9f68a"/>
            <rect id="Rectángulo_413524" data-name="Rectángulo 413524" width="4.429" height="4.429" transform="translate(341.45 83.738)" fill="#f9f68a"/>
            <rect id="Rectángulo_413525" data-name="Rectángulo 413525" width="4.428" height="4.429" transform="translate(333.308 83.738)" fill="#f9f68a"/>
            <rect id="Rectángulo_413526" data-name="Rectángulo 413526" width="25.462" height="3.322" transform="translate(193.914 45.131)" fill="#dcdb22"/>
            <rect id="Rectángulo_413527" data-name="Rectángulo 413527" width="25.462" height="3.322" transform="translate(193.914 51.131)" fill="#dcdb22"/>
            <rect id="Rectángulo_413528" data-name="Rectángulo 413528" width="3.801" height="7.429" transform="translate(27.078 21.024)" fill="#f9f68a"/>
            <rect id="Rectángulo_413529" data-name="Rectángulo 413529" width="3.801" height="7.429" transform="translate(21.243 21.024)" fill="#f9f68a"/>
            <rect id="Rectángulo_413530" data-name="Rectángulo 413530" width="3.801" height="7.429" transform="translate(15.407 21.024)" fill="#f9f68a"/>
            <rect id="Rectángulo_413531" data-name="Rectángulo 413531" width="3.801" height="7.429" transform="translate(9.572 21.024)" fill="#f9f68a"/>
            <rect id="Rectángulo_413532" data-name="Rectángulo 413532" width="3.801" height="7.429" transform="translate(3.736 21.024)" fill="#f9f68a"/>
            <rect id="Rectángulo_413533" data-name="Rectángulo 413533" width="3.801" height="7.429" transform="translate(27.078 30.809)" fill="#f9f68a"/>
            <rect id="Rectángulo_413534" data-name="Rectángulo 413534" width="3.801" height="7.429" transform="translate(21.243 30.809)" fill="#f9f68a"/>
            <rect id="Rectángulo_413535" data-name="Rectángulo 413535" width="3.801" height="7.429" transform="translate(15.407 30.809)" fill="#f9f68a"/>
            <rect id="Rectángulo_413536" data-name="Rectángulo 413536" width="3.801" height="7.429" transform="translate(9.572 30.809)" fill="#f9f68a"/>
            <rect id="Rectángulo_413537" data-name="Rectángulo 413537" width="3.801" height="7.429" transform="translate(3.736 30.809)" fill="#f9f68a"/>
            <rect id="Rectángulo_413538" data-name="Rectángulo 413538" width="3.801" height="7.429" transform="translate(27.078 40.595)" fill="#f9f68a"/>
            <rect id="Rectángulo_413539" data-name="Rectángulo 413539" width="3.801" height="7.429" transform="translate(21.243 40.595)" fill="#f9f68a"/>
            <rect id="Rectángulo_413540" data-name="Rectángulo 413540" width="3.801" height="7.429" transform="translate(15.407 40.595)" fill="#f9f68a"/>
            <rect id="Rectángulo_413541" data-name="Rectángulo 413541" width="3.801" height="7.429" transform="translate(9.572 40.595)" fill="#f9f68a"/>
            <rect id="Rectángulo_413542" data-name="Rectángulo 413542" width="3.801" height="7.429" transform="translate(3.736 40.595)" fill="#f9f68a"/>
            <g id="Grupo_1167512" data-name="Grupo 1167512" transform="translate(3.319 55.408)">
              <path id="Trazado_1005070" data-name="Trazado 1005070" d="M408.592,348.114h5.219l-1.474-64.563H409.8Z" transform="translate(-388.969 -261.463)" fill="#025256"/>
              <path id="Trazado_1005071" data-name="Trazado 1005071" d="M388.471,285.807s2.609,3.263,3.9,3.8c1.005.417,11.613,1.542,16.317,2.025a1.273,1.273,0,0,0,1.285-1.8h0a1.273,1.273,0,0,0-.781-.682l-20.4-6.277Z" transform="translate(-365.134 -261.463)" fill="#ffb43f"/>
              <path id="Trazado_1005072" data-name="Trazado 1005072" d="M410.7,283.585s2.526-3.327,2.73-4.714c.158-1.076-1.345-11.637-2.026-16.317a1.273,1.273,0,0,0-2.062-.8h0a1.269,1.269,0,0,0-.47.924l-1.1,21.313Z" transform="translate(-387.774 -261.463)" fill="#ffb43f"/>
              <path id="Trazado_1005073" data-name="Trazado 1005073" d="M432.161,284.271s-3.939-1.392-5.322-1.163c-1.073.177-10.674,4.828-14.923,6.9a1.273,1.273,0,0,0-.138,2.209h0a1.274,1.274,0,0,0,1.023.166l20.633-5.45Z" transform="translate(-411.202 -261.463)" fill="#ffb43f"/>
              <circle id="Elipse_11736" data-name="Elipse 11736" cx="4.216" cy="4.216" r="4.216" transform="translate(17.811 19.261)" fill="#ffe1b8"/>
            </g>
            <path id="Trazado_1005074" data-name="Trazado 1005074" d="M379.771,329.475a16.8,16.8,0,0,1,13.821,7.24,14.2,14.2,0,1,1-1.469,21,16.823,16.823,0,1,1-12.352-28.236Z" transform="translate(-342.747 -206.055)" fill="#4d8c3f"/>
            <path id="Trazado_1005075" data-name="Trazado 1005075" d="M99.231,325.353a17.286,17.286,0,0,1,14.682,8.168,14.564,14.564,0,1,1-1.787,20.673,17.306,17.306,0,1,1-12.9-28.841Z" transform="translate(217.089 -206.055)" fill="#4d8c3f"/>
            <g id="Grupo_1167513" data-name="Grupo 1167513" transform="translate(344.966 34.832)">
              <path id="Trazado_1005076" data-name="Trazado 1005076" d="M66.945,327.538h5.219L70.69,262.975H68.153Z" transform="translate(-47.322 -240.887)" fill="#025256"/>
              <path id="Trazado_1005077" data-name="Trazado 1005077" d="M46.825,265.231s2.609,3.263,3.9,3.8c1.005.417,11.613,1.542,16.317,2.025a1.273,1.273,0,0,0,1.285-1.8h0a1.273,1.273,0,0,0-.781-.682l-20.4-6.277Z" transform="translate(-23.488 -240.887)" fill="#ffb43f"/>
              <path id="Trazado_1005078" data-name="Trazado 1005078" d="M69.05,263.009s2.526-3.327,2.73-4.714c.158-1.076-1.345-11.637-2.027-16.317a1.273,1.273,0,0,0-2.062-.8h0a1.273,1.273,0,0,0-.47.924l-1.1,21.313Z" transform="translate(-46.129 -240.887)" fill="#ffb43f"/>
              <path id="Trazado_1005079" data-name="Trazado 1005079" d="M90.514,263.694s-3.939-1.392-5.322-1.163c-1.073.177-10.674,4.828-14.923,6.9a1.273,1.273,0,0,0-.138,2.209h0a1.274,1.274,0,0,0,1.023.166l20.633-5.45Z" transform="translate(-69.555 -240.887)" fill="#ffb43f"/>
              <circle id="Elipse_11737" data-name="Elipse 11737" cx="4.216" cy="4.216" r="4.216" transform="translate(17.811 19.261)" fill="#ffe1b8"/>
            </g>
          </g>
        </g>
        <g id="Grupo_1167536" data-name="Grupo 1167536" transform="translate(0 45.909)">
          <g id="Grupo_1167528" data-name="Grupo 1167528">
            <g id="Grupo_1167526" data-name="Grupo 1167526" transform="translate(77.38)">
              <g id="Grupo_1167523" data-name="Grupo 1167523" transform="translate(0)">
                <path id="Trazado_1005080" data-name="Trazado 1005080" d="M178.422,240.8l39.628,83.743,59.011,13.42,1.074,28.988-83.609-10.2s-13.42-2.818-24.828-24.962S178.422,240.8,178.422,240.8Z" transform="translate(-55.588 -109.108)" fill="#025256"/>
                <path id="Trazado_1005081" data-name="Trazado 1005081" d="M326.3,203.16s-2.214,2.013-4.63,10.065a57.863,57.863,0,0,0-2.617,12.481s-10.468-4.5-14.9-11.139-9.864-13.89-9.864-13.89,8.052-12.213,8.455-18.05l8.656-1.208Z" transform="translate(-231.854 -109.108)" fill="#ff9279"/>
                <path id="Trazado_1005082" data-name="Trazado 1005082" d="M261.734,158c3.692.154,6.28,4.406,7.818,8.01.01-.567.017-1.134.033-1.7.4-14.695,22.144-38.047,38.047-36.638s22.061,20.362,20.8,29.995c0,0-1.393,16.736-6.023,29.821s-11.96,22.116-18.4,23.726-14.494-2.214-23.955-9.864c-5.258-4.251-9.461-16.373-9.461-16.373s-16.239-2.818-17.715-12.883C251.513,162.793,255.292,157.732,261.734,158Z" transform="translate(-192.447 -109.108)" fill="#ff9279"/>
                <path id="Trazado_1005083" data-name="Trazado 1005083" d="M248.1,211.58c16.71-4.87,16.51-7.41,21.95-10.9s8.45-18.05,8.45-18.05c-7.85-3.14-8.45-7.85-8.45-7.85,3.02-6.45,11.07-7.45,11.07-7.45.4,5.23,3.02,11.88,4.93,9.66s.5-11.47,3.52-14.09,9.06-.6,22.35-9.86a37.046,37.046,0,0,0,15.3-22.75c8.69,2.44,18.52,19.52,13.83,43.99-2.96,15.47-8.27,25.57-13.69,31.32-3.16,3.35-6.35,5.21-9.14,5.8-7.58,1.6-17.67-6.05-17.67-6.05-4.13,5.81-5.74,20.36-5.74,20.36,5.77,10.32,23.11,18.36,27.54,20.3.67.28,1.04.43,1.04.43l4.03-8.25s9.06-24.96,17.51-51.94,9.73-49.52-10.6-65.42-33.46-11.01-33.46-11.01-35.03-3.82-47.91,30.6S248.1,211.58,248.1,211.58Z" transform="translate(-207.607 -109.108)" fill="#025256"/>
                <path id="Trazado_1005084" data-name="Trazado 1005084" d="M268.99,225.71c5.77,10.32,23.11,18.36,27.54,20.3a19.516,19.516,0,0,0,.39-4.19c-.01-9.87,2.01-23.19,4.62-36.22-3.16,3.35-6.35,5.21-9.14,5.8-7.58,1.6-17.67-6.05-17.67-6.05C270.6,211.16,268.99,225.71,268.99,225.71Z" transform="translate(-181.784 -109.108)" fill="#003534"/>
                <path id="Trazado_1005085" data-name="Trazado 1005085" d="M344.189,215.943a173.548,173.548,0,0,0,13.588,10.87C373.418,238.333,376.5,240.8,376.5,240.8s7.046,40.865,5.435,50.93-14.091,65.022-14.091,65.022H271.215s-2.416-48.112-2.416-49.924-10.468-67.437-8.254-73.275,5.838-7.851,5.838-7.851l49.722-25.029s15.7,20.4,20.735,22.412S344.189,215.943,344.189,215.943Z" transform="translate(-253.664 -109.108)" fill="#005c66"/>
                <path id="Trazado_1005086" data-name="Trazado 1005086" d="M286.318,206.055s29.568,55.409,38.462,131.913c0,0,8.857-27.109,11.542-56.634s-3.654-59.08-3.654-59.08l-5.97-4.885-6.749,5.62L293.717,202.33Z" transform="translate(-234.557 -109.108)" fill="#e0bb96"/>
                <path id="Trazado_1005087" data-name="Trazado 1005087" d="M326.6,211.1a43.577,43.577,0,0,1,2.367,8.673,32.275,32.275,0,0,1,.4,10.166l-7.952-5.234-13.286,7.046s-5.737-10.87-9.361-19.426-3.283-9.99-3.283-9.99l5.447-3.738s16.55,22.635,20.886,23.29C323.6,222.15,326.6,211.1,326.6,211.1Z" transform="translate(-236.333 -109.108)" fill="#ffddb8"/>
                <path id="Trazado_1005088" data-name="Trazado 1005088" d="M301.966,275.48,298.523,292l26.4,64.755H332.7l-4.154-46.141-7.528-32.68Z" transform="translate(-242.481 -109.108)" fill="#034949"/>
                <path id="Trazado_1005089" data-name="Trazado 1005089" d="M309.942,212.47l5.846,62.422s11.676-1.074,33.942,3.825l-24.791-73.8Z" transform="translate(-270.926 -109.108)" fill="#025256"/>
                <path id="Trazado_1005090" data-name="Trazado 1005090" d="M278.4,228.551s11.4,33.726,14.083,45.268l-19.377,13.152-4.911-66.285Z" transform="translate(-171.93 -109.108)" fill="#025256"/>
                <path id="Trazado_1005091" data-name="Trazado 1005091" d="M293.44,279.5l5.083,16.606-16.57,60.647H271.485V337.968l10.953-51Z" transform="translate(-181.262 -109.108)" fill="#025256"/>
                <path id="Trazado_1005092" data-name="Trazado 1005092" d="M261.723,224.7s9.394,3.9,13.689,15.908,19.325,79.877,19.325,79.877l83.944-22.445,10.065,24.9s-90.028,40.8-108.392,35.967-36.749-83.609-34.6-103.739S253.4,224.7,261.723,224.7Z" transform="translate(-245.581 -109.108)" fill="#016d72"/>
                <g id="Grupo_1167516" data-name="Grupo 1167516" transform="translate(136.213 159.074)">
                  <path id="Trazado_1005093" data-name="Trazado 1005093" d="M222.871,280.391s2.648,8.343,2.036,11.4-2.282,3.628-2.282,3.628l-4.98-13.37Z" transform="translate(-190.111 -268.183)" fill="#4d8c3f"/>
                  <path id="Trazado_1005094" data-name="Trazado 1005094" d="M215.175,272.61l3.075-.674a1.406,1.406,0,0,1,1.7,1.459l-.446,7.291-4.453.976Z" transform="translate(-182.479 -268.183)" fill="#4d8c3f"/>
                  <path id="Trazado_1005095" data-name="Trazado 1005095" d="M218.691,281.71a3.852,3.852,0,0,0,1.89,2.6,34.547,34.547,0,0,1,5.21,3.38l25.65-6.03,1.05-7.11v-.01a3.845,3.845,0,0,0-2.32-4.11l-4.59-1.94a3.881,3.881,0,0,0-2.33-.22l-20.27,4.44a3.872,3.872,0,0,0-2.87,2.66l-1.34,4.46A3.76,3.76,0,0,0,218.691,281.71Z" transform="translate(-218.608 -268.183)" fill="#dcdb22"/>
                  <path id="Trazado_1005096" data-name="Trazado 1005096" d="M229.064,292.441l14.274-3.127a2.812,2.812,0,0,0,2.145-3.349l-.663-3.027-19.769,4.331.663,3.027A2.813,2.813,0,0,0,229.064,292.441Z" transform="translate(-218.067 -268.183)" fill="#4d8c3f"/>
                  <path id="Trazado_1005097" data-name="Trazado 1005097" d="M226.609,288.716a17.8,17.8,0,0,0,6.7,9.461c5.335,3.754,7.445,3.087,11.1,11.824a38.106,38.106,0,0,1,2.617,11.909,7.942,7.942,0,0,1-6.249,8.271l-21.442,4.7a7.965,7.965,0,0,1-9.081-4.768c-2-4.893-4.426-11.589-4.7-15.8-.467-7.282,4.053-21.867,4.053-21.867Z" transform="translate(-200.033 -268.183)" fill="#fffeee"/>
                  <rect id="Rectángulo_413543" data-name="Rectángulo 413543" width="2.805" height="33.562" transform="translate(27.02 52.689) rotate(167.643)" fill="#4d8c3f"/>
                </g>
                <path id="Trazado_1005098" data-name="Trazado 1005098" d="M217.332,298.04l1.84,4.52,6.11,15.01,3.3-1.2a18.163,18.163,0,0,0,6.49-.83,44.584,44.584,0,0,0,8.75-3.77l6.41,1.46a2.219,2.219,0,0,0,.51.06,2.314,2.314,0,0,0,1.57-.62.031.031,0,0,0,.01-.02,2.171,2.171,0,0,0,.59-.86,2.31,2.31,0,0,0-1.08-2.86l-1.75-.93h2a2.8,2.8,0,0,0,1.02-5.4l-2.2-.86,2.18-.22a2.832,2.832,0,0,0,2.54-2.51l.01-.06a2.768,2.768,0,0,0-1.91-2.95,102.787,102.787,0,0,0-10.88-2.41l1.17-.18c.14-.02.29-.05.45-.07l.54-.08c.18-.03.36-.06.56-.09l2.57-.39c.9-.14,1.81-.28,2.63-.4l.33-.07a3.265,3.265,0,0,0,2.1-1.69c0-.01.02-.02.02-.02a3.351,3.351,0,0,0,.33-1.99l-.01-.08a3.253,3.253,0,0,0-3.35-2.79l-12.76.52a15.964,15.964,0,0,0-9.02,3.27Z" transform="translate(-84.236 -109.108)" fill="#ff9279"/>
                <path id="Trazado_1005099" data-name="Trazado 1005099" d="M271.727,174.323a20.45,20.45,0,0,0-.5,8.742s4.154.992,3.348,4.154-6.572,2.418-6.572,2.418,3.72-.992,4.464-2.852-3.1-3.1-3.1-3.1S268.441,177.672,271.727,174.323Z" transform="translate(-153.944 -109.108)" fill="#a0625c"/>
                <path id="Trazado_1005100" data-name="Trazado 1005100" d="M260.577,173.866c-.5,2.11-.134,4,.813,4.225s2.118-1.306,2.616-3.416.134-4-.813-4.225S261.075,171.756,260.577,173.866Z" transform="translate(-135.837 -109.108)" fill="#025256"/>
                <path id="Trazado_1005101" data-name="Trazado 1005101" d="M281.11,170.077c-.5,2.11-.134,4,.813,4.225s2.118-1.306,2.616-3.416.134-4-.813-4.225S281.608,167.967,281.11,170.077Z" transform="translate(-176.903 -109.108)" fill="#025256"/>
                <path id="Trazado_1005102" data-name="Trazado 1005102" d="M286.7,194.353s-.956.151-5.586-1.107-5.586-1.862-5.586-1.862.956,2.818,5.335,4.026S286.7,194.353,286.7,194.353Z" transform="translate(-173.474 -109.108)" fill="#fff"/>
                <path id="Trazado_1005103" data-name="Trazado 1005103" d="M263.4,164.761s-.1-1.711-2.567-2.617a6.693,6.693,0,0,0-4.58,0,4.628,4.628,0,0,1,4.328-2.013C263.295,160.584,263.6,162.95,263.4,164.761Z" transform="translate(-130.948 -109.108)" fill="#025256"/>
                <path id="Trazado_1005104" data-name="Trazado 1005104" d="M283.954,160.268s-.3-1.887-3.141-2.616a7.459,7.459,0,0,0-5.08.513s1.51-2.916,4.576-2.718S283.975,158.236,283.954,160.268Z" transform="translate(-170.942 -109.108)" fill="#025256"/>
                <path id="Trazado_1005105" data-name="Trazado 1005105" d="M307.417,205.35a34.4,34.4,0,0,1-11.6-12.9s-.691,12.513,9.33,17.5A37.638,37.638,0,0,1,307.417,205.35Z" transform="translate(-214.474 -109.108)" fill="#a0625c"/>
                <path id="Trazado_1005106" data-name="Trazado 1005106" d="M252.473,172.135c-1.393,5.9,1.023,11.524,5.4,12.556s9.049-2.915,10.442-8.818-1.023-11.524-5.4-12.556S253.866,166.232,252.473,172.135Z" transform="translate(-132.038 -109.108)" fill="none" stroke="#fff" stroke-miterlimit="10" stroke-width="1"/>
                <path id="Trazado_1005107" data-name="Trazado 1005107" d="M275.112,167.619c-1.393,5.9,1.337,11.6,6.1,12.722s9.751-2.75,11.144-8.652-1.337-11.6-6.1-12.722S276.506,161.716,275.112,167.619Z" transform="translate(-178.721 -109.108)" fill="none" stroke="#fff" stroke-miterlimit="10" stroke-width="1"/>
                <path id="Trazado_1005108" data-name="Trazado 1005108" d="M275.112,173.224s-.731-2.121-6.586-1.535" transform="translate(-154.892 -109.108)" fill="none" stroke="#fff" stroke-miterlimit="10" stroke-width="1"/>
                <path id="Trazado_1005109" data-name="Trazado 1005109" d="M291.98,167.328s13.792-2.608,23.252-1" transform="translate(-218.466 -109.108)" fill="none" stroke="#fff" stroke-miterlimit="10" stroke-width="1"/>
                <path id="Trazado_1005110" data-name="Trazado 1005110" d="M272.714,109.822s14.77,4.893,22.77,14.75" transform="translate(-179.452 -109.108)" fill="none" stroke="#003534" stroke-linecap="round" stroke-linejoin="round" stroke-miterlimit="10" stroke-width="1"/>
                <path id="Trazado_1005111" data-name="Trazado 1005111" d="M325.82,126.857s4.359,11.028-13.11,24.993-32.782,6.988-43.479,22.926" transform="translate(-206.787 -109.108)" fill="none" stroke="#003534" stroke-linecap="round" stroke-linejoin="round" stroke-miterlimit="10" stroke-width="1"/>
                <path id="Trazado_1005112" data-name="Trazado 1005112" d="M348.245,182.627s-2.288,11.413-6.291,15.964-24.106,12.984-24.106,12.984" transform="translate(-277.347 -109.108)" fill="none" stroke="#003534" stroke-linecap="round" stroke-linejoin="round" stroke-miterlimit="10" stroke-width="1"/>
                <path id="Trazado_1005113" data-name="Trazado 1005113" d="M331.714,155.438s-5.572,6.176-6.857,14.155" transform="translate(-267.825 -109.108)" fill="none" stroke="#003534" stroke-linecap="round" stroke-linejoin="round" stroke-miterlimit="10" stroke-width="1"/>
                <path id="Trazado_1005114" data-name="Trazado 1005114" d="M303.656,301.656s-1.115-52.4-8.172-76.956" transform="translate(-210.394 -109.108)" fill="none" stroke="#ad8a6a" stroke-miterlimit="10" stroke-width="1"/>
                <path id="Trazado_1005115" data-name="Trazado 1005115" d="M343.884,278.717s-20.54-4.933-33.942-3.825" transform="translate(-265.079 -109.108)" fill="none" stroke="#003534" stroke-linecap="round" stroke-linejoin="round" stroke-miterlimit="10" stroke-width="1"/>
                <path id="Trazado_1005116" data-name="Trazado 1005116" d="M334.733,310.615s-4.418-20.9-8.975-36.989-23.081-68.705-23.081-68.705" transform="translate(-248.664 -109.108)" fill="none" stroke="#003534" stroke-linecap="round" stroke-linejoin="round" stroke-miterlimit="10" stroke-width="1"/>
                <path id="Trazado_1005117" data-name="Trazado 1005117" d="M268.193,220.685l5.051,65.056,19.237-11.922" transform="translate(-171.928 -109.108)" fill="none" stroke="#003534" stroke-linecap="round" stroke-linejoin="round" stroke-miterlimit="10" stroke-width="1"/>
                <line id="Línea_1136" data-name="Línea 1136" y1="22.147" x2="5.051" transform="translate(96.265 176.633)" fill="none" stroke="#003534" stroke-linecap="round" stroke-linejoin="round" stroke-miterlimit="10" stroke-width="1"/>
                <path id="Trazado_1005118" data-name="Trazado 1005118" d="M346.252,298.039l-83.944,22.445s-5.345,8.444-6.663,15.516" transform="translate(-213.151 -109.108)" fill="none" stroke="#003534" stroke-linecap="round" stroke-linejoin="round" stroke-miterlimit="10" stroke-width="1"/>
                <path id="Trazado_1005119" data-name="Trazado 1005119" d="M375.428,320.484s-13.7-72.537-21.863-85.271S339.589,224.7,339.589,224.7" transform="translate(-326.271 -109.108)" fill="none" stroke="#003534" stroke-linecap="round" stroke-linejoin="round" stroke-miterlimit="10" stroke-width="1"/>
                <path id="Trazado_1005120" data-name="Trazado 1005120" d="M260.222,240.8s5.46,37.264,5.675,44.937a43.169,43.169,0,0,1-1.888,13.777" transform="translate(-137.387 -109.108)" fill="none" stroke="#003534" stroke-linecap="round" stroke-linejoin="round" stroke-miterlimit="10" stroke-width="1"/>
                <path id="Trazado_1005121" data-name="Trazado 1005121" d="M250,336s-6.286,7.839-8.286,12.491" transform="translate(-102.968 -109.108)" fill="none" stroke="#003534" stroke-linecap="round" stroke-linejoin="round" stroke-miterlimit="10" stroke-width="1"/>
                <path id="Trazado_1005122" data-name="Trazado 1005122" d="M252.645,321.472a3.342,3.342,0,1,0,3.342-3.342A3.342,3.342,0,0,0,252.645,321.472Z" transform="translate(-123.228 -109.108)" fill="#005c66"/>
                <path id="Trazado_1005123" data-name="Trazado 1005123" d="M262.57,324.814a3.342,3.342,0,1,0,3.342-3.342A3.342,3.342,0,0,0,262.57,324.814Z" transform="translate(-143.078 -109.108)" fill="#005c66"/>
                <path id="Trazado_1005124" data-name="Trazado 1005124" d="M218.65,281.71a3.852,3.852,0,0,0,1.89,2.6,34.547,34.547,0,0,1,5.21,3.38l25.65-6.03,1.05-7.11a89.382,89.382,0,0,1-21.89,5.84C224.51,281.23,220.85,281.58,218.65,281.71Z" transform="translate(-82.354 -109.108)" fill="#bfbb16"/>
                <g id="Grupo_1167518" data-name="Grupo 1167518" transform="translate(177.15 157.9)">
                  <g id="Grupo_1167517" data-name="Grupo 1167517">
                    <path id="Trazado_1005125" data-name="Trazado 1005125" d="M198.069,267.008s-.351.064-.973.212" transform="translate(-183.569 -267.008)" fill="none" stroke="#fff" stroke-linecap="round" stroke-linejoin="round" stroke-width="0.75"/>
                    <path id="Trazado_1005126" data-name="Trazado 1005126" d="M209.915,267.73a43.089,43.089,0,0,0-9.939,4.34" transform="translate(-198.295 -267.008)" fill="none" stroke="#fff" stroke-linecap="round" stroke-linejoin="round" stroke-width="0.75" stroke-dasharray="1.977 1.977"/>
                    <path id="Trazado_1005127" data-name="Trazado 1005127" d="M211.6,272.6q-.42.27-.837.555" transform="translate(-210.759 -267.008)" fill="none" stroke="#fff" stroke-linecap="round" stroke-linejoin="round" stroke-width="0.75"/>
                  </g>
                </g>
                <g id="Grupo_1167520" data-name="Grupo 1167520" transform="translate(177.392 168.842)">
                  <g id="Grupo_1167519" data-name="Grupo 1167519">
                    <path id="Trazado_1005128" data-name="Trazado 1005128" d="M210.449,277.95s.319.16.9.416" transform="translate(-210.449 -277.95)" fill="none" stroke="#fff" stroke-linecap="round" stroke-linejoin="round" stroke-width="0.75"/>
                    <path id="Trazado_1005129" data-name="Trazado 1005129" d="M198.067,279.1a43.079,43.079,0,0,0,10.552,2.507" transform="translate(-195.332 -277.95)" fill="none" stroke="#fff" stroke-linecap="round" stroke-linejoin="round" stroke-width="0.75" stroke-dasharray="1.977 1.977"/>
                    <path id="Trazado_1005130" data-name="Trazado 1005130" d="M196.074,281.7c.331.025.666.045,1,.06" transform="translate(-181.797 -277.95)" fill="none" stroke="#fff" stroke-linecap="round" stroke-linejoin="round" stroke-width="0.75"/>
                  </g>
                </g>
                <g id="Grupo_1167522" data-name="Grupo 1167522" transform="translate(177.781 165.178)">
                  <g id="Grupo_1167521" data-name="Grupo 1167521">
                    <path id="Trazado_1005131" data-name="Trazado 1005131" d="M196.449,274.286s-.356.023-.994.068" transform="translate(-180.939 -274.286)" fill="none" stroke="#fff" stroke-linecap="round" stroke-linejoin="round" stroke-width="0.75"/>
                    <path id="Trazado_1005132" data-name="Trazado 1005132" d="M209,274.495c-2.528.191-6.428.507-10.618.931" transform="translate(-196.413 -274.286)" fill="none" stroke="#fff" stroke-linecap="round" stroke-linejoin="round" stroke-width="0.75" stroke-dasharray="1.938 1.938"/>
                    <path id="Trazado_1005133" data-name="Trazado 1005133" d="M210.965,275.525l-1,.105" transform="translate(-209.968 -274.286)" fill="none" stroke="#fff" stroke-linecap="round" stroke-linejoin="round" stroke-width="0.75"/>
                  </g>
                </g>
                <path id="Trazado_1005134" data-name="Trazado 1005134" d="M230.543,301.656l-8.464-1.924a24.806,24.806,0,0,1,6.589-.536,2.666,2.666,0,0,1,2.653,2.54Z" transform="translate(-64.654 -109.108)" fill="#a0625c"/>
                <path id="Trazado_1005135" data-name="Trazado 1005135" d="M230.893,308,222.9,306.75a7.663,7.663,0,0,1,4.609-.964A4.2,4.2,0,0,1,230.893,308Z" transform="translate(-65.047 -109.108)" fill="#a0625c"/>
                <path id="Trazado_1005136" data-name="Trazado 1005136" d="M220.66,302.56l6.11,15.01,3.3-1.2a18.163,18.163,0,0,0,6.49-.83,44.584,44.584,0,0,0,8.75-3.77l6.41,1.46a2.219,2.219,0,0,0,.51.06,2.314,2.314,0,0,0,1.57-.62.031.031,0,0,0,.01-.02l-9.83-2.9a17.729,17.729,0,0,1-8.22,3.64c-5.47,1.07-7.56.27-7.56.27Z" transform="translate(-85.724 -109.108)" fill="#a0625c"/>
                <path id="Trazado_1005137" data-name="Trazado 1005137" d="M219.79,292.93l3.38.66,1.17-.18.45-.07.54-.08.56-.09,2.57-.39,2.63-.4.33-.07a3.265,3.265,0,0,0,2.1-1.69,8.5,8.5,0,0,1-2.478.737c-2.034.3-5.772-.787-8.222-.307S219.79,292.93,219.79,292.93Z" transform="translate(-64.564 -109.108)" fill="#a0625c"/>
              </g>
              <g id="Grupo_1167525" data-name="Grupo 1167525" transform="translate(184.639 68.619)">
                <g id="Grupo_1167524" data-name="Grupo 1167524">
                  <path id="Trazado_1005138" data-name="Trazado 1005138" d="M147.342,273.416h10s-1.007,3.422-1.812,19.929a270.361,270.361,0,0,0,0,28.384h-6.375a270.361,270.361,0,0,0,0-28.384C148.348,276.838,147.342,273.416,147.342,273.416Z" transform="translate(-100.576 -177.727)" fill="#025256"/>
                  <path id="Trazado_1005139" data-name="Trazado 1005139" d="M164.969,281.871c6.371,2.1,7.046,3.825,8.958,7.247s4.227,2.718,6.442,5.838,1.308,5.536,1.812,7.75,4.429,5.536,4.429,5.536v2.818a18.909,18.909,0,0,0-10.87-5.435c-6.844-.906-10.166-2.516-12.078-7.75s-4.026-3.422-5.938-7.75-4.026-11.273-3.12-14.494C154.6,275.63,157.018,279.254,164.969,281.871Z" transform="translate(-136.891 -177.727)" fill="#025256"/>
                  <path id="Trazado_1005140" data-name="Trazado 1005140" d="M139.849,280.526c-6.371,2.1-7.046,3.825-8.958,7.247s-4.227,2.718-6.442,5.838-1.308,5.536-1.812,7.75-4.429,5.536-4.429,5.536v2.818a18.909,18.909,0,0,1,10.87-5.435c6.844-.906,10.166-2.516,12.078-7.75s4.026-3.422,5.938-7.75,4.026-11.273,3.12-14.494C150.216,274.286,147.8,277.909,139.849,280.526Z" transform="translate(-64.531 -177.727)" fill="#025256"/>
                  <path id="Trazado_1005141" data-name="Trazado 1005141" d="M103.119,228.222A50.432,50.432,0,0,0,134.834,275.1a47.821,47.821,0,0,0,6.191,2.039,50.506,50.506,0,1,0-32.72-71.228,50.66,50.66,0,0,0-5.186,22.312Z" transform="translate(-103.119 -177.727)" fill="#a2c037"/>
                  <path id="Trazado_1005142" data-name="Trazado 1005142" d="M109.984,250.74l2.4,13.622,12.1,6.7,2.123,4.04a47.821,47.821,0,0,0,6.191,2.039v-8.558H144.6l9.469-10.061-2.424-2.818,2.424-4.96,12.278,1.409,11.273-11.264,3.617-8.934,7.656-3.091c.8-7.515-2.818-22.95-2.818-22.95V198.34a50.656,50.656,0,0,0-15.538-13.9H155.875l-4.227-2.818h-6.266v6.445l10.493,4.434-7.675,4.951-6.548-4.951-8.859,3.213-5.9,10.2,9.094,2.687v8.859s8.22,3.222,9.394,4.425,2.818,6.98,2.818,6.98,4.058-.535,8.079-.639,10.071,0,10.071,0l5.233,12.579-6.9,5.636-6.783-5.552L138.57,239.2l-10.08,7.243h-9.648Z" transform="translate(-94.887 -177.727)" fill="#4d8c3f"/>
                  <path id="Trazado_1005143" data-name="Trazado 1005143" d="M174.653,180.95v5.9l-9.528,4.7-1.879,3.221-5.368-.537,3.355-8.321,6.576-3.221,1.342-1.744Z" transform="translate(-128.424 -177.727)" fill="#4d8c3f"/>
                  <path id="Trazado_1005144" data-name="Trazado 1005144" d="M177.681,205.91h4.274l4.021-5.233h6.98l5.965-16.853A50.672,50.672,0,0,0,177.681,205.91Z" transform="translate(-172.495 -177.727)" fill="#4d8c3f"/>
                  <path id="Trazado_1005145" data-name="Trazado 1005145" d="M195.455,228.222a50.363,50.363,0,0,0,6.012,23.927l2.64-9.328-1.606-6.445,1.606-8.154-8.145-7.14A49.738,49.738,0,0,0,195.455,228.222Z" transform="translate(-195.455 -177.727)" fill="#4d8c3f"/>
                </g>
                <path id="Trazado_1005146" data-name="Trazado 1005146" d="M116.54,319.11a7.631,7.631,0,0,0,2.36,5.52l5.23,41.79h56.9l6.92-41.04a7.627,7.627,0,0,0,3.28-6.27Z" transform="translate(-103.663 -177.727)" fill="#e0bb96"/>
                <line id="Línea_1137" data-name="Línea 1137" x1="53.286" transform="translate(23.107 149.416)" fill="none" stroke="#ad8a6a" stroke-miterlimit="10" stroke-width="1"/>
                <line id="Línea_1138" data-name="Línea 1138" x1="4.571" y2="33" transform="translate(72.536 153.13)" fill="none" stroke="#ad8a6a" stroke-miterlimit="10" stroke-width="1"/>
              </g>
            </g>
            <g id="Grupo_1167527" data-name="Grupo 1167527" transform="translate(0 178.292)">
              <path id="Trazado_1005147" data-name="Trazado 1005147" d="M86.779,330.412C95.905,310.147,91.61,287.4,91.61,287.4s-3.221,3.691-14.762,7.717-24.694,10.736-29.793,31.135-5.786,33.3-5.786,33.3S77.653,350.677,86.779,330.412Z" transform="translate(332.237 -287.4)" fill="#dcdb22"/>
              <path id="Trazado_1005148" data-name="Trazado 1005148" d="M33.874,352.505S42,335.553,56.8,330.453s32.249-1.61,32.249-1.61S80.726,351.7,64.085,356.911,33.874,352.505,33.874,352.505Z" transform="translate(343.205 -287.4)" fill="#4d8c3f"/>
              <path id="Trazado_1005149" data-name="Trazado 1005149" d="M413.221,339.121c-9.126-20.265-4.831-43.012-4.831-43.012s3.221,3.691,14.762,7.717,24.694,10.736,29.793,31.135,5.786,33.3,5.786,33.3S422.347,359.386,413.221,339.121Z" transform="translate(-399.985 -287.4)" fill="#dcdb22"/>
              <path id="Trazado_1005150" data-name="Trazado 1005150" d="M466.126,361.214S458,344.262,443.2,339.162s-32.249-1.61-32.249-1.61,8.321,22.854,24.962,28.068S466.126,361.214,466.126,361.214Z" transform="translate(-410.953 -287.4)" fill="#a2c037"/>
              <path id="Trazado_1005151" data-name="Trazado 1005151" d="M444.268,370.106S401.3,359.9,321.985,352.5s-177.066,12.6-177.066,12.6,46.31,43.319,145.616,41.1S444.268,370.106,444.268,370.106Z" transform="translate(-123.061 -287.4)" fill="#dcdb22"/>
              <path id="Trazado_1005152" data-name="Trazado 1005152" d="M444.269,356.91s-24.992-12.352-96.636,4.309S225.84,398.429,156.5,394.542s-97.664-29.435-97.664-29.435,42.209,62.2,162.171,63.313S423.165,386.479,444.269,356.91Z" transform="translate(-36.979 -287.4)" fill="#a2c037"/>
            </g>
          </g>
          <g id="Grupo_1167535" data-name="Grupo 1167535" transform="translate(83.228 230.79)">
            <g id="Grupo_1167529" data-name="Grupo 1167529" transform="translate(0 17.886)">
              <path id="Trazado_1005153" data-name="Trazado 1005153" d="M382.9,359.462v3.556c0,.926-6.107,1.677-13.641,1.677s-13.641-.751-13.641-1.677v-3.556Z" transform="translate(-355.616 -357.784)" fill="#dc911b"/>
              <ellipse id="Elipse_11738" data-name="Elipse 11738" cx="13.641" cy="1.678" rx="13.641" ry="1.678" transform="translate(0)" fill="#e7b142"/>
            </g>
            <g id="Grupo_1167530" data-name="Grupo 1167530" transform="translate(1.174 13.122)">
              <path id="Trazado_1005154" data-name="Trazado 1005154" d="M381.723,354.7v3.556c0,.926-6.107,1.678-13.641,1.678s-13.641-.751-13.641-1.678V354.7Z" transform="translate(-354.44 -353.02)" fill="#dc911b"/>
              <path id="Trazado_1005155" data-name="Trazado 1005155" d="M354.442,354.7c0,.927,6.107,1.678,13.641,1.678s13.641-.751,13.641-1.678-6.107-1.678-13.641-1.678S354.442,353.771,354.442,354.7Z" transform="translate(-354.442 -353.02)" fill="#e7b142"/>
            </g>
            <g id="Grupo_1167531" data-name="Grupo 1167531" transform="translate(0.302 8.593)">
              <path id="Trazado_1005156" data-name="Trazado 1005156" d="M382.6,350.168v3.556c0,.927-6.107,1.677-13.641,1.677s-13.641-.751-13.641-1.677v-3.556Z" transform="translate(-355.314 -348.491)" fill="#dc911b"/>
              <path id="Trazado_1005157" data-name="Trazado 1005157" d="M355.314,350.168c0,.926,6.107,1.678,13.641,1.678s13.641-.751,13.641-1.678-6.107-1.677-13.641-1.677S355.314,349.242,355.314,350.168Z" transform="translate(-355.314 -348.491)" fill="#e7b142"/>
            </g>
            <g id="Grupo_1167532" data-name="Grupo 1167532" transform="translate(1.174 4.298)">
              <path id="Trazado_1005158" data-name="Trazado 1005158" d="M381.723,345.874v3.556c0,.926-6.107,1.677-13.641,1.677s-13.641-.751-13.641-1.677v-3.556Z" transform="translate(-354.44 -344.196)" fill="#dc911b"/>
              <ellipse id="Elipse_11739" data-name="Elipse 11739" cx="13.641" cy="1.678" rx="13.641" ry="1.678" transform="translate(0)" fill="#e7b142"/>
            </g>
            <g id="Grupo_1167533" data-name="Grupo 1167533" transform="translate(0.727)">
              <path id="Trazado_1005159" data-name="Trazado 1005159" d="M382.171,341.575v3.556c0,.926-6.107,1.678-13.641,1.678s-13.641-.751-13.641-1.678v-3.556Z" transform="translate(-354.889 -339.898)" fill="#dc911b"/>
              <path id="Trazado_1005160" data-name="Trazado 1005160" d="M354.889,341.575c0,.927,6.107,1.678,13.641,1.678s13.641-.751,13.641-1.678-6.107-1.677-13.641-1.677S354.889,340.648,354.889,341.575Z" transform="translate(-354.889 -339.898)" fill="#e7b142"/>
            </g>
            <g id="Grupo_1167534" data-name="Grupo 1167534" transform="translate(22.645 6.201)">
              <path id="Trazado_1005161" data-name="Trazado 1005161" d="M338.214,361.076c-1.16-6.876,2.74-13.269,8.72-14.334v-.005l2.556-.431.054.333c5.056.466,9.5,4.816,10.506,10.753,1.013,6-1.834,11.639-6.553,13.682l.046.284-1.8.275c-.165.037-.326.085-.495.113-.3.05-.6.076-.892.1l-.111.017v-.005C344.579,372.218,339.316,367.6,338.214,361.076Z" transform="translate(-338.01 -346.099)" fill="#dc911b"/>
              <path id="Trazado_1005162" data-name="Trazado 1005162" d="M335.335,360.59c1.166,6.91,7,11.686,13.029,10.669s9.972-7.444,8.806-14.354-7-11.687-13.029-10.669S334.169,353.68,335.335,360.59Z" transform="translate(-332.252 -346.099)" fill="#e7b142"/>
              <path id="Trazado_1005163" data-name="Trazado 1005163" d="M338.023,359.995c.834,4.943,5.007,8.36,9.32,7.633s7.134-5.325,6.3-10.268-5.007-8.36-9.321-7.632S337.189,355.052,338.023,359.995Z" transform="translate(-331.413 -346.099)" fill="#f7c263"/>
            </g>
          </g>
        </g>
        <path id="SVGID_x5F_1_x5F_" d="M417.545,134.84S371.535,63.2,258.89,63.2C134.98,63.2,91,132.175,91,132.175" transform="translate(-42.421 -63.199)" fill="none"/>
      </g>
    </g>
  </g>
</svg>
