<svg xmlns="http://www.w3.org/2000/svg" xmlns:xlink="http://www.w3.org/1999/xlink" width="108" height="108" viewBox="0 0 108 108">
  <defs>
    <filter id="Trazado_904820" x="0" y="0" width="108" height="108" filterUnits="userSpaceOnUse">
      <feOffset dy="3" input="SourceAlpha"/>
      <feGaussianBlur stdDeviation="3" result="blur"/>
      <feFlood flood-opacity="0.161"/>
      <feComposite operator="in" in2="blur"/>
      <feComposite in="SourceGraphic"/>
    </filter>
  </defs>
  <g id="Grupo_1167557" data-name="Grupo 1167557" transform="translate(-186 -1935)">
    <g id="Grupo_1167339" data-name="Grupo 1167339" transform="translate(0 -31)">
      <g id="Grupo_1166792" data-name="Grupo 1166792" transform="translate(195 1972)">
        <g transform="matrix(1, 0, 0, 1, -9, -6)" filter="url(#Trazado_904820)">
          <g id="Trazado_904820-2" data-name="Trazado 904820" transform="translate(9 6)" fill="#fbfbf9">
            <path d="M 44.99999618530273 88.50003051757812 C 39.12687301635742 88.50003051757812 33.43022155761719 87.35010528564453 28.06829643249512 85.08219909667969 C 22.88852119445801 82.89134216308594 18.23629570007324 79.75461578369141 14.24084663391113 75.75916290283203 C 10.24540901184082 71.76371765136719 7.108683586120605 67.11150360107422 4.917821407318115 61.93172836303711 C 2.649921178817749 56.56978988647461 1.499996185302734 50.87313842773438 1.499996185302734 45.00001525878906 C 1.499996185302734 39.12689208984375 2.649921178817749 33.43024063110352 4.917821407318115 28.06831550598145 C 7.108683586120605 22.88854026794434 10.24540901184082 18.23631477355957 14.24084663391113 14.24086570739746 C 18.23629570007324 10.24541568756104 22.88852119445801 7.10869026184082 28.06829643249512 4.917840480804443 C 33.43022155761719 2.649927854537964 39.12687301635742 1.50000274181366 44.99999618530273 1.50000274181366 C 50.87311935424805 1.50000274181366 56.56977081298828 2.649927854537964 61.93169784545898 4.917840480804443 C 67.11147308349609 7.10869026184082 71.76369476318359 10.24541568756104 75.75914764404297 14.24086570739746 C 79.75458526611328 18.23631477355957 82.89131164550781 22.88854026794434 85.08216857910156 28.06831550598145 C 87.35007476806641 33.43024063110352 88.5 39.12689208984375 88.5 45.00001525878906 C 88.5 50.87313842773438 87.35007476806641 56.56978988647461 85.08216857910156 61.93172836303711 C 82.89131164550781 67.11150360107422 79.75458526611328 71.76371765136719 75.75914764404297 75.75916290283203 C 71.76369476318359 79.75461578369141 67.11147308349609 82.89134216308594 61.93169784545898 85.08219909667969 C 56.56977081298828 87.35010528564453 50.87311935424805 88.50003051757812 44.99999618530273 88.50003051757812 Z" stroke="none"/>
            <path d="M 44.99999618530273 3 C 39.32870864868164 3 33.82865142822266 4.110061645507812 28.65262603759766 6.299346923828125 C 23.65165710449219 8.414573669433594 19.15968322753906 11.44334411621094 15.301513671875 15.301513671875 C 11.44333648681641 19.15968322753906 8.414566040039062 23.65165710449219 6.299339294433594 28.65262985229492 C 4.110054016113281 33.82867050170898 2.999992370605469 39.32872772216797 2.999992370605469 45.00001525878906 C 2.999992370605469 50.67130279541016 4.110054016113281 56.17136001586914 6.299339294433594 61.34738922119141 C 8.414566040039062 66.34837341308594 11.44333648681641 70.84033203125 15.301513671875 74.69850158691406 C 19.15968322753906 78.55668640136719 23.65165710449219 81.58545684814453 28.65262603759766 83.70068359375 C 33.82865142822266 85.88996887207031 39.32870864868164 87.00003051757812 44.99999618530273 87.00003051757812 C 50.67128372192383 87.00003051757812 56.17134094238281 85.88996887207031 61.34736633300781 83.70068359375 C 66.34834289550781 81.58545684814453 70.84030914306641 78.55668640136719 74.69847869873047 74.69850158691406 C 78.55665588378906 70.84033203125 81.58542633056641 66.34837341308594 83.70065307617188 61.34738922119141 C 85.88993835449219 56.17136001586914 87 50.67130279541016 87 45.00001525878906 C 87 39.32872772216797 85.88993835449219 33.82867050170898 83.70065307617188 28.65262985229492 C 81.58542633056641 23.65165710449219 78.55665588378906 19.15968322753906 74.69847869873047 15.301513671875 C 70.84030914306641 11.44334411621094 66.34834289550781 8.414573669433594 61.34736633300781 6.299346923828125 C 56.17134094238281 4.110061645507812 50.67128372192383 3 44.99999618530273 3 M 44.99999618530273 0 C 69.85281372070312 0 90 20.14718627929688 90 45.00001525878906 C 90 69.85282897949219 69.85281372070312 90.00003051757812 44.99999618530273 90.00003051757812 C 20.14717864990234 90.00003051757812 -7.62939453125e-06 69.85282897949219 -7.62939453125e-06 45.00001525878906 C -7.62939453125e-06 20.14718627929688 20.14717864990234 0 44.99999618530273 0 Z" stroke="none" fill="#7b776f"/>
          </g>
        </g>
      </g>
    </g>
    <g id="consumo-responsable" transform="translate(208 1954)">
      <g id="Grupo_1167538" data-name="Grupo 1167538" transform="translate(0.937 0.937)">
        <circle id="Elipse_11740" data-name="Elipse 11740" cx="31.039" cy="31.039" r="31.039" fill="#c4e2ff"/>
      </g>
      <g id="Grupo_1167539" data-name="Grupo 1167539" transform="translate(26.38 1.066)">
        <path id="Trazado_1005164" data-name="Trazado 1005164" d="M247.827,39.446a31.065,31.065,0,0,1-36.636,30.535q1.408.127,2.848.129a31.042,31.042,0,0,0,5.6-61.575,31.043,31.043,0,0,1,28.191,30.91Z" transform="translate(-211.191 -8.536)" fill="#b3dafe"/>
      </g>
      <g id="Grupo_1167540" data-name="Grupo 1167540" transform="translate(2.839 15.499)">
        <path id="Trazado_1005165" data-name="Trazado 1005165" d="M36,126.962a2.878,2.878,0,0,1-2.877,2.878h-10.4a30.942,30.942,0,0,1,2.828-5.754h7.568A2.875,2.875,0,0,1,36,126.962Z" transform="translate(-22.731 -124.085)" fill="#bbf49b"/>
      </g>
      <g id="Grupo_1167541" data-name="Grupo 1167541" transform="translate(10.562 15.499)">
        <path id="Trazado_1005166" data-name="Trazado 1005166" d="M90.107,126.961a2.878,2.878,0,0,1-2.877,2.878H84.557a2.877,2.877,0,0,0,0-5.755H87.23A2.876,2.876,0,0,1,90.107,126.961Z" transform="translate(-84.557 -124.084)" fill="#9be69d"/>
      </g>
      <g id="Grupo_1167542" data-name="Grupo 1167542" transform="translate(3.121 43.432)">
        <path id="Trazado_1005167" data-name="Trazado 1005167" d="M47.4,360.807a2.618,2.618,0,0,1-2.618,2.659H38.9a31.147,31.147,0,0,1-13.916-15.758H39.46a2.657,2.657,0,0,1,2.677,2.577,2.62,2.62,0,0,1-2.618,2.659h-.194a2.643,2.643,0,1,0,0,5.286h5.4A2.658,2.658,0,0,1,47.4,360.807Z" transform="translate(-24.983 -347.708)" fill="#bbf49b"/>
      </g>
      <g id="Grupo_1167543" data-name="Grupo 1167543" transform="translate(11.727 43.432)">
        <path id="Trazado_1005168" data-name="Trazado 1005168" d="M102.433,350.286a2.62,2.62,0,0,1-2.618,2.659h-.194a2.643,2.643,0,1,0,0,5.286H97.157a3.092,3.092,0,0,1-3.227-3.779c.293-2.129,2.765-3.074,4.495-3.238a1.493,1.493,0,0,0,1.37-1.572,2.047,2.047,0,0,0-2.238-1.933h2.2A2.657,2.657,0,0,1,102.433,350.286Z" transform="translate(-93.886 -347.709)" fill="#9be69d"/>
      </g>
      <g id="Grupo_1167544" data-name="Grupo 1167544" transform="translate(20.394 53.953)">
        <path id="Trazado_1005169" data-name="Trazado 1005169" d="M168.413,434.521a2.618,2.618,0,0,1-2.618,2.659h-2.464a2.618,2.618,0,0,0,2.618-2.659,2.658,2.658,0,0,0-2.677-2.577h2.464A2.658,2.658,0,0,1,168.413,434.521Z" transform="translate(-163.272 -431.944)" fill="#9be69d"/>
      </g>
      <g id="Grupo_1167545" data-name="Grupo 1167545" transform="translate(49.412 27.674)">
        <path id="Trazado_1005170" data-name="Trazado 1005170" d="M409.19,225.857a31.119,31.119,0,0,1-.907,7.479h-9.748a2.949,2.949,0,0,1-2.948-2.994,2.991,2.991,0,0,1,3.014-2.9h1.346a.487.487,0,0,0,.335-.837l-.015-.014a2.935,2.935,0,0,1-.863-2.131,2.992,2.992,0,0,1,3.014-2.9h6.477A31.315,31.315,0,0,1,409.19,225.857Z" transform="translate(-395.586 -221.555)" fill="#bbf49b"/>
      </g>
      <g id="Grupo_1167546" data-name="Grupo 1167546" transform="translate(59.264 27.674)">
        <path id="Trazado_1005171" data-name="Trazado 1005171" d="M478.214,225.857a31.117,31.117,0,0,1-.907,7.479h-2.844a31.282,31.282,0,0,0,.755-11.781h2.7A31.31,31.31,0,0,1,478.214,225.857Z" transform="translate(-474.463 -221.555)" fill="#9be69d"/>
      </g>
      <g id="Grupo_1167547" data-name="Grupo 1167547" transform="translate(31.977 5.724)">
        <path id="Trazado_1005172" data-name="Trazado 1005172" d="M261.742,51.115h-3.1A2.643,2.643,0,0,1,256,48.472v0a2.643,2.643,0,0,1,2.643-2.643h3.1a2.643,2.643,0,0,1,2.643,2.643v0A2.643,2.643,0,0,1,261.742,51.115Z" transform="translate(-256 -45.826)" fill="#bbf49b"/>
      </g>
      <g id="Grupo_1167548" data-name="Grupo 1167548" transform="translate(35.257 5.725)">
        <path id="Trazado_1005173" data-name="Trazado 1005173" d="M287.367,48.475a2.645,2.645,0,0,1-2.644,2.644h-2.46a2.644,2.644,0,0,0,0-5.288h2.46A2.644,2.644,0,0,1,287.367,48.475Z" transform="translate(-282.262 -45.831)" fill="#9be69d"/>
      </g>
      <g id="Grupo_1167549" data-name="Grupo 1167549" transform="translate(9.84 30.423)">
        <path id="Trazado_1005174" data-name="Trazado 1005174" d="M78.776,243.562H80.55" transform="translate(-78.776 -243.562)" fill="#bbf49b"/>
      </g>
      <g id="Grupo_1167550" data-name="Grupo 1167550" transform="translate(7.756 34.28)">
        <path id="Trazado_1005175" data-name="Trazado 1005175" d="M62.093,274.445h1.774" transform="translate(-62.093 -274.445)" fill="#bbf49b"/>
      </g>
      <g id="Grupo_1167551" data-name="Grupo 1167551" transform="translate(49.412 18.376)">
        <path id="Trazado_1005176" data-name="Trazado 1005176" d="M395.584,147.116h4.364" transform="translate(-395.584 -147.116)" fill="#bbf49b"/>
      </g>
      <g id="Grupo_1167552" data-name="Grupo 1167552" transform="translate(42.546 50.407)">
        <path id="Trazado_1005177" data-name="Trazado 1005177" d="M340.616,403.551H345.3" transform="translate(-340.616 -403.551)" fill="#bbf49b"/>
      </g>
      <g id="Grupo_1167553" data-name="Grupo 1167553" transform="translate(36.169 50.407)">
        <path id="Trazado_1005178" data-name="Trazado 1005178" d="M289.565,403.551h1.774" transform="translate(-289.565 -403.551)" fill="#bbf49b"/>
      </g>
      <g id="Grupo_1167554" data-name="Grupo 1167554" transform="translate(48.525 22.338)">
        <path id="Trazado_1005179" data-name="Trazado 1005179" d="M388.486,178.833h1.774" transform="translate(-388.486 -178.833)" fill="#bbf49b"/>
      </g>
      <g id="Grupo_1167555" data-name="Grupo 1167555" transform="translate(48.525 44.418)">
        <path id="Trazado_1005180" data-name="Trazado 1005180" d="M388.486,355.6h1.774" transform="translate(-388.486 -355.601)" fill="#bbf49b"/>
      </g>
      <g id="Grupo_1167556" data-name="Grupo 1167556" transform="translate(0)">
        <path id="Trazado_1005181" data-name="Trazado 1005181" d="M74.921,237a.937.937,0,0,0-.937-.937H72.21a.937.937,0,1,0,0,1.874h1.774A.937.937,0,0,0,74.921,237Z" transform="translate(-62.37 -206.573)"/>
        <path id="Trazado_1005182" data-name="Trazado 1005182" d="M55.527,266.942a.937.937,0,1,0,0,1.874H57.3a.937.937,0,1,0,0-1.874Z" transform="translate(-47.771 -233.599)"/>
        <path id="Trazado_1005183" data-name="Trazado 1005183" d="M389.018,141.487h4.364a.937.937,0,0,0,0-1.874h-4.364a.937.937,0,1,0,0,1.874Z" transform="translate(-339.607 -122.174)"/>
        <path id="Trazado_1005184" data-name="Trazado 1005184" d="M334.049,396.048a.937.937,0,1,0,0,1.874h4.682a.937.937,0,1,0,0-1.874Z" transform="translate(-291.504 -346.578)"/>
        <path id="Trazado_1005185" data-name="Trazado 1005185" d="M283,396.048a.937.937,0,0,0,0,1.874h1.774a.937.937,0,1,0,0-1.874Z" transform="translate(-246.83 -346.578)"/>
        <path id="Trazado_1005186" data-name="Trazado 1005186" d="M380.983,172.267a.937.937,0,0,0,.937.937h1.774a.937.937,0,0,0,0-1.874H381.92A.937.937,0,0,0,380.983,172.267Z" transform="translate(-333.395 -149.929)"/>
        <path id="Trazado_1005187" data-name="Trazado 1005187" d="M381.92,349.972h1.774a.937.937,0,0,0,0-1.874H381.92a.937.937,0,0,0,0,1.874Z" transform="translate(-333.395 -304.618)"/>
        <path id="Trazado_1005188" data-name="Trazado 1005188" d="M255.175,38.323h-3.1a3.582,3.582,0,0,0,0,7.163h3.1a3.582,3.582,0,1,0,0-7.163Zm0,5.289h-3.1a1.707,1.707,0,0,1,0-3.415h3.1a1.707,1.707,0,0,1,0,3.415Z" transform="translate(-217.458 -33.536)"/>
        <path id="Trazado_1005189" data-name="Trazado 1005189" d="M54.587,9.366A32.006,32.006,0,0,0,18.841,2.814a.937.937,0,0,0,.771,1.709A30.123,30.123,0,0,1,61.627,26.737H56.243a3.936,3.936,0,0,0-3.951,3.826,3.864,3.864,0,0,0,.549,2.058h-.414a3.936,3.936,0,0,0-3.951,3.826,3.886,3.886,0,0,0,3.885,3.945h1.154a.937.937,0,1,0,0-1.874H52.36a2.012,2.012,0,0,1-2.011-2.042,2.054,2.054,0,0,1,2.077-1.98h1.346a1.424,1.424,0,0,0,.995-2.44l-.025-.024a1.992,1.992,0,0,1-.576-1.44,2.054,2.054,0,0,1,2.077-1.98h5.649l0,.04A30.386,30.386,0,0,1,61.7,36.74q-.142.894-.338,1.779H57.892a.937.937,0,0,0,0,1.874h3A30.16,30.16,0,0,1,21.271,60.126h1.646a3.555,3.555,0,0,0,3.555-3.611h0a3.6,3.6,0,0,0-3.614-3.5h-5.4a1.706,1.706,0,1,1,0-3.411h.194a3.558,3.558,0,0,0,3.555-3.611,3.6,3.6,0,0,0-3.614-3.5H3.757a30.249,30.249,0,0,1-.251-20.3h9.729a3.814,3.814,0,0,0,0-7.629H7.426a30.337,30.337,0,0,1,8.414-8,.937.937,0,0,0-1.006-1.582A31.954,31.954,0,0,0,0,31.977,31.976,31.976,0,0,0,54.587,54.587a31.976,31.976,0,0,0,0-45.222ZM4.766,19.09c.428-.9,1.422-2.649,1.425-2.654h7.044a1.94,1.94,0,0,1,0,3.88H4.219Q4.478,19.7,4.766,19.09Zm6.2,34.442a30.2,30.2,0,0,1-6.432-9.163H17.6a1.719,1.719,0,0,1,1.74,1.654,1.666,1.666,0,0,1-.494,1.216,1.691,1.691,0,0,1-.962.477c-.335.047-.677-.022-1.021.039a3.727,3.727,0,0,0-1.93,1.023,3.58,3.58,0,0,0,2.532,6.112h5.4a1.719,1.719,0,0,1,1.74,1.654,1.68,1.68,0,0,1-1.681,1.707H17.279a30.265,30.265,0,0,1-6.311-4.72Z" transform="translate(0)"/>
        <path id="Trazado_1005190" data-name="Trazado 1005190" d="M267.011,259.181a.937.937,0,1,0-1.663.864l2.434,4.686a.966.966,0,0,1-.857,1.412H261.46l1.038-.813a.937.937,0,1,0-1.156-1.476l-3.2,2.507a.949.949,0,0,0,0,1.477l3.147,2.454a.937.937,0,0,0,1.152-1.478l-1.021-.8h5.5a2.841,2.841,0,0,0,2.521-4.15Z" transform="translate(-225.589 -226.364)"/>
        <path id="Trazado_1005191" data-name="Trazado 1005191" d="M158.742,247.829a2.82,2.82,0,0,0,2.411,1.338h.034l5.228-.068a.937.937,0,0,0-.012-1.874h-.012l-5.226.068h-.013a.966.966,0,0,1-.861-1.4l2.483-4.919.253,1.268a.937.937,0,1,0,1.838-.367l-.8-3.987a.947.947,0,0,0-1.319-.664l-3.609,1.7a.937.937,0,0,0,.8,1.7l1.194-.564-2.519,4.989A2.819,2.819,0,0,0,158.742,247.829Z" transform="translate(-138.535 -207.515)"/>
        <path id="Trazado_1005192" data-name="Trazado 1005192" d="M213.7,160.038l-2.753,4.241a.937.937,0,1,0,1.572,1.021l2.753-4.241a.966.966,0,0,1,1.651.049l2.649,4.671-1.191-.49a.937.937,0,1,0-.713,1.733l3.76,1.547a.949.949,0,0,0,1.284-.73l.581-3.948a.937.937,0,0,0-1.854-.273l-.193,1.312-2.692-4.746a2.84,2.84,0,0,0-4.853-.145Z" transform="translate(-184.467 -138.916)"/>
      </g>
    </g>
  </g>
</svg>
