<svg xmlns="http://www.w3.org/2000/svg" xmlns:xlink="http://www.w3.org/1999/xlink" width="106.61" height="106.61" viewBox="0 0 106.61 106.61">
  <defs>
    <filter id="Trazado_982547" x="0" y="0" width="106.61" height="106.61" filterUnits="userSpaceOnUse">
      <feOffset dy="3" input="SourceAlpha"/>
      <feGaussianBlur stdDeviation="3" result="blur"/>
      <feFlood flood-opacity="0.161"/>
      <feComposite operator="in" in2="blur"/>
      <feComposite in="SourceGraphic"/>
    </filter>
  </defs>
  <g id="Grupo_1167705" data-name="Grupo 1167705" transform="translate(-197.474 -2446)">
    <g id="Grupo_1167421" data-name="Grupo 1167421" transform="translate(5.474 1642)">
      <g id="Grupo_1166722" data-name="Grupo 1166722" transform="translate(201 810)">
        <g id="Grupo_1164284" data-name="Grupo 1164284">
          <g id="Grupo_1159364" data-name="Grupo 1159364">
            <g id="Grupo_1157015" data-name="Grupo 1157015" transform="translate(0 0)">
              <g id="Grupo_1155792" data-name="Grupo 1155792" transform="translate(0 0)">
                <g id="Grupo_1154703" data-name="Grupo 1154703">
                  <g id="Grupo_1150789" data-name="Grupo 1150789" transform="translate(0)">
                    <g id="Grupo_1154212" data-name="Grupo 1154212" transform="translate(0 0)">
                      <g id="Grupo_1152583" data-name="Grupo 1152583">
                        <g id="Grupo_1146973" data-name="Grupo 1146973" transform="translate(0 0)">
                          <g id="Grupo_1146954" data-name="Grupo 1146954">
                            <g transform="matrix(1, 0, 0, 1, -9, -6)" filter="url(#Trazado_982547)">
                              <g id="Trazado_982547-2" data-name="Trazado 982547" transform="translate(9 6)" fill="#e9f9fd">
                                <path d="M 44.30517578125 87.1102294921875 C 38.52585220336914 87.1102294921875 32.92020034790039 85.97867584228516 27.6439266204834 83.74700164794922 C 22.54690170288086 81.59114074707031 17.96897506713867 78.50452423095703 14.03735065460205 74.57289886474609 C 10.105712890625 70.64126586914062 7.019088268280029 66.06336212158203 4.863225936889648 60.96633911132812 C 2.631550788879395 55.69007873535156 1.500000834465027 50.08442687988281 1.500000834465027 44.30511474609375 C 1.500000834465027 38.52580261230469 2.631550788879395 32.92015075683594 4.863225936889648 27.64389038085938 C 7.019088268280029 22.54686546325684 10.105712890625 17.96896553039551 14.03735065460205 14.03732681274414 C 17.96897506713867 10.10570240020752 22.54690170288086 7.019089698791504 27.6439266204834 4.863227367401123 C 32.92020034790039 2.631552219390869 38.52585220336914 1.500002264976501 44.30517578125 1.500002264976501 C 50.08449935913086 1.500002264976501 55.69015121459961 2.631552219390869 60.96641159057617 4.863227367401123 C 66.06345367431641 7.019089698791504 70.64136505126953 10.10570240020752 74.572998046875 14.03732681274414 C 78.504638671875 17.96896553039551 81.59126281738281 22.54687690734863 83.74712371826172 27.64389038085938 C 85.97879791259766 32.92015075683594 87.1103515625 38.52580261230469 87.1103515625 44.30511474609375 C 87.1103515625 50.08442687988281 85.97879791259766 55.69007873535156 83.74712371826172 60.96633911132812 C 81.59126281738281 66.0633544921875 78.504638671875 70.64126586914062 74.572998046875 74.57289886474609 C 70.64136505126953 78.50452423095703 66.06345367431641 81.59114074707031 60.96641159057617 83.74700164794922 C 55.69015121459961 85.97867584228516 50.08449935913086 87.1102294921875 44.30517578125 87.1102294921875 Z" stroke="none"/>
                                <path d="M 44.30517578125 3 C 38.72769165039062 3 33.31863403320312 4.091682434082031 28.2282600402832 6.244728088378906 C 23.31002044677734 8.324958801269531 18.89237213134766 11.30362701416016 15.09800720214844 15.09798431396484 C 11.30364990234375 18.89234161376953 8.324974060058594 23.30999755859375 6.244735717773438 28.22821426391602 C 4.091690063476562 33.31858444213867 3.000007629394531 38.72764205932617 3.000007629394531 44.30511474609375 C 3.000007629394531 49.88258743286133 4.091690063476562 55.29164505004883 6.244735717773438 60.38201522827148 C 8.324974060058594 65.30023193359375 11.30364990234375 69.71788787841797 15.09800720214844 73.51224517822266 C 18.89237213134766 77.30660247802734 23.31002044677734 80.28527069091797 28.2282600402832 82.36550140380859 C 33.31863403320312 84.51853942871094 38.72769165039062 85.6102294921875 44.30517578125 85.6102294921875 C 49.88265991210938 85.6102294921875 55.29171752929688 84.51853942871094 60.38208770751953 82.36550140380859 C 65.30031585693359 80.28527069091797 69.71797180175781 77.30660247802734 73.5123291015625 73.51224517822266 C 77.30670166015625 69.71788787841797 80.28537750244141 65.30023193359375 82.36561584472656 60.38201522827148 C 84.51866149902344 55.29164505004883 85.61034393310547 49.88258743286133 85.61034393310547 44.30511474609375 C 85.61034393310547 38.72764205932617 84.51866149902344 33.31858444213867 82.36561584472656 28.22821426391602 C 80.28537750244141 23.30999755859375 77.30670166015625 18.89234161376953 73.5123291015625 15.09798431396484 C 69.71797180175781 11.30362701416016 65.30031585693359 8.324958801269531 60.38208770751953 6.244728088378906 C 55.29171752929688 4.091682434082031 49.88265991210938 3 44.30517578125 3 M 44.30517578125 0 C 68.77423095703125 0 88.61034393310547 19.83607482910156 88.61034393310547 44.30511474609375 C 88.61034393310547 68.77415466308594 68.77423095703125 88.6102294921875 44.30517578125 88.6102294921875 C 19.83610534667969 88.6102294921875 7.62939453125e-06 68.77415466308594 7.62939453125e-06 44.30511474609375 C 7.62939453125e-06 19.83607482910156 19.83610534667969 0 44.30517578125 0 Z" stroke="none" fill="#1d7083"/>
                              </g>
                            </g>
                          </g>
                        </g>
                      </g>
                    </g>
                  </g>
                </g>
              </g>
            </g>
          </g>
        </g>
      </g>
    </g>
    <g id="ciudad-verde" transform="translate(219.474 2441.135)">
      <g id="Grupo_1167703" data-name="Grupo 1167703" transform="translate(0.903 30.851)">
        <g id="Grupo_1167702" data-name="Grupo 1167702" transform="translate(0 0)">
          <path id="Trazado_1010290" data-name="Trazado 1010290" d="M164.055,153.678v38.341H148.276V153.678a.722.722,0,0,1,.722-.722h14.336A.722.722,0,0,1,164.055,153.678Z" transform="translate(-131.339 -141.773)" fill="#bed9fd"/>
          <path id="Trazado_1010291" data-name="Trazado 1010291" d="M253.2,152.956h-2.767a.722.722,0,0,1,.722.722v38.341h2.767V153.678A.722.722,0,0,0,253.2,152.956Z" transform="translate(-221.206 -141.773)" fill="#9ec8fc"/>
          <g id="Grupo_1167699" data-name="Grupo 1167699" transform="translate(0 6.717)">
            <path id="Trazado_1010292" data-name="Trazado 1010292" d="M76.691,221.5l1.432,26.984h-6.1L73.456,221.5Z" transform="translate(-64.261 -208.789)" fill="#ddebfd"/>
            <path id="Trazado_1010293" data-name="Trazado 1010293" d="M94.1,221.5H91.814l1.432,26.984h2.286Z" transform="translate(-81.67 -208.789)" fill="#bed9fd"/>
            <path id="Trazado_1010294" data-name="Trazado 1010294" d="M63.925,449.141v-2.878a.477.477,0,0,0-.477-.477H53.805a.477.477,0,0,0-.477.477v2.878a.477.477,0,0,0,.477.477h9.643A.477.477,0,0,0,63.925,449.141Z" transform="translate(-47.814 -406.088)" fill="#6cbff8"/>
            <path id="Trazado_1010295" data-name="Trazado 1010295" d="M116.33,445.786h-2.887a.477.477,0,0,1,.477.477v2.878a.477.477,0,0,1-.477.477h2.887a.477.477,0,0,0,.477-.477v-2.878A.477.477,0,0,0,116.33,445.786Z" transform="translate(-100.697 -406.089)" fill="#94d8e6"/>
            <g id="Grupo_1167698" data-name="Grupo 1167698">
              <path id="Trazado_1010296" data-name="Trazado 1010296" d="M78.2,116.71l1.638,6.964a.915.915,0,0,1-.137.728l-1.9,2.768H76.383l-1.9-2.768a.915.915,0,0,1-.137-.728l1.638-6.964a1.141,1.141,0,0,1,2.221,0Z" transform="translate(-66.281 -115.831)" fill="#ffc269"/>
              <path id="Trazado_1010297" data-name="Trazado 1010297" d="M110.253,221.912l-6.85-2.063a.915.915,0,0,1-.562-.482l-1.446-3.031.71-1.229,3.348-.263a.915.915,0,0,1,.7.246l5.212,4.9a1.141,1.141,0,0,1-1.11,1.923Z" transform="translate(-90.099 -202.928)" fill="#ffc269"/>
              <path id="Trazado_1010298" data-name="Trazado 1010298" d="M7.86,219.989l5.212-4.9a.915.915,0,0,1,.7-.246l3.348.263.71,1.229-1.446,3.031a.915.915,0,0,1-.562.482l-6.85,2.063a1.141,1.141,0,0,1-1.11-1.923Z" transform="translate(-7.5 -202.929)" fill="#ffc269"/>
            </g>
            <circle id="Elipse_11764" data-name="Elipse 11764" cx="2.325" cy="2.325" r="2.325" transform="translate(8.228 10.674) rotate(-6.72)" fill="#407194"/>
          </g>
          <path id="Trazado_1010299" data-name="Trazado 1010299" d="M215.151,201.468v25.29h18.775V193.117a.67.67,0,0,0-.953-.608l-17.2,7.986A1.073,1.073,0,0,0,215.151,201.468Z" transform="translate(-190.169 -176.512)" fill="#6cbff8"/>
          <path id="Trazado_1010300" data-name="Trazado 1010300" d="M346.673,192.509l-2.272,1.055a.669.669,0,0,1,.458.636v32.558h2.767V193.117A.67.67,0,0,0,346.673,192.509Z" transform="translate(-303.869 -176.511)" fill="#5fa7ee"/>
          <g id="Grupo_1167700" data-name="Grupo 1167700" transform="translate(28.956 26.786)">
            <path id="Trazado_1010301" data-name="Trazado 1010301" d="M248.178,283.246v2.583a.6.6,0,0,0,.6.6h2.583a.6.6,0,0,0,.6-.6v-2.583a.6.6,0,0,0-.6-.6H248.78A.6.6,0,0,0,248.178,283.246Z" transform="translate(-248.178 -282.644)" fill="#ddebfd"/>
            <path id="Trazado_1010302" data-name="Trazado 1010302" d="M306.707,283.246v2.583a.6.6,0,0,0,.6.6h2.583a.6.6,0,0,0,.6-.6v-2.583a.6.6,0,0,0-.6-.6h-2.583A.6.6,0,0,0,306.707,283.246Z" transform="translate(-299.665 -282.644)" fill="#ddebfd"/>
            <path id="Trazado_1010303" data-name="Trazado 1010303" d="M248.178,344.753v2.583a.6.6,0,0,0,.6.6h2.583a.6.6,0,0,0,.6-.6v-2.583a.6.6,0,0,0-.6-.6H248.78A.6.6,0,0,0,248.178,344.753Z" transform="translate(-248.178 -336.751)" fill="#ddebfd"/>
            <path id="Trazado_1010304" data-name="Trazado 1010304" d="M306.707,344.753v2.583a.6.6,0,0,0,.6.6h2.583a.6.6,0,0,0,.6-.6v-2.583a.6.6,0,0,0-.6-.6h-2.583A.6.6,0,0,0,306.707,344.753Z" transform="translate(-299.665 -336.751)" fill="#ddebfd"/>
            <path id="Trazado_1010305" data-name="Trazado 1010305" d="M248.178,406.261v2.583a.6.6,0,0,0,.6.6h2.583a.6.6,0,0,0,.6-.6v-2.583a.6.6,0,0,0-.6-.6H248.78A.6.6,0,0,0,248.178,406.261Z" transform="translate(-248.178 -390.859)" fill="#ddebfd"/>
            <path id="Trazado_1010306" data-name="Trazado 1010306" d="M306.707,406.261v2.583a.6.6,0,0,0,.6.6h2.583a.6.6,0,0,0,.6-.6v-2.583a.6.6,0,0,0-.6-.6h-2.583A.6.6,0,0,0,306.707,406.261Z" transform="translate(-299.665 -390.859)" fill="#ddebfd"/>
          </g>
          <circle id="Elipse_11765" data-name="Elipse 11765" cx="4.394" cy="4.394" r="4.394" transform="translate(44.044 6.213) rotate(-45)" fill="#ffc269"/>
          <path id="Trazado_1010307" data-name="Trazado 1010307" d="M121.932,418.918v-1a3.759,3.759,0,0,0-3.759-3.759h-2.707a.644.644,0,0,1-.614-.458,3.994,3.994,0,0,0-7.684.185.751.751,0,0,1-.468.512,3.76,3.76,0,0,0-2.436,3.519v1Z" transform="translate(-92.622 -368.671)" fill="#9cd169"/>
          <g id="Grupo_1167701" data-name="Grupo 1167701" transform="translate(17.151 42.215)">
            <path id="Trazado_1010308" data-name="Trazado 1010308" d="M152.613,413.7a.644.644,0,0,0,.614.458h2.527a.644.644,0,0,1-.614-.458,3.994,3.994,0,0,0-5.078-2.61A4,4,0,0,1,152.613,413.7Z" transform="translate(-150.061 -410.886)" fill="#68b181"/>
            <path id="Trazado_1010309" data-name="Trazado 1010309" d="M201.4,438.091h-2.527a3.759,3.759,0,0,1,3.759,3.759v1h2.527v-1A3.759,3.759,0,0,0,201.4,438.091Z" transform="translate(-193.001 -434.818)" fill="#68b181"/>
          </g>
          <path id="Trazado_1010310" data-name="Trazado 1010310" d="M417.223,425.813h3.959v6.236h-3.959Z" transform="translate(-367.929 -381.802)" fill="#ddebfd"/>
          <path id="Trazado_1010311" data-name="Trazado 1010311" d="M366.669,338.889,364.186,349.4a.6.6,0,0,0,.585.74h15.521a.6.6,0,0,0,.585-.74L378.4,338.889a.6.6,0,0,0-.585-.463H367.255A.6.6,0,0,0,366.669,338.889Z" transform="translate(-321.259 -304.929)" fill="#407194"/>
        </g>
      </g>
      <g id="Grupo_1167704" data-name="Grupo 1167704" transform="translate(0 26.865)">
        <path id="Trazado_1010312" data-name="Trazado 1010312" d="M175.346,196.479h7.681a.9.9,0,0,0,0-1.8h-7.681a.9.9,0,1,0,0,1.8Z" transform="translate(-153.457 -174.485)"/>
        <path id="Trazado_1010313" data-name="Trazado 1010313" d="M60.7,151.864H55.058v-3.228h4.879a1.5,1.5,0,0,0,1.464-1.849l-2.483-10.513a1.5,1.5,0,0,0-1.464-1.158H46.9a1.5,1.5,0,0,0-1.335.812v-4.516a.9.9,0,1,0-1.8,0v11.96l-.806,3.415a1.5,1.5,0,0,0,.806,1.7v3.378H31.115v-.1a4.64,4.64,0,0,0-1.147-3.056,1.493,1.493,0,0,0,.492.084h2.583a1.506,1.506,0,0,0,1.5-1.5v-2.583a1.506,1.506,0,0,0-1.5-1.5H30.461a1.506,1.506,0,0,0-1.5,1.5v2.583a1.491,1.491,0,0,0,.147.645,4.63,4.63,0,0,0-2.316-.816V127.478a.171.171,0,0,1,.1-.155l16.872-7.833V127.2a.9.9,0,1,0,1.8,0v-8.074a1.573,1.573,0,0,0-2.235-1.427l-8.807,4.088v-7.362A1.626,1.626,0,0,0,32.9,112.8H18.563a1.626,1.626,0,0,0-1.624,1.624v5.926a1.831,1.831,0,0,0-.751-.1l-1.651.13a3.225,3.225,0,0,0-.453-.623l.989-1.439a1.823,1.823,0,0,0,.272-1.446l-1.639-6.964a2.043,2.043,0,0,0-3.977,0l-1.639,6.964a1.815,1.815,0,0,0,.272,1.445l.989,1.44a3.25,3.25,0,0,0-.452.623l-1.657-.13a1.827,1.827,0,0,0-1.385.489l-5.209,4.9a2.043,2.043,0,0,0,1.4,3.533,2.067,2.067,0,0,0,.593-.087l6.282-1.892L7.811,148.032H6.895a1.38,1.38,0,0,0-1.379,1.379v2.453H.9a.9.9,0,1,0,0,1.8H60.7a.9.9,0,1,0,0-1.8Zm-29.934-6.855h1.982v1.982H30.762Zm22.5-8.088.165,2.1h-2.5l.165-2.1Zm.307,3.905.165,2.1H50.62l.165-2.1Zm5.067,2.1H55.543l-.165-2.1h2.76Zm-4.594,3.906H50.312l.165-2.1h3.4Zm-5.231-3.906H45.718l.5-2.1h2.76ZM44.8,146.832l.5-2.1h3.375l-.165,2.1Zm6.3,1.8h2.155v3.228H51.1Zm4.752-1.8-.165-2.1H59.06l.5,2.1Zm1.861-7.811H55.235l-.165-2.1h2.145Zm-10.575-2.1h2.145l-.165,2.1H46.641Zm-1.573,11.716h3.731v3.228H45.563Zm-16.252,3.13v.1H13.448v-.1a2.871,2.871,0,0,1,1.851-2.675,1.655,1.655,0,0,0,1.024-1.133,3.092,3.092,0,0,1,5.948-.143,1.54,1.54,0,0,0,1.476,1.094h2.707A2.86,2.86,0,0,1,29.311,151.767Zm-7.92-22.593a2.045,2.045,0,0,0,1.9-2.8h2.033a1.975,1.975,0,0,0-.338,1.1v2.943H21.89a.9.9,0,1,0,0,1.8h3.094v4.045H21.89a.9.9,0,1,0,0,1.8h3.094v4.043H21.89a.9.9,0,1,0,0,1.8h3.094v3.183H23.937a4.869,4.869,0,0,0-4.619-3.273,4.931,4.931,0,0,0-.575.034v-15.4A11.918,11.918,0,0,0,21.391,129.174Zm11.326-14.566v8.019l-4.191,1.946H21.89a.9.9,0,0,0-.212.026l-2.934-2.759v-7.232Zm-16.392,7.445a.017.017,0,0,1,.014,0l5.212,4.9a.237.237,0,0,1,.043.292.242.242,0,0,1-.276.109L14.469,125.3a.018.018,0,0,1-.009-.007l-.49-1.028a3.21,3.21,0,0,0,.967-2.1Zm-6.022.066a1.423,1.423,0,1,1,1.58,1.247A1.425,1.425,0,0,1,10.3,122.118Zm1.181-11.793a.239.239,0,0,1,.464,0l1.636,6.974-1.053,1.532a3.2,3.2,0,0,0-1.631,0l-1.055-1.541ZM2.117,127.358a.24.24,0,0,1-.278-.109.237.237,0,0,1,.044-.293l5.209-4.9a.02.02,0,0,1,.012-.006l1.392.109a3.207,3.207,0,0,0,.965,2.1l-.5,1.036Zm8.69-1.727.249-.522a3.168,3.168,0,0,0,1.321,0l.25.523.416,7.843a.9.9,0,0,0,.9.854h.049a.9.9,0,0,0,.853-.949l-.328-6.187,2.423.73v16.525a4.9,4.9,0,0,0-1.444,1.218l-.428-8.078a.9.9,0,1,0-1.8.1l.538,10.149q-.146.094-.284.2h-3.9ZM7.321,149.836h4.746a4.634,4.634,0,0,0-.423,1.93v.1H7.321Z" transform="translate(0 -98.534)"/>
        <path id="Trazado_1010314" data-name="Trazado 1010314" d="M246.279,276.647a1.506,1.506,0,0,0-1.5-1.5h-2.583a1.506,1.506,0,0,0-1.5,1.5v2.583a1.506,1.506,0,0,0,1.5,1.5h2.583a1.506,1.506,0,0,0,1.5-1.5Zm-1.8,2.282h-1.982v-1.982h1.982Z" transform="translate(-211.731 -245.273)"/>
        <path id="Trazado_1010315" data-name="Trazado 1010315" d="M304.8,276.647a1.506,1.506,0,0,0-1.5-1.5h-2.583a1.506,1.506,0,0,0-1.5,1.5v2.583a1.506,1.506,0,0,0,1.5,1.5H303.3a1.506,1.506,0,0,0,1.5-1.5Zm-1.8,2.282h-1.982v-1.982H303Z" transform="translate(-263.216 -245.273)"/>
        <path id="Trazado_1010316" data-name="Trazado 1010316" d="M244.775,336.649h-2.583a1.506,1.506,0,0,0-1.5,1.5v2.583a1.506,1.506,0,0,0,1.5,1.5h2.583a1.506,1.506,0,0,0,1.5-1.5v-2.583A1.506,1.506,0,0,0,244.775,336.649Zm-.3,3.786h-1.982v-1.981h1.982Z" transform="translate(-211.731 -299.379)"/>
        <path id="Trazado_1010317" data-name="Trazado 1010317" d="M304.8,338.152a1.506,1.506,0,0,0-1.5-1.5h-2.583a1.506,1.506,0,0,0-1.5,1.5v2.583a1.506,1.506,0,0,0,1.5,1.5H303.3a1.506,1.506,0,0,0,1.5-1.5Zm-1.8,2.282h-1.982v-1.981H303Z" transform="translate(-263.216 -299.378)"/>
        <path id="Trazado_1010318" data-name="Trazado 1010318" d="M303.3,398.153h-2.583a1.506,1.506,0,0,0-1.5,1.5v2.583a1.506,1.506,0,0,0,1.5,1.5H303.3a1.506,1.506,0,0,0,1.5-1.5v-2.583A1.506,1.506,0,0,0,303.3,398.153Zm-.3,3.786H301.02v-1.982H303Z" transform="translate(-263.217 -353.483)"/>
        <path id="Trazado_1010319" data-name="Trazado 1010319" d="M383.9,77.484a5.3,5.3,0,1,0-2.468-3.216A5.265,5.265,0,0,0,383.9,77.484Zm-.376-6.332a3.491,3.491,0,1,1-.349,2.649A3.489,3.489,0,0,1,383.523,71.152Z" transform="translate(-335.38 -62.702)"/>
        <path id="Trazado_1010320" data-name="Trazado 1010320" d="M351.337,67.173c.68.361.849.574,1.235.574a.9.9,0,0,0,.452-1.684l-.785-.453a.9.9,0,0,0-.9,1.563Z" transform="translate(-308.671 -60.842)"/>
        <path id="Trazado_1010321" data-name="Trazado 1010321" d="M352.24,141.107l.785-.453a.9.9,0,1,0-.9-1.563l-.785.453a.9.9,0,0,0,.9,1.563Z" transform="translate(-308.671 -125.483)"/>
        <path id="Trazado_1010322" data-name="Trazado 1010322" d="M417.786,174.729v.907a.9.9,0,1,0,1.8,0v-.907a.9.9,0,1,0-1.8,0Z" transform="translate(-367.522 -156.146)"/>
        <path id="Trazado_1010323" data-name="Trazado 1010323" d="M478.609,140.653l.785.453a.9.9,0,0,0,.9-1.563l-.785-.453a.9.9,0,1,0-.9,1.563Z" transform="translate(-420.631 -125.482)"/>
        <path id="Trazado_1010324" data-name="Trazado 1010324" d="M479.512,67.626l.785-.453a.9.9,0,0,0-.9-1.563l-.785.453a.9.9,0,1,0,.9,1.563Z" transform="translate(-420.631 -60.842)"/>
        <path id="Trazado_1010325" data-name="Trazado 1010325" d="M418.688,29.576a.9.9,0,0,0,.9-.9v-.907a.9.9,0,0,0-1.8,0v.907A.9.9,0,0,0,418.688,29.576Z" transform="translate(-367.522 -26.865)"/>
      </g>
    </g>
  </g>
</svg>
