<svg xmlns="http://www.w3.org/2000/svg" xmlns:xlink="http://www.w3.org/1999/xlink" width="113" height="113" viewBox="0 0 113 113">
  <defs>
    <filter id="Trazado_982547" x="0" y="0" width="113" height="113" filterUnits="userSpaceOnUse">
      <feOffset dy="3" input="SourceAlpha"/>
      <feGaussianBlur stdDeviation="3" result="blur"/>
      <feFlood flood-opacity="0.161"/>
      <feComposite operator="in" in2="blur"/>
      <feComposite in="SourceGraphic"/>
    </filter>
  </defs>
  <g id="Grupo_1168000" data-name="Grupo 1168000" transform="translate(-325 -3467)">
    <g id="Grupo_1167468" data-name="Grupo 1167468" transform="translate(0 1120)">
      <g id="Grupo_1166777" data-name="Grupo 1166777" transform="translate(0.105 -910)">
        <g id="Grupo_1164305" data-name="Grupo 1164305" transform="translate(333.895 3263)">
          <g id="Grupo_1163948" data-name="Grupo 1163948" transform="translate(0)">
            <g id="Grupo_1158168" data-name="Grupo 1158168" transform="translate(0)">
              <g id="Grupo_1152576" data-name="Grupo 1152576">
                <g id="Grupo_1148633" data-name="Grupo 1148633">
                  <g id="Grupo_1148525" data-name="Grupo 1148525">
                    <g transform="matrix(1, 0, 0, 1, -9, -6)" filter="url(#Trazado_982547)">
                      <g id="Trazado_982547-2" data-name="Trazado 982547" transform="translate(9 6)" fill="#f2f7e5">
                        <path d="M 47.5 93.5 C 41.28937149047852 93.5 35.26533508300781 92.28397369384766 29.59518623352051 89.88570404052734 C 24.11771965026855 87.56893157958984 19.19813346862793 84.25196075439453 14.97309303283691 80.02691650390625 C 10.74804019927979 75.80186462402344 7.431066513061523 70.88229370117188 5.114293098449707 65.40481567382812 C 2.716026782989502 59.73468017578125 1.5 53.71062850952148 1.5 47.5 C 1.5 41.28937149047852 2.716026782989502 35.26533508300781 5.114293098449707 29.59518623352051 C 7.431066513061523 24.11771965026855 10.74804019927979 19.19813346862793 14.97309303283691 14.97309303283691 C 19.19813346862793 10.74804019927979 24.11771965026855 7.431066513061523 29.59518623352051 5.114293098449707 C 35.26533508300781 2.716026782989502 41.28937149047852 1.5 47.5 1.5 C 53.71062850952148 1.5 59.73468017578125 2.716026782989502 65.40481567382812 5.114293098449707 C 70.88229370117188 7.431066513061523 75.80186462402344 10.74804019927979 80.02691650390625 14.97309303283691 C 84.25196075439453 19.19813346862793 87.56893157958984 24.11771965026855 89.88570404052734 29.59518623352051 C 92.28397369384766 35.26533508300781 93.5 41.28937149047852 93.5 47.5 C 93.5 53.71062850952148 92.28397369384766 59.73468017578125 89.88570404052734 65.40481567382812 C 87.56893157958984 70.88229370117188 84.25196075439453 75.80186462402344 80.02691650390625 80.02691650390625 C 75.80186462402344 84.25196075439453 70.88229370117188 87.56893157958984 65.40481567382812 89.88570404052734 C 59.73468017578125 92.28397369384766 53.71062850952148 93.5 47.5 93.5 Z" stroke="none"/>
                        <path d="M 47.5 3 C 41.49121475219727 3 35.66376876831055 4.176155090332031 30.17950439453125 6.495796203613281 C 24.88084411621094 8.736953735351562 20.12152099609375 11.94598388671875 16.03375244140625 16.03375244140625 C 11.94598388671875 20.12152099609375 8.736953735351562 24.88084411621094 6.495796203613281 30.17950439453125 C 4.176155090332031 35.66376876831055 3 41.49121475219727 3 47.5 C 3 53.50878524780273 4.176155090332031 59.33623123168945 6.495796203613281 64.82049560546875 C 8.736953735351562 70.11915588378906 11.94598388671875 74.87847900390625 16.03375244140625 78.96624755859375 C 20.12152099609375 83.05401611328125 24.88084411621094 86.26304626464844 30.17950439453125 88.50419616699219 C 35.66376876831055 90.82384490966797 41.49121475219727 92 47.5 92 C 53.50878524780273 92 59.33623123168945 90.82384490966797 64.82049560546875 88.50419616699219 C 70.11915588378906 86.26304626464844 74.87847900390625 83.05401611328125 78.96624755859375 78.96624755859375 C 83.05401611328125 74.87847900390625 86.26304626464844 70.11915588378906 88.50419616699219 64.82049560546875 C 90.82384490966797 59.33623123168945 92 53.50878524780273 92 47.5 C 92 41.49121475219727 90.82384490966797 35.66376876831055 88.50419616699219 30.17950439453125 C 86.26304626464844 24.88084411621094 83.05401611328125 20.12152099609375 78.96624755859375 16.03375244140625 C 74.87847900390625 11.94598388671875 70.11915588378906 8.736953735351562 64.82049560546875 6.495796203613281 C 59.33623123168945 4.176155090332031 53.50878524780273 3 47.5 3 M 47.5 0 C 73.7335205078125 0 95 21.2664794921875 95 47.5 C 95 73.7335205078125 73.7335205078125 95 47.5 95 C 21.2664794921875 95 0 73.7335205078125 0 47.5 C 0 21.2664794921875 21.2664794921875 0 47.5 0 Z" stroke="none" fill="#86b60c"/>
                      </g>
                    </g>
                  </g>
                </g>
              </g>
            </g>
          </g>
        </g>
      </g>
    </g>
    <g id="diseno" transform="translate(331.228 3491)">
      <g id="Grupo_1167998" data-name="Grupo 1167998" transform="translate(24.628 0.856)">
        <path id="Trazado_1010552" data-name="Trazado 1010552" d="M308.087,435.14v5.989a1.924,1.924,0,0,1-1.923,1.923h-6.082Z" transform="translate(-269.416 -386.354)" fill="#dc8758"/>
        <path id="Trazado_1010553" data-name="Trazado 1010553" d="M322.045,438.892v2.238a1.924,1.924,0,0,1-1.923,1.923h3.8a1.924,1.924,0,0,0,1.923-1.923V435.14Z" transform="translate(-287.17 -386.354)" fill="#d1774a"/>
        <path id="Trazado_1010554" data-name="Trazado 1010554" d="M69.943,62.023v40.861L61.938,110.8H33.2a1.924,1.924,0,0,1-1.925-1.923V62.023A1.924,1.924,0,0,1,33.2,60.1H68.02A1.924,1.924,0,0,1,69.943,62.023Z" transform="translate(-31.272 -54.099)" fill="#f2edeb"/>
        <g id="Grupo_1167987" data-name="Grupo 1167987" transform="translate(4.279 6.001)">
          <path id="Trazado_1010555" data-name="Trazado 1010555" d="M72.969,60.1v2.494a2.093,2.093,0,0,1-4.187,0V60.1Z" transform="translate(-68.782 -60.1)" fill="#e8dcd9"/>
          <path id="Trazado_1010556" data-name="Trazado 1010556" d="M257.529,60.1v2.494a2.093,2.093,0,0,1-4.187,0V60.1Z" transform="translate(-232.287 -60.1)" fill="#e8dcd9"/>
          <path id="Trazado_1010557" data-name="Trazado 1010557" d="M276.689,60.1h-3.8a1.924,1.924,0,0,1,1.923,1.923v40.862l-8.005,7.913h3.8l8.005-7.913V62.023A1.924,1.924,0,0,0,276.689,60.1Z" transform="translate(-244.221 -60.1)" fill="#e8dcd9"/>
        </g>
        <g id="Grupo_1167989" data-name="Grupo 1167989" transform="translate(17.096 23.733)">
          <g id="Grupo_1167988" data-name="Grupo 1167988">
            <path id="Trazado_1010558" data-name="Trazado 1010558" d="M183.366,218.634a.853.853,0,0,1-.6-.251L181.377,217a.856.856,0,0,1,1.21-1.21l.78.78.78-.78a.856.856,0,0,1,1.21,1.21l-1.385,1.385A.853.853,0,0,1,183.366,218.634Z" transform="translate(-181.126 -215.539)"/>
          </g>
        </g>
        <g id="Grupo_1167991" data-name="Grupo 1167991" transform="translate(17.096 28.901)">
          <g id="Grupo_1167990" data-name="Grupo 1167990">
            <path id="Trazado_1010559" data-name="Trazado 1010559" d="M183.366,263.933a.853.853,0,0,1-.6-.251l-1.385-1.385a.856.856,0,0,1,1.21-1.21l.78.78.78-.78a.856.856,0,0,1,1.21,1.21l-1.385,1.385A.853.853,0,0,1,183.366,263.933Z" transform="translate(-181.126 -260.838)"/>
          </g>
        </g>
        <g id="Grupo_1167993" data-name="Grupo 1167993" transform="translate(17.096 34.069)">
          <g id="Grupo_1167992" data-name="Grupo 1167992">
            <path id="Trazado_1010560" data-name="Trazado 1010560" d="M183.366,309.23a.853.853,0,0,1-.6-.251l-1.385-1.385a.856.856,0,0,1,1.21-1.21l.78.78.78-.78a.856.856,0,0,1,1.21,1.21l-1.385,1.385A.852.852,0,0,1,183.366,309.23Z" transform="translate(-181.126 -306.135)"/>
          </g>
        </g>
        <g id="Grupo_1167994" data-name="Grupo 1167994" transform="translate(6.715)">
          <path id="Trazado_1010561" data-name="Trazado 1010561" d="M92.224,18.088a2.094,2.094,0,0,1-2.094-2.094v-6.4a2.094,2.094,0,0,1,4.187,0v6.4A2.093,2.093,0,0,1,92.224,18.088Z" transform="translate(-90.13 -7.5)" fill="#fece85"/>
          <path id="Trazado_1010562" data-name="Trazado 1010562" d="M99.023,7.5a2.081,2.081,0,0,0-1.218.393,2.089,2.089,0,0,1,.876,1.7v6.4a2.089,2.089,0,0,1-.876,1.7,2.091,2.091,0,0,0,3.311-1.7v-6.4A2.093,2.093,0,0,0,99.023,7.5Z" transform="translate(-96.929 -7.5)" fill="#f9b75f"/>
          <path id="Trazado_1010563" data-name="Trazado 1010563" d="M276.786,18.088a2.094,2.094,0,0,1-2.094-2.094v-6.4a2.094,2.094,0,0,1,4.187,0v6.4A2.093,2.093,0,0,1,276.786,18.088Z" transform="translate(-253.638 -7.5)" fill="#fece85"/>
          <path id="Trazado_1010564" data-name="Trazado 1010564" d="M283.586,7.5a2.081,2.081,0,0,0-1.218.393,2.089,2.089,0,0,1,.876,1.7v6.4a2.089,2.089,0,0,1-.876,1.7,2.091,2.091,0,0,0,3.311-1.7v-6.4A2.093,2.093,0,0,0,283.586,7.5Z" transform="translate(-260.437 -7.5)" fill="#f9b75f"/>
        </g>
        <path id="Trazado_1010565" data-name="Trazado 1010565" d="M300.082,443.049v-6.437a1.476,1.476,0,0,1,1.476-1.476h6.529Z" transform="translate(-269.416 -386.351)" fill="#fece85"/>
        <path id="Trazado_1010566" data-name="Trazado 1010566" d="M304.291,435.136l-4.209,4.161v3.752l8-7.913Z" transform="translate(-269.416 -386.351)" fill="#f9b75f"/>
        <g id="Grupo_1167995" data-name="Grupo 1167995" transform="translate(44.769 6.001)">
          <path id="Trazado_1010567" data-name="Trazado 1010567" d="M423.7,102.733h6.505v35.52H423.7Z" transform="translate(-423.703 -97.87)" fill="#978ecb"/>
          <path id="Trazado_1010568" data-name="Trazado 1010568" d="M452.215,102.733h3.253v35.52h-3.253Z" transform="translate(-448.962 -97.87)" fill="#8379c1"/>
          <path id="Trazado_1010569" data-name="Trazado 1010569" d="M428.617,60.1h-3.323A1.592,1.592,0,0,0,423.7,61.7v3.272h6.505V61.7A1.591,1.591,0,0,0,428.617,60.1Z" transform="translate(-423.703 -60.104)" fill="#b3dafe"/>
          <path id="Trazado_1010570" data-name="Trazado 1010570" d="M441.518,60.1h-3.253a1.591,1.591,0,0,1,1.591,1.591v3.272h3.253V61.7A1.591,1.591,0,0,0,441.518,60.1Z" transform="translate(-436.604 -60.104)" fill="#93d0f9"/>
          <path id="Trazado_1010571" data-name="Trazado 1010571" d="M430.208,414.094H423.7l2.216,5.3a1.123,1.123,0,0,0,2.073,0Z" transform="translate(-423.703 -373.711)" fill="#ffdfcf"/>
          <path id="Trazado_1010572" data-name="Trazado 1010572" d="M437.06,414.094l-1.3,3.114a.352.352,0,0,1-.65,0l.915,2.19a1.123,1.123,0,0,0,2.073,0l2.216-5.3Z" transform="translate(-433.808 -373.71)" fill="#ffcebf"/>
        </g>
        <g id="Grupo_1167997" data-name="Grupo 1167997" transform="translate(8.005 14.792)">
          <path id="Trazado_1010573" data-name="Trazado 1010573" d="M120.91,137.163h-5.02v2.607a3.117,3.117,0,0,1-6.233,0v-2.607h-5.02a23.389,23.389,0,0,1-2.643,10.8,4.878,4.878,0,0,0-.551,2.252v12.129H124.1V150.216a4.878,4.878,0,0,0-.551-2.252A23.391,23.391,0,0,1,120.91,137.163Z" transform="translate(-101.443 -137.163)" fill="#0ed2b3"/>
          <g id="Grupo_1167996" data-name="Grupo 1167996" transform="translate(4.405)">
            <path id="Trazado_1010574" data-name="Trazado 1010574" d="M143.171,142.886a3.1,3.1,0,0,0,1.9-.65,3.111,3.111,0,0,1-1.212-2.466v-2.607h-3.809v2.607A3.117,3.117,0,0,0,143.171,142.886Z" transform="translate(-140.054 -137.162)" fill="#0ab69f"/>
            <path id="Trazado_1010575" data-name="Trazado 1010575" d="M245.144,147.963a23.39,23.39,0,0,1-2.643-10.8h-3.809a23.39,23.39,0,0,0,2.643,10.8,4.878,4.878,0,0,1,.551,2.252v12.129H245.7V150.215A4.877,4.877,0,0,0,245.144,147.963Z" transform="translate(-227.439 -137.162)" fill="#0ab69f"/>
          </g>
          <path id="Trazado_1010576" data-name="Trazado 1010576" d="M101.444,357.9H124.1v2.212a1.6,1.6,0,0,1-1.6,1.6H103.04a1.6,1.6,0,0,1-1.6-1.6Z" transform="translate(-101.444 -332.718)" fill="#c6f2e7"/>
          <path id="Trazado_1010577" data-name="Trazado 1010577" d="M254.3,357.9v2.212a1.6,1.6,0,0,1-1.6,1.6h3.809a1.6,1.6,0,0,0,1.6-1.6V357.9Z" transform="translate(-235.444 -332.718)" fill="#a7eedc"/>
        </g>
      </g>
      <g id="Grupo_1167999" data-name="Grupo 1167999" transform="translate(23.772)">
        <path id="Trazado_1010578" data-name="Trazado 1010578" d="M182.762,218.384a.856.856,0,0,0,1.21,0L185.357,217a.856.856,0,0,0-1.21-1.21l-.78.78-.78-.78a.856.856,0,0,0-1.21,1.21Z" transform="translate(-163.176 -190.95)"/>
        <path id="Trazado_1010579" data-name="Trazado 1010579" d="M182.762,263.682a.856.856,0,0,0,1.21,0l1.385-1.385a.856.856,0,0,0-1.21-1.21l-.78.78-.78-.78a.856.856,0,1,0-1.21,1.21Z" transform="translate(-163.176 -231.08)"/>
        <path id="Trazado_1010580" data-name="Trazado 1010580" d="M182.762,308.98a.856.856,0,0,0,1.21,0l1.385-1.385a.856.856,0,0,0-1.21-1.21l-.78.78-.78-.78a.856.856,0,0,0-1.21,1.21Z" transform="translate(-163.176 -271.211)"/>
        <path id="Trazado_1010581" data-name="Trazado 1010581" d="M61.375,6H57.44V2.949a2.949,2.949,0,1,0-5.9,0V6h-12a.856.856,0,1,0,0,1.711h12V9.35a2.949,2.949,0,1,0,5.9,0V7.712h3.935A1.069,1.069,0,0,1,62.443,8.78V48.785H56.77a2.334,2.334,0,0,0-2.332,2.331V56.7H26.552a1.07,1.07,0,0,1-1.069-1.068V8.78a1.07,1.07,0,0,1,1.069-1.068h3.934V9.35a2.949,2.949,0,1,0,5.9,0v-6.4a2.949,2.949,0,1,0-5.9,0V6H26.552a2.783,2.783,0,0,0-2.78,2.779V55.63a2.783,2.783,0,0,0,2.78,2.779H61.375a2.782,2.782,0,0,0,2.779-2.779V8.78A2.782,2.782,0,0,0,61.375,6Zm-6.885,4.588A1.239,1.239,0,0,1,53.253,9.35v-6.4a1.238,1.238,0,1,1,2.476,0v6.4A1.239,1.239,0,0,1,54.491,10.588ZM33.436,1.711a1.239,1.239,0,0,1,1.238,1.238v6.4a1.238,1.238,0,1,1-2.476,0v-6.4a1.239,1.239,0,0,1,1.238-1.238ZM56.149,51.117a.621.621,0,0,1,.62-.62h4.446L56.149,55.5ZM61.375,56.7h-4l5.067-5.009V55.63A1.069,1.069,0,0,1,61.375,56.7Z" transform="translate(-23.772)"/>
        <path id="Trazado_1010582" data-name="Trazado 1010582" d="M421.973,52.6H418.65a2.45,2.45,0,0,0-2.447,2.447v9.441a.856.856,0,1,0,1.711,0V59.178h4.794V92.987h-4.794v-24.5a.856.856,0,1,0-1.711,0V93.843a.862.862,0,0,0,.069.336l2.214,5.3a1.979,1.979,0,0,0,3.652,0l2.213-5.3a.963.963,0,0,0,.069-.336V55.051A2.45,2.45,0,0,0,421.973,52.6Zm-4.058,4.863V55.051a.737.737,0,0,1,.736-.736h3.323a.737.737,0,0,1,.736.736v2.416Zm2.644,41.35a.268.268,0,0,1-.494,0L418.343,94.7h3.936Z" transform="translate(-371.434 -46.603)"/>
        <path id="Trazado_1010583" data-name="Trazado 1010583" d="M446.426,262.63v-3.841a.856.856,0,1,0-1.711,0v3.841a.856.856,0,0,0,1.711,0Z" transform="translate(-396.693 -228.508)"/>
        <path id="Trazado_1010584" data-name="Trazado 1010584" d="M103.013,129.663h-5.02a.856.856,0,0,0-.856.856,22.626,22.626,0,0,1-2.546,10.406,5.758,5.758,0,0,0-.648,2.647v14.341a2.455,2.455,0,0,0,2.452,2.452h19.468a2.455,2.455,0,0,0,2.452-2.452V143.572a5.757,5.757,0,0,0-.648-2.647,22.628,22.628,0,0,1-2.546-10.406.856.856,0,0,0-.856-.856h-5.02a.856.856,0,0,0-.856.856v2.607a2.261,2.261,0,0,1-4.522,0v-2.607A.856.856,0,0,0,103.013,129.663Zm-7.358,28.25v-1.357h3.876v2.1H96.4A.742.742,0,0,1,95.655,157.913Zm9.619-1.357v2.1h-4.032v-2.1Zm5.744,0v2.1h-4.032v-2.1Zm5.587,1.357a.742.742,0,0,1-.741.741h-3.135v-2.1H116.6ZM106.13,137.1a3.977,3.977,0,0,0,3.972-3.972v-1.752h3.324a24.356,24.356,0,0,0,2.724,10.34,4.04,4.04,0,0,1,.455,1.857v11.273H95.655V143.572a4.04,4.04,0,0,1,.454-1.857,24.354,24.354,0,0,0,2.724-10.34h3.324v1.752a3.977,3.977,0,0,0,3.972,3.972Z" transform="translate(-85.939 -114.871)"/>
      </g>
    </g>
  </g>
</svg>
