<svg xmlns="http://www.w3.org/2000/svg" xmlns:xlink="http://www.w3.org/1999/xlink" width="113" height="113" viewBox="0 0 113 113">
  <defs>
    <filter id="Trazado_982547" x="0" y="0" width="113" height="113" filterUnits="userSpaceOnUse">
      <feOffset dy="3" input="SourceAlpha"/>
      <feGaussianBlur stdDeviation="3" result="blur"/>
      <feFlood flood-opacity="0.161"/>
      <feComposite operator="in" in2="blur"/>
      <feComposite in="SourceGraphic"/>
    </filter>
  </defs>
  <g id="Grupo_1168001" data-name="Grupo 1168001" transform="translate(-745 -3467)">
    <g id="Grupo_1167469" data-name="Grupo 1167469" transform="translate(0 1120)">
      <g id="Grupo_1166778" data-name="Grupo 1166778" transform="translate(0.355 -910)">
        <g id="Grupo_1164306" data-name="Grupo 1164306" transform="translate(753.645 3263)">
          <g id="Grupo_1163948" data-name="Grupo 1163948" transform="translate(0)">
            <g id="Grupo_1158168" data-name="Grupo 1158168" transform="translate(0)">
              <g id="Grupo_1152576" data-name="Grupo 1152576">
                <g id="Grupo_1148633" data-name="Grupo 1148633">
                  <g id="Grupo_1148525" data-name="Grupo 1148525">
                    <g transform="matrix(1, 0, 0, 1, -9, -6)" filter="url(#Trazado_982547)">
                      <g id="Trazado_982547-2" data-name="Trazado 982547" transform="translate(9 6)" fill="#f2f7e5">
                        <path d="M 47.5 93.5 C 41.28937149047852 93.5 35.26533508300781 92.28397369384766 29.59518623352051 89.88570404052734 C 24.11771965026855 87.56893157958984 19.19813346862793 84.25196075439453 14.97309303283691 80.02691650390625 C 10.74804019927979 75.80186462402344 7.431066513061523 70.88229370117188 5.114293098449707 65.40481567382812 C 2.716026782989502 59.73468017578125 1.5 53.71062850952148 1.5 47.5 C 1.5 41.28937149047852 2.716026782989502 35.26533508300781 5.114293098449707 29.59518623352051 C 7.431066513061523 24.11771965026855 10.74804019927979 19.19813346862793 14.97309303283691 14.97309303283691 C 19.19813346862793 10.74804019927979 24.11771965026855 7.431066513061523 29.59518623352051 5.114293098449707 C 35.26533508300781 2.716026782989502 41.28937149047852 1.5 47.5 1.5 C 53.71062850952148 1.5 59.73468017578125 2.716026782989502 65.40481567382812 5.114293098449707 C 70.88229370117188 7.431066513061523 75.80186462402344 10.74804019927979 80.02691650390625 14.97309303283691 C 84.25196075439453 19.19813346862793 87.56893157958984 24.11771965026855 89.88570404052734 29.59518623352051 C 92.28397369384766 35.26533508300781 93.5 41.28937149047852 93.5 47.5 C 93.5 53.71062850952148 92.28397369384766 59.73468017578125 89.88570404052734 65.40481567382812 C 87.56893157958984 70.88229370117188 84.25196075439453 75.80186462402344 80.02691650390625 80.02691650390625 C 75.80186462402344 84.25196075439453 70.88229370117188 87.56893157958984 65.40481567382812 89.88570404052734 C 59.73468017578125 92.28397369384766 53.71062850952148 93.5 47.5 93.5 Z" stroke="none"/>
                        <path d="M 47.5 3 C 41.49121475219727 3 35.66376876831055 4.176155090332031 30.17950439453125 6.495796203613281 C 24.88084411621094 8.736953735351562 20.12152099609375 11.94598388671875 16.03375244140625 16.03375244140625 C 11.94598388671875 20.12152099609375 8.736953735351562 24.88084411621094 6.495796203613281 30.17950439453125 C 4.176155090332031 35.66376876831055 3 41.49121475219727 3 47.5 C 3 53.50878524780273 4.176155090332031 59.33623123168945 6.495796203613281 64.82049560546875 C 8.736953735351562 70.11915588378906 11.94598388671875 74.87847900390625 16.03375244140625 78.96624755859375 C 20.12152099609375 83.05401611328125 24.88084411621094 86.26304626464844 30.17950439453125 88.50419616699219 C 35.66376876831055 90.82384490966797 41.49121475219727 92 47.5 92 C 53.50878524780273 92 59.33623123168945 90.82384490966797 64.82049560546875 88.50419616699219 C 70.11915588378906 86.26304626464844 74.87847900390625 83.05401611328125 78.96624755859375 78.96624755859375 C 83.05401611328125 74.87847900390625 86.26304626464844 70.11915588378906 88.50419616699219 64.82049560546875 C 90.82384490966797 59.33623123168945 92 53.50878524780273 92 47.5 C 92 41.49121475219727 90.82384490966797 35.66376876831055 88.50419616699219 30.17950439453125 C 86.26304626464844 24.88084411621094 83.05401611328125 20.12152099609375 78.96624755859375 16.03375244140625 C 74.87847900390625 11.94598388671875 70.11915588378906 8.736953735351562 64.82049560546875 6.495796203613281 C 59.33623123168945 4.176155090332031 53.50878524780273 3 47.5 3 M 47.5 0 C 73.7335205078125 0 95 21.2664794921875 95 47.5 C 95 73.7335205078125 73.7335205078125 95 47.5 95 C 21.2664794921875 95 0 73.7335205078125 0 47.5 C 0 21.2664794921875 21.2664794921875 0 47.5 0 Z" stroke="none" fill="#86b60c"/>
                      </g>
                    </g>
                  </g>
                </g>
              </g>
            </g>
          </g>
        </g>
      </g>
    </g>
    <g id="empleado" transform="translate(764.08 3458.672)">
      <path id="Trazado_1010585" data-name="Trazado 1010585" d="M140.533,189.738v-4.051c0-5.736,6.744-6.121,11.2-7.566h6.879c4.461,1.445,11.2,1.83,11.2,7.566v4.051Z" transform="translate(-117.546 -126.435)" fill="#0e82f5" fill-rule="evenodd"/>
      <path id="Trazado_1010586" data-name="Trazado 1010586" d="M165.066,189.738v-4.051c0-5.736,6.744-6.121,11.2-7.566h3.768c4.461,1.445,11.2,1.83,11.2,7.566v4.051Z" transform="translate(-138.968 -126.435)" fill="#2a92fa" fill-rule="evenodd"/>
      <path id="Trazado_1010587" data-name="Trazado 1010587" d="M256.033,182.954l2.541,2.541,3.034-6.536c-.7-.181-1.389-.364-2.029-.567Z" transform="translate(-218.402 -126.671)" fill="#3d4a75" fill-rule="evenodd"/>
      <path id="Trazado_1010588" data-name="Trazado 1010588" d="M235.076,147.361l.076,3.934-3.547,4.562-3.547-4.562.076-3.934Z" transform="translate(-193.974 -99.575)" fill="#e6b17c" fill-rule="evenodd"/>
      <path id="Trazado_1010589" data-name="Trazado 1010589" d="M230.063,153.872l-2-2.577.076-3.934h1.928Z" transform="translate(-193.974 -99.575)" fill="#dea368" fill-rule="evenodd"/>
      <path id="Trazado_1010590" data-name="Trazado 1010590" d="M217.633,182.954l-2.541,2.541-3.034-6.536c.7-.181,1.389-.364,2.029-.567l3.547,4.562Z" transform="translate(-180.002 -126.671)" fill="#3d4a75" fill-rule="evenodd"/>
      <path id="Trazado_1010591" data-name="Trazado 1010591" d="M211.078,69.387c4.076,0,6.542-4.188,6.527-8.13-.017-4.565-3.281-6.819-6.527-6.8-3.246-.019-6.511,2.235-6.527,6.8C204.536,65.2,207,69.387,211.078,69.387Z" transform="translate(-173.446 -18.449)" fill="#f9c795" fill-rule="evenodd"/>
      <path id="Trazado_1010592" data-name="Trazado 1010592" d="M224.8,71.62c4.076,0,6.542-4.188,6.527-8.13a6.394,6.394,0,0,0-4.4-6.476h-.138c-3.246-.019-6.511,2.258-6.527,6.869-.011,3.177,1.557,6.513,4.263,7.731C224.62,71.618,224.711,71.62,224.8,71.62Z" transform="translate(-187.171 -20.683)" fill="#fdd7ad" fill-rule="evenodd"/>
      <path id="Trazado_1010593" data-name="Trazado 1010593" d="M199.616,47.164c-.567-2.259-.707-5.184.342-6.3,2.211-2.353,9.034-3.772,10.319-1.051,1.18-.184,5.169.227,2.839,7.352h-.469a5.756,5.756,0,0,0-1.322-3.382c-.613-.675-.734-.719-1.5-.449a11.141,11.141,0,0,1-4.319.956c-3.844.01-4.646-1.043-5.42,2.874Z" transform="translate(-168.756 -4.365)" fill="#323e66" fill-rule="evenodd"/>
      <path id="Trazado_1010594" data-name="Trazado 1010594" d="M11.064,393.671V389.62c0-5.736,6.744-6.121,11.2-7.566h6.879c4.461,1.445,11.2,1.83,11.2,7.566v4.051Z" transform="translate(-4.492 -304.511)" fill="#0e82f5" fill-rule="evenodd"/>
      <path id="Trazado_1010595" data-name="Trazado 1010595" d="M35.6,393.671V389.62c0-5.736,6.744-6.121,11.2-7.566h3.768c4.461,1.445,11.2,1.83,11.2,7.566v4.051Z" transform="translate(-25.915 -304.511)" fill="#2a92fa" fill-rule="evenodd"/>
      <path id="Trazado_1010596" data-name="Trazado 1010596" d="M126.563,386.886l2.541,2.541,3.034-6.536c-.7-.181-1.389-.364-2.029-.568l-3.547,4.562Z" transform="translate(-105.347 -304.747)" fill="#3d4a75" fill-rule="evenodd"/>
      <path id="Trazado_1010597" data-name="Trazado 1010597" d="M105.608,351.294l.076,3.934-3.547,4.562-3.547-4.562.076-3.934Z" transform="translate(-80.921 -277.651)" fill="#e6b17c" fill-rule="evenodd"/>
      <path id="Trazado_1010598" data-name="Trazado 1010598" d="M100.595,357.805l-2-2.577.076-3.934h1.928Z" transform="translate(-80.921 -277.651)" fill="#dea368" fill-rule="evenodd"/>
      <path id="Trazado_1010599" data-name="Trazado 1010599" d="M88.165,386.886l-2.541,2.541-3.034-6.536c.7-.181,1.389-.364,2.029-.568l3.547,4.562Z" transform="translate(-66.948 -304.747)" fill="#3d4a75" fill-rule="evenodd"/>
      <path id="Trazado_1010600" data-name="Trazado 1010600" d="M81.608,273.32c4.075,0,6.542-4.188,6.527-8.13-.017-4.565-3.281-6.819-6.527-6.8-3.246-.019-6.511,2.235-6.527,6.8C75.066,269.131,77.532,273.32,81.608,273.32Z" transform="translate(-60.392 -196.526)" fill="#f9c795" fill-rule="evenodd"/>
      <path id="Trazado_1010601" data-name="Trazado 1010601" d="M95.333,275.553c4.075,0,6.542-4.188,6.527-8.13a6.394,6.394,0,0,0-4.4-6.476h-.138c-3.246-.019-6.511,2.258-6.527,6.869-.011,3.177,1.557,6.513,4.263,7.73.09,0,.181.007.272.007Z" transform="translate(-74.117 -198.759)" fill="#fdd7ad" fill-rule="evenodd"/>
      <path id="Trazado_1010602" data-name="Trazado 1010602" d="M70.147,251.1c-.567-2.259-.707-5.184.342-6.3,2.211-2.353,9.034-3.772,10.319-1.051,1.18-.184,5.169.227,2.839,7.352h-.469a5.758,5.758,0,0,0-1.322-3.382c-.613-.675-.734-.719-1.5-.449a11.141,11.141,0,0,1-4.319.956c-3.844.01-4.646-1.043-5.42,2.874Z" transform="translate(-55.702 -182.441)" fill="#323e66" fill-rule="evenodd"/>
      <path id="Trazado_1010603" data-name="Trazado 1010603" d="M322.462,247.942a8.285,8.285,0,0,1,8.261,8.261c0,3.578-.4,6.26,2.042,9.141-2.855,1.725-6.6,2.02-10.3,1.944-3.706.076-7.448-.219-10.3-1.944,2.44-2.881,2.042-5.563,2.042-9.141A8.285,8.285,0,0,1,322.462,247.942Z" transform="translate(-267.412 -187.403)" fill="#323e66" fill-rule="evenodd"/>
      <path id="Trazado_1010604" data-name="Trazado 1010604" d="M299.419,398.934H285.771v-3.8c0-5.346,6.285-5.7,10.443-7.052h6.411c4.157,1.347,10.443,1.705,10.443,7.052v3.8H299.419Z" transform="translate(-244.369 -309.774)" fill="#4eb1fc" fill-rule="evenodd"/>
      <path id="Trazado_1010605" data-name="Trazado 1010605" d="M319.149,398.934H308.365v-3.8c0-5.346,6.285-5.7,10.443-7.052h3.546c4.158,1.347,10.443,1.705,10.443,7.052v3.8H319.149Z" transform="translate(-264.098 -309.774)" fill="#70c1f9" fill-rule="evenodd"/>
      <path id="Trazado_1010606" data-name="Trazado 1010606" d="M393.418,392.584l2.368,2.368,2.828-6.091c-.656-.169-1.294-.339-1.891-.529l-3.306,4.252Z" transform="translate(-338.368 -309.993)" fill="#3d4a75" fill-rule="evenodd"/>
      <path id="Trazado_1010607" data-name="Trazado 1010607" d="M373.886,359.412l.071,3.667-3.306,4.252-3.306-4.252.071-3.667Z" transform="translate(-315.602 -284.74)" fill="#e6b17c" fill-rule="evenodd"/>
      <path id="Trazado_1010608" data-name="Trazado 1010608" d="M369.163,365.416l-1.817-2.337.071-3.667h1.746Z" transform="translate(-315.601 -284.74)" fill="#dea368" fill-rule="evenodd"/>
      <path id="Trazado_1010609" data-name="Trazado 1010609" d="M351.473,292.358c3.8,0,6.1-3.908,6.09-7.585a7.488,7.488,0,0,0-.344-2.282c-1.7-.393-2.315-1.025-3.713-3.232-1.833,5.014-6.424,5.133-8.124,5.514-.013,3.678,2.288,7.585,6.09,7.585Z" transform="translate(-296.423 -214.749)" fill="#f9c795" fill-rule="evenodd"/>
      <path id="Trazado_1010610" data-name="Trazado 1010610" d="M364.3,292.358c3.8,0,6.1-3.908,6.09-7.585a7.49,7.49,0,0,0-.344-2.282c-1.7-.393-2.315-1.025-3.713-3.232a7.835,7.835,0,0,1-6.229,5.162c-.021.234-.032.475-.033.724-.011,2.962,1.452,6.072,3.974,7.207.084,0,.168.007.254.007Z" transform="translate(-309.247 -214.749)" fill="#fdd7ad" fill-rule="evenodd"/>
      <path id="Trazado_1010611" data-name="Trazado 1010611" d="M357.629,392.584l-2.368,2.368-2.828-6.091c.656-.169,1.294-.339,1.891-.529l3.306,4.252Z" transform="translate(-302.579 -309.993)" fill="#3d4a75" fill-rule="evenodd"/>
      <path id="Trazado_1010612" data-name="Trazado 1010612" d="M8.378,55.761V42.384a3.808,3.808,0,0,1,3.8-3.8H22.9a.634.634,0,0,1,0,1.268H12.182a2.539,2.539,0,0,0-2.536,2.536V55.761a.634.634,0,0,1-1.268,0ZM51.74,39.215a.634.634,0,0,1,.634-.634H63.09a3.8,3.8,0,0,1,3.8,3.8V55.761a.634.634,0,0,1-1.269,0V42.384a2.535,2.535,0,0,0-2.531-2.536H52.374A.634.634,0,0,1,51.74,39.215Zm3.944,47.1v.606a.634.634,0,0,1-1.268,0v-.606a.634.634,0,1,1,1.268,0Zm12.382,2.212V85.359c0-3.846-3.788-4.809-7.445-5.742l-.02,0-2.607,5.613a.633.633,0,0,1-.464.358.654.654,0,0,1-.11.009.634.634,0,0,1-.449-.186l-1.921-1.92-1.919,1.92a.633.633,0,0,1-1.023-.181L49.5,79.612l-.02,0c-3.661.932-7.444,1.9-7.444,5.742v3.167h26.03Zm-9.477-9.454c.251.074.5.147.764.216l-2.127,4.581-1.332-1.331Zm-7.076,0,2.694,3.466-1.331,1.331-2.128-4.581C51.007,79.218,51.261,79.145,51.512,79.072Zm3.537-.829a5.781,5.781,0,0,0,2.658-.637l.01.522L55.05,81.557l-2.667-3.431.011-.522a5.774,5.774,0,0,0,2.656.638Zm3.356-2.706a4.632,4.632,0,0,1-6.711,0,7.884,7.884,0,0,1-2.086-4.991l.207-.035c1.963-.333,5.473-.929,7.382-4.673a5.006,5.006,0,0,0,3.092,2.43,7.118,7.118,0,0,1,.217,1.759,7.98,7.98,0,0,1-2.1,5.51Zm-12.7,2.211a12.086,12.086,0,0,0,2.452.9c.34-.09.678-.176,1.008-.261.685-.174,1.337-.342,1.953-.523l.021-1.114c-.116-.1-.232-.208-.345-.321a9.161,9.161,0,0,1-2.469-6.409.634.634,0,0,1,.5-.616c.226-.051.483-.095.782-.145,2.022-.343,5.4-.918,6.885-4.969a.634.634,0,0,1,1.131-.122c1.38,2.179,1.876,2.62,3.319,2.953a.637.637,0,0,1,.46.423,8.153,8.153,0,0,1,.375,2.475,9.161,9.161,0,0,1-2.47,6.409c-.113.113-.228.218-.345.321l.022,1.114c.615.181,1.267.349,1.953.524.33.084.668.17,1.011.26a12.115,12.115,0,0,0,2.451-.9c-1.807-2.481-1.77-4.887-1.733-7.64.006-.423.012-.86.012-1.308a7.626,7.626,0,1,0-15.252,0c0,.448.006.885.012,1.308.041,2.753.075,5.159-1.729,7.64Zm-7.441-15.13v-4.8l1.459,1.459a.634.634,0,0,0,1.023-.181l2.812-6.058.059.015c3.944,1,8.022,2.042,8.022,6.2v1.333a8.906,8.906,0,0,0-2.976,2.031h-10.4Zm-9.929-.755a3.676,3.676,0,0,0-2.906-1.224,3.289,3.289,0,0,0-1.809-1.2v-.183c0-4.163,4.077-5.2,8.022-6.205l.059-.015,2.812,6.058a.633.633,0,0,0,.464.357.611.611,0,0,0,.111.01.633.633,0,0,0,.448-.186L37,57.813v4.8H28.821A3.518,3.518,0,0,0,28.336,61.861ZM24.831,74.6a5.015,5.015,0,0,1-7.266,0,8.532,8.532,0,0,1-2.256-5.468.63.63,0,0,0,.209-.356c.27-1.37.532-2.06.878-2.306.326-.233.952-.193,1.9-.133.546.035,1.22.076,2.021.076a10.775,10.775,0,0,0,4.114-.845l.413-.147a1.911,1.911,0,0,1,.419-.119,3.033,3.033,0,0,1,.4.4A4.818,4.818,0,0,1,26.8,68.547l.038.218a.634.634,0,0,0,.249.4A8.513,8.513,0,0,1,24.831,74.6Zm-.724,2.763L21.2,81.106,18.29,77.365l.012-.651a6.231,6.231,0,0,0,5.793,0l.012.651Zm11.1,7.744c0-4.162-4.079-5.2-8.022-6.205l-.059-.015-2.814,6.058a.634.634,0,0,1-1.023.181l-1.458-1.459v4.8H35.209V85.109Zm-28.02,0v3.363H20.564v-4.8l-1.459,1.459a.635.635,0,0,1-.449.186.6.6,0,0,1-.11-.01.632.632,0,0,1-.464-.357l-2.814-6.058-.058.015c-3.944,1-8.022,2.042-8.022,6.205Zm10.229-6.8q-.441.132-.9.255l2.333,5.026,1.505-1.5L17.418,78.31Zm7.561,0-2.937,3.777,1.505,1.5,2.333-5.026q-.459-.123-.9-.255ZM15.232,62.789c-.563.6-.741,2.19-.509,4.022a2.785,2.785,0,0,1,.936-1.37,4.065,4.065,0,0,1,2.716-.366c.556.035,1.183.074,1.939.073a9.521,9.521,0,0,0,3.692-.772l.417-.148a2.677,2.677,0,0,1,.867-.187c.487,0,.819.261,1.315.808a4.872,4.872,0,0,1,1.147,2.076c.444-1.968.317-3.418-.383-4.241a2.534,2.534,0,0,0-2.184-.753.634.634,0,0,1-.671-.356A2.324,2.324,0,0,0,22.7,60.525c-2.346-.371-6.047.75-7.469,2.263Zm22.4-11.217a6.159,6.159,0,0,1-2.9-.714l-.013.65,2.909,3.741,2.908-3.741-.013-.65A6.157,6.157,0,0,1,37.632,51.572Zm-5.888-8.294a.629.629,0,0,0,.208-.356c.271-1.37.534-2.06.879-2.305.326-.233.952-.193,1.9-.133.545.034,1.222.076,2.021.076a10.781,10.781,0,0,0,4.115-.846l.413-.146a1.857,1.857,0,0,1,.418-.119,3.11,3.11,0,0,1,.4.4,4.812,4.812,0,0,1,1.128,2.847l.04.218a.628.628,0,0,0,.249.4,8.527,8.527,0,0,1-2.253,5.438,5.019,5.019,0,0,1-7.268,0,8.527,8.527,0,0,1-2.254-5.469Zm-.079-6.346c-.561.6-.741,2.19-.509,4.022a2.783,2.783,0,0,1,.938-1.37,4.059,4.059,0,0,1,2.716-.366c.555.035,1.186.077,1.938.073a9.5,9.5,0,0,0,3.692-.772l.418-.148a2.676,2.676,0,0,1,.866-.187c.487,0,.819.261,1.316.808a4.91,4.91,0,0,1,1.147,2.076c.444-1.967.316-3.418-.384-4.24a2.532,2.532,0,0,0-2.184-.754.634.634,0,0,1-.671-.356,2.322,2.322,0,0,0-1.813-1.048c-2.348-.371-6.048.75-7.47,2.263Zm9.746,15.521L38.476,56.23l1.5,1.5,2.333-5.025c-.307-.082-.606-.168-.9-.256Zm-7.559,0c-.3.088-.595.173-.9.256l2.333,5.026,1.5-1.5ZM64.074,79.285a11.676,11.676,0,0,0,1.609-.8.649.649,0,0,0,.3-.44.64.64,0,0,0-.142-.512c-1.981-2.335-1.95-4.462-1.906-7.405.006-.427.012-.869.012-1.326a8.892,8.892,0,0,0-11.034-8.632v-.914a5.846,5.846,0,0,0-3.03-5.308,21.762,21.762,0,0,0-5.946-2.126c-.748-.19-1.458-.373-2.13-.571L41.779,50c.131-.113.26-.231.384-.356a9.712,9.712,0,0,0,2.628-6.378A.629.629,0,0,0,44.963,43c1.06-3.241.995-5.594-.194-6.991a3.676,3.676,0,0,0-2.9-1.224,3.669,3.669,0,0,0-2.532-1.365c-2.782-.439-6.876.822-8.591,2.648-1.3,1.38-1.078,4.574-.5,6.89a.631.631,0,0,0,.228.348,9.691,9.691,0,0,0,2.626,6.34c.124.125.254.243.384.356l-.024,1.251c-.672.2-1.382.381-2.13.571a21.766,21.766,0,0,0-5.946,2.126,5.844,5.844,0,0,0-3.029,5.264c-2.746-.214-6.441,1-8.047,2.711-1.3,1.379-1.078,4.574-.5,6.89a.632.632,0,0,0,.228.347,9.705,9.705,0,0,0,2.626,6.34c.126.126.254.243.384.357l-.024,1.25c-.671.2-1.382.382-2.129.572A21.789,21.789,0,0,0,8.949,79.8,5.845,5.845,0,0,0,5.92,85.11v4a.633.633,0,0,0,.634.634H35.842a.634.634,0,0,0,.634-.634v-4a5.847,5.847,0,0,0-3.03-5.308A21.814,21.814,0,0,0,27.5,77.676c-.746-.19-1.458-.373-2.129-.572l-.024-1.25c.131-.113.259-.231.384-.357a9.7,9.7,0,0,0,2.627-6.377.651.651,0,0,0,.174-.267,11.115,11.115,0,0,0,.676-4.969H47.641A8.85,8.85,0,0,0,46.155,68.8c0,.457.007.9.013,1.326.043,2.944.074,5.07-1.9,7.405a.633.633,0,0,0,.156.953,11.517,11.517,0,0,0,1.611.8c-2.791.969-5.262,2.553-5.262,6.074v3.8a.634.634,0,0,0,.634.634H68.7a.635.635,0,0,0,.637-.634v-3.8c0-3.52-2.476-5.1-5.261-6.074Z" transform="translate(0)" fill-rule="evenodd"/>
    </g>
  </g>
</svg>
