<svg xmlns="http://www.w3.org/2000/svg" xmlns:xlink="http://www.w3.org/1999/xlink" width="113" height="113" viewBox="0 0 113 113">
  <defs>
    <filter id="Trazado_982547" x="0" y="0" width="113" height="113" filterUnits="userSpaceOnUse">
      <feOffset dy="3" input="SourceAlpha"/>
      <feGaussianBlur stdDeviation="3" result="blur"/>
      <feFlood flood-opacity="0.161"/>
      <feComposite operator="in" in2="blur"/>
      <feComposite in="SourceGraphic"/>
    </filter>
  </defs>
  <g id="Grupo_1168003" data-name="Grupo 1168003" transform="translate(-1165 -3467)">
    <g id="Grupo_1167470" data-name="Grupo 1167470" transform="translate(0 1120)">
      <g id="Grupo_1166779" data-name="Grupo 1166779" transform="translate(0.105 -910)">
        <g id="Grupo_1164307" data-name="Grupo 1164307" transform="translate(1173.895 3263)">
          <g id="Grupo_1163948" data-name="Grupo 1163948" transform="translate(0)">
            <g id="Grupo_1158168" data-name="Grupo 1158168" transform="translate(0)">
              <g id="Grupo_1152576" data-name="Grupo 1152576">
                <g id="Grupo_1148633" data-name="Grupo 1148633">
                  <g id="Grupo_1148525" data-name="Grupo 1148525">
                    <g transform="matrix(1, 0, 0, 1, -9, -6)" filter="url(#Trazado_982547)">
                      <g id="Trazado_982547-2" data-name="Trazado 982547" transform="translate(9 6)" fill="#f2f7e5">
                        <path d="M 47.5 93.5 C 41.28937149047852 93.5 35.26533508300781 92.28397369384766 29.59518623352051 89.88570404052734 C 24.11771965026855 87.56893157958984 19.19813346862793 84.25196075439453 14.97309303283691 80.02691650390625 C 10.74804019927979 75.80186462402344 7.431066513061523 70.88229370117188 5.114293098449707 65.40481567382812 C 2.716026782989502 59.73468017578125 1.5 53.71062850952148 1.5 47.5 C 1.5 41.28937149047852 2.716026782989502 35.26533508300781 5.114293098449707 29.59518623352051 C 7.431066513061523 24.11771965026855 10.74804019927979 19.19813346862793 14.97309303283691 14.97309303283691 C 19.19813346862793 10.74804019927979 24.11771965026855 7.431066513061523 29.59518623352051 5.114293098449707 C 35.26533508300781 2.716026782989502 41.28937149047852 1.5 47.5 1.5 C 53.71062850952148 1.5 59.73468017578125 2.716026782989502 65.40481567382812 5.114293098449707 C 70.88229370117188 7.431066513061523 75.80186462402344 10.74804019927979 80.02691650390625 14.97309303283691 C 84.25196075439453 19.19813346862793 87.56893157958984 24.11771965026855 89.88570404052734 29.59518623352051 C 92.28397369384766 35.26533508300781 93.5 41.28937149047852 93.5 47.5 C 93.5 53.71062850952148 92.28397369384766 59.73468017578125 89.88570404052734 65.40481567382812 C 87.56893157958984 70.88229370117188 84.25196075439453 75.80186462402344 80.02691650390625 80.02691650390625 C 75.80186462402344 84.25196075439453 70.88229370117188 87.56893157958984 65.40481567382812 89.88570404052734 C 59.73468017578125 92.28397369384766 53.71062850952148 93.5 47.5 93.5 Z" stroke="none"/>
                        <path d="M 47.5 3 C 41.49121475219727 3 35.66376876831055 4.176155090332031 30.17950439453125 6.495796203613281 C 24.88084411621094 8.736953735351562 20.12152099609375 11.94598388671875 16.03375244140625 16.03375244140625 C 11.94598388671875 20.12152099609375 8.736953735351562 24.88084411621094 6.495796203613281 30.17950439453125 C 4.176155090332031 35.66376876831055 3 41.49121475219727 3 47.5 C 3 53.50878524780273 4.176155090332031 59.33623123168945 6.495796203613281 64.82049560546875 C 8.736953735351562 70.11915588378906 11.94598388671875 74.87847900390625 16.03375244140625 78.96624755859375 C 20.12152099609375 83.05401611328125 24.88084411621094 86.26304626464844 30.17950439453125 88.50419616699219 C 35.66376876831055 90.82384490966797 41.49121475219727 92 47.5 92 C 53.50878524780273 92 59.33623123168945 90.82384490966797 64.82049560546875 88.50419616699219 C 70.11915588378906 86.26304626464844 74.87847900390625 83.05401611328125 78.96624755859375 78.96624755859375 C 83.05401611328125 74.87847900390625 86.26304626464844 70.11915588378906 88.50419616699219 64.82049560546875 C 90.82384490966797 59.33623123168945 92 53.50878524780273 92 47.5 C 92 41.49121475219727 90.82384490966797 35.66376876831055 88.50419616699219 30.17950439453125 C 86.26304626464844 24.88084411621094 83.05401611328125 20.12152099609375 78.96624755859375 16.03375244140625 C 74.87847900390625 11.94598388671875 70.11915588378906 8.736953735351562 64.82049560546875 6.495796203613281 C 59.33623123168945 4.176155090332031 53.50878524780273 3 47.5 3 M 47.5 0 C 73.7335205078125 0 95 21.2664794921875 95 47.5 C 95 73.7335205078125 73.7335205078125 95 47.5 95 C 21.2664794921875 95 0 73.7335205078125 0 47.5 C 0 21.2664794921875 21.2664794921875 0 47.5 0 Z" stroke="none" fill="#86b60c"/>
                      </g>
                    </g>
                  </g>
                </g>
              </g>
            </g>
          </g>
        </g>
      </g>
    </g>
    <g id="control" transform="translate(1183.279 3470.651)">
      <path id="Trazado_1010613" data-name="Trazado 1010613" d="M96.795,133.276a8.386,8.386,0,0,1,8.351,7.624h-16.7A8.386,8.386,0,0,1,96.795,133.276Z" transform="translate(-72.976 -99.956)" fill="#2dcffc" fill-rule="evenodd"/>
      <path id="Trazado_1010614" data-name="Trazado 1010614" d="M102.82,141.131H88.444a8.388,8.388,0,0,1,7.569-7.588,8.628,8.628,0,0,1,6.806,7.588Z" transform="translate(-72.976 -100.187)" fill="#66deff" fill-rule="evenodd"/>
      <circle id="Elipse_11767" data-name="Elipse 11767" cx="3.994" cy="3.994" r="3.994" transform="translate(19.017 26.344) rotate(-13.467)" fill="#fdb0a0"/>
      <path id="Trazado_1010615" data-name="Trazado 1010615" d="M123.718,82.682a3.995,3.995,0,0,1,0-7.824,3.995,3.995,0,0,1,0,7.824Z" transform="translate(-100.707 -49.471)" fill="#ffcec0" fill-rule="evenodd"/>
      <path id="Trazado_1010616" data-name="Trazado 1010616" d="M222.541,183.8l-2.007-.4-.881-2.125,1.14-1.7-2.35-2.35-1.7,1.14-2.125-.881-.4-2.007H210.9l-.4,2.007-2.125.881-1.7-1.14-2.35,2.35,1.14,1.7-.881,2.125-2.007.4v3.323l2.007.4.881,2.125-1.14,1.7,2.35,2.35,1.7-1.14,2.125.881.4,2.007h3.324l.4-2.007,2.125-.881,1.7,1.14,2.35-2.35-1.14-1.7.881-2.125,2.007-.4Z" transform="translate(-171.613 -136.433)" fill="#7986bf" fill-rule="evenodd"/>
      <path id="Trazado_1010617" data-name="Trazado 1010617" d="M221.571,187.126l-2.007.4-.881,2.125,1.14,1.7-1.961,1.961-1.49-1-2.724,1.13-.4,2.007H210.9l-.4-2.007-2.724-1.13-1.49,1-1.961-1.961,1.14-1.7-.881-2.125-2.007-.4V183.8l2.007-.4.881-2.125-1.14-1.7,1.961-1.961,1.49,1,2.724-1.13.4-2.007h2.353l.4,2.007,2.724,1.13,1.49-1,1.961,1.961-1.14,1.7.881,2.125,2.007.4Z" transform="translate(-171.613 -136.433)" fill="#909cd1" fill-rule="evenodd"/>
      <circle id="Elipse_11768" data-name="Elipse 11768" cx="5.134" cy="5.134" r="5.134" transform="translate(34.618 44.341) rotate(-4.759)" fill="#7986bf"/>
      <circle id="Elipse_11769" data-name="Elipse 11769" cx="5.114" cy="5.114" r="5.114" transform="translate(35.51 44.26) rotate(-3.555)" fill="#f3f3ff"/>
      <path id="Trazado_1010618" data-name="Trazado 1010618" d="M59.5,235.626a8.386,8.386,0,0,1,8.351,7.624h-16.7a8.386,8.386,0,0,1,8.351-7.624Z" transform="translate(-40.748 -188.408)" fill="#2a92fa" fill-rule="evenodd"/>
      <path id="Trazado_1010619" data-name="Trazado 1010619" d="M65.529,243.481H51.153a8.388,8.388,0,0,1,7.569-7.588A8.628,8.628,0,0,1,65.529,243.481Z" transform="translate(-40.748 -188.639)" fill="#4eb1fc" fill-rule="evenodd"/>
      <circle id="Elipse_11770" data-name="Elipse 11770" cx="3.994" cy="3.994" r="3.994" transform="translate(14.762 39.203)" fill="#fdb0a0"/>
      <path id="Trazado_1010620" data-name="Trazado 1010620" d="M86.426,185.032a3.995,3.995,0,0,1,0-7.824,3.995,3.995,0,0,1,0,7.824Z" transform="translate(-68.479 -137.923)" fill="#ffcec0" fill-rule="evenodd"/>
      <path id="Trazado_1010621" data-name="Trazado 1010621" d="M222.931,85.637a8.386,8.386,0,0,1,8.351,7.624h-16.7A8.386,8.386,0,0,1,222.931,85.637Z" transform="translate(-181.984 -58.786)" fill="#2dcffc" fill-rule="evenodd"/>
      <path id="Trazado_1010622" data-name="Trazado 1010622" d="M228.956,93.492H214.58a8.388,8.388,0,0,1,7.569-7.588A8.628,8.628,0,0,1,228.956,93.492Z" transform="translate(-181.984 -59.017)" fill="#66deff" fill-rule="evenodd"/>
      <circle id="Elipse_11771" data-name="Elipse 11771" cx="3.994" cy="3.994" r="3.994" transform="translate(35.749 25.019) rotate(-67.922)" fill="#fdb0a0"/>
      <path id="Trazado_1010623" data-name="Trazado 1010623" d="M249.854,35.043a3.995,3.995,0,1,1,3.185-3.912A4,4,0,0,1,249.854,35.043Z" transform="translate(-209.716 -8.3)" fill="#ffcec0" fill-rule="evenodd"/>
      <path id="Trazado_1010624" data-name="Trazado 1010624" d="M349.067,133.276a8.386,8.386,0,0,1,8.351,7.624h-16.7A8.386,8.386,0,0,1,349.067,133.276Z" transform="translate(-290.992 -99.956)" fill="#2dcffc" fill-rule="evenodd"/>
      <path id="Trazado_1010625" data-name="Trazado 1010625" d="M355.092,141.131H340.716a8.388,8.388,0,0,1,7.569-7.588,8.628,8.628,0,0,1,6.806,7.588Z" transform="translate(-290.992 -100.187)" fill="#66deff" fill-rule="evenodd"/>
      <circle id="Elipse_11772" data-name="Elipse 11772" cx="3.994" cy="3.994" r="3.994" transform="translate(52.42 29.304) rotate(-45)" fill="#fdb0a0"/>
      <path id="Trazado_1010626" data-name="Trazado 1010626" d="M375.989,82.682a3.995,3.995,0,1,1,3.185-3.912A4,4,0,0,1,375.989,82.682Z" transform="translate(-318.723 -49.471)" fill="#ffcec0" fill-rule="evenodd"/>
      <path id="Trazado_1010627" data-name="Trazado 1010627" d="M386.357,235.626a8.386,8.386,0,0,1,8.351,7.624h-16.7a8.386,8.386,0,0,1,8.351-7.624Z" transform="translate(-323.219 -188.408)" fill="#2a92fa" fill-rule="evenodd"/>
      <path id="Trazado_1010628" data-name="Trazado 1010628" d="M392.383,243.481H378.007a8.388,8.388,0,0,1,7.569-7.588A8.628,8.628,0,0,1,392.383,243.481Z" transform="translate(-323.22 -188.639)" fill="#4eb1fc" fill-rule="evenodd"/>
      <circle id="Elipse_11773" data-name="Elipse 11773" cx="3.994" cy="3.994" r="3.994" transform="translate(58.35 40.21) rotate(-13.119)" fill="#fdb0a0"/>
      <g id="Grupo_1168002" data-name="Grupo 1168002" transform="translate(4.002 17.885)">
        <path id="Trazado_1010629" data-name="Trazado 1010629" d="M413.28,185.032a3.995,3.995,0,1,1,3.185-3.912A4,4,0,0,1,413.28,185.032Z" transform="translate(-354.952 -155.807)" fill="#ffcec0" fill-rule="evenodd"/>
        <path id="Trazado_1010630" data-name="Trazado 1010630" d="M77.91,318.375a2.553,2.553,0,0,0-2.288-3.85c-16.546,0-16.575-13.454-32.052,6.45l8.19,8.586c3.648-3.679,7.984-3.849,12.768-3.563,2.609.156,5.723.533,8.579.47,3.991-.088,6.437-1.172,9.942-3.028,3.99-2.114,10.926-6.324,12.135-7.914,1.731-2.276-.5-4.42-3.145-2.9-3.106,1.793-11.33,5.716-15.567,6.9a2.986,2.986,0,0,0,1.437-1.153Z" transform="translate(-38.197 -270.637)" fill="#fdb0a0" fill-rule="evenodd"/>
        <path id="Trazado_1010631" data-name="Trazado 1010631" d="M77.91,318.375a2.553,2.553,0,0,0-2.288-3.85c-16.546,0-16.575-13.454-32.052,6.45l6.322,6.628c3.822-3.77,8.354-3.943,13.347-3.644,2.75.165,6.033.562,9.044.5,4.208-.093,6.786-1.235,10.481-3.192,4.165-2.206,11.373-6.579,12.753-8.292-.572-.878-1.958-1.216-3.478-.339-3.106,1.793-11.33,5.716-15.567,6.9a2.986,2.986,0,0,0,1.437-1.153Z" transform="translate(-38.197 -270.637)" fill="#ffcec0" fill-rule="evenodd"/>
        <path id="Trazado_1010632" data-name="Trazado 1010632" d="M203.367,348.258a2.558,2.558,0,0,0-1.08-3.6c.916,1,.3,2.428-1.135,2.951a10.012,10.012,0,0,1-3.032.454,20.076,20.076,0,0,1-7.926-1.359,1,1,0,0,0-.918,1.767,22.372,22.372,0,0,0,8.891,1.577,11.474,11.474,0,0,0,3.763-.637A2.986,2.986,0,0,0,203.367,348.258Z" transform="translate(-163.654 -300.52)" fill="#fdb0a0" fill-rule="evenodd"/>
        <path id="Trazado_1010633" data-name="Trazado 1010633" d="M11.178,371.333l3.792-3.792a1.92,1.92,0,0,1,2.707,0l9.015,9.015a1.92,1.92,0,0,1,0,2.707L22.9,383.055Z" transform="translate(-10.204 -319.813)" fill="#f2671f" fill-rule="evenodd"/>
        <path id="Trazado_1010634" data-name="Trazado 1010634" d="M11.178,371.333l3.792-3.792a1.92,1.92,0,0,1,2.706,0h0l7.1,7.1a1.92,1.92,0,0,1,0,2.707l-3.792,3.792Z" transform="translate(-10.204 -319.813)" fill="#ff8748" fill-rule="evenodd"/>
        <path id="Trazado_1010635" data-name="Trazado 1010635" d="M40.945,29.52a7.391,7.391,0,0,1,7.24,5.724H33.706A7.39,7.39,0,0,1,40.945,29.52Zm0-8.016A3.044,3.044,0,1,1,37.9,24.549,3.048,3.048,0,0,1,40.945,21.5ZM32.593,37.145H49.3a.952.952,0,0,0,.948-1.036,9.341,9.341,0,0,0-6-7.885,4.944,4.944,0,1,0-6.608,0,9.336,9.336,0,0,0-6,7.885.952.952,0,0,0,.948,1.036Zm8.352,17.76A4.155,4.155,0,1,1,45.1,50.751,4.16,4.16,0,0,1,40.945,54.905Zm0-10.211A6.056,6.056,0,1,0,47,50.751,6.063,6.063,0,0,0,40.945,44.695Zm9.005,5.18-1.234-.243a.952.952,0,0,1-.7-.568l-.879-2.12a.953.953,0,0,1,.088-.893l.7-1.047-1.238-1.239-1.047.7a.953.953,0,0,1-.893.088l-2.119-.879a.951.951,0,0,1-.569-.694l-.243-1.235H40.068l-.243,1.235a.953.953,0,0,1-.569.694l-2.12.879a.952.952,0,0,1-.893-.088l-1.047-.7L33.958,45l.7,1.047a.95.95,0,0,1,.088.893l-.88,2.12a.946.946,0,0,1-.694.568l-1.234.243v1.753l1.234.243a.946.946,0,0,1,.694.568l.88,2.119a.949.949,0,0,1-.088.893l-.7,1.047,1.239,1.24,1.047-.7a.951.951,0,0,1,.893-.088l2.12.879a.956.956,0,0,1,.569.694l.243,1.236h1.753l.243-1.236a.953.953,0,0,1,.569-.694l2.119-.879a.95.95,0,0,1,.893.088l1.047.7,1.238-1.24-.7-1.047a.953.953,0,0,1-.088-.893l.879-2.119a.952.952,0,0,1,.7-.568l1.234-.243Zm-.121-5.663-2.344-2.344a.951.951,0,0,0-1.2-.117L45.01,42.6l-1.179-.489-.3-1.5a.951.951,0,0,0-.933-.767H39.287a.951.951,0,0,0-.933.767l-.3,1.5-1.18.489-1.272-.853a.951.951,0,0,0-1.2.117l-2.344,2.344a.95.95,0,0,0-.118,1.2l.854,1.273-.489,1.179-1.5.3a.95.95,0,0,0-.766.933v3.316a.949.949,0,0,0,.766.932l1.5.3.489,1.179-.854,1.274a.948.948,0,0,0,.118,1.2L34.4,59.635a.952.952,0,0,0,1.2.117l1.272-.853,1.18.489.3,1.5a.95.95,0,0,0,.933.768H42.6a.95.95,0,0,0,.933-.768l.3-1.5L45.01,58.9l1.274.853a.952.952,0,0,0,1.2-.117l2.344-2.345a.945.945,0,0,0,.117-1.2l-.852-1.274.489-1.179,1.5-.3a.949.949,0,0,0,.766-.932V49.093a.951.951,0,0,0-.766-.933l-1.5-.3-.489-1.179.852-1.272A.947.947,0,0,0,49.829,44.211Zm10.423,19.7c-.978,1.287-7.274,5.241-11.832,7.656-3.225,1.708-5.63,2.833-9.527,2.92a59.85,59.85,0,0,1-6.019-.285c-.871-.069-1.693-.136-2.488-.183-3.054-.183-6.545-.248-9.714,1.18l-7.925-7.925c3.64-4.25,6.5-6.514,8.957-7.11,2.3-.556,4.275.261,7,1.392a30.536,30.536,0,0,0,12.726,2.879h.035A1.6,1.6,0,0,1,42.9,66.853c-.56.941-2.7,1.448-5.589,1.321a19.445,19.445,0,0,1-6.646-1.348.951.951,0,0,0-.877,1.687A21.944,21.944,0,0,0,38.168,70.1a11.829,11.829,0,0,0,4.382-.7c4.422-1.235,12.733-5.228,15.788-6.991,1-.576,1.809-.431,2.143-.052.319.364.235.944-.228,1.55ZM19.8,78.387a.967.967,0,0,0,0-1.364L10.784,68A.967.967,0,0,0,9.42,68L6.3,71.124,16.683,81.51ZM57.387,60.768c1.933-1.117,3.663-.636,4.519.338a3.043,3.043,0,0,1-.139,3.958c-1.412,1.855-8.933,6.317-12.458,8.184-3.358,1.78-6.068,3.045-10.374,3.142a61.87,61.87,0,0,1-6.214-.291c-.861-.069-1.674-.136-2.449-.183-3.395-.2-6.059-.119-8.442.855a2.861,2.861,0,0,1-.68,2.96l-3.794,3.794a.951.951,0,0,1-1.344,0L4.28,71.8a.952.952,0,0,1,0-1.344l3.8-3.8a2.87,2.87,0,0,1,3.2-.585c3.977-4.649,7.069-7.048,9.982-7.753s5.349.311,8.179,1.484a28.525,28.525,0,0,0,11.979,2.733,3.517,3.517,0,0,1,3.58,4.032,109.8,109.8,0,0,0,12.394-5.8ZM55.9,55.611a7.441,7.441,0,0,1,14.48,0Zm-5.064-13.9a7.445,7.445,0,0,1,13.98-1.45,4.937,4.937,0,0,0-5.438,1.45Zm7.241-13.739a3.044,3.044,0,1,1-3.045,3.043A3.047,3.047,0,0,1,58.073,27.974Zm8.108,16.942a3.044,3.044,0,1,1-3.045-3.044A3.048,3.048,0,0,1,66.181,44.916Zm6.254,11.561a.951.951,0,0,1-.946,1.037h-16.7a.953.953,0,0,1-.946-1.037,9.34,9.34,0,0,1,5.995-7.886,4.933,4.933,0,0,1-1.64-3.674,4.88,4.88,0,0,1,.175-1.3H49.72a.951.951,0,0,1-.946-1.036,9.338,9.338,0,0,1,6-7.886,4.945,4.945,0,1,1,6.609,0,9.333,9.333,0,0,1,5.964,7.626,4.933,4.933,0,0,1-.9,6.272,9.339,9.339,0,0,1,5.993,7.885ZM18.754,49.887a7.389,7.389,0,0,1,7.239,5.724H11.514A7.39,7.39,0,0,1,18.754,49.887Zm5.064-13.9a7.393,7.393,0,0,1,7.24,5.724H22.516a4.937,4.937,0,0,0-5.438-1.45A7.4,7.4,0,0,1,23.818,35.989Zm0-8.016a3.044,3.044,0,1,1-3.045,3.043A3.046,3.046,0,0,1,23.818,27.974Zm-5.064,13.9a3.044,3.044,0,1,1-3.044,3.044A3.047,3.047,0,0,1,18.754,41.871ZM10.4,57.513a.951.951,0,0,1-.946-1.037,9.339,9.339,0,0,1,5.993-7.885,4.933,4.933,0,0,1-.9-6.272,9.333,9.333,0,0,1,5.964-7.626,4.945,4.945,0,1,1,6.608,0,9.338,9.338,0,0,1,6,7.886.952.952,0,0,1-.946,1.036H23.522a4.88,4.88,0,0,1,.175,1.3,4.936,4.936,0,0,1-1.64,3.675,9.334,9.334,0,0,1,5.995,7.885.953.953,0,0,1-.946,1.037H10.4Z" transform="translate(-4.002 -19.604)" fill-rule="evenodd"/>
      </g>
    </g>
  </g>
</svg>
