<svg xmlns="http://www.w3.org/2000/svg" xmlns:xlink="http://www.w3.org/1999/xlink" width="1328" height="352" viewBox="0 0 1328 352">
  <defs>
    <clipPath id="clip-path">
      <rect id="Rectángulo_412304" data-name="Rectángulo 412304" width="86" height="67" transform="translate(-1478 -527)" fill="#ff9d1c" stroke="#707070" stroke-width="1"/>
    </clipPath>
    <clipPath id="clip-path-2">
      <rect id="Rectángulo_412303" data-name="Rectángulo 412303" width="201.162" height="192.717" fill="#ff9d1c"/>
    </clipPath>
    <clipPath id="clip-path-3">
      <rect id="Rectángulo_412306" data-name="Rectángulo 412306" width="125" height="83" transform="translate(-2291 1840)" fill="#ff9d1c" stroke="#707070" stroke-width="1"/>
    </clipPath>
    <clipPath id="clip-path-4">
      <rect id="Rectángulo_412305" data-name="Rectángulo 412305" width="368.284" height="368.284" fill="#ff9d1c"/>
    </clipPath>
    <clipPath id="clip-path-7">
      <rect id="Rectángulo_412309" data-name="Rectángulo 412309" width="70" height="42" transform="translate(680 829)" fill="#ff9d1c" stroke="#707070" stroke-width="1"/>
    </clipPath>
    <clipPath id="clip-path-8">
      <rect id="Rectángulo_412310" data-name="Rectángulo 412310" width="95" height="73" transform="translate(145 1108)" fill="#ff9d1c" stroke="#707070" stroke-width="1"/>
    </clipPath>
  </defs>
  <g id="Grupo_1165345" data-name="Grupo 1165345" transform="translate(-136 -404)">
    <g id="Grupo_1158623" data-name="Grupo 1158623" transform="translate(0 -425)">
      <rect id="Fondo" width="1328" height="352" transform="translate(136 829)" fill="#fff4e6"/>
    </g>
    <g id="Grupo_1164294" data-name="Grupo 1164294" opacity="0.29">
      <g id="Enmascarar_grupo_1098755" data-name="Enmascarar grupo 1098755" transform="translate(1614 931)" clip-path="url(#clip-path)">
        <g id="POST_4" transform="translate(-1477.802 -526.993)">
          <g id="Grupo_1164289" data-name="Grupo 1164289" transform="translate(0)">
            <g id="Grupo_1164288" data-name="Grupo 1164288" clip-path="url(#clip-path-2)">
              <path id="Trazado_999001" data-name="Trazado 999001" d="M-41.793,579.279l3.106-11.872a.575.575,0,0,1,.6-.428,46.315,46.315,0,0,0,19.173-2.639.574.574,0,0,1,.69.25l6.2,10.589a3.6,3.6,0,0,0,2.21,1.674,3.6,3.6,0,0,0,2.745-.378L.7,571.925A3.629,3.629,0,0,0,2,566.969l-6.2-10.588a.569.569,0,0,1,.12-.724A46.339,46.339,0,0,0,7.6,540.229a.574.574,0,0,1,.665-.311l11.874,3.106a3.626,3.626,0,0,0,4.421-2.587l2.279-8.712a3.621,3.621,0,0,0-2.589-4.421L12.383,524.2a.584.584,0,0,1-.428-.6,46.119,46.119,0,0,0-2.638-19.173.571.571,0,0,1,.25-.69l10.588-6.2a3.627,3.627,0,0,0,1.3-4.956l-4.55-7.771a3.622,3.622,0,0,0-4.956-1.3l-10.588,6.2a.574.574,0,0,1-.724-.12,46.32,46.32,0,0,0-15.427-11.687.577.577,0,0,1-.311-.665L-12,465.37a3.6,3.6,0,0,0-.378-2.747,3.591,3.591,0,0,0-2.208-1.673l-8.713-2.28a3.628,3.628,0,0,0-4.421,2.589l-3.106,11.872a.575.575,0,0,1-.6.428A46.288,46.288,0,0,0-50.6,476.2a.573.573,0,0,1-.69-.25l-6.2-10.59a3.626,3.626,0,0,0-4.956-1.3l-7.773,4.55a3.6,3.6,0,0,0-1.675,2.209,3.6,3.6,0,0,0,.378,2.747l6.2,10.589a.57.57,0,0,1,.078.313.569.569,0,0,1-.2.411,46.315,46.315,0,0,0-11.688,15.427.574.574,0,0,1-.665.311l-11.873-3.105a3.6,3.6,0,0,0-2.747.378,3.594,3.594,0,0,0-1.675,2.209l-2.28,8.712a3.622,3.622,0,0,0,.378,2.747,3.6,3.6,0,0,0,2.209,1.675l11.874,3.105a.579.579,0,0,1,.428.6,46.085,46.085,0,0,0,2.638,19.174.571.571,0,0,1-.25.69l-10.59,6.2a3.628,3.628,0,0,0-1.3,4.956l4.55,7.771a3.6,3.6,0,0,0,2.209,1.675,3.6,3.6,0,0,0,2.747-.378l10.589-6.2a.573.573,0,0,1,.724.12,46.3,46.3,0,0,0,15.427,11.686.574.574,0,0,1,.311.665l-3.106,11.874a3.628,3.628,0,0,0,2.589,4.421l8.711,2.279a3.6,3.6,0,0,0,2.747-.378A3.6,3.6,0,0,0-41.793,579.279Zm1.8-34.635A24.973,24.973,0,0,1-59.67,519.273a25,25,0,0,1,.537-4.239,24.962,24.962,0,0,1,29.61-19.142A24.969,24.969,0,0,1-10.381,525.5a24.769,24.769,0,0,1-10.841,15.7A24.776,24.776,0,0,1-39.991,544.644Z" transform="translate(57.551 -515.868)" fill="#ff9d1c"/>
            </g>
          </g>
        </g>
      </g>
      <g id="Enmascarar_grupo_1098756" data-name="Enmascarar grupo 1098756" transform="translate(3509 -1436)" clip-path="url(#clip-path-3)">
        <g id="POST_1" transform="translate(-2311.451 2208.201) rotate(-90)">
          <g id="Grupo_1164291" data-name="Grupo 1164291" transform="translate(0 0)">
            <g id="Grupo_1164290" data-name="Grupo 1164290" clip-path="url(#clip-path-4)">
              <path id="Trazado_999002" data-name="Trazado 999002" d="M53.25,117.569l3.024-11.562a.56.56,0,0,1,.581-.417,45.1,45.1,0,0,0,18.672-2.57.559.559,0,0,1,.673.244l6.036,10.312a3.527,3.527,0,0,0,4.826,1.262l7.569-4.431a3.533,3.533,0,0,0,1.261-4.826L89.856,95.271a.554.554,0,0,1,.117-.7,45.124,45.124,0,0,0,11.381-15.024.559.559,0,0,1,.647-.3l11.563,3.024a3.531,3.531,0,0,0,4.305-2.52l2.219-8.484a3.527,3.527,0,0,0-2.521-4.305l-11.561-3.024a.569.569,0,0,1-.417-.581,44.908,44.908,0,0,0-2.569-18.672.555.555,0,0,1,.244-.672l10.311-6.035a3.532,3.532,0,0,0,1.262-4.827l-4.431-7.568a3.527,3.527,0,0,0-4.826-1.262L95.27,30.348a.559.559,0,0,1-.7-.117A45.114,45.114,0,0,0,79.542,18.849a.562.562,0,0,1-.3-.647L82.263,6.64a3.526,3.526,0,0,0-2.519-4.3L71.259.115a3.533,3.533,0,0,0-4.305,2.521L63.929,14.2a.56.56,0,0,1-.581.417,45.08,45.08,0,0,0-18.672,2.569A.559.559,0,0,1,44,16.94L37.969,6.627a3.531,3.531,0,0,0-4.826-1.262L25.574,9.8a3.527,3.527,0,0,0-1.262,4.826l6.036,10.312a.558.558,0,0,1-.117.7A45.107,45.107,0,0,0,18.849,40.662a.559.559,0,0,1-.647.3L6.64,37.941a3.528,3.528,0,0,0-4.305,2.52L.114,48.945a3.528,3.528,0,0,0,2.52,4.305L14.2,56.274a.564.564,0,0,1,.417.581,44.885,44.885,0,0,0,2.569,18.672.556.556,0,0,1-.244.672L6.627,82.236a3.533,3.533,0,0,0-1.262,4.826L9.8,94.63a3.527,3.527,0,0,0,4.826,1.262l10.312-6.035c.232-.136-3.227-2.757.7.117s9.235,8.662,15.023,11.381a.56.56,0,0,1,.3.647L37.94,113.565a3.533,3.533,0,0,0,2.521,4.305l8.483,2.219a3.529,3.529,0,0,0,4.306-2.52ZM55,83.84a24.281,24.281,0,1,1,18.278-3.349A24.32,24.32,0,0,1,55,83.84Z" transform="translate(286.823 23.109)" fill="#ff9d1c"/>
            </g>
          </g>
        </g>
      </g>
      <g id="Enmascarar_grupo_1098757" data-name="Enmascarar grupo 1098757" transform="translate(-14 229) rotate(180)" clip-path="url(#clip-path)">
        <g id="POST_4-2" data-name="POST_4" transform="translate(-1477.802 -526.993)">
          <g id="Grupo_1164293" data-name="Grupo 1164293" transform="translate(0)">
            <g id="Grupo_1164292" data-name="Grupo 1164292" clip-path="url(#clip-path-2)">
              <path id="Trazado_999003" data-name="Trazado 999003" d="M-41.793,579.279l3.106-11.872a.575.575,0,0,1,.6-.428,46.315,46.315,0,0,0,19.173-2.639.574.574,0,0,1,.69.25l6.2,10.589a3.6,3.6,0,0,0,2.21,1.674,3.6,3.6,0,0,0,2.745-.378L.7,571.925A3.629,3.629,0,0,0,2,566.969l-6.2-10.588a.569.569,0,0,1,.12-.724A46.339,46.339,0,0,0,7.6,540.229a.574.574,0,0,1,.665-.311l11.874,3.106a3.626,3.626,0,0,0,4.421-2.587l2.279-8.712a3.621,3.621,0,0,0-2.589-4.421L12.383,524.2a.584.584,0,0,1-.428-.6,46.119,46.119,0,0,0-2.638-19.173.571.571,0,0,1,.25-.69l10.588-6.2a3.627,3.627,0,0,0,1.3-4.956l-4.55-7.771a3.622,3.622,0,0,0-4.956-1.3l-10.588,6.2a.574.574,0,0,1-.724-.12,46.32,46.32,0,0,0-15.427-11.687.577.577,0,0,1-.311-.665L-12,465.37a3.6,3.6,0,0,0-.378-2.747,3.591,3.591,0,0,0-2.208-1.673l-8.713-2.28a3.628,3.628,0,0,0-4.421,2.589l-3.106,11.872a.575.575,0,0,1-.6.428A46.288,46.288,0,0,0-50.6,476.2a.573.573,0,0,1-.69-.25l-6.2-10.59a3.626,3.626,0,0,0-4.956-1.3l-7.773,4.55a3.6,3.6,0,0,0-1.675,2.209,3.6,3.6,0,0,0,.378,2.747l6.2,10.589a.57.57,0,0,1,.078.313.569.569,0,0,1-.2.411,46.315,46.315,0,0,0-11.688,15.427.574.574,0,0,1-.665.311l-11.873-3.105a3.6,3.6,0,0,0-2.747.378,3.594,3.594,0,0,0-1.675,2.209l-2.28,8.712a3.622,3.622,0,0,0,.378,2.747,3.6,3.6,0,0,0,2.209,1.675l11.874,3.105a.579.579,0,0,1,.428.6,46.085,46.085,0,0,0,2.638,19.174.571.571,0,0,1-.25.69l-10.59,6.2a3.628,3.628,0,0,0-1.3,4.956l4.55,7.771a3.6,3.6,0,0,0,2.209,1.675,3.6,3.6,0,0,0,2.747-.378l10.589-6.2a.573.573,0,0,1,.724.12,46.3,46.3,0,0,0,15.427,11.686.574.574,0,0,1,.311.665l-3.106,11.874a3.628,3.628,0,0,0,2.589,4.421l8.711,2.279a3.6,3.6,0,0,0,2.747-.378A3.6,3.6,0,0,0-41.793,579.279Zm1.8-34.635A24.973,24.973,0,0,1-59.67,519.273a25,25,0,0,1,.537-4.239,24.962,24.962,0,0,1,29.61-19.142A24.969,24.969,0,0,1-10.381,525.5a24.769,24.769,0,0,1-10.841,15.7A24.776,24.776,0,0,1-39.991,544.644Z" transform="translate(57.551 -515.868)" fill="#ff9d1c"/>
            </g>
          </g>
        </g>
      </g>
      <g id="Enmascarar_grupo_1098758" data-name="Enmascarar grupo 1098758" transform="translate(-19 -425)" clip-path="url(#clip-path-7)">
        <path id="Trazado_999004" data-name="Trazado 999004" d="M-64.487,907.734l1.642-6.278a.3.3,0,0,1,.316-.226,24.5,24.5,0,0,0,10.139-1.4.3.3,0,0,1,.365.132l3.278,5.6a1.906,1.906,0,0,0,1.169.886,1.9,1.9,0,0,0,1.452-.2l4.11-2.406a1.919,1.919,0,0,0,.685-2.621l-3.277-5.6a.3.3,0,0,1,.064-.382,24.505,24.505,0,0,0,6.18-8.159.3.3,0,0,1,.352-.165l6.279,1.642a1.918,1.918,0,0,0,2.338-1.368l1.2-4.607a1.915,1.915,0,0,0-1.369-2.338l-6.278-1.642a.309.309,0,0,1-.226-.315,24.388,24.388,0,0,0-1.395-10.139.3.3,0,0,1,.132-.365l5.6-3.277a1.918,1.918,0,0,0,.685-2.621l-2.406-4.11a1.9,1.9,0,0,0-1.168-.885,1.906,1.906,0,0,0-1.452.2l-5.6,3.278a.3.3,0,0,1-.383-.064,24.5,24.5,0,0,0-8.158-6.181.305.305,0,0,1-.164-.351l1.642-6.279a1.9,1.9,0,0,0-.2-1.453,1.9,1.9,0,0,0-1.168-.885l-4.608-1.206a1.918,1.918,0,0,0-2.338,1.369l-1.642,6.278a.3.3,0,0,1-.315.226,24.477,24.477,0,0,0-10.139,1.395.3.3,0,0,1-.365-.132l-3.278-5.6a1.918,1.918,0,0,0-2.621-.686l-4.11,2.406a1.9,1.9,0,0,0-.886,1.168,1.9,1.9,0,0,0,.2,1.452l3.278,5.6a.3.3,0,0,1,.041.166.3.3,0,0,1-.1.217,24.491,24.491,0,0,0-6.181,8.158.3.3,0,0,1-.352.164l-6.278-1.642a1.9,1.9,0,0,0-1.452.2,1.9,1.9,0,0,0-.886,1.168l-1.206,4.607a1.915,1.915,0,0,0,.2,1.452,1.9,1.9,0,0,0,1.168.886l6.279,1.642a.306.306,0,0,1,.226.315,24.371,24.371,0,0,0,1.395,10.14.3.3,0,0,1-.132.365l-5.6,3.278a1.919,1.919,0,0,0-.685,2.621l2.406,4.11a1.9,1.9,0,0,0,1.168.885,1.906,1.906,0,0,0,1.452-.2l5.6-3.277a.3.3,0,0,1,.383.064,24.48,24.48,0,0,0,8.158,6.18.3.3,0,0,1,.164.352L-72.8,905.56a1.919,1.919,0,0,0,1.369,2.338l4.607,1.2a1.9,1.9,0,0,0,1.452-.2A1.9,1.9,0,0,0-64.487,907.734Zm.953-18.314A13.206,13.206,0,0,1-73.941,876a13.217,13.217,0,0,1,.284-2.242A13.2,13.2,0,0,1-58,863.638,13.2,13.2,0,0,1-47.876,879.3a13.1,13.1,0,0,1-5.733,8.3A13.1,13.1,0,0,1-63.534,889.419Z" transform="translate(778.403 -37.922)" fill="#ff9d1c"/>
      </g>
      <g id="Enmascarar_grupo_1098759" data-name="Enmascarar grupo 1098759" transform="translate(0 -425)" clip-path="url(#clip-path-8)">
        <path id="Trazado_999005" data-name="Trazado 999005" d="M-51.211,937.045l2.4-9.161a.444.444,0,0,1,.46-.33,35.737,35.737,0,0,0,14.794-2.036.443.443,0,0,1,.533.193l4.783,8.171a2.78,2.78,0,0,0,1.705,1.292,2.778,2.778,0,0,0,2.118-.292l6-3.511a2.8,2.8,0,0,0,1-3.824l-4.782-8.17a.439.439,0,0,1,.093-.558,35.756,35.756,0,0,0,9.018-11.9.443.443,0,0,1,.513-.24l9.162,2.4a2.8,2.8,0,0,0,3.411-2l1.758-6.723a2.794,2.794,0,0,0-2-3.411l-9.16-2.4a.45.45,0,0,1-.33-.46,35.585,35.585,0,0,0-2.035-14.794.441.441,0,0,1,.193-.533l8.17-4.782a2.8,2.8,0,0,0,1-3.824l-3.511-6a2.773,2.773,0,0,0-1.7-1.292,2.781,2.781,0,0,0-2.119.292l-8.17,4.783a.443.443,0,0,1-.559-.093,35.742,35.742,0,0,0-11.9-9.018.445.445,0,0,1-.24-.513l2.4-9.161a2.775,2.775,0,0,0-.292-2.12,2.772,2.772,0,0,0-1.7-1.291l-6.723-1.759a2.8,2.8,0,0,0-3.411,2l-2.4,9.161a.444.444,0,0,1-.46.331A35.714,35.714,0,0,0-58,857.506a.443.443,0,0,1-.533-.193l-4.783-8.17a2.8,2.8,0,0,0-3.824-1l-6,3.511a2.778,2.778,0,0,0-1.292,1.7,2.778,2.778,0,0,0,.292,2.119l4.783,8.171a.44.44,0,0,1,.061.242.439.439,0,0,1-.153.317,35.737,35.737,0,0,0-9.018,11.9.443.443,0,0,1-.513.24l-9.161-2.4a2.776,2.776,0,0,0-2.119.292,2.773,2.773,0,0,0-1.292,1.7l-1.759,6.722a2.794,2.794,0,0,0,.292,2.119,2.779,2.779,0,0,0,1.7,1.292l9.162,2.4a.447.447,0,0,1,.33.46,35.56,35.56,0,0,0,2.035,14.795.441.441,0,0,1-.193.533l-8.171,4.783a2.8,2.8,0,0,0-1,3.824l3.511,6a2.778,2.778,0,0,0,1.7,1.292,2.78,2.78,0,0,0,2.119-.292l8.171-4.782a.443.443,0,0,1,.559.093,35.722,35.722,0,0,0,11.9,9.017.443.443,0,0,1,.24.513l-2.4,9.162a2.8,2.8,0,0,0,2,3.411l6.722,1.758a2.776,2.776,0,0,0,2.119-.292A2.773,2.773,0,0,0-51.211,937.045Zm1.39-26.723a19.269,19.269,0,0,1-15.185-19.576,19.288,19.288,0,0,1,.415-3.271A19.261,19.261,0,0,1-41.744,872.7a19.267,19.267,0,0,1,14.77,22.848,19.111,19.111,0,0,1-8.365,12.117A19.12,19.12,0,0,1-49.821,910.322Z" transform="translate(238.403 274.193)" fill="#ff9d1c"/>
      </g>
    </g>
  </g>
</svg>
